<?xml version="1.0" encoding="UTF-8" standalone="no"?>
<svg width="20px" height="20px" viewBox="0 0 20 20" version="1.1" xmlns="http://www.w3.org/2000/svg" xmlns:xlink="http://www.w3.org/1999/xlink" xmlns:sketch="http://www.bohemiancoding.com/sketch/ns">
    <!-- Generator: Sketch 3.3.2 (12043) - http://www.bohemiancoding.com/sketch -->
    <title>coffee</title>
    <desc>Created with Sketch.</desc>
    <defs></defs>
    <g id="Icons" stroke="none" stroke-width="1" fill="none" fill-rule="evenodd" sketch:type="MSPage">
        <g id="coffee" sketch:type="MSArtboardGroup" stroke="#636363" stroke-width="1.2" stroke-linecap="round" stroke-linejoin="round">
            <g id="Shape-Copy-3-+-Shape-Copy-+-Shape-Copy-2" sketch:type="MSLayerGroup" transform="translate(3.000000, 2.000000)">
                <path d="M12.6037807,8.62214275 C12.6097291,8.49740428 12.6127416,8.37178293 12.6127416,8.24536558 C12.6127416,7.85295551 12.5837147,7.46821866 12.5279607,7.09379621 L0.528774522,7.09379621 C0.473020577,7.46821996 0.443993599,7.8529581 0.443993599,8.24536558 C0.443993599,12.046769 3.16806343,15.128426 6.52836762,15.128426 C8.81908529,15.128426 10.8141303,13.6963485 11.8520972,11.5804187 C12.10668,12.0359712 12.5260612,12.3825523 13.0515814,12.5135792 C14.1116394,12.7778813 15.2021377,12.065025 15.4872842,10.9213651 C15.7724294,9.77771022 15.1442435,8.63633243 14.0841855,8.37203029 C13.5653437,8.2426685 13.0392096,8.34739285 12.6037807,8.62214275 Z" id="Shape-Copy-3" sketch:type="MSShapeGroup"></path>
                <path d="M5.04368088,5.13991069 C5.04368088,5.13991069 4.53447488,4.40612663 5.36050264,3.32368982 C6.18652935,2.241253 6.13181635,1.65338679 5.01288928,0.871573992" id="Shape-Copy" sketch:type="MSShapeGroup"></path>
                <path d="M8.59923644,5.13991069 C8.59923644,5.13991069 8.09003044,4.40612663 8.9160582,3.32368982 C9.74208491,2.241253 9.68737191,1.65338679 8.56844483,0.871573992" id="Shape-Copy-2" sketch:type="MSShapeGroup"></path>
            </g>
        </g>
    </g>
</svg>