<?xml version="1.0" encoding="UTF-8" standalone="no"?>
<svg width="20px" height="20px" viewBox="0 0 20 20" version="1.1" xmlns="http://www.w3.org/2000/svg" xmlns:xlink="http://www.w3.org/1999/xlink" xmlns:sketch="http://www.bohemiancoding.com/sketch/ns">
    <!-- Generator: Sketch 3.3.2 (12043) - http://www.bohemiancoding.com/sketch -->
    <title>pin</title>
    <desc>Created with Sketch.</desc>
    <defs></defs>
    <g id="Icons" stroke="none" stroke-width="1" fill="none" fill-rule="evenodd" sketch:type="MSPage">
        <g id="pin" sketch:type="MSArtboardGroup" fill="#636363">
            <path d="M10,4.84375 C10.5598986,4.84375 11.0384095,5.04231572 11.4355469,5.43945312 C11.8326843,5.83659053 12.03125,6.31510137 12.03125,6.875 C12.03125,7.43489863 11.8326843,7.91340947 11.4355469,8.31054688 C11.0384095,8.70768428 10.5598986,8.90625 10,8.90625 C9.44010137,8.90625 8.96159053,8.70768428 8.56445312,8.31054688 C8.16731572,7.91340947 7.96875,7.43489863 7.96875,6.875 C7.96875,6.31510137 8.16731572,5.83659053 8.56445312,5.43945312 C8.96159053,5.04231572 9.44010137,4.84375 10,4.84375 L10,4.84375 Z M12.4853516,1.6015625 C13.2763711,1.94010586 13.9583305,2.39745806 14.53125,2.97363281 C15.1041695,3.54980757 15.5598941,4.23339448 15.8984375,5.02441406 C16.2369809,5.81543364 16.40625,6.64713105 16.40625,7.51953125 C16.40625,8.19661797 16.3281258,8.85416348 16.171875,9.4921875 C16.0156242,10.1302115 15.7812516,10.7486949 15.46875,11.3476562 C15.1562484,11.9466176 14.8535171,12.4690733 14.5605469,12.9150391 C14.2675767,13.3610048 13.8964866,13.8769502 13.4472656,14.4628906 L10.6152344,18.1152344 L10,18.90625 L9.38476562,18.1152344 C8.03059219,16.3769444 7.08659121,15.1595087 6.55273438,14.4628906 C6.10351338,13.8769502 5.73242334,13.3610048 5.43945312,12.9150391 C5.14648291,12.4690733 4.84375156,11.9466176 4.53125,11.3476562 C4.21874844,10.7486949 3.98437578,10.1302115 3.828125,9.4921875 C3.67187422,8.85416348 3.59375,8.19661797 3.59375,7.51953125 C3.59375,6.64713105 3.76301914,5.81543364 4.1015625,5.02441406 C4.44010586,4.23339448 4.89583047,3.54980757 5.46875,2.97363281 C6.04166953,2.39745806 6.72362886,1.94010586 7.51464844,1.6015625 C8.30566802,1.26301914 9.13411025,1.09375 10,1.09375 C10.8658897,1.09375 11.694332,1.26301914 12.4853516,1.6015625 Z M14.2529297,10.3759766 C14.6793641,9.4677689 14.8925781,8.50911963 14.8925781,7.5 C14.8925781,6.61457891 14.6744813,5.79427461 14.2382812,5.0390625 C13.8020812,4.28385039 13.2080116,3.68652563 12.4560547,3.24707031 C11.7040978,2.80761499 10.8854211,2.58789062 10,2.58789062 C9.11457891,2.58789062 8.2959022,2.80761499 7.54394531,3.24707031 C6.79198843,3.68652563 6.19791885,4.28385039 5.76171875,5.0390625 C5.32551865,5.79427461 5.10742188,6.61457891 5.10742188,7.5 C5.10742188,8.50911963 5.32063589,9.4677689 5.74707031,10.3759766 C6.17350474,11.2841842 6.84895371,12.3404888 7.7734375,13.5449219 C8.17708535,14.0787787 8.91926543,15.0423107 10,16.4355469 C11.0807346,15.0423107 11.8229146,14.0787787 12.2265625,13.5449219 C13.1510463,12.3404888 13.8264953,11.2841842 14.2529297,10.3759766 Z" id="location" sketch:type="MSShapeGroup"></path>
        </g>
    </g>
</svg>