<?xml version="1.0" encoding="UTF-8" standalone="no"?>
<svg width="20px" height="20px" viewBox="0 0 20 20" version="1.1" xmlns="http://www.w3.org/2000/svg" xmlns:xlink="http://www.w3.org/1999/xlink" xmlns:sketch="http://www.bohemiancoding.com/sketch/ns">
    <!-- Generator: Sketch 3.3.2 (12043) - http://www.bohemiancoding.com/sketch -->
    <title>twitter</title>
    <desc>Created with Sketch.</desc>
    <defs></defs>
    <g id="Icons" stroke="none" stroke-width="1" fill="none" fill-rule="evenodd" sketch:type="MSPage">
        <g id="twitter" sketch:type="MSArtboardGroup" fill="#2AA9E0">
            <path d="M18.4654428,4.76538191 C17.8425539,5.04083679 17.1730211,5.22692091 16.4704727,5.31063786 C17.1875822,4.88209474 17.7384288,4.20350008 17.9977257,3.39485763 C17.3265,3.79175212 16.5831479,4.07986586 15.7918825,4.23514772 C15.158327,3.56212224 14.2555709,3.14168147 13.2564778,3.14168147 C11.3382057,3.14168147 9.78284725,4.69204458 9.78284725,6.6043656 C9.78284725,6.8757698 9.81357658,7.14008533 9.87283479,7.39351441 C6.98594414,7.24911998 4.42649835,5.87049336 2.71325922,3.77546478 C2.41425933,4.28687946 2.24291824,4.88167354 2.24291824,5.51630123 C2.24291824,6.71770385 2.85615633,7.77758176 3.78820235,8.39853695 C3.21881633,8.38056182 2.68320711,8.22477413 2.21489776,7.9654383 C2.21450289,7.97986859 2.21450289,7.99438351 2.21450289,8.00898406 C2.21450289,9.6866955 3.41185789,11.086166 5.00090819,11.4044925 C4.70944255,11.4836519 4.40256979,11.5259321 4.08579154,11.5259321 C3.86196537,11.5259321 3.64440393,11.5041592 3.43225921,11.4638198 C3.87432503,12.839492 5.15709588,13.8406331 6.67715327,13.868482 C5.48834933,14.7972995 3.99064099,15.3509107 2.36315632,15.3509107 C2.08277981,15.3509107 1.80629876,15.3344541 1.53455723,15.3024689 C3.07179966,16.2850444 4.89762909,16.8583185 6.85924488,16.8583185 C13.2483788,16.8583185 16.7423268,11.5818848 16.7423268,7.00581759 C16.7423268,6.85568471 16.7389407,6.70639522 16.7322535,6.55778183 C17.4108437,6.06965853 17.9997011,5.45984172 18.4653865,4.76538191 L18.4654428,4.76538191 Z" id="path5" sketch:type="MSShapeGroup"></path>
        </g>
    </g>
</svg>