<?xml version="1.0" encoding="UTF-8" standalone="no"?>
<svg width="285px" height="124px" viewBox="0 0 285 124" version="1.1" xmlns="http://www.w3.org/2000/svg" xmlns:xlink="http://www.w3.org/1999/xlink" xmlns:sketch="http://www.bohemiancoding.com/sketch/ns">
    <!-- Generator: Sketch 3.3.2 (12043) - http://www.bohemiancoding.com/sketch -->
    <title>HorizontalLogo</title>
    <desc>Created with Sketch.</desc>
    <defs></defs>
    <g id="Page-1" stroke="none" stroke-width="1" fill="none" fill-rule="evenodd" sketch:type="MSPage">
        <g id="HorizontalLogo" sketch:type="MSArtboardGroup">
            <path d="M153.96,58.355 C152.724,59.913 147.9,61.614 144.047,59.827 C143.361,58.404 143.977,53.606 143.771,44.456 C143.977,35.85 144.01,31.475 144.233,30.829 C145.976,30.689 148.656,30.486 151.757,31.473 C155.429,32.707 155.177,37.731 155.954,40.807 C156.41,43.927 156.41,46.791 156.507,48.721 C156.71,55.561 155.496,56.638 153.96,58.355 L153.96,58.355 Z M163.09,25.921 C160.905,21.723 153.545,19.52 150.174,18.972 C146.8,18.419 139.161,18.694 131.524,19.039 C125.462,18.762 126.844,21.336 126.66,26.649 C126.11,29.315 128.313,29.59 128.313,29.59 L133.172,29.954 L132.717,50.142 L131.795,86.937 C131.795,86.937 131.887,90.425 131.429,90.699 C128.909,90.563 128.589,90.696 128.221,92.484 C127.649,95.236 128.492,100.107 128.492,100.107 C128.771,101.389 129.866,101.303 129.866,101.303 C129.866,101.303 139.001,101.664 143.407,101.664 C146.847,101.664 146.391,99.783 146.391,99.783 C146.391,97.306 146.61,96.847 146.294,93.272 C146.115,91.478 145.562,90.883 143.087,90.792 C143.087,90.792 143.131,87.352 143.177,82.993 C143.23,77.746 143.465,71.74 143.465,71.74 C143.465,71.74 145.654,71.487 147.855,71.5 C151.319,71.521 156.399,71.74 160.039,69.597 C164.157,67.174 164.884,62.627 165.748,57.943 C166.304,54.642 166.989,46.748 166.713,42.711 C166.669,38.078 165.266,30.113 163.09,25.921 L163.09,25.921 Z" id="Fill-1" fill="#1A1918" sketch:type="MSShapeGroup"></path>
            <path d="M191.173,73.174 C191.316,73.989 192.045,79.734 192.188,80.663 C192.462,83.492 192.44,84.822 192.092,86.874 C192.063,86.974 191.828,87.922 190.864,88.556 C189.484,89.326 189.419,89.326 187.601,89.669 C183.864,89.601 182.889,89.152 181.089,86.911 C179.436,83.749 179.632,79.816 179.721,76.271 C180.159,72.998 180.03,67.677 184.075,67.426 C189.135,66.936 189.726,68.77 190.186,69.524 C190.644,70.284 191.129,72.441 191.173,73.174 L191.173,73.174 Z M181.88,57.437 C183.095,57.467 184.013,56.977 184.013,54.294 C183.923,51.898 185.238,50.239 187.69,51.055 C188.305,51.199 190.23,52.192 190.26,55.492 C190.298,59.944 190.199,60.308 190.199,60.308 C190.199,60.308 186.17,59.697 179.632,61.572 C175.312,63.202 170.964,65.353 170.396,72.295 C169.864,80.276 170.52,85.394 172.504,89.481 C174.493,93.572 178.349,99.765 185.82,99.178 C189.56,98.711 193.527,96.61 193.527,96.96 C193.527,97.306 193.764,99.063 193.764,99.409 C193.836,99.925 193.706,100.431 196.564,100.345 C199.44,100.345 204.036,100.102 204.405,100.064 C205.12,100.015 205.354,99.765 205.372,96.757 C205.077,93.277 205.679,92.126 200.63,92.321 C200.763,88.378 200.183,71.965 200.183,71.965 C200.183,71.965 198.787,53.859 197.5,50.239 C197.5,50.239 195.98,44.02 188.918,42.88 C185.878,42.299 182.666,41.362 178.23,44.985 C175.623,47.845 173.953,52.831 173.953,55.632 C173.953,55.632 173.799,56.367 175.469,56.654 L181.88,57.437 L181.88,57.437 Z" id="Fill-2" fill="#1A1918" sketch:type="MSShapeGroup"></path>
            <path d="M226.014,61.729 C225.9,62.545 226.375,62.779 228.047,62.859 C233.444,62.896 235.058,63.569 234.974,61.099 C235.185,58.756 235.225,56.059 234.892,53.757 C234.553,51.454 233.383,46.583 230.705,45.175 C228.589,44.046 226.519,43.499 221.833,44.55 C219.949,45.05 216.326,46.094 214.175,49.466 C212.015,52.838 210.451,55.854 209.99,63.047 C209.446,69.871 209.402,76.311 209.402,76.311 C209.402,76.311 209.277,89.055 211.267,92.321 C212.479,94.525 215.473,101.171 224.301,101.007 C231.119,101.055 232.879,99.755 235.185,97.747 C236.144,96.893 237.442,95.522 237.734,93.056 C237.838,90.578 237.488,89.685 235.55,88.044 C235.139,87.739 234.117,86.442 229.32,86.312 C228.697,86.272 226.908,86.177 225.74,88.353 C225.688,88.509 225.407,88.697 225.475,90.502 C225.516,91.547 225.233,93.128 223.818,93.107 C222.063,93.146 221.006,91.378 220.662,90.08 C220.158,88.213 218.813,82.839 218.442,77.321 C218.358,70.121 218.65,64.427 218.9,63.464 C219.152,61.038 220.174,56.997 220.616,56.059 C220.855,55.555 221.676,54.238 222.668,54.197 C223.762,54.147 224.567,55.304 225.117,56.184 C225.651,57.258 225.936,58.295 225.995,59.428 C226.058,60.54 226.014,61.729 226.014,61.729" id="Fill-3" fill="#1A1918" sketch:type="MSShapeGroup"></path>
            <path d="M247.355,42.686 L247.236,33.8 C247.236,33.8 247.355,30.675 249.918,30.755 C252.04,30.632 252.92,30.675 254.124,30.872 C255.325,31.076 256.804,31.599 257.124,34.641 C257.484,37.363 257.124,42.325 257.168,43.768 C258.77,44.009 259.617,44.182 262.069,44.422 C262.069,44.422 268.205,44.715 269.1,45.29 C269.993,45.865 270.042,46.674 270.153,47.387 C270.419,49.069 270.63,51.498 269.593,52.325 C268.712,52.939 261.972,53.42 257.802,53.339 C257.688,56.701 256.858,71.892 256.858,71.892 C256.553,80.832 256.91,85.185 257.181,86.521 C257.447,87.855 258.194,90.932 260.864,90.448 C262.318,90.167 262.387,90.076 263.972,87.899 C264.878,86.937 264.652,86.042 269.191,87.806 C272.823,89.562 274.955,90.765 273.197,94.293 C271.436,97.815 270.524,100.669 264.707,101.685 C262.622,101.685 255.74,102.003 251.36,97.088 C249.97,95.387 248.26,93.514 247.517,86.84 C247.144,81.878 246.661,78.834 246.768,75.309 C246.876,71.783 247.032,59.129 247.032,59.129 L246.979,52.62 C246.979,52.62 240.974,52.996 240.2,52.325 C238.301,51.261 238.385,46.491 239.481,44.85 C240.171,43.813 247.087,44.342 247.273,44.155 C247.461,43.971 247.385,43.327 247.355,42.686" id="Fill-5" fill="#1A1918" sketch:type="MSShapeGroup"></path>
            <path d="M88.211,100.099 C87.958,100.074 82.467,100.064 83.445,106.312 C84.232,109.487 87.561,110.769 90.079,109.538 C93.177,108.03 93.07,105.116 92.568,103.629 C92.032,102.043 91.784,100.455 88.211,100.099" id="Fill-6" fill="#F1A84B" sketch:type="MSShapeGroup"></path>
            <path d="M89.812,38.93 C89.928,40.027 89.076,41.051 87.958,41.163 C86.858,41.277 85.835,40.446 85.724,39.347 C85.607,38.23 86.436,37.186 87.534,37.075 C88.659,36.957 89.702,37.811 89.812,38.93 L89.812,38.93 Z M89.979,70.85 L95.428,73.293 C95.51,73.329 95.552,73.428 95.512,73.519 L93.982,76.925 C93.945,77.02 93.84,77.05 93.759,77.014 L92.864,76.608 C92.78,76.573 92.734,76.473 92.776,76.387 L93.797,74.101 L92.615,73.573 L91.772,75.447 C91.734,75.529 91.627,75.57 91.542,75.532 L90.65,75.136 C90.569,75.097 90.524,74.988 90.561,74.906 L91.404,73.028 L89.408,72.131 C89.323,72.095 89.282,71.988 89.317,71.904 L89.756,70.934 C89.8,70.847 89.897,70.811 89.979,70.85 L89.979,70.85 Z M93.306,49.892 C95.058,49.469 96.808,50.543 97.228,52.299 C97.438,53.178 97.322,53.892 96.919,54.618 C96.869,54.714 96.761,54.737 96.679,54.686 L95.805,54.171 C95.727,54.124 95.704,54.028 95.746,53.95 C95.962,53.558 96.016,53.09 95.917,52.661 C95.679,51.667 94.68,51.139 93.694,51.373 C92.721,51.608 92.089,52.536 92.327,53.526 C92.428,53.941 92.682,54.352 93.035,54.602 C93.101,54.65 93.125,54.765 93.076,54.833 L92.515,55.692 C92.466,55.767 92.35,55.787 92.273,55.739 C91.554,55.282 91.101,54.588 90.913,53.81 C90.491,52.057 91.552,50.309 93.306,49.892 L93.306,49.892 Z M94.365,66.729 C92.568,66.549 91.285,64.972 91.46,63.176 C91.644,61.382 93.214,60.097 95.009,60.276 C96.802,60.457 98.102,62.024 97.927,63.821 C97.745,65.618 96.156,66.91 94.365,66.729 L94.365,66.729 Z M90.354,82.509 L87.922,85.341 C87.852,85.42 87.749,85.42 87.678,85.361 L86.93,84.722 C86.863,84.665 86.85,84.556 86.915,84.48 L88.54,82.582 L87.557,81.739 L86.214,83.299 C86.159,83.369 86.04,83.378 85.97,83.318 L85.226,82.678 C85.161,82.621 85.149,82.504 85.21,82.435 L86.548,80.874 L84.882,79.45 C84.814,79.39 84.81,79.279 84.865,79.209 L85.561,78.402 C85.62,78.326 85.731,78.326 85.798,78.381 L90.331,82.264 C90.398,82.326 90.409,82.436 90.354,82.509 L90.354,82.509 Z M82.841,89.687 L79.696,91.702 C79.615,91.754 79.512,91.727 79.461,91.649 L78.933,90.823 C78.884,90.746 78.896,90.638 78.983,90.586 L81.085,89.237 L80.479,88.292 L78.75,89.403 C78.677,89.453 78.564,89.431 78.512,89.352 L77.981,88.529 C77.927,88.439 77.957,88.338 78.029,88.291 L79.765,87.177 L79.106,86.153 L77.003,87.504 C76.922,87.561 76.818,87.53 76.768,87.452 L76.238,86.626 C76.185,86.552 76.202,86.445 76.289,86.387 L79.428,84.371 C79.516,84.321 79.618,84.345 79.666,84.423 L82.892,89.449 C82.939,89.523 82.922,89.631 82.841,89.687 L82.841,89.687 Z M73.368,94.493 L69.771,95.507 C69.68,95.534 69.588,95.473 69.565,95.387 L69.296,94.439 C69.271,94.352 69.319,94.258 69.413,94.232 L71.819,93.552 L71.521,92.476 L69.536,93.033 C69.452,93.056 69.347,93.002 69.326,92.914 L69.059,91.966 C69.032,91.87 69.089,91.777 69.177,91.759 L71.155,91.197 L70.829,90.027 L68.423,90.702 C68.328,90.728 68.237,90.672 68.213,90.586 L67.942,89.638 C67.921,89.553 67.968,89.459 68.063,89.426 L71.657,88.413 C71.754,88.388 71.844,88.45 71.871,88.54 L73.485,94.284 C73.51,94.369 73.467,94.463 73.368,94.493 L73.368,94.493 Z M62.17,86.797 C47.544,86.979 35.539,75.274 35.36,60.653 C35.175,46.027 46.88,34.022 61.504,33.838 C76.127,33.654 88.137,45.36 88.317,59.988 C88.499,74.611 76.795,86.616 62.17,86.797 L62.17,86.797 Z M56.893,94.957 C55.792,95.068 54.771,94.235 54.659,93.135 C54.548,92.015 55.377,90.974 56.468,90.868 C57.597,90.749 58.638,91.602 58.749,92.724 C58.862,93.822 58.005,94.841 56.893,94.957 L56.893,94.957 Z M47.709,86.619 L44.611,91.718 C44.563,91.795 44.46,91.829 44.375,91.777 L43.46,91.223 C43.38,91.174 43.354,91.06 43.402,90.984 L45.901,86.867 L44.066,85.757 C43.979,85.705 43.964,85.598 44.012,85.519 L44.521,84.68 C44.565,84.601 44.668,84.572 44.752,84.624 L47.655,86.383 C47.736,86.435 47.756,86.544 47.709,86.619 L47.709,86.619 Z M39.167,84.221 C37.806,85.399 35.771,85.271 34.587,83.909 C33.401,82.543 33.555,80.499 34.915,79.318 C36.278,78.14 38.31,78.29 39.491,79.649 C40.671,81.017 40.529,83.042 39.167,84.221 L39.167,84.221 Z M29.481,76.276 L29.035,75.164 C29.011,75.097 29.035,75.017 29.072,74.983 L31.578,72.381 L31.558,72.329 L27.95,72.166 C27.898,72.166 27.826,72.128 27.798,72.063 L27.358,70.946 C27.306,70.819 27.386,70.712 27.517,70.721 L34.202,71.103 C34.266,71.105 34.327,71.142 34.354,71.206 L34.39,71.291 C34.412,71.358 34.393,71.426 34.353,71.471 L29.753,76.333 C29.665,76.427 29.531,76.402 29.481,76.276 L29.481,76.276 Z M26.079,64.597 L25.798,60.871 C25.791,60.769 25.868,60.695 25.957,60.688 L26.936,60.613 C27.029,60.606 27.113,60.674 27.12,60.77 L27.308,63.262 L28.423,63.178 L28.269,61.129 C28.264,61.039 28.338,60.95 28.429,60.945 L29.407,60.871 C29.509,60.866 29.585,60.94 29.591,61.028 L29.743,63.08 L30.958,62.989 L30.771,60.496 C30.764,60.4 30.839,60.319 30.93,60.313 L31.91,60.239 C31.997,60.233 32.086,60.301 32.092,60.4 L32.372,64.122 C32.38,64.219 32.308,64.297 32.215,64.308 L26.262,64.754 C26.169,64.76 26.085,64.692 26.079,64.597 L26.079,64.597 Z M30.979,45.803 C32.103,45.688 33.144,46.538 33.259,47.661 C33.371,48.757 32.516,49.781 31.4,49.892 C30.301,50.005 29.278,49.173 29.169,48.075 C29.055,46.954 29.882,45.915 30.979,45.803 L30.979,45.803 Z M35.313,35.818 L37.952,33.181 C38.025,33.108 38.132,33.116 38.196,33.181 L38.892,33.875 C38.954,33.938 38.962,34.046 38.892,34.115 L37.126,35.882 L38.044,36.8 L39.496,35.348 C39.559,35.283 39.676,35.283 39.742,35.348 L40.434,36.043 C40.499,36.106 40.495,36.221 40.434,36.283 L38.979,37.741 L40.529,39.291 C40.591,39.352 40.591,39.467 40.529,39.535 L39.774,40.283 C39.703,40.353 39.598,40.349 39.533,40.283 L35.313,36.061 C35.248,35.997 35.243,35.887 35.313,35.818 L35.313,35.818 Z M43.399,29.193 L45.789,27.944 C46.748,27.443 47.937,27.81 48.434,28.762 C48.817,29.495 48.637,30.346 48.088,30.988 L50.244,32.446 C50.354,32.52 50.364,32.678 50.228,32.749 L49.167,33.304 C49.101,33.338 49.032,33.323 48.999,33.299 L46.83,31.734 L46.278,32.022 L47.342,34.062 C47.384,34.144 47.35,34.249 47.27,34.296 L46.32,34.788 C46.231,34.837 46.13,34.796 46.089,34.714 L43.325,29.425 C43.283,29.343 43.311,29.239 43.399,29.193 L43.399,29.193 Z M54.021,24.982 L57.698,24.34 C57.799,24.321 57.88,24.39 57.899,24.478 L58.068,25.445 C58.081,25.534 58.024,25.627 57.929,25.644 L55.468,26.074 L55.66,27.178 L57.684,26.822 C57.772,26.805 57.868,26.875 57.887,26.961 L58.056,27.932 C58.068,28.026 58.003,28.115 57.914,28.13 L55.889,28.481 L56.097,29.682 L58.559,29.251 C58.656,29.237 58.742,29.302 58.753,29.392 L58.927,30.36 C58.939,30.448 58.885,30.538 58.789,30.555 L55.108,31.2 C55.011,31.22 54.927,31.151 54.912,31.058 L53.882,25.179 C53.863,25.09 53.925,24.999 54.021,24.982 L54.021,24.982 Z M63.418,29.567 L63.926,28.871 C64.012,28.765 64.182,28.803 64.237,28.852 C64.27,28.872 64.86,29.425 65.455,29.493 C65.813,29.534 66.096,29.341 66.133,29.026 C66.174,28.651 65.895,28.325 65.312,28.016 C64.579,27.622 63.678,26.911 63.807,25.836 C63.91,24.947 64.699,24.132 66.079,24.291 C67.013,24.398 67.675,24.956 67.921,25.186 C68.022,25.261 67.982,25.42 67.94,25.478 L67.402,26.113 C67.331,26.206 67.16,26.266 67.087,26.198 C67.013,26.142 66.413,25.574 65.867,25.509 C65.542,25.473 65.275,25.66 65.249,25.902 C65.209,26.233 65.455,26.517 66.128,26.883 C66.792,27.242 67.84,27.919 67.695,29.137 C67.593,30.058 66.689,30.899 65.371,30.746 C64.206,30.61 63.619,30.052 63.434,29.823 C63.355,29.725 63.335,29.682 63.418,29.567 L63.418,29.567 Z M71.999,31.898 L74.502,26.48 C74.54,26.396 74.651,26.357 74.731,26.394 L75.705,26.845 C75.798,26.887 75.827,26.993 75.792,27.071 L74.838,29.137 L77.182,30.215 L78.13,28.154 C78.165,28.071 78.264,28.029 78.355,28.071 L79.335,28.521 C79.411,28.558 79.456,28.666 79.417,28.748 L76.911,34.166 C76.872,34.246 76.765,34.289 76.681,34.249 L75.711,33.802 C75.617,33.761 75.587,33.654 75.626,33.572 L76.622,31.42 L74.28,30.34 L73.284,32.493 C73.249,32.575 73.148,32.615 73.06,32.579 L72.086,32.125 C72.002,32.088 71.966,31.98 71.999,31.898 L71.999,31.898 Z M61.408,20.926 C39.757,21.2 22.425,38.969 22.699,60.619 C22.969,82.269 40.741,99.603 62.391,99.331 C84.041,99.061 101.378,81.29 101.104,59.638 C100.829,37.985 83.06,20.653 61.408,20.926 L61.408,20.926 Z M62.36,102.011 C39.371,102.296 20.498,83.892 20.212,60.904 C19.925,37.912 38.326,19.044 61.319,18.753 C84.307,18.467 103.178,36.87 103.466,59.861 C103.756,82.848 85.352,101.721 62.36,102.011 L62.36,102.011 Z M112.216,50.973 C111.573,47.668 109.679,43.391 108.542,42.061 C107.406,40.729 104.425,38.807 102.179,37.885 C97.964,29.512 91.559,23.975 87.699,20.946 C84.104,18.124 76.992,14.64 67.605,14.64 C59.097,13.761 54.843,13.761 46.402,15.661 C29.34,18.389 23.029,31.823 23.029,31.823 C23.029,31.823 18.123,42.162 16.208,46.338 C2.808,60.203 19.498,81.289 19.498,81.289 C16.807,85.974 25.772,91.562 29.618,93.297 C34.393,98.184 35.438,96.393 36.925,97.345 C37.725,98.572 38.263,100.039 39.295,100.618 C40.329,101.198 41.374,101.932 43.775,101.348 C43.868,101.376 44.299,101.411 44.339,101.448 C70.68,120.192 82.334,102.037 86.23,97.678 C101.613,105.668 112.114,67.854 109.483,64.282 C113.107,61.215 112.839,54.745 112.216,50.973 L112.216,50.973 Z M35.864,80.411 C35.114,81.061 35.024,82.214 35.677,82.963 C36.32,83.706 37.473,83.78 38.22,83.131 C38.965,82.488 39.047,81.343 38.4,80.598 C37.751,79.849 36.605,79.765 35.864,80.411 L35.864,80.411 Z M94.864,61.712 C93.882,61.614 92.997,62.344 92.898,63.324 C92.805,64.309 93.53,65.194 94.503,65.293 C95.498,65.389 96.393,64.665 96.49,63.679 C96.587,62.697 95.852,61.81 94.864,61.712 L94.864,61.712 Z M72.567,66.052 C72.535,66.109 72.511,66.157 72.478,66.211 C72.449,66.272 72.424,66.327 72.388,66.382 C68.181,74.248 62.357,76.963 57.061,75.773 C56.658,75.68 56.105,75.154 57.144,74.595 C57.551,74.288 57.933,73.963 58.308,73.613 C59.485,72.519 60.479,71.228 61.313,69.871 C62.819,67.367 63.854,64.654 64.358,61.867 C64.437,61.473 64.511,61.078 64.565,60.682 L64.571,60.679 L64.571,60.671 C64.973,58.068 65.542,55.541 66.413,53.125 C66.842,51.922 67.355,50.749 67.966,49.608 C68.267,49.042 68.604,48.487 68.963,47.94 C69.474,47.182 70.344,46.69 71.537,47.77 C75.753,51.473 76.9,57.96 72.567,66.052 L72.567,66.052 Z M55.417,73.038 C54.897,73.799 54.024,74.288 52.834,73.209 C48.621,69.506 47.474,63.018 51.805,54.93 C51.837,54.871 51.868,54.821 51.895,54.762 C51.933,54.704 51.952,54.655 51.982,54.597 C56.195,46.732 62.013,44.015 67.317,45.21 C67.715,45.301 68.267,45.825 67.23,46.389 C66.825,46.687 66.438,47.016 66.062,47.365 C64.886,48.462 63.895,49.751 63.06,51.114 C61.558,53.614 60.52,56.325 60.014,59.11 C59.935,59.511 59.865,59.897 59.806,60.296 C59.806,60.296 59.806,60.296 59.806,60.297 L59.806,60.307 C59.408,62.914 58.829,65.44 57.963,67.848 C57.529,69.059 57.016,70.234 56.41,71.366 C56.105,71.943 55.767,72.497 55.417,73.038 L55.417,73.038 Z M61.53,35.877 C48.032,36.044 37.228,47.125 37.397,60.625 C37.566,74.126 48.646,84.93 62.146,84.762 C75.646,84.591 86.447,73.51 86.284,60.016 C86.113,46.513 75.031,35.706 61.53,35.877 L61.53,35.877 Z M46.934,30.39 C47.259,30.219 47.384,29.766 47.208,29.431 C47.033,29.098 46.608,28.969 46.281,29.14 L45.1,29.761 L45.747,31.006 L46.934,30.39 L46.934,30.39 Z" id="Fill-7" fill="#F1A84B" sketch:type="MSShapeGroup"></path>
        </g>
    </g>
</svg>