<?xml version="1.0" encoding="UTF-8" standalone="no"?>
<svg width="204px" height="288px" viewBox="0 0 204 288" version="1.1" xmlns="http://www.w3.org/2000/svg" xmlns:xlink="http://www.w3.org/1999/xlink" xmlns:sketch="http://www.bohemiancoding.com/sketch/ns">
    <!-- Generator: Sketch 3.3.2 (12043) - http://www.bohemiancoding.com/sketch -->
    <title>logo_vertical</title>
    <desc>Created with Sketch.</desc>
    <defs></defs>
    <g id="Page-1" stroke="none" stroke-width="1" fill="none" fill-rule="evenodd" sketch:type="MSPage">
        <g id="logo_vertical" sketch:type="MSLayerGroup" transform="translate(-1.000000, 0.000000)">
            <path d="M155.737,172.639 C155.225,172.589 144.225,172.57 146.186,185.091 C147.764,191.454 154.436,194.021 159.479,191.554 C165.689,188.533 165.477,182.694 164.469,179.713 C163.395,176.53 162.896,173.352 155.737,172.639" id="Fill-1" fill="#F1A84B" sketch:type="MSShapeGroup"></path>
            <path d="M103.93,176.471 C57.858,177.044 20.034,140.159 19.461,94.09 C18.884,48.016 55.766,10.203 101.844,9.616 C147.91,9.044 185.727,45.923 186.307,91.997 C186.887,138.074 150.005,175.887 103.93,176.471 L103.93,176.471 Z M203.844,74.189 C202.555,67.561 198.758,58.992 196.482,56.329 C194.207,53.657 188.231,49.805 183.727,47.96 C175.281,31.177 162.445,20.08 154.713,14.013 C147.504,8.354 133.253,1.373 114.439,1.373 C97.389,-0.392 88.863,-0.392 71.949,3.422 C37.753,8.886 25.108,35.81 25.108,35.81 C25.108,35.81 15.274,56.531 11.44,64.899 C-15.419,92.687 18.027,134.943 18.027,134.943 C12.634,144.329 30.604,155.534 38.311,159.006 C47.88,168.803 49.974,165.212 52.952,167.118 C54.56,169.58 55.635,172.515 57.705,173.682 C59.777,174.843 61.875,176.313 66.686,175.143 C66.873,175.198 67.732,175.271 67.814,175.345 C120.601,212.904 143.955,176.525 151.768,167.79 C182.596,183.8 203.641,108.022 198.369,100.86 C205.631,94.714 205.092,81.746 203.844,74.189 L203.844,74.189 Z M158.947,50.053 C159.178,52.252 157.469,54.302 155.225,54.531 C153.022,54.757 150.977,53.09 150.754,50.887 C150.52,48.649 152.182,46.556 154.383,46.335 C156.635,46.1 158.725,47.81 158.947,50.053 L158.947,50.053 Z M159.281,114.023 L170.199,118.918 C170.362,118.991 170.447,119.19 170.369,119.374 L167.303,126.195 C167.227,126.385 167.019,126.443 166.854,126.372 L165.06,125.566 C164.895,125.492 164.803,125.292 164.887,125.113 L166.929,120.541 L164.559,119.48 L162.873,123.237 C162.797,123.4 162.582,123.482 162.414,123.407 L160.622,122.607 C160.459,122.529 160.371,122.316 160.445,122.15 L162.139,118.391 L158.135,116.59 C157.963,116.516 157.883,116.301 157.953,116.137 L158.83,114.193 C158.918,114.016 159.115,113.942 159.281,114.023 L159.281,114.023 Z M165.945,72.019 C169.459,71.171 172.964,73.326 173.803,76.845 C174.231,78.605 173.993,80.037 173.188,81.488 C173.084,81.683 172.875,81.732 172.705,81.63 L170.953,80.597 C170.797,80.502 170.753,80.312 170.838,80.154 C171.272,79.366 171.375,78.429 171.18,77.57 C170.699,75.579 168.699,74.518 166.723,74.989 C164.774,75.459 163.509,77.32 163.984,79.304 C164.184,80.136 164.696,80.959 165.399,81.458 C165.53,81.558 165.581,81.787 165.484,81.924 L164.359,83.643 C164.263,83.793 164.028,83.833 163.879,83.739 C162.435,82.823 161.524,81.435 161.15,79.871 C160.303,76.357 162.428,72.858 165.945,72.019 L165.945,72.019 Z M175.206,99.935 C174.843,103.536 171.662,106.123 168.067,105.766 C164.469,105.403 161.895,102.241 162.25,98.642 C162.613,95.048 165.762,92.473 169.359,92.831 C172.953,93.192 175.559,96.335 175.206,99.935 L175.206,99.935 Z M160.027,137.386 L155.154,143.063 C155.016,143.219 154.809,143.219 154.67,143.106 L153.17,141.824 C153.034,141.707 153.006,141.489 153.137,141.338 L156.395,137.534 L154.419,135.845 L151.734,138.971 C151.619,139.109 151.383,139.128 151.244,139.01 L149.752,137.725 C149.619,137.614 149.598,137.379 149.723,137.239 L152.4,134.112 L149.061,131.259 C148.93,131.139 148.916,130.915 149.028,130.773 L150.42,129.154 C150.547,129.006 150.77,129 150.9,129.116 L159.982,136.897 C160.119,137.024 160.145,137.239 160.027,137.386 L160.027,137.386 Z M144.973,151.771 L138.674,155.809 C138.508,155.915 138.299,155.864 138.202,155.708 L137.137,154.05 C137.045,153.899 137.067,153.677 137.242,153.577 L141.457,150.872 L140.242,148.984 L136.774,151.208 C136.629,151.303 136.401,151.262 136.299,151.106 L135.239,149.453 C135.127,149.272 135.186,149.066 135.334,148.974 L138.811,146.746 L137.492,144.69 L133.274,147.398 C133.111,147.508 132.902,147.45 132.805,147.293 L131.74,145.639 C131.633,145.49 131.67,145.274 131.845,145.163 L138.133,141.121 C138.308,141.018 138.516,141.071 138.613,141.227 L145.076,151.294 C145.172,151.445 145.137,151.661 144.973,151.771 L144.973,151.771 Z M125.99,161.409 L118.785,163.439 C118.594,163.489 118.414,163.37 118.368,163.196 L117.828,161.293 C117.775,161.124 117.874,160.936 118.063,160.885 L122.883,159.52 L122.287,157.362 L118.309,158.478 C118.143,158.528 117.932,158.418 117.891,158.24 L117.354,156.337 C117.301,156.149 117.413,155.965 117.59,155.925 L121.553,154.804 L120.899,152.456 L116.078,153.807 C115.888,153.858 115.709,153.747 115.656,153.577 L115.115,151.674 C115.075,151.505 115.168,151.312 115.359,151.252 L122.563,149.223 C122.755,149.172 122.934,149.296 122.986,149.47 L126.227,160.986 C126.275,161.157 126.184,161.349 125.99,161.409 L125.99,161.409 Z M103.548,145.981 C74.238,146.348 50.181,122.89 49.818,93.587 C49.45,64.278 72.906,40.216 102.213,39.85 C131.519,39.483 155.586,62.941 155.951,92.255 C156.314,121.558 132.856,145.619 103.548,145.981 L103.548,145.981 Z M92.97,162.336 C90.765,162.556 88.718,160.89 88.496,158.685 C88.271,156.444 89.934,154.359 92.122,154.141 C94.382,153.903 96.467,155.612 96.695,157.858 C96.92,160.058 95.202,162.102 92.97,162.336 L92.97,162.336 Z M74.566,145.626 L68.357,155.847 C68.265,155.998 68.057,156.067 67.886,155.965 L66.05,154.849 C65.892,154.753 65.837,154.528 65.935,154.372 L70.942,146.124 L67.268,143.896 C67.095,143.792 67.06,143.574 67.156,143.417 L68.177,141.739 C68.269,141.581 68.474,141.523 68.643,141.625 L74.459,145.152 C74.621,145.257 74.661,145.473 74.566,145.626 L74.566,145.626 Z M57.449,140.82 C54.721,143.184 50.638,142.926 48.27,140.193 C45.895,137.456 46.201,133.364 48.928,130.995 C51.657,128.634 55.73,128.934 58.097,131.659 C60.463,134.397 60.175,138.453 57.449,140.82 L57.449,140.82 Z M38.038,124.898 L37.145,122.667 C37.092,122.529 37.145,122.371 37.218,122.306 L42.238,117.09 L42.2,116.988 L34.969,116.66 C34.866,116.66 34.719,116.585 34.665,116.453 L33.782,114.215 C33.676,113.963 33.842,113.748 34.104,113.761 L47.498,114.528 C47.626,114.538 47.751,114.606 47.803,114.737 L47.872,114.907 C47.918,115.043 47.88,115.175 47.801,115.265 L38.583,125.008 C38.405,125.198 38.137,125.152 38.038,124.898 L38.038,124.898 Z M31.217,101.49 L30.656,94.027 C30.64,93.822 30.793,93.671 30.972,93.659 L32.937,93.506 C33.121,93.496 33.293,93.628 33.307,93.826 L33.681,98.816 L35.914,98.649 L35.609,94.542 C35.596,94.361 35.744,94.181 35.927,94.171 L37.891,94.027 C38.091,94.011 38.245,94.163 38.258,94.34 L38.565,98.451 L40.996,98.272 L40.622,93.275 C40.61,93.081 40.757,92.92 40.939,92.907 L42.905,92.76 C43.082,92.746 43.258,92.882 43.269,93.081 L43.833,100.538 C43.849,100.735 43.699,100.892 43.515,100.912 L31.585,101.805 C31.4,101.816 31.233,101.682 31.217,101.49 L31.217,101.49 Z M41.042,63.829 C43.293,63.599 45.378,65.303 45.611,67.55 C45.833,69.746 44.117,71.799 41.882,72.022 C39.678,72.248 37.632,70.579 37.411,68.381 C37.183,66.133 38.842,64.05 41.042,63.829 L41.042,63.829 Z M49.726,43.817 L55.016,38.531 C55.162,38.387 55.376,38.401 55.504,38.531 L56.898,39.92 C57.022,40.049 57.036,40.268 56.898,40.403 L53.357,43.943 L55.196,45.785 L58.109,42.871 C58.235,42.742 58.469,42.742 58.6,42.871 L59.987,44.266 C60.118,44.395 60.114,44.624 59.987,44.748 L57.071,47.667 L60.175,50.776 C60.304,50.899 60.304,51.129 60.175,51.262 L58.664,52.766 C58.524,52.907 58.311,52.895 58.182,52.766 L49.726,44.303 C49.595,44.176 49.586,43.954 49.726,43.817 L49.726,43.817 Z M65.929,30.536 L70.72,28.037 C72.644,27.035 75.026,27.764 76.018,29.673 C76.79,31.145 76.429,32.852 75.327,34.136 L79.649,37.06 C79.865,37.205 79.887,37.521 79.617,37.665 L77.487,38.777 C77.357,38.846 77.222,38.817 77.153,38.766 L72.805,35.63 L71.7,36.21 L73.831,40.294 C73.917,40.458 73.847,40.673 73.687,40.762 L71.783,41.75 C71.604,41.85 71.401,41.77 71.316,41.607 L65.784,31 C65.699,30.838 65.754,30.63 65.929,30.536 L65.929,30.536 Z M87.214,22.101 L94.587,20.81 C94.786,20.777 94.949,20.912 94.988,21.091 L95.328,23.029 C95.354,23.205 95.238,23.395 95.048,23.426 L90.117,24.29 L90.501,26.499 L94.556,25.787 C94.735,25.755 94.926,25.893 94.963,26.07 L95.301,28.01 C95.328,28.202 95.195,28.378 95.016,28.409 L90.96,29.116 L91.376,31.52 L96.314,30.657 C96.504,30.629 96.678,30.755 96.702,30.936 L97.049,32.879 C97.073,33.059 96.962,33.238 96.773,33.27 L89.394,34.563 C89.199,34.601 89.031,34.463 89.001,34.281 L86.939,22.495 C86.901,22.317 87.021,22.133 87.214,22.101 L87.214,22.101 Z M106.049,31.29 L107.066,29.894 C107.236,29.68 107.578,29.756 107.69,29.857 C107.758,29.901 108.938,31 110.131,31.138 C110.85,31.223 111.419,30.835 111.487,30.204 C111.572,29.454 111.012,28.8 109.848,28.178 C108.376,27.388 106.572,25.964 106.827,23.81 C107.035,22.033 108.617,20.397 111.382,20.718 C113.252,20.929 114.578,22.049 115.075,22.508 C115.275,22.659 115.196,22.975 115.111,23.095 L114.032,24.37 C113.888,24.554 113.549,24.673 113.402,24.536 C113.249,24.423 112.047,23.289 110.954,23.158 C110.307,23.082 109.772,23.458 109.719,23.946 C109.639,24.607 110.131,25.174 111.479,25.912 C112.815,26.63 114.909,27.985 114.623,30.424 C114.416,32.274 112.606,33.959 109.963,33.651 C107.627,33.38 106.453,32.261 106.079,31.802 C105.923,31.602 105.879,31.52 106.049,31.29 L106.049,31.29 Z M123.246,35.959 L128.26,25.103 C128.34,24.937 128.559,24.856 128.727,24.931 L130.672,25.834 C130.856,25.919 130.917,26.129 130.848,26.288 L128.934,30.424 L133.629,32.587 L135.533,28.456 C135.603,28.292 135.801,28.207 135.985,28.292 L137.945,29.191 C138.099,29.264 138.186,29.483 138.107,29.648 L133.09,40.504 C133.012,40.669 132.796,40.754 132.628,40.673 L130.683,39.774 C130.5,39.692 130.438,39.483 130.518,39.317 L132.511,35.001 L127.815,32.838 L125.82,37.154 C125.752,37.317 125.553,37.398 125.369,37.321 L123.42,36.419 C123.254,36.34 123.178,36.124 123.246,35.959 L123.246,35.959 Z M102.024,13.973 C58.63,14.52 23.898,50.131 24.444,93.522 C24.986,136.911 60.603,171.647 103.99,171.1 C147.379,170.558 182.121,134.943 181.574,91.552 C181.025,48.159 145.414,13.424 102.024,13.973 L102.024,13.973 Z M50.828,133.184 C49.326,134.491 49.144,136.797 50.451,138.299 C51.742,139.787 54.055,139.936 55.553,138.636 C57.043,137.346 57.206,135.049 55.911,133.553 C54.609,132.059 52.314,131.893 50.828,133.184 L50.828,133.184 Z M169.072,95.711 C167.104,95.513 165.33,96.975 165.129,98.938 C164.94,100.912 166.397,102.689 168.348,102.886 C170.336,103.08 172.131,101.627 172.33,99.651 C172.522,97.684 171.049,95.907 169.072,95.711 L169.072,95.711 Z M73.012,32.937 C73.664,32.594 73.914,31.689 73.56,31.017 C73.212,30.346 72.362,30.089 71.707,30.431 L69.34,31.676 L70.637,34.174 L73.012,32.937 L73.012,32.937 Z M124.381,104.407 C124.32,104.519 124.271,104.618 124.201,104.729 C124.149,104.85 124.096,104.958 124.027,105.07 C115.596,120.833 103.922,126.272 93.307,123.888 C92.501,123.704 91.392,122.647 93.475,121.526 C94.295,120.913 95.055,120.26 95.809,119.564 C98.169,117.367 100.16,114.784 101.832,112.058 C104.85,107.043 106.922,101.604 107.933,96.019 C108.091,95.232 108.238,94.439 108.348,93.645 L108.359,93.637 L108.359,93.621 C109.166,88.406 110.307,83.341 112.047,78.5 C112.906,76.089 113.94,73.737 115.162,71.454 C115.766,70.319 116.441,69.205 117.16,68.11 C118.184,66.584 119.928,65.606 122.318,67.772 C130.766,75.188 133.065,88.192 124.381,104.407 L124.381,104.407 Z M90.014,118.409 C88.975,119.932 87.223,120.916 84.838,118.751 C76.392,111.326 74.093,98.326 82.774,82.116 C82.839,82.002 82.899,81.899 82.958,81.78 C83.028,81.665 83.068,81.569 83.13,81.449 C91.573,65.692 103.231,60.241 113.862,62.637 C114.658,62.821 115.766,63.871 113.69,64.998 C112.875,65.601 112.1,66.256 111.35,66.956 C108.991,69.156 107.004,71.739 105.332,74.474 C102.32,79.481 100.246,84.913 99.226,90.498 C99.07,91.297 98.926,92.074 98.811,92.87 C98.811,92.87 98.811,92.87 98.811,92.877 L98.811,92.893 C98.011,98.121 96.854,103.18 95.117,108.007 C94.249,110.435 93.217,112.79 92.005,115.061 C91.392,116.214 90.712,117.326 90.014,118.409 L90.014,118.409 Z M102.267,43.935 C75.217,44.269 53.559,66.477 53.902,93.535 C54.239,120.586 76.445,142.24 103.495,141.903 C130.551,141.561 152.205,119.353 151.872,92.308 C151.529,65.246 129.318,43.593 102.267,43.935 L102.267,43.935 Z" id="Fill-3" fill="#F1A84B" sketch:type="MSShapeGroup"></path>
            <path d="M51.249,238.871 C49.847,240.634 44.382,242.564 40.011,240.534 C39.235,238.921 39.931,233.487 39.698,223.111 C39.931,213.354 39.968,208.393 40.222,207.659 C42.197,207.498 45.238,207.268 48.752,208.389 C52.913,209.791 52.629,215.486 53.511,218.976 C54.028,222.508 54.028,225.756 54.137,227.943 C54.37,235.696 52.991,236.923 51.249,238.871 L51.249,238.871 Z M61.6,202.092 C59.124,197.333 50.78,194.838 46.958,194.218 C43.135,193.589 34.471,193.902 25.813,194.296 C18.941,193.98 20.507,196.891 20.299,202.923 C19.674,205.946 22.171,206.253 22.171,206.253 L27.682,206.67 L27.164,229.556 L26.123,271.271 C26.123,271.271 26.227,275.226 25.705,275.54 C22.848,275.382 22.487,275.535 22.067,277.563 C21.42,280.683 22.377,286.204 22.377,286.204 C22.69,287.656 23.934,287.56 23.934,287.56 C23.934,287.56 34.29,287.972 39.287,287.972 C43.185,287.972 42.668,285.837 42.668,285.837 C42.668,283.031 42.916,282.506 42.561,278.456 C42.353,276.42 41.729,275.75 38.923,275.645 C38.923,275.645 38.971,271.744 39.023,266.803 C39.086,260.854 39.349,254.042 39.349,254.042 C39.349,254.042 41.834,253.758 44.328,253.772 C48.258,253.794 54.016,254.042 58.141,251.612 C62.81,248.866 63.632,243.711 64.612,238.402 C65.242,234.653 66.021,225.71 65.708,221.13 C65.657,215.881 64.069,206.85 61.6,202.092 L61.6,202.092 Z" id="Fill-4" fill="#1A1918" sketch:type="MSShapeGroup"></path>
            <path d="M93.438,255.667 C93.604,256.591 94.428,263.106 94.591,264.157 C94.901,267.367 94.876,268.878 94.481,271.199 C94.451,271.314 94.182,272.388 93.091,273.109 C91.525,273.982 91.452,273.982 89.389,274.372 C85.154,274.293 84.045,273.784 82.007,271.244 C80.133,267.661 80.352,263.202 80.453,259.178 C80.951,255.466 80.804,249.434 85.395,249.15 C91.127,248.599 91.798,250.674 92.319,251.53 C92.841,252.388 93.39,254.836 93.438,255.667 L93.438,255.667 Z M82.905,237.823 C84.281,237.86 85.319,237.304 85.319,234.258 C85.22,231.548 86.711,229.667 89.49,230.593 C90.186,230.758 92.37,231.884 92.402,235.623 C92.446,240.67 92.335,241.084 92.335,241.084 C92.335,241.084 87.765,240.392 80.352,242.512 C75.455,244.363 70.527,246.803 69.883,254.675 C69.279,263.725 70.024,269.526 72.274,274.157 C74.528,278.795 78.898,285.814 87.37,285.153 C91.61,284.62 96.109,282.24 96.109,282.636 C96.109,283.031 96.376,285.019 96.376,285.415 C96.458,285.994 96.314,286.572 99.555,286.475 C102.813,286.475 108.024,286.2 108.441,286.159 C109.256,286.099 109.517,285.814 109.539,282.402 C109.205,278.464 109.885,277.156 104.164,277.376 C104.313,272.907 103.656,254.298 103.656,254.298 C103.656,254.298 102.074,233.767 100.609,229.667 C100.609,229.667 98.891,222.615 90.882,221.324 C87.437,220.663 83.797,219.602 78.764,223.708 C75.809,226.95 73.917,232.609 73.917,235.784 C73.917,235.784 73.742,236.615 75.632,236.942 L82.905,237.823 L82.905,237.823 Z" id="Fill-6" fill="#1A1918" sketch:type="MSShapeGroup"></path>
            <path d="M132.94,242.697 C132.812,243.615 133.35,243.885 135.244,243.973 C141.367,244.019 143.193,244.777 143.097,241.98 C143.338,239.32 143.386,236.261 143.006,233.653 C142.623,231.042 141.296,225.518 138.258,223.929 C135.861,222.647 133.512,222.027 128.201,223.216 C126.065,223.786 121.957,224.967 119.518,228.788 C117.068,232.609 115.295,236.031 114.774,244.185 C114.156,251.924 114.107,259.228 114.107,259.228 C114.107,259.228 113.968,273.674 116.221,277.376 C117.594,279.875 120.988,287.413 130.998,287.224 C138.731,287.279 140.724,285.805 143.338,283.526 C144.426,282.556 145.897,281.009 146.23,278.208 C146.347,275.401 145.951,274.386 143.753,272.526 C143.287,272.186 142.127,270.715 136.689,270.564 C135.982,270.518 133.955,270.414 132.631,272.879 C132.57,273.054 132.254,273.265 132.33,275.313 C132.376,276.499 132.057,278.291 130.453,278.268 C128.463,278.313 127.264,276.306 126.873,274.836 C126.301,272.719 124.778,266.628 124.356,260.367 C124.262,252.208 124.592,245.751 124.877,244.658 C125.162,241.911 126.319,237.327 126.822,236.261 C127.093,235.692 128.024,234.199 129.147,234.153 C130.389,234.097 131.299,235.412 131.923,236.404 C132.529,237.621 132.852,238.796 132.92,240.083 C132.991,241.346 132.94,242.697 132.94,242.697" id="Fill-7" fill="#1A1918" sketch:type="MSShapeGroup"></path>
            <path d="M157.136,221.098 L157.002,211.026 C157.002,211.026 157.136,207.484 160.043,207.576 C162.45,207.438 163.447,207.484 164.811,207.709 C166.174,207.944 167.852,208.531 168.213,211.981 C168.622,215.068 168.213,220.695 168.264,222.33 C170.077,222.601 171.039,222.799 173.818,223.07 C173.818,223.07 180.777,223.405 181.789,224.057 C182.803,224.709 182.857,225.624 182.984,226.431 C183.285,228.338 183.527,231.093 182.35,232.031 C181.35,232.729 173.709,233.276 168.982,233.183 C168.851,236.992 167.912,254.216 167.912,254.216 C167.563,264.354 167.969,269.288 168.277,270.803 C168.578,272.314 169.426,275.801 172.452,275.254 C174.1,274.932 174.18,274.832 175.979,272.364 C177.004,271.271 176.749,270.255 181.897,272.259 C186.012,274.253 188.43,275.613 186.432,279.614 C184.436,283.604 183.404,286.843 176.809,287.996 C174.447,287.996 166.643,288.354 161.676,282.783 C160.104,280.853 158.164,278.731 157.32,271.167 C156.897,265.54 156.348,262.09 156.47,258.089 C156.594,254.088 156.771,239.748 156.771,239.748 L156.711,232.362 C156.711,232.362 149.904,232.793 149.025,232.031 C146.871,230.823 146.967,225.416 148.211,223.561 C148.992,222.385 156.832,222.981 157.047,222.766 C157.258,222.559 157.168,221.834 157.136,221.098" id="Fill-9" fill="#1A1918" sketch:type="MSShapeGroup"></path>
        </g>
    </g>
</svg>