<?xml version="1.0" encoding="UTF-8" standalone="no"?>
<svg width="50px" height="51px" viewBox="0 0 50 51" version="1.1" xmlns="http://www.w3.org/2000/svg" xmlns:xlink="http://www.w3.org/1999/xlink" xmlns:sketch="http://www.bohemiancoding.com/sketch/ns">
    <!-- Generator: Sketch 3.3.3 (12072) - http://www.bohemiancoding.com/sketch -->
    <title>aeropress</title>
    <desc>Created with Sketch.</desc>
    <defs></defs>
    <g id="Icons" stroke="none" stroke-width="1" fill="none" fill-rule="evenodd" sketch:type="MSPage">
        <g id="aeropress" sketch:type="MSArtboardGroup" transform="translate(0.000000, 0.446687)" fill="#000000">
            <path d="M30.2191229,22.4423065 L20.1002411,22.4423065 L20.1002411,7.40914363 L30.2191229,7.40914363 L30.2191229,22.4423065 L30.2191229,22.4423065 Z M19.251012,23.2910419 L31.0681234,23.2910419 L31.0681234,7.40914363 L32.5422139,7.40914363 L32.5422139,6.56025583 L31.0681234,6.56025583 L19.251012,6.56025583 L17.7769215,6.56025583 L17.7769215,7.40914363 L19.251012,7.40914363 L19.251012,23.2910419 L19.251012,23.2910419 Z" id="Fill-10" sketch:type="MSShapeGroup"></path>
            <path d="M33.7007109,27.0469513 L16.6183483,27.0469513 L16.6183483,25.1520417 L17.3521927,25.1520417 L32.9668666,25.1520417 L33.7007109,25.1520417 L33.7007109,27.0469513 L33.7007109,27.0469513 Z M34.549559,24.3030777 L32.9668666,24.3030777 L32.9668666,15.1351657 L32.1177899,15.1351657 L32.1177899,24.3030777 L18.2015742,24.3030777 L18.2015742,15.1351657 L17.3521927,15.1351657 L17.3521927,24.3030777 L15.7695002,24.3030777 L15.7695002,27.8959154 L34.549559,27.8959154 L34.549559,24.3030777 L34.549559,24.3030777 Z" id="Fill-11" sketch:type="MSShapeGroup"></path>
            <path d="M25.1595677,10.5462184 C25.3763906,10.5462184 25.55244,10.7223969 25.55244,10.9390386 C25.55244,11.1557564 25.3763906,11.3322398 25.1595677,11.3322398 C24.9431259,11.3322398 24.7666954,11.1557564 24.7666954,10.9390386 C24.7666954,10.7223969 24.9431259,10.5462184 25.1595677,10.5462184 M25.1595677,12.1811276 C25.844484,12.1811276 26.4016692,11.623864 26.4016692,10.9390386 C26.4016692,10.2543656 25.844484,9.69725441 25.1595677,9.69725441 C24.4748801,9.69725441 23.9176949,10.2543656 23.9176949,10.9390386 C23.9176949,11.623864 24.4748801,12.1811276 25.1595677,12.1811276" id="Fill-12" sketch:type="MSShapeGroup"></path>
            <path d="M25.1595677,14.5859795 C25.3763906,14.5859795 25.55244,14.762158 25.55244,14.9787996 C25.55244,15.1955937 25.3763906,15.3717722 25.1595677,15.3717722 C24.9431259,15.3717722 24.7666954,15.1955937 24.7666954,14.9787996 C24.7666954,14.762158 24.9431259,14.5859795 25.1595677,14.5859795 M25.1595677,16.2208886 C25.844484,16.2208886 26.4016692,15.663625 26.4016692,14.9787996 C26.4016692,14.2939742 25.844484,13.7370154 25.1595677,13.7370154 C24.4748801,13.7370154 23.9176949,14.2939742 23.9176949,14.9787996 C23.9176949,15.663625 24.4748801,16.2208886 25.1595677,16.2208886" id="Fill-13" sketch:type="MSShapeGroup"></path>
            <path d="M25.1595677,18.6254357 C25.3763906,18.6254357 25.55244,18.8016904 25.55244,19.0182559 C25.55244,19.2350499 25.3763906,19.4113046 25.1595677,19.4113046 C24.9431259,19.4113046 24.7666954,19.2350499 24.7666954,19.0182559 C24.7666954,18.8016904 24.9431259,18.6254357 25.1595677,18.6254357 M25.1595677,20.260421 C25.844484,20.260421 26.4016692,19.7030812 26.4016692,19.0182559 C26.4016692,18.3334305 25.844484,17.7764717 25.1595677,17.7764717 C24.4748801,17.7764717 23.9176949,18.3334305 23.9176949,19.0182559 C23.9176949,19.7030812 24.4748801,20.260421 25.1595677,20.260421" id="Fill-14" sketch:type="MSShapeGroup"></path>
            <path d="M33.9138756,36.1062759 L32.9668666,36.1062759 L32.9668666,32.8695292 L33.9138756,32.8695292 C34.8063168,32.8695292 35.5327686,33.5955035 35.5327686,34.4882073 C35.5327686,35.3803778 34.8063168,36.1062759 33.9138756,36.1062759 M33.9138756,32.0206414 L32.9668666,32.0206414 L32.9668666,29.0639362 L32.1177899,29.0639362 L32.1177899,38.9202551 C32.1177899,39.3885151 31.7366542,39.7696001 31.2689418,39.7696001 L19.0504223,39.7696001 C18.5823288,39.7696001 18.2015742,39.3885151 18.2015742,38.9202551 L18.2015742,29.0639362 L17.3521927,29.0639362 L17.3521927,38.9202551 C17.3521927,39.8565464 18.1142354,40.6185641 19.0504223,40.6185641 L31.2689418,40.6185641 C32.2049763,40.6185641 32.9668666,39.8565464 32.9668666,38.9202551 L32.9668666,36.9552399 L33.9138756,36.9552399 C35.2746389,36.9552399 36.3818453,35.8484091 36.3818453,34.4882073 C36.3818453,33.1274722 35.2746389,32.0206414 33.9138756,32.0206414" id="Fill-15" sketch:type="MSShapeGroup"></path>
        </g>
    </g>
</svg>