<?xml version="1.0" encoding="UTF-8"?>
<svg width="51px" height="16px" viewBox="0 0 51 16" version="1.1" xmlns="http://www.w3.org/2000/svg" xmlns:xlink="http://www.w3.org/1999/xlink">
    <!-- Generator: Sketch 46.2 (44496) - http://www.bohemiancoding.com/sketch -->
    <title>American Express</title>
    <desc>Created with Sketch.</desc>
    <defs></defs>
    <g id="Symbols" stroke="none" stroke-width="1" fill="none" fill-rule="evenodd" opacity="0.75">
        <g id="Trust-Symbol" transform="translate(-168.000000, 0.000000)" fill-rule="nonzero" fill="#000000">
            <g id="American-Express">
                <path d="M193.980582,6.94736842 L193.980582,5.57894737 C193.980582,5.05263158 193.470178,4.52631579 192.959775,4.52631579 L191.530645,4.52631579 L191.530645,6.94736842 L189.999434,6.94736842 L189.999434,0.105263158 L193.77642,0.105263158 C194.695147,-1.84713356e-13 195.613873,0.631578947 195.715954,1.57894737 L195.715954,2.10526316 C195.715954,2.73684211 195.409712,3.36842105 194.797227,3.68421053 C195.307631,4 195.613873,4.63157895 195.511792,5.26315789 L195.511792,6.94736842 L193.980582,6.94736842 L193.980582,6.94736842 Z M191.428564,2.94736842 L193.061855,2.94736842 C193.368098,3.05263158 193.77642,2.84210526 193.878501,2.52631579 C193.980582,2.21052632 193.77642,1.78947368 193.470178,1.68421053 L191.428564,1.68421053 L191.428564,2.94736842 L191.428564,2.94736842 Z M213.171754,6.94736842 L210.721817,2.31578947 L210.721817,6.94736842 L207.659396,6.94736842 L207.148992,5.47368421 L204.290733,5.47368421 L203.780329,6.94736842 L200.513747,6.94736842 C200.513747,6.94736842 198.472133,6.63157895 198.472133,3.68421053 C198.472133,0.105263158 200.207505,0 200.92207,0 L202.861603,0 L202.861603,1.57894737 L201.330392,1.57894737 C200.615827,1.68421053 200.105424,2.31578947 200.207505,3.05263158 L200.207505,3.57894737 C200.207505,5.89473684 202.861603,5.15789474 202.963684,5.15789474 L204.903217,0 L207.046912,0 L209.394768,6.21052632 L209.394768,0.105263158 L211.538463,0.105263158 L213.988399,4.63157895 L213.988399,0.105263158 L215.51961,0.105263158 L215.51961,7.05263158 L213.171754,6.94736842 L213.171754,6.94736842 Z M205.005298,3.78947368 L206.536508,3.78947368 L205.821943,1.78947368 L205.005298,3.78947368 L205.005298,3.78947368 Z M181.832978,6.94736842 L181.832978,2.21052632 L179.893445,6.94736842 L178.668476,6.94736842 L176.728943,2.21052632 L176.728943,6.94736842 L173.666522,6.94736842 L173.156118,5.47368421 L170.297859,5.47368421 L169.787455,6.94736842 L168.052083,6.94736842 L170.604101,0 L172.747796,0 L175.095652,6.31578947 L175.095652,0.105263158 L177.545589,0.105263158 L179.280961,4.42105263 L181.016333,0.105263158 L183.466269,0.105263158 L183.466269,7.05263158 L181.832978,6.94736842 L181.832978,6.94736842 Z M170.910343,3.78947368 L172.441554,3.78947368 L171.726989,1.78947368 L170.910343,3.78947368 L170.910343,3.78947368 Z M184.282915,6.94736842 L184.282915,0.105263158 L189.080708,0.105263158 L189.080708,1.68421053 L185.814126,1.68421053 L185.814126,2.73684211 L188.978627,2.73684211 L188.978627,4.31578947 L185.814126,4.31578947 L185.814126,5.47368421 L189.080708,5.47368421 L189.080708,6.94736842 L184.282915,6.94736842 L184.282915,6.94736842 Z M196.328438,7.05263158 L196.328438,0.105263158 L197.859648,0.105263158 L197.859648,7.05263158 L196.328438,7.05263158 L196.328438,7.05263158 Z M199.697101,15.8947368 L199.697101,14.5263158 C199.697101,13.8947368 199.186698,13.4736842 198.574213,13.4736842 L196.940922,13.4736842 L196.940922,15.8947368 L195.307631,15.8947368 L195.307631,9.05263158 L199.288778,9.05263158 C200.309585,8.84210526 201.228312,9.57894737 201.330392,10.6315789 L201.330392,11.0526316 C201.330392,11.6842105 201.02415,12.3157895 200.411666,12.6315789 C200.92207,12.9473684 201.228312,13.5789474 201.228312,14.2105263 L201.228312,15.8947368 L199.697101,15.8947368 L199.697101,15.8947368 Z M197.043003,11.8947368 L198.778375,11.8947368 C199.084617,12 199.49294,11.7894737 199.59502,11.4736842 C199.697101,11.1578947 199.49294,10.7368421 199.186698,10.6315789 C199.084617,10.5263158 198.880455,10.5263158 198.778375,10.6315789 L197.043003,10.6315789 L197.043003,11.8947368 L197.043003,11.8947368 Z M188.774466,15.8947368 L187.345336,15.8947368 L185.609964,13.8947368 L183.874592,15.8947368 L177.74975,15.8947368 L177.74975,9.05263158 L183.772512,9.05263158 L185.609964,11.2631579 L187.549497,9.05263158 L192.755613,9.05263158 C193.77642,8.94736842 194.695147,9.57894737 194.797227,10.6315789 L194.797227,11.0526316 C194.797227,13.0526316 194.082662,13.6842105 191.938968,13.6842105 L190.305676,13.6842105 L190.305676,15.8947368 L188.774466,15.8947368 L188.774466,15.8947368 Z M186.732852,12.5263158 L188.774466,14.9473684 L188.774466,10.2105263 L186.732852,12.5263158 L186.732852,12.5263158 Z M179.383041,14.4210526 L182.853785,14.4210526 L184.487076,12.5263158 L182.853785,10.6315789 L179.383041,10.6315789 L179.383041,11.6842105 L182.751704,11.6842105 L182.751704,13.2631579 L179.383041,13.2631579 L179.383041,14.4210526 L179.383041,14.4210526 Z M190.407757,11.8947368 L192.143129,11.8947368 C192.449371,12 192.857694,11.7894737 192.959775,11.4736842 C193.061855,11.1578947 192.857694,10.7368421 192.551452,10.6315789 C192.449371,10.5263158 192.24521,10.5263158 192.143129,10.6315789 L190.407757,10.6315789 L190.407757,11.8947368 L190.407757,11.8947368 Z M210.925978,15.8947368 L207.965638,15.8947368 L207.965638,14.3157895 L210.517656,14.3157895 C210.517656,14.3157895 211.436382,14.4210526 211.436382,13.7894737 C211.436382,13.1578947 210.007252,13.2631579 210.007252,13.2631579 C208.884364,13.4736842 207.965638,12.6315789 207.761477,11.5789474 L207.761477,11.2631579 C207.659396,10.2105263 208.476041,9.26315789 209.496849,9.15789474 L212.967592,9.15789474 L212.967592,10.6315789 L210.415575,10.6315789 C210.415575,10.6315789 209.496849,10.4210526 209.496849,11.1578947 C209.496849,11.6842105 210.721817,11.6842105 210.721817,11.6842105 C210.721817,11.6842105 213.273834,11.4736842 213.273834,13.5789474 C213.375915,14.7368421 212.66135,15.7894737 211.436382,16 L211.028059,16 L210.925978,15.8947368 L210.925978,15.8947368 Z M202.147038,15.8947368 L202.147038,9.05263158 L207.251073,9.05263158 L207.251073,10.6315789 L203.780329,10.6315789 L203.780329,11.6842105 L207.148992,11.6842105 L207.148992,13.2631579 L203.780329,13.2631579 L203.780329,14.4210526 L207.251073,14.4210526 L207.251073,15.8947368 L202.147038,15.8947368 L202.147038,15.8947368 Z M216.642498,15.8947368 L213.682157,15.8947368 L213.682157,14.3157895 L216.234175,14.3157895 C216.234175,14.3157895 217.152901,14.4210526 217.152901,13.7894737 C217.152901,13.1578947 215.723771,13.2631579 215.723771,13.2631579 C214.600884,13.4736842 213.682157,12.6315789 213.477996,11.4736842 L213.477996,11.1578947 C213.375915,10.1052632 214.192561,9.15789474 215.213368,9.05263158 L218.684112,9.05263158 L218.684112,10.6315789 L216.132094,10.6315789 C216.132094,10.6315789 215.213368,10.4210526 215.213368,11.1578947 C215.213368,11.6842105 216.438336,11.6842105 216.438336,11.6842105 C216.438336,11.6842105 218.990354,11.4736842 218.990354,13.5789474 C219.092435,14.7368421 218.37787,15.7894737 217.152901,16 L216.744578,16 C216.744578,15.8947368 216.744578,15.8947368 216.642498,15.8947368 L216.642498,15.8947368 Z"></path>
            </g>
        </g>
    </g>
</svg>