<?xml version="1.0" encoding="UTF-8" standalone="no"?>
<svg width="50px" height="51px" viewBox="0 0 50 51" version="1.1" xmlns="http://www.w3.org/2000/svg" xmlns:xlink="http://www.w3.org/1999/xlink" xmlns:sketch="http://www.bohemiancoding.com/sketch/ns">
    <!-- Generator: Sketch 3.8.3 (29802) - http://www.bohemiancoding.com/sketch -->
    <title>bag</title>
    <desc>Created with Sketch.</desc>
    <defs></defs>
    <g id="Icons" stroke="none" stroke-width="1" fill="none" fill-rule="evenodd" sketch:type="MSPage">
        <g id="bag" sketch:type="MSArtboardGroup" transform="translate(12.000000, 7.000000)" fill="#000000">
            <path d="M24.17,35.8 L1.83,35.8 C0.863501688,35.8 0.08,35.0164983 0.08,34.05 L0.08,1.95 C0.08,0.983501688 0.863501688,0.2 1.83,0.2 L24.17,0.2 C25.1364983,0.2 25.92,0.983501688 25.92,1.95 L25.92,34.05 C25.92,35.0164983 25.1364983,35.8 24.17,35.8 L24.17,35.8 Z M1.83,1 C1.31637518,1 0.9,1.41637518 0.9,1.93 L0.9,34.05 C0.9,34.5636248 1.31637518,34.98 1.83,34.98 L24.17,34.98 C24.6836248,34.98 25.1,34.5636248 25.1,34.05 L25.1,1.95 C25.1053797,1.69990186 25.0097779,1.45818199 24.8347826,1.27942333 C24.6597873,1.10066466 24.420156,0.999942147 24.17,1 L1.83,1 L1.83,1 Z" id="Shape"></path>
            <path d="M20.27,31.3 L6,31.3 C5.36487254,31.3 4.85,30.7851275 4.85,30.15 L4.85,12.86 C4.85,12.2248725 5.36487254,11.71 6,11.71 L20.27,11.71 C20.9051275,11.71 21.42,12.2248725 21.42,12.86 L21.42,30.15 C21.42,30.7851275 20.9051275,31.3 20.27,31.3 L20.27,31.3 Z M6,12.53 C5.81995341,12.535222 5.675222,12.6799534 5.67,12.86 L5.67,30.15 C5.66992042,30.3339399 5.81613966,30.48459 6,30.49 L20.27,30.49 C20.4577768,30.49 20.61,30.3377768 20.61,30.15 L20.61,12.86 C20.60459,12.6761397 20.4539399,12.5299204 20.27,12.53 L6,12.53 L6,12.53 Z" id="Shape"></path>
            <rect id="Rectangle-path" x="7.12" y="14.46" width="4" height="0.82"></rect>
            <rect id="Rectangle-path" x="2.86" y="4.95" width="20.27" height="0.82"></rect>
        </g>
    </g>
</svg>
