<?xml version="1.0" encoding="UTF-8" standalone="no"?>
<svg width="50px" height="50px" viewBox="0 0 50 50" version="1.1" xmlns="http://www.w3.org/2000/svg" xmlns:xlink="http://www.w3.org/1999/xlink">
    <!-- Generator: Sketch 3.8.3 (29802) - http://www.bohemiancoding.com/sketch -->
    <title>bag</title>
    <desc>Created with Sketch.</desc>
    <defs></defs>
    <g id="Icons" stroke="none" stroke-width="1" fill="none" fill-rule="evenodd">
        <g id="Artboard-1" fill="#000000">
            <path d="M12,8.99970728 C12,7.89529944 12.8949789,7 13.9970047,7 L36.0029953,7 C37.1059106,7 38,7.88989258 38,8.99970728 L38,41.0002927 C38,42.1047006 37.1050211,43 36.0029953,43 L13.9970047,43 C12.8940894,43 12,42.1101074 12,41.0002927 L12,8.99970728 Z M13,8.99914214 C13,8.44733117 13.4474692,8 14.0006946,8 L35.9993054,8 C36.5519738,8 37,8.45492426 37,8.99914214 L37,41.0008579 C37,41.5526688 36.5525308,42 35.9993054,42 L14.0006946,42 C13.4480262,42 13,41.5450757 13,41.0008579 L13,8.99914214 Z" id="Combined-Shape"></path>
            <path d="M17,20.4908981 C17,19.6674978 17.6671298,19 18.5052412,19 L31.4947588,19 C32.3260806,19 33,19.6762201 33,20.4908981 L33,36.5091019 C33,37.3325022 32.3328702,38 31.4947588,38 L18.5052412,38 C17.6739194,38 17,37.3237799 17,36.5091019 L17,20.4908981 Z M18,20.4904432 C18,20.2195789 18.2199066,20 18.4982674,20 L31.5017326,20 C31.7769181,20 32,20.2149428 32,20.4904432 L32,36.5095568 C32,36.7804211 31.7800934,37 31.5017326,37 L18.4982674,37 C18.2230819,37 18,36.7850572 18,36.5095568 L18,20.4904432 Z" id="Combined-Shape-Copy"></path>
            <rect id="Rectangle-5" x="20" y="22" width="4" height="1"></rect>
            <rect id="Rectangle-6" x="15" y="12" width="20" height="1"></rect>
        </g>
    </g>
</svg>
