<svg id="Layer_1" data-name="Layer 1" xmlns="http://www.w3.org/2000/svg" viewBox="0 0 50 50"><title>single_bag_icon_</title><path d="M36.17,42.8H13.83a1.75,1.75,0,0,1-1.75-1.75V8.95A1.75,1.75,0,0,1,13.83,7.2H36.17a1.75,1.75,0,0,1,1.75,1.75V41.05A1.75,1.75,0,0,1,36.17,42.8ZM13.83,8a0.93,0.93,0,0,0-.93.93V41.05a0.93,0.93,0,0,0,.93.93H36.17a0.93,0.93,0,0,0,.93-0.93V8.95A0.93,0.93,0,0,0,36.17,8H13.83Z"/><path d="M32.27,38.3H18a1.15,1.15,0,0,1-1.15-1.15V19.86A1.15,1.15,0,0,1,18,18.71H32.27a1.15,1.15,0,0,1,1.15,1.15V37.15A1.15,1.15,0,0,1,32.27,38.3ZM18,19.53a0.34,0.34,0,0,0-.33.33V37.15a0.34,0.34,0,0,0,.33.34H32.27a0.34,0.34,0,0,0,.34-0.34V19.86a0.34,0.34,0,0,0-.34-0.33H18Z"/><rect x="19.12" y="21.46" width="4" height="0.82"/><rect x="14.86" y="11.95" width="20.27" height="0.82"/></svg>