<svg id="Layer_1" data-name="Layer 1" xmlns="http://www.w3.org/2000/svg" viewBox="0 0 50 50"><title>batchbrew</title><path d="M21,11.89a1.19,1.19,0,1,0,1.19-1.19A1.19,1.19,0,0,0,21,11.89Zm1.57,0a.38.38,0,1,1-.38-.38A.38.38,0,0,1,22.54,11.89Z"/><path d="M17.1,11.89a1.19,1.19,0,1,0,1.19-1.19A1.19,1.19,0,0,0,17.1,11.89Zm1.57,0a.38.38,0,1,1-.38-.38A.38.38,0,0,1,18.66,11.89Z"/><path d="M13.22,11.89a1.19,1.19,0,1,0,1.19-1.19A1.19,1.19,0,0,0,13.22,11.89Zm1.57,0a.38.38,0,1,1-.38-.38A.38.38,0,0,1,14.79,11.89Z"/><path d="M37.26,23.42H35.5V21.88a.31.31,0,0,0-.31-.31H23.75a.31.31,0,0,0-.24.49l1.91,2.5v0a8.5,8.5,0,0,0-2.54,6.09c0,.19,0,.39,0,.59,0,1.88,0,4.23.85,5.11a1.22,1.22,0,0,0,.89.37H36.27a1.14,1.14,0,0,0,.83-.35c.72-.72.87-2.46.9-4.16a4.52,4.52,0,0,0,3.7-4.37A4.45,4.45,0,0,0,37.26,23.42ZM24.59,22.34H34.74v1.9H26.08ZM26,25H34.9a7.44,7.44,0,0,1,2.35,5.4H23.64A7.38,7.38,0,0,1,26,25ZM36.53,35.81a.54.54,0,0,1-.4.17H24.77a.61.61,0,0,1-.46-.19c-.7-.7-.68-2.85-.67-4.52,0,0,0-.1,0-.11H37.25C37.25,32.85,37.22,35.12,36.53,35.81ZM38,31.46c0-.13,0-1,0-1.18a9.43,9.43,0,0,0-2.51-5.72v-.38h1.68a3.65,3.65,0,0,1,3.76,3.68A3.61,3.61,0,0,1,38,31.46Z"/><path d="M40.06,15.85V7.92H8.3v7.93H9.82V37.19H9.65A1.35,1.35,0,0,0,8.3,38.54v2.18a1.35,1.35,0,0,0,1.35,1.35H38.71a1.35,1.35,0,0,0,1.35-1.35V38.54a1.35,1.35,0,0,0-1.35-1.35H18.92V15.85ZM38.71,38.09a.45.45,0,0,1,.45.45v2.18a.45.45,0,0,1-.45.45H9.65a.45.45,0,0,1-.45-.45V38.54a.45.45,0,0,1,.45-.45Zm-28.08-.9V15.85H18.1V37.19ZM9.11,15V8.74H39.25V15Z"/><path d="M26.67,20.33H33.3a.89.89,0,0,0,.86-.75l1-3.72h-.83l-1,3.61a.09.09,0,0,1-.06.05H26.67a.09.09,0,0,1-.06-.05l-1-3.61h-.83l1,3.72A.89.89,0,0,0,26.67,20.33Z"/></svg>