<?xml version="1.0" encoding="UTF-8" standalone="no"?>
<svg width="50px" height="50px" viewBox="0 0 50 50" version="1.1" xmlns="http://www.w3.org/2000/svg" xmlns:xlink="http://www.w3.org/1999/xlink" xmlns:sketch="http://www.bohemiancoding.com/sketch/ns">
    <!-- Generator: Sketch 3.3.3 (12072) - http://www.bohemiancoding.com/sketch -->
    <title>cafetiere</title>
    <desc>Created with Sketch.</desc>
    <defs></defs>
    <g id="Icons" stroke="none" stroke-width="1" fill="none" fill-rule="evenodd" sketch:type="MSPage">
        <g id="cafetiere" sketch:type="MSArtboardGroup" fill="#000000">
            <path d="M37.53372,33.4516755 C37.53372,34.2665011 36.8703717,34.9297614 36.0554379,34.9297614 L33.3811625,34.9297614 L33.3811625,34.0807974 L36.0554379,34.0807974 C36.4022782,34.0807974 36.6848719,33.7984698 36.6848719,33.4516755 L36.6848719,20.9330951 C36.6848719,20.5861484 36.4022782,20.3039732 36.0554379,20.3039732 L33.3811625,20.3039732 L33.3811625,19.4550854 L36.0554379,19.4550854 C36.8703717,19.4550854 37.53372,20.1181171 37.53372,20.9330951 L37.53372,33.4516755 L37.53372,33.4516755 Z M32.5323144,38.366995 C32.5323144,39.3032862 31.7702717,40.0648468 30.8340086,40.0648468 L18.8012175,40.0648468 C17.8648019,40.0648468 17.1029116,39.3032862 17.1029116,38.366995 L17.1029116,27.5852817 L32.5323144,27.5852817 L32.5323144,33.232062 L32.5323144,35.7786492 L32.5323144,38.366995 L32.5323144,38.366995 Z M17.1029116,18.1217829 L17.1029116,15.07455 L24.393189,15.07455 L24.393189,25.1702187 L17.1029116,25.1702187 L17.1029116,18.1217829 L17.1029116,18.1217829 Z M14.2315523,15.07455 L16.2539111,15.07455 L16.2539111,17.0971738 L14.2315523,15.07455 L14.2315523,15.07455 Z M17.5276405,12.6902726 L32.1075855,12.6902726 C32.3418609,12.6902726 32.5323144,12.880777 32.5323144,13.1147927 L32.5323144,14.2258146 L17.1029116,14.2258146 L17.1029116,13.1147927 C17.1029116,12.880777 17.2934414,12.6902726 17.5276405,12.6902726 L17.5276405,12.6902726 L17.5276405,12.6902726 Z M32.5323144,21.1529372 L32.5323144,25.1702187 L25.2422657,25.1702187 L25.2422657,15.07455 L32.5323144,15.07455 L32.5323144,18.60635 L32.5323144,21.1529372 L32.5323144,21.1529372 Z M33.3811625,25.1702187 L33.3811625,21.1529372 L35.8354141,21.1529372 L35.8354141,33.232062 L33.3811625,33.232062 L33.3811625,27.5852817 L33.3811625,25.1702187 L33.3811625,25.1702187 Z M32.5323144,26.7363939 L17.1031403,26.7363939 L17.1031403,26.0189541 L32.5323144,26.0189541 L32.5323144,26.7363939 L32.5323144,26.7363939 Z M23.9997832,6.68450569 C23.9997832,6.23369597 24.3666673,5.86678441 24.8179179,5.86678441 C25.2685588,5.86678441 25.6355191,6.23369597 25.6355191,6.68450569 C25.6355191,7.13546781 25.2685588,7.50230317 24.8179179,7.50230317 C24.3666673,7.50230317 23.9997832,7.13546781 23.9997832,6.68450569 L23.9997832,6.68450569 L23.9997832,6.68450569 Z M25.2043122,11.8413848 L25.2043122,8.25654836 C25.9182652,8.06817757 26.4467947,7.41878602 26.4467947,6.64655721 C26.4467947,5.72748756 25.698775,4.97994813 24.7799644,4.97994813 C23.8604679,4.97994813 23.1126005,5.72748756 23.1126005,6.64655721 C23.1126005,7.41878602 23.6413587,8.06817757 24.3553117,8.25654836 L24.3553117,11.8413848 L17.5276405,11.8413848 C16.8252717,11.8413848 16.2539111,12.4126695 16.2539111,13.1147927 L16.2539111,14.2258146 L13.2065786,14.2258146 C13.0348732,14.2258146 12.8798582,14.329068 12.8143159,14.4876439 C12.7485451,14.6460674 12.7848981,14.8287231 12.9062275,14.9501887 L16.2539111,18.297428 L16.2539111,25.1702187 L16.2539111,27.5852817 L16.2539111,38.366995 C16.2539111,39.7715462 17.3967085,40.9138108 18.8012175,40.9138108 L30.8340086,40.9138108 C32.2385176,40.9138108 33.3811625,39.7715462 33.3811625,38.366995 L33.3811625,35.7786492 L36.0554379,35.7786492 C37.3386937,35.7786492 38.3827967,34.7345324 38.3827967,33.4516755 L38.3827967,20.9330951 C38.3827967,19.6502382 37.3386937,18.60635 36.0554379,18.60635 L33.3811625,18.60635 L33.3811625,14.6500299 L33.3811625,13.1147927 C33.3811625,12.4126695 32.8099544,11.8413848 32.1075855,11.8413848 L25.2422657,11.8413848 L25.2043122,11.8413848 Z M25.2422657,11.8413848 L25.2422657,11.603559 L25.2422657,11.8413848 Z" id="Fill-16" sketch:type="MSShapeGroup"></path>
        </g>
    </g>
</svg>
