<?xml version="1.0" encoding="UTF-8" standalone="no"?>
<svg width="20px" height="20px" viewBox="0 0 20 20" version="1.1" xmlns="http://www.w3.org/2000/svg" xmlns:xlink="http://www.w3.org/1999/xlink" xmlns:sketch="http://www.bohemiancoding.com/sketch/ns">
    <!-- Generator: Sketch 3.3.3 (12081) - http://www.bohemiancoding.com/sketch -->
    <title>calendar</title>
    <desc>Created with Sketch.</desc>
    <defs></defs>
    <g id="Icons" stroke="none" stroke-width="1" fill="none" fill-rule="evenodd" sketch:type="MSPage">
        <g id="calendar" sketch:type="MSArtboardGroup" fill="#000000">
            <path d="M2,4.00010618 L2,4.00010618 L2,16.9998938 C2,17.5559278 2.44378894,18 2.99508929,18 L17.0049107,18 C17.5542717,18 18,17.5530567 18,16.9998938 L18,4.00010618 C18,3.44407217 17.5562111,3 17.0049107,3 L2.99508929,3 C2.44572825,3 2,3.44694334 2,4.00010618 L2,4.00010618 Z M1,4.00010618 C1,2.89547804 1.8926228,2 2.99508929,2 L17.0049107,2 C18.1067681,2 19,2.89005841 19,4.00010618 L19,16.9998938 C19,18.104522 18.1073772,19 17.0049107,19 L2.99508929,19 C1.8932319,19 1,18.1099416 1,16.9998938 L1,4.00010618 L1,4.00010618 Z" id="Shape" sketch:type="MSShapeGroup"></path>
            <path d="M5,3.5 L5,1.5 C5,1.22385763 4.77614237,1 4.5,1 C4.22385763,1 4,1.22385763 4,1.5 L4,3.5 C4,3.77614237 4.22385763,4 4.5,4 C4.77614237,4 5,3.77614237 5,3.5 L5,3.5 Z" id="Shape" sketch:type="MSShapeGroup"></path>
            <path d="M16,3.5 L16,1.5 C16,1.22385763 15.7761424,1 15.5,1 C15.2238576,1 15,1.22385763 15,1.5 L15,3.5 C15,3.77614237 15.2238576,4 15.5,4 C15.7761424,4 16,3.77614237 16,3.5 L16,3.5 Z" id="Shape" sketch:type="MSShapeGroup"></path>
            <path d="M1.5,7 L17.5,7 L18,7 L18,6 L17.5,6 L1.5,6 L1,6 L1,7 L1.5,7 L1.5,7 Z" id="Shape" sketch:type="MSShapeGroup"></path>
            <path d="M3.5,10 L6.5,10 C6.77614237,10 7,9.77614237 7,9.5 C7,9.22385763 6.77614237,9 6.5,9 L3.5,9 C3.22385763,9 3,9.22385763 3,9.5 C3,9.77614237 3.22385763,10 3.5,10 L3.5,10 Z" id="Shape" sketch:type="MSShapeGroup"></path>
            <path d="M8.5,10 L11.5,10 C11.7761424,10 12,9.77614237 12,9.5 C12,9.22385763 11.7761424,9 11.5,9 L8.5,9 C8.22385763,9 8,9.22385763 8,9.5 C8,9.77614237 8.22385763,10 8.5,10 L8.5,10 Z" id="Shape" sketch:type="MSShapeGroup"></path>
            <path d="M13.5,10 L16.5,10 C16.7761424,10 17,9.77614237 17,9.5 C17,9.22385763 16.7761424,9 16.5,9 L13.5,9 C13.2238576,9 13,9.22385763 13,9.5 C13,9.77614237 13.2238576,10 13.5,10 L13.5,10 Z" id="Shape" sketch:type="MSShapeGroup"></path>
            <path d="M3.5,13 L6.5,13 C6.77614237,13 7,12.7761424 7,12.5 C7,12.2238576 6.77614237,12 6.5,12 L3.5,12 C3.22385763,12 3,12.2238576 3,12.5 C3,12.7761424 3.22385763,13 3.5,13 L3.5,13 Z" id="Shape" sketch:type="MSShapeGroup"></path>
            <path d="M8.5,13 L11.5,13 C11.7761424,13 12,12.7761424 12,12.5 C12,12.2238576 11.7761424,12 11.5,12 L8.5,12 C8.22385763,12 8,12.2238576 8,12.5 C8,12.7761424 8.22385763,13 8.5,13 L8.5,13 Z" id="Shape" sketch:type="MSShapeGroup"></path>
            <path d="M13.5,13 L16.5,13 C16.7761424,13 17,12.7761424 17,12.5 C17,12.2238576 16.7761424,12 16.5,12 L13.5,12 C13.2238576,12 13,12.2238576 13,12.5 C13,12.7761424 13.2238576,13 13.5,13 L13.5,13 Z" id="Shape" sketch:type="MSShapeGroup"></path>
            <path d="M3.5,16 L6.5,16 C6.77614237,16 7,15.7761424 7,15.5 C7,15.2238576 6.77614237,15 6.5,15 L3.5,15 C3.22385763,15 3,15.2238576 3,15.5 C3,15.7761424 3.22385763,16 3.5,16 L3.5,16 Z" id="Shape" sketch:type="MSShapeGroup"></path>
            <path d="M8.5,16 L11.5,16 C11.7761424,16 12,15.7761424 12,15.5 C12,15.2238576 11.7761424,15 11.5,15 L8.5,15 C8.22385763,15 8,15.2238576 8,15.5 C8,15.7761424 8.22385763,16 8.5,16 L8.5,16 Z" id="Shape" sketch:type="MSShapeGroup"></path>
            <path d="M13.5,16 L16.5,16 C16.7761424,16 17,15.7761424 17,15.5 C17,15.2238576 16.7761424,15 16.5,15 L13.5,15 C13.2238576,15 13,15.2238576 13,15.5 C13,15.7761424 13.2238576,16 13.5,16 L13.5,16 Z" id="Shape" sketch:type="MSShapeGroup"></path>
        </g>
    </g>
</svg>