<?xml version="1.0" encoding="UTF-8" standalone="no"?>
<svg width="20px" height="20px" viewBox="0 0 20 20" version="1.1" xmlns="http://www.w3.org/2000/svg" xmlns:xlink="http://www.w3.org/1999/xlink" xmlns:sketch="http://www.bohemiancoding.com/sketch/ns">
    <!-- Generator: Sketch 3.3.2 (12043) - http://www.bohemiancoding.com/sketch -->
    <title>cup copy</title>
    <desc>Created with Sketch.</desc>
    <defs></defs>
    <g id="Icons" stroke="none" stroke-width="1" fill="none" fill-rule="evenodd" sketch:type="MSPage">
        <g id="cup-copy" sketch:type="MSArtboardGroup" stroke="#626262" stroke-width="1.2">
            <path d="M7.86159461,1.9573935 L7.9772858,4.4591443 C7.60897277,4.59347837 7.25492982,4.7641699 6.92038029,4.96869482 L5.0387648,3.31832664 C3.87405769,4.18282935 2.95490829,5.33670554 2.37220025,6.66585786 L4.39807931,8.13512317 C4.27334967,8.50716081 4.18590747,8.89069981 4.13704552,9.28007277 L1.67501895,9.72384902 C1.62397073,11.1744898 1.95201136,12.6133468 2.6267056,13.8981595 L5.03724772,13.2285497 C5.25002364,13.5581388 5.49503006,13.8657124 5.76864685,14.1467278 L4.5801635,16.3504755 C5.68121406,17.2948902 7.00942493,17.9352432 8.43344979,18.2082157 L9.41346321,15.9039615 C9.8035196,15.9429148 10.1964806,15.9429148 10.586537,15.9039615 L11.5665505,18.2082157 C12.9905898,17.9352421 14.318797,17.2948902 15.4198367,16.3504755 L14.2313534,14.1467278 C14.5049705,13.8657127 14.7499781,13.5581381 14.9627525,13.2285497 L17.3732946,13.8981595 C18.0479896,12.613354 18.3760281,11.1744934 18.3249813,9.72384902 L15.8629547,9.28007277 C15.8140928,8.89069981 15.7266509,8.50716081 15.6019209,8.13512317 L17.6278,6.66585786 C17.3367661,6.00201001 16.9618065,5.38188678 16.5142444,4.81970202 C16.0656977,4.25628063 15.5442288,3.75105288 14.9612355,3.31832664 L13.07962,4.96869482 C12.745073,4.76416918 12.3910275,4.59347765 12.0227144,4.4591443 L12.1384056,1.9573935 C12.1384056,1.9573935 9.2629067,1.58477283 7.86159461,1.9573935 Z M10.0000103,7.35653659 C11.4679414,7.35653659 12.6579332,8.54786822 12.6579332,10.0174522 C12.6579332,11.4870362 11.4679414,12.6783678 10.0000103,12.6783678 C8.53207909,12.6783678 7.34208734,11.4870362 7.34208734,10.0174522 C7.34208734,8.54786822 8.53207909,7.35653659 10.0000103,7.35653659 L10.0000103,7.35653659 Z" id="Shape-Copy" sketch:type="MSShapeGroup" transform="translate(10.000000, 10.000000) rotate(-180.000000) translate(-10.000000, -10.000000) "></path>
        </g>
    </g>
</svg>