<?xml version="1.0" encoding="UTF-8" standalone="no"?>
<svg width="20px" height="20px" viewBox="0 0 20 20" version="1.1" xmlns="http://www.w3.org/2000/svg" xmlns:xlink="http://www.w3.org/1999/xlink" xmlns:sketch="http://www.bohemiancoding.com/sketch/ns">
    <!-- Generator: Sketch 3.3.3 (12072) - http://www.bohemiancoding.com/sketch -->
    <title>cross</title>
    <desc>Created with Sketch.</desc>
    <defs></defs>
    <g id="Icons" stroke="none" stroke-width="1" fill="none" fill-rule="evenodd" sketch:type="MSPage">
        <g id="cross" sketch:type="MSArtboardGroup" stroke="#000000" stroke-width="1.5" stroke-linecap="round" stroke-linejoin="round">
            <path d="M9.56712319,10 L2.58612242,3.01899923 C2.46658679,2.8994636 2.46658679,2.70565805 2.58612242,2.58612242 C2.70565805,2.46658679 2.8994636,2.46658679 3.01899923,2.58612242 L10,9.56712319 L16.9810008,2.58612242 C17.1005364,2.46658679 17.2943419,2.46658679 17.4138776,2.58612242 C17.5334132,2.70565805 17.5334132,2.8994636 17.4138776,3.01899923 L10.4328768,10 L17.4138776,16.9810008 C17.5334132,17.1005364 17.5334132,17.2943419 17.4138776,17.4138776 C17.2943419,17.5334132 17.1005364,17.5334132 16.9810008,17.4138776 L10,10.4328768 L3.01899923,17.4138776 C2.8994636,17.5334132 2.70565805,17.5334132 2.58612242,17.4138776 C2.46658679,17.2943419 2.46658679,17.1005364 2.58612242,16.9810008 L9.56712319,10 Z" id="Path-694" sketch:type="MSShapeGroup"></path>
        </g>
    </g>
</svg>