<?xml version="1.0" encoding="UTF-8" standalone="no"?>
<svg width="20px" height="20px" viewBox="0 0 20 20" version="1.1" xmlns="http://www.w3.org/2000/svg" xmlns:xlink="http://www.w3.org/1999/xlink" xmlns:sketch="http://www.bohemiancoding.com/sketch/ns">
    <!-- Generator: Sketch 3.3.3 (12072) - http://www.bohemiancoding.com/sketch -->
    <title>cross</title>
    <desc>Created with Sketch.</desc>
    <defs></defs>
    <g id="Icons" stroke="none" stroke-width="1" fill="none" fill-rule="evenodd" sketch:type="MSPage">
        <g id="cross" sketch:type="MSArtboardGroup" stroke="#000000" stroke-width="1.5" stroke-linecap="round" stroke-linejoin="round">
            <path d="M9.58164743,10 L2.834879,3.25323157 C2.71935413,3.1377067 2.71935413,2.95040388 2.834879,2.834879 C2.95040388,2.71935413 3.1377067,2.71935413 3.25323157,2.834879 L10,9.58164743 L16.7467684,2.834879 C16.8622933,2.71935413 17.0495961,2.71935413 17.165121,2.834879 C17.2806459,2.95040388 17.2806459,3.1377067 17.165121,3.25323157 L10.4183526,10 L17.165121,16.7467684 C17.2806459,16.8622933 17.2806459,17.0495961 17.165121,17.165121 C17.0495961,17.2806459 16.8622933,17.2806459 16.7467684,17.165121 L10,10.4183526 L3.25323157,17.165121 C3.1377067,17.2806459 2.95040388,17.2806459 2.834879,17.165121 C2.71935413,17.0495961 2.71935413,16.8622933 2.834879,16.7467684 L9.58164743,10 Z" id="Path-694" sketch:type="MSShapeGroup"></path>
        </g>
    </g>
</svg>