<svg xmlns="http://www.w3.org/2000/svg" width="50" height="50" viewBox="0 0 50 50">
    <path style="text-indent:0;text-align:start;line-height:normal;text-transform:none;block-progression:tb;-inkscape-font-specification:Bitstream Vera Sans" d="M 25.90625 0.96875 A 1.0001 1.0001 0 0 0 25.78125 1 A 1.0001 1.0001 0 0 0 25 2 C 25 5.0544662 23.836781 5.975035 22.34375 7.3125 C 20.850719 8.649965 19.03125 10.409129 19.03125 14 A 1.0001 1.0001 0 1 0 21.03125 14 C 21.03125 11.015871 22.188531 10.124035 23.6875 8.78125 C 25.186469 7.438465 27 5.6495338 27 2 A 1.0001 1.0001 0 0 0 25.90625 0.96875 z M 30.90625 5.96875 A 1.0001 1.0001 0 0 0 30.78125 6 A 1.0001 1.0001 0 0 0 30 7 C 30 8.9531111 29.341037 9.4246957 28.34375 10.3125 C 27.346463 11.200304 26 12.511859 26 15 A 1.0001 1.0001 0 1 0 28 15 C 28 13.124141 28.649537 12.708696 29.65625 11.8125 C 30.662963 10.916304 32 9.5468889 32 7 A 1.0001 1.0001 0 0 0 30.90625 5.96875 z M 10.8125 18 A 1.0001 1.0001 0 0 0 10 19 L 10 47 C 10 48.64497 11.35503 50 13 50 L 34 50 C 35.64497 50 37 48.64497 37 47 L 37 40.96875 C 39.894828 40.781514 42.021674 39.269957 43.25 37.25 C 44.562572 35.091501 45 32.421837 45 30 C 45 28.703422 44.694331 27.454075 43.84375 26.5 C 42.993169 25.545925 41.644139 25 40 25 L 37 25 L 37 19 A 1.0001 1.0001 0 0 0 36 18 L 11 18 A 1.0001 1.0001 0 0 0 10.90625 18 A 1.0001 1.0001 0 0 0 10.8125 18 z M 12 20 L 35 20 L 35 47 C 35 47.56503 34.56503 48 34 48 L 13 48 C 12.43497 48 12 47.56503 12 47 L 12 20 z M 37 27 L 40 27 C 41.243861 27 41.916331 27.333075 42.34375 27.8125 C 42.771169 28.291925 43 29.030578 43 30 C 43 32.161163 42.562428 34.491749 41.53125 36.1875 C 40.584427 37.744531 39.214712 38.80429 37 38.96875 L 37 27 z" color="#000" overflow="visible" enable-background="accumulate" font-family="Bitstream Vera Sans"/>
</svg>