<?xml version="1.0" encoding="UTF-8" standalone="no"?>
<svg width="20px" height="20px" viewBox="0 0 20 20" version="1.1" xmlns="http://www.w3.org/2000/svg" xmlns:xlink="http://www.w3.org/1999/xlink" xmlns:sketch="http://www.bohemiancoding.com/sketch/ns">
    <!-- Generator: Sketch 3.4.2 (15855) - http://www.bohemiancoding.com/sketch -->
    <title>decaf</title>
    <desc>Created with Sketch.</desc>
    <defs></defs>
    <g id="Icons" stroke="none" stroke-width="1" fill="none" fill-rule="evenodd" sketch:type="MSPage">
        <g id="decaf" sketch:type="MSArtboardGroup" fill="#000000">
            <g id="Z-+-Z-Copy-+-Z-Copy-2" sketch:type="MSLayerGroup" transform="translate(5.000000, 4.000000)">
                <path d="M0.0526829268,12.8412143 C0.0526829268,12.9247857 0.131707317,13 0.219512195,13 L3.96878049,13 C4.06536585,13 4.13560976,12.9247857 4.13560976,12.8412143 L4.13560976,12.1475714 C4.13560976,12.064 4.06536585,11.9887857 3.96878049,11.9887857 L1.7297561,11.9887857 L1.7297561,11.9720714 L4.31121951,7.41742857 L4.31121951,7.30878571 C4.31121951,7.22521429 4.23219512,7.15 4.14439024,7.15 L0.474146341,7.15 C0.386341463,7.15 0.307317073,7.22521429 0.307317073,7.30878571 L0.307317073,8.00242857 C0.307317073,8.086 0.386341463,8.16121429 0.474146341,8.16121429 L2.66926829,8.16121429 L2.66926829,8.19464286 L0.0526829268,12.6907857 L0.0526829268,12.8412143 Z" id="Z" sketch:type="MSShapeGroup"></path>
                <path d="M6.86439024,8.01914286 C6.86439024,8.07485714 6.91707317,8.125 6.97560976,8.125 L9.47512195,8.125 C9.5395122,8.125 9.58634146,8.07485714 9.58634146,8.01914286 L9.58634146,7.55671429 C9.58634146,7.501 9.5395122,7.45085714 9.47512195,7.45085714 L7.98243902,7.45085714 L7.98243902,7.43971429 L9.70341463,4.40328571 L9.70341463,4.33085714 C9.70341463,4.27514286 9.65073171,4.225 9.59219512,4.225 L7.14536585,4.225 C7.08682927,4.225 7.03414634,4.27514286 7.03414634,4.33085714 L7.03414634,4.79328571 C7.03414634,4.849 7.08682927,4.89914286 7.14536585,4.89914286 L8.60878049,4.89914286 L8.60878049,4.92142857 L6.86439024,7.91885714 L6.86439024,8.01914286 Z" id="Z-Copy" sketch:type="MSShapeGroup"></path>
                <path d="M3.68195122,2.71514286 C3.68195122,2.75228571 3.71707317,2.78571429 3.75609756,2.78571429 L5.42243902,2.78571429 C5.46536585,2.78571429 5.49658537,2.75228571 5.49658537,2.71514286 L5.49658537,2.40685714 C5.49658537,2.36971429 5.46536585,2.33628571 5.42243902,2.33628571 L4.42731707,2.33628571 L4.42731707,2.32885714 L5.57463415,0.304571429 L5.57463415,0.256285714 C5.57463415,0.219142857 5.5395122,0.185714286 5.5004878,0.185714286 L3.86926829,0.185714286 C3.8302439,0.185714286 3.79512195,0.219142857 3.79512195,0.256285714 L3.79512195,0.564571429 C3.79512195,0.601714286 3.8302439,0.635142857 3.86926829,0.635142857 L4.84487805,0.635142857 L4.84487805,0.65 L3.68195122,2.64828571 L3.68195122,2.71514286 Z" id="Z-Copy-2" sketch:type="MSShapeGroup"></path>
            </g>
        </g>
    </g>
</svg>