<?xml version="1.0" encoding="UTF-8" standalone="no"?>
<svg width="50px" height="50px" viewBox="0 0 50 50" version="1.1" xmlns="http://www.w3.org/2000/svg" xmlns:xlink="http://www.w3.org/1999/xlink" xmlns:sketch="http://www.bohemiancoding.com/sketch/ns">
    <!-- Generator: Sketch 3.4.4 (17249) - http://www.bohemiancoding.com/sketch -->
    <title>decaf</title>
    <desc>Created with Sketch.</desc>
    <defs></defs>
    <g id="Icons" stroke="none" stroke-width="1" fill="none" fill-rule="evenodd" sketch:type="MSPage">
        <g id="decaf" sketch:type="MSArtboardGroup" fill="#000000">
            <g id="Z-+-Z-Copy-+-Z-Copy-2" sketch:type="MSLayerGroup" transform="translate(13.000000, 9.000000)">
                <path d="M0.131707317,32.1030357 C0.131707317,32.3119643 0.329268293,32.5 0.548780488,32.5 L9.92195122,32.5 C10.1634146,32.5 10.3390244,32.3119643 10.3390244,32.1030357 L10.3390244,30.3689286 C10.3390244,30.16 10.1634146,29.9719643 9.92195122,29.9719643 L4.32439024,29.9719643 L4.32439024,29.9301786 L10.7780488,18.5435714 L10.7780488,18.2719643 C10.7780488,18.0630357 10.5804878,17.875 10.3609756,17.875 L1.18536585,17.875 C0.965853659,17.875 0.768292683,18.0630357 0.768292683,18.2719643 L0.768292683,20.0060714 C0.768292683,20.215 0.965853659,20.4030357 1.18536585,20.4030357 L6.67317073,20.4030357 L6.67317073,20.4866071 L0.131707317,31.7269643 L0.131707317,32.1030357 Z" id="Z" sketch:type="MSShapeGroup"></path>
                <path d="M17.1609756,20.0478571 C17.1609756,20.1871429 17.2926829,20.3125 17.4390244,20.3125 L23.6878049,20.3125 C23.8487805,20.3125 23.9658537,20.1871429 23.9658537,20.0478571 L23.9658537,18.8917857 C23.9658537,18.7525 23.8487805,18.6271429 23.6878049,18.6271429 L19.9560976,18.6271429 L19.9560976,18.5992857 L24.2585366,11.0082143 L24.2585366,10.8271429 C24.2585366,10.6878571 24.1268293,10.5625 23.9804878,10.5625 L17.8634146,10.5625 C17.7170732,10.5625 17.5853659,10.6878571 17.5853659,10.8271429 L17.5853659,11.9832143 C17.5853659,12.1225 17.7170732,12.2478571 17.8634146,12.2478571 L21.5219512,12.2478571 L21.5219512,12.3035714 L17.1609756,19.7971429 L17.1609756,20.0478571 Z" id="Z-Copy" sketch:type="MSShapeGroup"></path>
                <path d="M9.20487805,6.78785714 C9.20487805,6.88071429 9.29268293,6.96428571 9.3902439,6.96428571 L13.5560976,6.96428571 C13.6634146,6.96428571 13.7414634,6.88071429 13.7414634,6.78785714 L13.7414634,6.01714286 C13.7414634,5.92428571 13.6634146,5.84071429 13.5560976,5.84071429 L11.0682927,5.84071429 L11.0682927,5.82214286 L13.9365854,0.761428571 L13.9365854,0.640714286 C13.9365854,0.547857143 13.8487805,0.464285714 13.7512195,0.464285714 L9.67317073,0.464285714 C9.57560976,0.464285714 9.48780488,0.547857143 9.48780488,0.640714286 L9.48780488,1.41142857 C9.48780488,1.50428571 9.57560976,1.58785714 9.67317073,1.58785714 L12.1121951,1.58785714 L12.1121951,1.625 L9.20487805,6.62071429 L9.20487805,6.78785714 Z" id="Z-Copy-2" sketch:type="MSShapeGroup"></path>
            </g>
        </g>
    </g>
</svg>