<?xml version="1.0" encoding="UTF-8" standalone="no"?>
<svg width="50px" height="50px" viewBox="0 0 50 50" version="1.1" xmlns="http://www.w3.org/2000/svg" xmlns:xlink="http://www.w3.org/1999/xlink" xmlns:sketch="http://www.bohemiancoding.com/sketch/ns">
    <!-- Generator: Sketch 3.3.3 (12072) - http://www.bohemiancoding.com/sketch -->
    <title>drip</title>
    <desc>Created with Sketch.</desc>
    <defs></defs>
    <g id="Icons" stroke="none" stroke-width="1" fill="none" fill-rule="evenodd" sketch:type="MSPage">
        <g id="drip" sketch:type="MSArtboardGroup" fill="#000000">
            <path d="M35.0908358,33.8215927 C35.0917503,33.637794 35.0917503,33.4552907 35.0917503,33.2750735 C37.1812518,32.7572063 38.7352885,30.8670212 38.7352885,28.6196021 C38.7352885,25.9750194 36.5830646,23.8231574 33.9377498,23.8231574 L31.4979022,23.8231574 L31.4979022,23.2925645 L33.9377498,23.2925645 C36.8754897,23.2925645 39.265952,25.6824046 39.265952,28.6196021 C39.265952,31.1614648 37.4764967,33.2931334 35.0908358,33.8215927 L35.0908358,33.8215927 L35.0908358,33.8215927 Z M33.2344664,39.8687372 C33.0692391,40.0341712 32.8918178,40.111135 32.6761381,40.111135 L16.4740991,40.111135 C16.2224475,40.111135 16.0204097,40.0258652 15.8386444,39.8431334 C14.8708295,38.8695032 14.8904922,35.6792396 14.9043627,33.3499799 C14.9043627,33.3326821 14.9043627,33.3163749 14.9047438,33.2995343 L34.2427498,33.2995343 C34.2421401,35.659732 34.1915354,38.9106522 33.2344664,39.8687372 L33.2344664,39.8687372 L33.2344664,39.8687372 Z M18.4320589,23.898902 C18.4318303,23.8062406 18.4013455,23.7162463 18.3451011,23.6427116 L16.1210856,20.7307369 L30.6490542,20.7307369 L30.6490542,24.2462297 C30.6490542,24.3616754 30.6960769,24.472168 30.7792241,24.5523323 C32.9613992,26.6509292 34.2199624,29.5257937 34.2412256,32.4507989 L14.9084782,32.4507989 C14.9285981,29.4431147 16.1318315,26.6407182 18.3031846,24.5523323 C18.386789,24.471787 18.4337356,24.3606848 18.4335831,24.2447819 L18.4320589,23.898902 L18.4320589,23.898902 Z M35.0896926,32.3956288 C35.0566928,29.5885077 33.9696064,26.829851 32.0674337,24.6722739 L33.9377498,24.6722739 C36.1148188,24.6722739 37.8860594,26.4430508 37.8860594,28.6196021 C37.8860594,30.3960942 36.7064517,31.9014603 35.0896926,32.3956288 L35.0896926,32.3956288 L35.0896926,32.3956288 Z M40.1148,28.6196021 C40.1148,25.2143733 37.3438118,22.4436005 33.9377498,22.4436005 L31.4979022,22.4436005 L31.4979022,20.306293 C31.4979022,20.0720487 31.3078298,19.8818491 31.073402,19.8818491 L15.2627111,19.8818491 C15.1012181,19.8818491 14.9538243,19.9733674 14.8823375,20.1181508 C14.8106983,20.2627056 14.8273887,20.4355312 14.9253972,20.563855 L17.5837443,24.044676 L17.5837443,24.0682986 C15.3091241,26.3214327 14.0587156,29.3180676 14.0587156,32.5262387 C14.0587156,32.7879156 14.0571913,33.0620896 14.055286,33.3447982 C14.0393578,35.9611862 14.0198475,39.2178216 15.2365704,40.4416221 C15.5786856,40.7856731 15.9946501,40.9600228 16.4740991,40.9600228 L32.6761381,40.9600228 C33.1196151,40.9600228 33.509439,40.7948174 33.8352448,40.4689024 C34.8379647,39.4649439 35.0419077,37.0500334 35.0823,34.6885403 C37.9430659,34.1501748 40.1148,31.6344493 40.1148,28.6196021 L40.1148,28.6196021 L40.1148,28.6196021 Z" id="Fill-22" sketch:type="MSShapeGroup"></path>
            <path d="M23.2411056,27.6437622 L23.2449162,27.6075663 C23.2488792,27.5778476 23.2532233,27.5479003 23.257796,27.5229062 L23.2654172,27.4848053 C23.2725811,27.4516575 23.2805834,27.4190431 23.2909482,27.3856667 C23.2920914,27.3807898 23.2936156,27.3753033 23.2947588,27.3707312 C23.3057333,27.3358308 23.3186131,27.30154 23.3353035,27.2615341 L23.3489455,27.2310533 C23.3590054,27.2083452 23.3695989,27.1857895 23.3810307,27.1647578 L23.3859082,27.1546992 C23.3906334,27.1454025 23.3958158,27.1359535 23.4025986,27.1238374 C23.4158595,27.0999101 23.4302635,27.0768209 23.4416191,27.0589897 L23.4615104,27.0278994 C23.4626536,27.025842 23.4641778,27.0237845 23.4655497,27.0214985 L24.5408233,25.5019588 L25.6142678,27.017917 C25.6164017,27.0211174 25.6186881,27.0243179 25.6207458,27.0275184 C25.7691304,27.2449221 25.8476286,27.4989788 25.8476286,27.7625607 C25.8476286,28.4826675 25.2612543,29.068583 24.5408233,29.0688116 C23.8208495,29.0688116 23.2348563,28.4828961 23.2348563,27.7625607 C23.2348563,27.7259839 23.2369902,27.6869686 23.2411056,27.6437622 M24.5410519,29.9176994 L24.5410519,29.9176994 C25.7297288,29.9173184 26.6966291,28.9506989 26.6966291,27.7625607 C26.6966291,27.3346878 26.5713368,26.9219789 26.3340891,26.5668786 C26.3291354,26.5589537 26.3240292,26.5509525 26.3185419,26.5431799 L24.8876636,24.5218515 C24.8078697,24.4093015 24.678843,24.3427774 24.5408233,24.3427774 C24.4034894,24.3427774 24.2740054,24.4093015 24.1944402,24.5218515 L22.7640954,26.5431799 C22.7589892,26.5505715 22.7540354,26.5578106 22.7493103,26.5653546 C22.7451948,26.5719842 22.7413842,26.5782327 22.7371926,26.5847099 L22.7300287,26.5959115 C22.7060981,26.6335552 22.6826249,26.6715037 22.6627336,26.7073185 C22.6525212,26.7251497 22.6429947,26.7432858 22.6335444,26.7616504 L22.6284382,26.7711756 C22.609309,26.8079049 22.5914754,26.8454723 22.5741753,26.8837256 L22.5698313,26.8931747 C22.5612955,26.9119203 22.5529884,26.9307421 22.5482633,26.9430106 C22.5221226,27.0059533 22.5010881,27.0633332 22.4860744,27.1126358 C22.4818827,27.1251329 22.4783008,27.137249 22.4773862,27.1422021 C22.4610769,27.1954671 22.4475874,27.2500276 22.4360794,27.3032926 C22.4320402,27.3199046 22.4288393,27.3368214 22.4257908,27.353662 L22.4231996,27.3680641 C22.4150449,27.412566 22.4078048,27.457906 22.4024699,27.5033985 C22.3998787,27.5229062 22.3977448,27.5421852 22.3956871,27.5628359 C22.3892091,27.6337035 22.3860082,27.6990847 22.3860082,27.7625607 C22.3860082,28.9509275 23.3527561,29.9176994 24.5410519,29.9176994" id="Fill-23" sketch:type="MSShapeGroup"></path>
            <path d="M30.5512743,7.65893156 L24.5402898,18.0036277 L18.5289242,7.65893156 L30.5512743,7.65893156 L30.5512743,7.65893156 Z M23.8392166,18.4875852 L18.0077111,18.4875852 L18.0077111,19.3365492 L31.073402,19.3365492 L31.073402,18.4875852 L25.2411344,18.4875852 L31.6561943,7.44785264 C31.7325587,7.31632837 31.7327111,7.15447579 31.6568802,7.02279912 C31.5811256,6.89112245 31.4408957,6.80996755 31.288853,6.80996755 L17.7912693,6.80996755 C17.6396838,6.80996755 17.4992253,6.89112245 17.4233945,7.02279912 C17.3476399,7.15447579 17.3480209,7.31632837 17.4243852,7.44785264 L23.8392166,18.4875852 L23.8392166,18.4875852 Z" id="Fill-24" sketch:type="MSShapeGroup"></path>
        </g>
    </g>
</svg>
