<?xml version="1.0" encoding="UTF-8" standalone="no"?>
<svg width="50px" height="50px" viewBox="0 0 50 50" version="1.1" xmlns="http://www.w3.org/2000/svg" xmlns:xlink="http://www.w3.org/1999/xlink" xmlns:sketch="http://www.bohemiancoding.com/sketch/ns">
    <!-- Generator: Sketch 3.3.3 (12072) - http://www.bohemiancoding.com/sketch -->
    <title>drip</title>
    <desc>Created with Sketch.</desc>
    <defs></defs>
    <g id="Icons" stroke="none" stroke-width="1" fill="none" fill-rule="evenodd" sketch:type="MSPage">
        <g id="drip" sketch:type="MSArtboardGroup" stroke="#000000" stroke-linecap="round" stroke-linejoin="round">
            <path d="M24.9999996,38.3372194 L25.0284211,38.3371766 L25.0568105,38.3370483 L25.0851669,38.3368347 L25.1135753,38.3365347 L25.1419492,38.336152 L25.1702055,38.3356852 L25.1985133,38.3351315 L25.2267019,38.3344972 L25.2549414,38.333773 L25.283233,38.3329665 L25.3113205,38.3320801 L25.3394592,38.3311059 L25.3676492,38.3300462 L25.3957191,38.3289074 L25.4237556,38.3276838 L25.4518426,38.3263742 L25.4798956,38.3249822 L25.5078289,38.3235124 L25.5358131,38.3219534 L25.5638472,38.3203099 L25.5916764,38.3185946 L25.6195566,38.3167893 L25.6474002,38.314905 L25.6752113,38.3129359 L25.7030726,38.3108814 L25.7308976,38.308745 L25.7586878,38.3065293 L25.7863574,38.3042388 L25.8139907,38.3018669 L25.8416748,38.2994057 L25.8694107,38.2968576 L25.8970234,38.2942385 L25.9245153,38.2915462 L25.9520585,38.2887638 L25.9796482,38.2858941 L26.0072042,38.2829451 L26.0347264,38.279917 L26.0621216,38.2768202 L26.0894816,38.2736421 L26.1168917,38.2703751 L26.1443556,38.2670184 L26.1716931,38.2635968 L26.1989085,38.2601048 L26.2261751,38.2565231 L26.2534853,38.252852 L26.2807625,38.2491043 L26.3079187,38.2452899 L26.3350359,38.2413974 L26.3622031,38.2374138 L26.3893312,38.2333547 L26.4164229,38.229217 L26.4434754,38.2250039 L26.470491,38.2207123 L26.4974749,38.2163442 L26.5244155,38.2118988 L26.5514009,38.207364 L26.578268,38.2027672 L26.6050995,38.198092 L26.6319718,38.1933275 L26.658811,38.1884863 L26.6856104,38.1835701 L26.7123679,38.1785789 L26.7390934,38.1735112 L26.7657779,38.1683686 L26.7924257,38.1631502 L26.8190279,38.157858 L26.8456765,38.1524732 L26.8722977,38.1470133 L26.8987887,38.1414971 L26.9253265,38.1358876 L26.9518279,38.130205 L26.9781978,38.1244671 L27.0046142,38.1186353 L27.0309929,38.1127305 L27.057408,38.1067334 L27.0837102,38.1006829 L27.1099871,38.0945517 L27.1362898,38.0883354 L27.1624596,38.0820659 L27.1886847,38.0757009 L27.2148727,38.069263 L27.2410113,38.0627548 L27.2670393,38.0561919 L27.2931026,38.0495352 L27.3192092,38.0427869 L27.345196,38.0359872 L27.3711317,38.0291177 L27.3971236,38.0221502 L27.4229832,38.0151378 L27.4488859,38.0080274 L27.4747506,38.0008495 L27.5004817,37.9936224 L27.5262556,37.9863021 L27.5520027,37.9789053 L27.5776998,37.9714419 L27.6033438,37.9639094 L27.6290558,37.9562751 L27.6547047,37.948578 L27.6802303,37.9408353 L27.7057186,37.9330198 L27.7312465,37.9251092 L27.7566562,37.9171536 L27.782092,37.9091041 L27.8075832,37.9009568 L27.8329403,37.8927696 L27.8581633,37.8845428 L27.8834393,37.8762125 L27.908837,37.8677615 L27.9340194,37.859301 L27.9591765,37.8507628 L27.9843451,37.8421397 L28.0094061,37.8334689 L28.0345085,37.8247003 L28.0596331,37.8158414 L28.0845599,37.8069709 L28.1095236,37.7979994 L28.1345418,37.7889291 L28.1594105,37.779828 L28.1842372,37.7706595 L28.2090233,37.7614209 L28.2338455,37.7520855 L28.2586428,37.7426764 L28.2833684,37.7332116 L28.3080505,37.7236792 L28.3327082,37.714073 L28.3573082,37.7044054 L28.3818667,37.6946702 L28.4063674,37.6848739 L28.4308414,37.6750034 L28.4552756,37.6650653 L28.4797103,37.6550417 L28.5041185,37.6449464 L28.5284851,37.6347834 L28.552809,37.6245553 L28.5770164,37.6142913 L28.6012227,37.6039421 L28.6254769,37.5934882 L28.6496148,37.5830018 L28.6736915,37.5724551 L28.6978177,37.561803 L28.7218271,37.5511186 L28.745777,37.5403743 L28.7697395,37.5295396 L28.7936758,37.5186317 L28.8175519,37.5076669 L28.8413828,37.496637 L28.8651896,37.4855335 L28.8890078,37.4743391 L28.9126913,37.4631251 L28.9362574,37.4518779 L28.9599435,37.4404875 L28.9835675,37.4290433 L29.0071467,37.4175339 L29.0306108,37.4059971 L29.0540832,37.3943664 L29.0775296,37.3826664 L29.1008431,37.3709435 L29.1242525,37.3590865 L29.1476184,37.3471668 L29.1708487,37.3352304 L29.1940345,37.3232288 L29.2171939,37.3111546 L29.240361,37.2989885 L29.2634612,37.2867727 L29.2865364,37.2744813 L29.3095659,37.2621299 L29.3324627,37.2497606 L29.3553815,37.2372915 L29.3783244,37.2247222 L29.401132,37.2121414 L29.423914,37.1994841 L29.4467184,37.1867289 L29.4694371,37.1739333 L29.4920601,37.1611045 L29.5147063,37.148172 L29.537284,37.1351937 L29.5597701,37.1221766 L29.5823221,37.1090339 L29.6047609,37.0958699 L29.6271532,37.0826429 L29.6494784,37.0693679 L29.6718209,37.055991 L29.6941372,37.0425442 L29.7162565,37.0291256 L29.7384578,37.0155651 L29.7606559,37.0019203 L29.7827399,36.988255 L29.8047347,36.9745562 L29.8267247,36.9607675 L29.8487304,36.9468812 L29.8706036,36.9329881 L29.892449,36.9190211 L29.9142897,36.9049672 L29.9360172,36.8908959 L29.9577609,36.8767211 L29.9794326,36.8625053 L30.0010379,36.8482388 L30.0226758,36.8338613 L30.0441802,36.8194814 L30.0655963,36.8050677 L30.0870851,36.7905113 L30.1085249,36.7758998 L30.1297955,36.7613101 L30.151094,36.7466072 L30.1723623,36.7318342 L30.1935457,36.7170267 L30.2147317,36.7021243 L30.2358506,36.6871776 L30.2568638,36.6722118 L30.2778402,36.6571778 L30.2988465,36.6420282 L30.3197447,36.6268652 L30.3405709,36.6116577 L30.3614031,36.5963529 L30.3821281,36.5810322 L30.4028586,36.5656113 L30.4235392,36.550135 L30.4441684,36.5346006 L30.4647253,36.5190276 L30.485174,36.503439 L30.5056841,36.4877073 L30.5261186,36.4719402 L30.5464144,36.456183 L30.5666917,36.4403422 L30.5870253,36.4243607 L30.6072755,36.4083513 L30.6273219,36.3924051 L30.6474222,36.376315 L30.6675698,36.3600927 L30.6875677,36.3438943 L30.7074891,36.327659 L30.7273807,36.3113495 L30.7471973,36.2950032 L30.766983,36.2785823 L30.7867697,36.2620625 L30.8064569,36.2455279 L30.8260617,36.2289619 L30.8456655,36.2122967 L30.8651927,36.195598 L30.884689,36.1788239 L30.9041103,36.1620165 L30.9234537,36.1451732 L30.9428159,36.1282136 L30.962075,36.1112443 L30.9812578,36.0942393 L31.0004346,36.0771377 L31.0195575,36.0599831 L31.0385774,36.0428187 L31.057569,36.0255757 L31.0765042,36.0082822 L31.0954089,35.9909118 L31.1142829,35.9734685 L31.1330082,35.9560588 L31.1517029,35.938571 L31.1703876,35.9209891 L31.1890402,35.9033323 L31.207615,35.8856467 L31.2260881,35.8679513 L31.2444839,35.8502244 L31.2628673,35.8324006 L31.2812636,35.8144604 L31.299536,35.7965354 L31.3177525,35.7785569 L31.3359131,35.7605276 L31.353995,35.7424675 L31.3720627,35.7243132 L31.3900972,35.7060851 L31.407987,35.687896 L31.4258836,35.6695866 L31.4437257,35.6512289 L31.4614214,35.6329082 L31.479189,35.6144025 L31.4968362,35.5959157 L31.5144249,35.5773752 L31.5319986,35.5587431 L31.5494272,35.5401519 L31.5668201,35.5214853 L31.5842189,35.5026999 L31.6015375,35.4838907 L31.6187354,35.4650983 L31.635937,35.4461867 L31.6530587,35.4272516 L31.6701205,35.4082654 L31.6871634,35.3891879 L31.7040855,35.3701303 L31.7209719,35.3509959 L31.7378149,35.3317958 L31.7545977,35.3125473 L31.7712851,35.293293 L31.787913,35.273987 L31.8045332,35.2545734 L31.8210555,35.2351567 L31.837506,35.2157046 L31.8539461,35.1961452 L31.8702684,35.176609 L31.8865519,35.1569946 L31.9028122,35.1372917 L31.9189321,35.1176364 L31.9350477,35.0978631 L31.9511033,35.0780438 L31.9670978,35.0581756 L31.9829772,35.0383306 L31.9988277,35.018392 L32.0146735,34.9983404 L32.0303813,34.9783375 L32.0460269,34.9582883 L32.0616335,34.938162 L32.0772113,34.9179477 L32.0926745,34.8977566 L32.1080853,34.8775039 L32.1234553,34.8571789 L32.1387644,34.8368048 L32.1539895,34.8164158 L32.1691221,34.7960185 L32.1842529,34.7754929 L32.1992699,34.7549936 L32.2142449,34.7344156 L32.2291885,34.7137531 L32.2440255,34.6931034 L32.25882,34.6723805 L32.2735451,34.6516211 L32.288166,34.6308744 L32.3027503,34.6100409 L32.3173002,34.5891237 L32.3317572,34.5682025 L32.3461732,34.5472039 L32.3604841,34.526222 L32.3747303,34.5051932 L32.3889396,34.4840809 L32.4030838,34.4629246 L32.4171851,34.4416932 L32.4311561,34.4205186 L32.4450865,34.399258 L32.4589741,34.3779244 L32.4727765,34.3565751 L32.4865184,34.3351774 L32.5001654,34.3137805 L32.5137737,34.2922976 L32.5273438,34.2707287 L32.5408212,34.2491622 L32.5541943,34.2276125 L32.5675663,34.2059132 L32.5808288,34.1842475 L32.5940073,34.1625616 L32.6071591,34.1407714 L32.6202267,34.1189663 L32.6332489,34.0970849 L32.6461627,34.0752324 L32.6590139,34.0533274 L32.6718361,34.031317 L32.6845533,34.0093314 L32.6972036,33.9873005 L32.709826,33.9651607 L32.7223444,33.9430455 L32.7347739,33.9209238 L32.7471578,33.898721 L32.7594926,33.876443 L32.7717419,33.8541582 L32.7839231,33.8318298 L32.7960179,33.8094968 L32.8080442,33.7871184 L32.8200404,33.7646307 L32.8319326,33.7421694 L32.8437547,33.7196684 L32.8555276,33.6970901 L32.8672319,33.6744716 L32.8788512,33.6518451 L32.8903648,33.6292482 L32.9018441,33.6065385 L32.9132731,33.5837551 L32.9245978,33.561 L32.9358704,33.5381687 L32.9470729,33.5153 L32.958191,33.4924208 L32.9692378,33.469504 L32.9802302,33.4465147 L32.9911371,33.4235201 L33.0019497,33.400534 L33.0127229,33.3774408 L33.0234203,33.3543228 L33.0340371,33.3311843 L33.0446077,33.3079547 L33.0550848,33.2847376 L33.0654744,33.2615159 L33.0757997,33.2382394 L33.0860699,33.214887 L33.0962607,33.1915164 L33.1063564,33.1681596 L33.1164125,33.1446882 L33.1263738,33.121237 L33.1362549,33.097761 L33.1460879,33.0741932 L33.1558389,33.0506095 L33.1654975,33.027039 L33.175088,33.0034143 L33.1846374,32.9796778 L33.1940856,32.9559758 L33.203445,32.932274 L33.2127466,32.9084945 L33.2219811,32.8846636 L33.231143,32.860794 L33.2402179,32.8369244 L33.2492137,32.8130294 L33.2581472,32.7890682 L33.2669926,32.7651089 L33.2757592,32.7411237 L33.2844705,32.7170494 L33.2931002,32.6929624 L33.3016499,32.6688518 L33.3101271,32.6447018 L33.31852,32.6205406 L33.3268522,32.5963031 L33.3350973,32.5720672 L33.343267,32.547793 L33.3513669,32.5234698 L33.3593747,32.4991604 L33.3673112,32.4748006 L33.3751723,32.4504051 L33.3829705,32.4259321 L33.3906861,32.4014506 L33.3983091,32.3769824 L33.4058604,32.3524655 L33.4133384,32.3279014 L33.4207493,32.3032734 L33.4280699,32.278658 L33.4353088,32.2540222 L33.4424709,32.2293516 L33.4495675,32.2046041 L33.4565776,32.1798609 L33.4635095,32.1550799 L33.4703688,32.1302533 L33.4771391,32.10543 L33.4838326,32.0805714 L33.4904479,32.0556763 L33.4969969,32.0307059 L33.5034587,32.0057384 L33.5098346,31.9807654 L33.5161322,31.9557569 L33.5223517,31.930713 L33.5284929,31.9056332 L33.5345581,31.8805086 L33.5405332,31.8553986 L33.5464403,31.8302023 L33.5522724,31.804964 L33.5580025,31.7797874 L33.563664,31.7545258 L33.569249,31.7292208 L33.5747454,31.7039214 L33.5801621,31.6785871 L33.5855008,31.6532099 L33.5907579,31.6278071 L33.5959353,31.6023676 L33.6010345,31.5768865 L33.6060457,31.5514106 L33.6109679,31.5259412 L33.6158244,31.5003554 L33.6205948,31.4747758 L33.6252689,31.4492347 L33.6298777,31.4235729 L33.634404,31.3978904 L33.6388431,31.3722058 L33.643195,31.3465221 L33.6474642,31.3208042 L33.6516586,31.2950125 L33.6557715,31.2691861 L33.6597902,31.2434076 L33.6637309,31.2175536 L33.6675925,31.1916601 L33.6713628,31.1657795 L33.6750526,31.1398582 L33.6786587,31.1138991 L33.682188,31.0878709 L33.685624,31.0618851 L33.6889757,31.0358669 L33.6922489,31.0097787 L33.6954345,30.9836922 L33.6985313,30.9576091 L33.7015483,30.9314525 L33.7044816,30.9052673 L33.7073263,30.8790841 L33.7100864,30.8528692 L33.7127618,30.8266197 L33.7153529,30.8003344 L33.717855,30.7740603 L33.7202751,30.7477082 L33.7226084,30.7213615 L33.7248537,30.6949861 L33.7270156,30.6685769 L33.7290868,30.6421731 L33.731076,30.6156989 L33.732976,30.5892286 L33.7347898,30.5627245 L33.7365144,30.5362312 L33.7381538,30.5096619 L33.739708,30.4830612 L33.7411718,30.4564705 L33.7425492,30.4298444 L33.7438386,30.4031849 L33.7450413,30.3764938 L33.7461541,30.3498116 L33.7471788,30.3230989 L33.7481153,30.2963512 L33.7489649,30.269531 L33.7497263,30.2427205 L33.7503958,30.2159586 L33.7509775,30.1890823 L33.7514714,30.1622148 L33.751874,30.1353171 L33.7521894,30.1083862 L33.752413,30.0814662 L33.7525483,30.0544732 L33.7525937,30.0272698 L33.7525697,30.0099565 L33.752498,29.992376 L33.7523779,29.9748053 L33.7522083,29.9571222 L33.7519904,29.9393301 L33.7517253,29.9215489 L33.7514109,29.9037179 L33.7510473,29.8857762 L33.7506353,29.8677851 L33.750175,29.8497465 L33.7496661,29.8316575 L33.7491086,29.8135201 L33.7485024,29.7953353 L33.7478452,29.7770402 L33.7471404,29.7587007 L33.7463888,29.7403702 L33.7455881,29.7219898 L33.7447329,29.7034491 L33.7438308,29.6848576 L33.7428848,29.6663333 L33.7418835,29.6476515 L33.740835,29.6289216 L33.7397398,29.6102 L33.7385929,29.5913792 L33.7373968,29.5725039 L33.7361523,29.5535878 L33.734859,29.5346271 L33.7335126,29.5155622 L33.7321185,29.4964527 L33.7306794,29.4773526 L33.7291914,29.4582122 L33.7276448,29.4389091 L33.726056,29.4196165 L33.7244165,29.400283 L33.7227258,29.380854 L33.7209899,29.3614326 L33.7192001,29.341905 L33.7173621,29.322337 L33.7154814,29.3027859 L33.7135452,29.2831359 L33.7115561,29.2633869 L33.7095176,29.2435893 L33.7074378,29.2238074 L33.7053083,29.2039894 L33.7031246,29.1840674 L33.7008917,29.1641024 L33.698611,29.1440942 L33.6962817,29.1240491 L33.6938988,29.1039142 L33.6914672,29.0837322 L33.6889932,29.0635554 L33.6864714,29.0433487 L33.6838945,29.0230482 L33.6812608,29.0026383 L33.6785888,28.982253 L33.6758679,28.9618354 L33.6730919,28.9413166 L33.6702737,28.9208037 L33.6674079,28.9002556 L33.6644805,28.8795762 L33.6615128,28.8588967 L33.6585026,28.8382286 L33.6554317,28.8174303 L33.6523123,28.7965861 L33.6491521,28.7757469 L33.6459372,28.7548304 L33.6426763,28.7338769 L33.6393638,28.712868 L33.6360075,28.6918349 L33.6326034,28.6707732 L33.6291418,28.649605 L33.6256423,28.6284575 L33.6220964,28.6072816 L33.6184924,28.5860077 L33.6148345,28.5646527 L33.6111389,28.5433131 L33.6073938,28.5219274 L33.6036035,28.5005125 L33.5997576,28.479019 L33.5958648,28.4574808 L33.5919331,28.4359564 L33.5879452,28.414345 L33.5839121,28.3927052 L33.5798244,28.3709897 L33.5756973,28.349271 L33.5715236,28.3275245 L33.5672965,28.3057027 L33.5630205,28.2838364 L33.5586989,28.2619346 L33.554332,28.240007 L33.5499196,28.2180458 L33.54546,28.1960494 L33.5409445,28.1739696 L33.5363833,28.1518549 L33.5317886,28.1297662 L33.5271342,28.1075848 L33.5224376,28.0853784 L33.5176936,28.0631404 L33.5128925,28.0408083 L33.5080605,28.0185126 L33.5031696,27.9961262 L33.4982342,27.9737054 L33.493266,27.9513123 L33.4883745,27.9294355 L33.4780428,27.8837371 L33.4676732,27.8385447 L33.457108,27.7931611 L33.4463655,27.747651 L33.4354394,27.7020049 L33.4243283,27.6561994 L33.413035,27.610257 L33.4015595,27.5641653 L33.3899117,27.5179709 L33.3780781,27.4716205 L33.3660662,27.4251354 L33.3538758,27.3785206 L33.3415083,27.3317736 L33.3289588,27.2848825 L33.3162335,27.2378575 L33.3033384,27.1907297 L33.290264,27.1434595 L33.2770245,27.0960965 L33.2636005,27.0485775 L33.2500013,27.0009196 L33.2362385,26.9531734 L33.2223034,26.905303 L33.2081912,26.857294 L33.1939132,26.8091758 L33.1794727,26.7609678 L33.1648578,26.7126246 L33.1500767,26.6641718 L33.1351359,26.6156304 L33.120022,26.5669599 L33.10474,26.518166 L33.0892946,26.4692691 L33.0736922,26.4202817 L33.0579283,26.3711986 L33.0419902,26.3219707 L33.0259022,26.2726712 L33.0096587,26.2232886 L32.9932492,26.1737857 L32.9766844,26.124194 L32.9599599,26.0745004 L32.9430747,26.0246979 L32.926035,25.9748043 L32.9088482,25.9248393 L32.8915022,25.8747714 L32.8740024,25.8246082 L32.8563498,25.7743569 L32.8385499,25.7240263 L32.8205987,25.6736114 L32.802492,25.623092 L32.7842445,25.5725111 L32.7658413,25.5218282 L32.7472957,25.4710725 L32.7286084,25.4202521 L32.7097686,25.3693323 L32.6907879,25.3183439 L32.6716638,25.2672802 L32.6523979,25.2161429 L32.6329854,25.1649197 L32.6134314,25.1136195 L32.5937448,25.0622668 L32.5739148,25.0108338 L32.5539449,24.9593246 L32.5338485,24.9077754 L32.5136074,24.8561413 L32.4932247,24.8044227 L32.4727161,24.7526606 L32.4520659,24.7008163 L32.4312881,24.6489185 L32.410386,24.596981 L32.3893534,24.5449846 L32.3681825,24.4929119 L32.3468765,24.4407633 L32.3254511,24.3885788 L32.3038985,24.3363396 L32.2822203,24.2840473 L32.2604117,24.231691 L32.2384808,24.1792857 L32.216434,24.1268486 L32.194265,24.0743641 L32.1719544,24.0217859 L32.1495409,23.9691947 L32.1270053,23.9165603 L32.1043425,23.8638545 L32.0815803,23.8111508 L32.0586847,23.7583684 L32.0356717,23.7055376 L32.0125464,23.6526735 L31.9893122,23.5997797 L31.9659688,23.5468599 L31.9425002,23.4938734 L31.9189308,23.4408718 L31.8952457,23.3878276 L31.871445,23.3347312 L31.8475507,23.2816359 L31.8235409,23.2284942 L31.7994183,23.1753056 L31.7752019,23.1221134 L31.7508754,23.0688832 L31.7264419,23.0156171 L31.7019071,22.9623291 L31.6772655,22.9090036 L31.652537,22.8556833 L31.627699,22.8023234 L31.6027506,22.748914 L31.5777256,22.6955281 L31.5525934,22.6421057 L31.5273672,22.5886651 L31.502044,22.5352079 L31.4766202,22.4817168 L31.4511111,22.4282282 L31.4255014,22.374708 L31.3998096,22.3211924 L31.3740212,22.2676544 L31.3481496,22.2141154 L31.3221799,22.1605508 L31.2961286,22.1069837 L31.2699887,22.0534108 L31.2437564,21.9998114 L31.2174514,21.9462338 L31.1910588,21.8926427 L31.1645779,21.8390386 L31.1380082,21.7854152 L31.1113754,21.7318246 L31.0846522,21.6782168 L31.0578432,21.6245914 L31.0309773,21.5710107 L31.0040113,21.5173904 L30.9769738,21.4637764 L30.9498724,21.4101936 L30.9226846,21.3565911 L30.8954341,21.3030161 L30.8681036,21.2494359 L30.8406921,21.1958433 L30.8132214,21.1422808 L30.7856806,21.0887298 L30.7580626,21.0351725 L30.7303823,20.9816372 L30.7026419,20.9281283 L30.6748239,20.8746128 L30.6469469,20.8211206 L30.6190139,20.7676633 L30.5909998,20.7141889 L30.5629369,20.660755 L30.5348086,20.6073363 L30.5066153,20.5539254 L30.4783712,20.5005535 L30.4500599,20.4471869 L30.4216877,20.3938359 L30.3932763,20.3405395 L30.3647956,20.2872468 L30.336259,20.2339723 L30.3076856,20.1807598 L30.2790412,20.1275421 L30.2503471,20.0743541 L30.221613,20.0212171 L30.1928292,19.9681124 L30.1639867,19.9150228 L30.1350912,19.8619551 L30.1061561,19.8089342 L30.0771771,19.755953 L30.0481444,19.7029915 L30.0190803,19.6500883 L29.9899718,19.5972242 L29.9608105,19.5443778 L29.9316128,19.4915804 L29.9023756,19.4388251 L29.873099,19.386112 L29.8437847,19.3334427 L29.8144325,19.2808171 L29.7850351,19.2282201 L29.7556149,19.1756898 L29.7261613,19.1232121 L29.6966564,19.070749 L29.6671298,19.0183521 L29.6375774,18.9660171 L29.6079872,18.9137206 L29.5783609,18.8614642 L29.5487163,18.8092777 L29.5190426,18.7571452 L29.4893362,18.7050555 L29.4596133,18.6530389 L29.4298526,18.6010577 L29.4000624,18.5491218 L29.3702714,18.4972828 L29.3404468,18.445487 L29.3105936,18.3937356 L29.2807291,18.3420623 L29.2508456,18.2904514 L29.2209361,18.2388919 L29.1910136,18.187402 L29.1610808,18.1359899 L29.1311226,18.0846271 L29.1011461,18.0333245 L29.0711644,17.982103 L29.0411688,17.93095 L29.0111653,17.8798724 L28.9811496,17.8288658 L28.9511055,17.7778985 L28.9210639,17.7270205 L28.8910289,17.6762426 L28.8609742,17.6255194 L28.830914,17.5748713 L28.8008512,17.5243055 L28.7707719,17.4737959 L28.7407061,17.423391 L28.7106365,17.3730669 L28.6805539,17.3228016 L28.6504737,17.2726229 L28.6203848,17.2225101 L28.5903218,17.172519 L28.5602485,17.1225962 L28.5301687,17.0727371 L28.5001078,17.0229903 L28.4700533,16.973332 L28.4401409,16.9239877 L28.379905,16.8248478 L28.3198516,16.7263146 L28.2598422,16.6281501 L28.1998833,16.5303641 L28.1399855,16.4329652 L28.0801558,16.3359641 L28.0203921,16.2393504 L27.9607131,16.1431482 L27.9011275,16.0473693 L27.8416299,15.9520003 L27.7822439,15.8570719 L27.7229684,15.7625824 L27.6638061,15.6685268 L27.6047747,15.5749305 L27.545879,15.4817966 L27.4871224,15.3891263 L27.4285165,15.2969324 L27.3700683,15.2052234 L27.3117829,15.1140008 L27.2536755,15.0232859 L27.1957397,14.9330658 L27.1379914,14.8433549 L27.0804448,14.7541764 L27.0230988,14.6655227 L26.9659563,14.577395 L26.9090386,14.4898178 L26.8523425,14.402789 L26.7958755,14.316309 L26.7396533,14.2304014 L26.6836784,14.1450651 L26.6279646,14.0603172 L26.5725059,13.9761464 L26.5173122,13.8925593 L26.4624095,13.809593 L26.4077834,13.7272251 L26.3534531,13.6454742 L26.2994336,13.5643655 L26.245707,13.4838661 L26.1922991,13.4040073 L26.1392195,13.3248036 L26.086469,13.2462503 L26.0340578,13.1683599 L25.9819863,13.0911289 L25.9302743,13.0145811 L25.878927,12.9387234 L25.8279426,12.8635478 L25.777335,12.7890706 L25.7271172,12.7153079 L25.6772804,12.6422446 L25.6278408,12.5698964 L25.5788183,12.4982918 L25.5302081,12.4274204 L25.4820112,12.3572797 L25.4342481,12.2878935 L25.3869274,12.2192745 L25.3400443,12.1514106 L25.2936121,12.0843169 L25.247641,12.0180049 L25.2021338,11.9524756 L25.1571029,11.8877421 L25.1125566,11.8238142 L25.0684996,11.760695 L25.0249383,11.6983904 L25,11.6627806 L24.9750659,11.6983844 L24.9315054,11.7606891 L24.8874443,11.823814 L24.8428939,11.8877476 L24.7978622,11.9524812 L24.752359,12.0180047 L24.7063879,12.0843167 L24.6599594,12.1514047 L24.6130772,12.2192686 L24.565749,12.2878985 L24.5179851,12.3572847 L24.4697955,12.427415 L24.4211825,12.4982915 L24.3721557,12.5699014 L24.3227231,12.6422392 L24.2728872,12.7153025 L24.2226658,12.7890704 L24.1720583,12.8635476 L24.1210738,12.9387232 L24.0697232,13.0145861 L24.0180104,13.0911339 L23.9659456,13.1683551 L23.9135319,13.2462501 L23.8607806,13.3248034 L23.8077018,13.4040071 L23.7542931,13.4838659 L23.7005705,13.5643601 L23.6465447,13.6454782 L23.5922167,13.7272243 L23.5375915,13.8095917 L23.4826849,13.8925627 L23.4274972,13.9761404 L23.3720391,14.0603113 L23.3163192,14.145068 L23.2603438,14.2304043 L23.2041248,14.3163072 L23.1476607,14.402783 L23.0909629,14.489816 L23.0340441,14.5773933 L22.9769054,14.6655162 L22.9195567,14.7541746 L22.8620068,14.8433579 L22.8042606,14.9330645 L22.7463287,15.02328 L22.6882158,15.1140037 L22.629932,15.2052216 L22.5714844,15.2969306 L22.5128746,15.3891287 L22.4541208,15.4817944 L22.3952252,15.5749282 L22.336191,15.6685287 L22.2770331,15.7625754 L22.2177592,15.8570649 L22.1583672,15.9520022 L22.0988723,16.0473665 L22.0392867,16.1431453 L21.9796099,16.2393434 L21.9198473,16.3359571 L21.8600121,16.4329665 L21.800116,16.5303613 L21.7401582,16.6281472 L21.6801482,16.7263118 L21.6200959,16.824845 L21.5598639,16.9239766 L21.5299502,16.973325 L21.4998898,17.0229917 L21.4698269,17.0727426 L21.4397533,17.1225892 L21.4096792,17.1725161 L21.3796045,17.222524 L21.3495282,17.2726159 L21.3194484,17.3227946 L21.2893707,17.3730516 L21.2592974,17.4233839 L21.2292233,17.4738014 L21.1991514,17.5242984 L21.169089,17.5748643 L21.1390263,17.6255165 L21.1089716,17.6762398 L21.0789292,17.72703 L21.0488889,17.777904 L21.0188574,17.8288505 L20.9888377,17.8798654 L20.9588314,17.9309471 L20.9288313,17.9821085 L20.8988483,18.03333 L20.868882,18.084616 L20.8389242,18.1359788 L20.8089846,18.1874033 L20.7790612,18.2388933 L20.7491569,18.2904445 L20.719271,18.3420594 L20.6894018,18.393741 L20.6595548,18.4454801 L20.6297315,18.4972758 L20.5999301,18.5491314 L20.570149,18.6010506 L20.5403915,18.6530277 L20.5106639,18.7050526 L20.4809598,18.7571382 L20.4512818,18.8092789 L20.4216364,18.8614655 L20.3920176,18.9137094 L20.3624254,18.96601 L20.3328637,19.0183616 L20.3033382,19.0707545 L20.2738454,19.1231967 L20.2443855,19.1756869 L20.2149623,19.2282214 L20.1855722,19.2808058 L20.1562158,19.3334398 L20.1268987,19.3861133 L20.0976221,19.4388263 L20.0683869,19.4915774 L20.039192,19.5443707 L20.0100306,19.5972171 L19.9809178,19.6500896 L19.9518506,19.7029969 L19.9228225,19.75595 L19.8938412,19.8089355 L19.8649057,19.8619563 L19.8360193,19.9150074 L19.8071803,19.9680928 L19.7783901,20.02121 L19.7496469,20.0743637 L19.7209561,20.1275434 L19.6923215,20.1807444 L19.6637351,20.2339825 L19.6352036,20.2872444 L19.6067245,20.3405371 L19.5783025,20.3938501 L19.5499415,20.4471803 L19.5216329,20.5005428 L19.4933846,20.553923 L19.4651954,20.6073256 L19.4370639,20.6607527 L19.4089976,20.7141907 L19.3809932,20.7676484 L19.3530518,20.8211229 L19.325174,20.874615 L19.2973564,20.9281306 L19.2696108,20.9816478 L19.2419345,21.0351748 L19.2143209,21.0887238 L19.1867784,21.1422789 L19.159305,21.1958456 L19.1319023,21.249421 L19.104573,21.3030012 L19.0773138,21.3565933 L19.0501299,21.4101876 L19.0230228,21.4637828 L18.9959858,21.5173927 L18.9690298,21.5709958 L18.9421529,21.6245983 L18.9153475,21.678215 L18.888625,21.7318227 L18.861985,21.7854263 L18.8354234,21.8390325 L18.8089477,21.8926278 L18.7825512,21.9462278 L18.7562398,21.9998183 L18.7300131,22.0534042 L18.7038723,22.1069818 L18.6778177,22.1605531 L18.6518509,22.2141135 L18.6259784,22.2676525 L18.600193,22.3211858 L18.5744966,22.3747103 L18.548889,22.4282264 L18.5233756,22.4817237 L18.4979573,22.5352018 L18.4726353,22.5886591 L18.4474084,22.6420997 L18.4222753,22.6955262 L18.3972427,22.7489257 L18.3723049,22.8023127 L18.3474614,22.8556856 L18.3227295,22.90901 L18.2980945,22.962322 L18.2735557,23.0156189 L18.249128,23.0688715 L18.2248047,23.122097 L18.2005801,23.1753074 L18.1764572,23.2284959 L18.1524515,23.2816288 L18.1285534,23.3347335 L18.104755,23.3878226 L18.0810689,23.4408715 L18.0574962,23.4938778 L18.0340364,23.5468455 L18.0106853,23.5997841 L17.9874501,23.6526779 L17.9643282,23.7055347 L17.9413179,23.7583587 L17.9184263,23.8111338 L17.8956532,23.863863 L17.8729953,23.9165547 L17.8504591,23.9691939 L17.828043,24.0217872 L17.8057426,24.0743445 L17.7835677,24.1268431 L17.7615149,24.1792942 L17.739586,24.2316927 L17.717783,24.2840371 L17.6961018,24.3363362 L17.6745463,24.3885826 L17.6531193,24.4407697 L17.6318219,24.492897 L17.6106532,24.5449673 L17.5896138,24.5969806 L17.5687057,24.6489327 L17.5479306,24.7008208 L17.5272858,24.7526529 L17.506774,24.8044223 L17.4863982,24.8561236 L17.4661573,24.9077602 L17.446053,24.9593291 L17.4260837,25.0108358 L17.4062555,25.0622639 L17.3865651,25.1136266 L17.3670142,25.1649168 L17.3476062,25.21613 L17.3283384,25.2672723 L17.3092138,25.3183385 L17.290232,25.3693294 L17.2713933,25.4202467 L17.2527004,25.4710823 L17.2341557,25.5218329 L17.2157557,25.5725082 L17.197505,25.6230968 L17.1794027,25.6736033 L17.1614502,25.7240233 L17.1436488,25.7743565 L17.1259966,25.8246078 L17.1084981,25.8747659 L17.0911537,25.9248311 L17.0739611,25.9748118 L17.0569256,26.0246923 L17.0400454,26.0744816 L17.0233188,26.1241831 L17.0067523,26.1737801 L16.9903421,26.2232857 L16.9740922,26.272687 L16.9580049,26.3219812 L16.9420756,26.3711822 L16.9263082,26.4202788 L16.9107015,26.4692771 L16.8952595,26.5181631 L16.8799826,26.5669407 L16.8648699,26.6156111 L16.8499225,26.6641745 L16.8351409,26.7126272 L16.8205276,26.7609649 L16.8060829,26.8091868 L16.7918064,26.8572967 L16.7776981,26.9052945 L16.7637603,26.9531733 L16.7499967,27.0009223 L16.7364037,27.0485575 L16.7229803,27.0960794 L16.7097347,27.1434624 L16.6966629,27.1907239 L16.683763,27.237869 L16.6710398,27.2848825 L16.6584951,27.3317592 L16.646126,27.3785119 L16.6339353,27.4251296 L16.6219224,27.4716176 L16.6100891,27.517968 L16.5984366,27.5641801 L16.5869616,27.610266 L16.5756707,27.6561995 L16.5645629,27.7019901 L16.5536357,27.7476452 L16.5428909,27.7931612 L16.5323313,27.8385237 L16.5219565,27.8837404 L16.5116268,27.9294265 L16.5067373,27.9512972 L16.5017607,27.9737269 L16.4968274,27.9961356 L16.4919407,28.0185036 L16.487104,28.0408208 L16.4823091,28.063122 L16.4775648,28.0853662 L16.4728668,28.1075757 L16.4682139,28.129754 L16.4636116,28.1518769 L16.459054,28.173973 L16.4545436,28.1960278 L16.4500814,28.2180398 L16.445666,28.2400135 L16.4412987,28.2619443 L16.4369778,28.2838398 L16.4327046,28.3056935 L16.4284804,28.3274995 L16.424302,28.3492745 L16.4201709,28.3710089 L16.4160913,28.3926832 L16.4120573,28.4143293 L16.4080702,28.4359376 L16.4041311,28.4575035 L16.4002402,28.4790257 L16.3963996,28.5004936 L16.3926057,28.5219277 L16.3888585,28.5433264 L16.3851612,28.5646724 L16.3815121,28.5859757 L16.3779106,28.6072399 L16.3743595,28.6284482 L16.3708551,28.649625 L16.3673972,28.670767 L16.3639916,28.6918418 L16.3606339,28.7128782 L16.3573219,28.7338872 L16.3540611,28.754834 L16.3508495,28.7757342 L16.3476839,28.7966063 L16.3445687,28.8174208 L16.341504,28.8381793 L16.3384855,28.8589105 L16.3355165,28.8795899 L16.3325985,28.9002094 L16.3297274,28.9207976 L16.3269049,28.9413406 L16.3241319,28.9618325 L16.3214094,28.982267 L16.3187355,29.0026589 L16.3161082,29.0230217 L16.3135325,29.0433154 L16.3110065,29.0635594 L16.3085273,29.0837735 L16.3060984,29.1039284 L16.30372,29.1240257 L16.30139,29.1440811 L16.2991087,29.1640926 L16.2968766,29.1840543 L16.2946939,29.2039658 L16.2925614,29.2238183 L16.2904777,29.2436278 L16.2884427,29.2633909 L16.286458,29.2830948 L16.2845222,29.3027518 L16.2826361,29.322355 L16.2807993,29.3419091 L16.279011,29.3614192 L16.2772726,29.3808721 L16.2755838,29.4002696 L16.2739446,29.4196138 L16.2723541,29.4389133 L16.2708129,29.45816 L16.2693219,29.4773428 L16.2678795,29.4964853 L16.2664864,29.51557 L16.2651431,29.5345994 L16.2638487,29.553578 L16.2626037,29.5725011 L16.2614079,29.5913728 L16.2602614,29.6101864 L16.259164,29.6289511 L16.2581159,29.6476558 L16.2571171,29.6663053 L16.2561671,29.6849053 L16.2552664,29.7034462 L16.2544149,29.721929 L16.2536123,29.7403601 L16.2528588,29.7587342 L16.2521542,29.7770519 L16.2514985,29.7953142 L16.2508916,29.8135209 L16.2503336,29.8316693 L16.2498247,29.8497546 L16.2493643,29.8677895 L16.2489525,29.8857696 L16.2485896,29.9036855 L16.2482752,29.9215461 L16.2480093,29.9393493 L16.2477919,29.9570933 L16.2476229,29.9747802 L16.2475023,29.9924066 L16.24743,30.0099722 L16.2474063,30.0272583 L16.2474516,30.0544804 L16.2475865,30.0814456 L16.2478112,30.1083885 L16.2481255,30.1353117 L16.2485292,30.1622069 L16.2490222,30.1890794 L16.2496043,30.2159304 L16.2502753,30.2427531 L16.2510351,30.269551 L16.2518837,30.2963281 L16.2528208,30.3230808 L16.2538461,30.3498062 L16.2549596,30.3765062 L16.2561611,30.4031821 L16.2574509,30.4298391 L16.258828,30.4564677 L16.2602926,30.4830661 L16.261845,30.5096463 L16.2634846,30.5362003 L16.2652112,30.5627268 L16.2670249,30.5892309 L16.2689254,30.6157088 L16.2709125,30.6421601 L16.2729862,30.6685869 L16.2751463,30.6949884 L16.2773926,30.7213638 L16.279725,30.7477131 L16.2821436,30.7740396 L16.2846478,30.8003392 L16.2872377,30.8266118 L16.289913,30.8528588 L16.2926737,30.8790788 L16.2955198,30.9052748 L16.2984505,30.9314396 L16.3014668,30.9575834 L16.3045679,30.9837022 L16.3077533,31.0097913 L16.3110229,31.0358515 L16.3143777,31.0618901 L16.3178164,31.0879013 L16.3213387,31.1138811 L16.3249461,31.1398427 L16.3286364,31.1657717 L16.3324101,31.1916701 L16.3362682,31.2175483 L16.340209,31.2433947 L16.3442331,31.2692139 L16.3483402,31.2950046 L16.3525313,31.3207735 L16.3568049,31.3465143 L16.3611611,31.3722258 L16.3655998,31.3979104 L16.3701198,31.4235599 L16.3747244,31.4491939 L16.3794101,31.4747958 L16.3841768,31.5003627 L16.3890261,31.5259055 L16.3939573,31.5514204 L16.39897,31.5769064 L16.4040649,31.6023673 L16.4092398,31.6277941 L16.4144957,31.6531894 L16.4198352,31.6785692 L16.4252548,31.703916 L16.430755,31.7292331 L16.4363362,31.7545229 L16.4419964,31.779777 L16.4477354,31.8049937 L16.453559,31.8301994 L16.4594612,31.8553707 L16.4654422,31.8805057 L16.471505,31.9056203 L16.4776472,31.9307025 L16.4838684,31.955754 L16.4901686,31.9807724 L16.4965492,32.0057652 L16.5030077,32.0307228 L16.5095463,32.0556534 L16.5161636,32.0805536 L16.522861,32.105427 L16.5296355,32.1302652 L16.53649,32.1550769 L16.5434226,32.1798579 L16.5504333,32.204606 L16.557522,32.229324 L16.5646902,32.2540143 L16.5719361,32.2786746 L16.5792533,32.3032802 L16.5866541,32.3278739 L16.5941358,32.3524478 L16.6016915,32.3769795 L16.6093207,32.4014672 L16.6170339,32.4259438 L16.6248201,32.4503778 L16.6326833,32.4747782 L16.6406262,32.4991575 L16.6486402,32.5234862 L16.6567364,32.5477998 L16.6649063,32.5720739 L16.6731525,32.5963146 L16.6814764,32.6205282 L16.6898763,32.6447084 L16.6983478,32.6688441 L16.7068983,32.6929546 L16.7155289,32.7170464 L16.7242306,32.7410922 L16.7330046,32.7650964 L16.7418587,32.7890795 L16.7507899,32.8130358 L16.7597859,32.8369309 L16.7688638,32.8608098 L16.7780182,32.8846607 L16.7872475,32.9084775 L16.7965477,32.9322523 L16.8059222,32.9559916 L16.8153712,32.9796981 L16.8248963,33.003374 L16.8344975,33.0270221 L16.8441687,33.0506251 L16.8539197,33.0742088 L16.8637366,33.0977395 L16.8736249,33.1212294 L16.8835947,33.1447036 L16.8936317,33.1681291 L16.9037418,33.191518 L16.9139339,33.2148931 L16.9241943,33.2382227 L16.9345259,33.2615129 L16.9449276,33.2847618 L16.9554017,33.3079744 L16.9659558,33.3311678 L16.9765793,33.3543199 L16.9872679,33.3774199 L16.9980361,33.4004997 L17.0088635,33.4235171 L17.0197704,33.4465117 L17.0307649,33.4695055 L17.0418202,33.4924401 L17.0529311,33.515306 L17.0641296,33.5381659 L17.0754019,33.5609972 L17.0867313,33.5837611 L17.0981486,33.6065226 L17.1096203,33.6292148 L17.1211651,33.6518728 L17.132783,33.6744992 L17.1444715,33.6970873 L17.1562309,33.7196396 L17.1680654,33.7421622 L17.1799704,33.7646494 L17.191946,33.7870984 L17.2039731,33.8094769 L17.2160725,33.8318185 L17.2282656,33.8541682 L17.2405093,33.8764445 L17.2528401,33.898714 L17.2652235,33.9209168 L17.2776585,33.9430469 L17.2901854,33.9651788 L17.3027816,33.9872727 L17.3154473,34.0093286 L17.3281659,34.0313183 L17.3409745,34.0533038 L17.3538499,34.0752502 L17.3667556,34.0970902 L17.3797758,34.1189675 L17.3928403,34.1407684 L17.4059757,34.1625302 L17.4191819,34.1842607 L17.4324356,34.2059143 L17.4458038,34.2276055 L17.4591934,34.2491833 L17.4726531,34.2707217 L17.4862286,34.2922986 L17.4998263,34.3137655 L17.5134693,34.3351546 L17.5272289,34.35658 L17.5410336,34.3779332 L17.5549055,34.3992432 L17.5688445,34.4205156 L17.58283,34.4417135 L17.5969079,34.4629101 L17.6110502,34.4840625 L17.6252647,34.5051825 L17.6395216,34.5262267 L17.6538448,34.5472277 L17.6682341,34.5681882 L17.6826922,34.5891094 L17.6972441,34.6100304 L17.7118373,34.6308752 L17.7264703,34.6516406 L17.7411688,34.6723626 L17.7559641,34.6930857 L17.7708251,34.7137687 L17.7857518,34.734409 L17.8007171,34.7549723 L17.8157528,34.7754972 L17.8308807,34.7960192 L17.8460133,34.8164165 L17.8612463,34.8368163 L17.8765413,34.8571724 L17.8919039,34.8774866 L17.9073363,34.8977679 L17.9228016,34.9179625 L17.9383628,34.9381555 L17.9539562,34.9582643 L17.9696134,34.9783275 L17.9853374,34.9983513 L18.0011663,35.0183821 L18.017023,35.0383276 L18.0329072,35.0581795 L18.048891,35.078034 L18.0649411,35.0978465 L18.0810629,35.1176267 L18.0972047,35.137309 L18.1134475,35.1569916 L18.1297263,35.1765993 L18.1460649,35.1961555 L18.162499,35.2157082 L18.1789272,35.2351339 L18.1954618,35.2545638 L18.2120925,35.2739905 L18.2287151,35.2932899 L18.2454021,35.3125442 L18.2621853,35.3317927 L18.279028,35.3509929 L18.2959034,35.3701145 L18.3128428,35.3891911 L18.3298851,35.4082686 L18.3469472,35.4272548 L18.3640682,35.4461899 L18.3812587,35.465089 L18.3984736,35.4839 L18.4157859,35.502703 L18.4331622,35.5214639 L18.4505616,35.5401366 L18.4680187,35.5587581 L18.4855799,35.5773781 L18.5031636,35.5959125 L18.5208101,35.6143993 L18.5385557,35.6328813 L18.5562864,35.6512375 L18.5741155,35.6695834 L18.5920079,35.6878869 L18.6099195,35.7060993 L18.627931,35.7243042 L18.6460049,35.7424643 L18.6640977,35.7605358 L18.6822522,35.7785594 L18.7004629,35.7965322 L18.7187354,35.8144571 L18.7371145,35.8323807 L18.7555105,35.8502156 L18.7739228,35.8679591 L18.7923901,35.885649 L18.8109645,35.9033346 L18.8295999,35.9209751 L18.8482912,35.9385624 L18.866997,35.956061 L18.8857223,35.9734705 L18.9045959,35.9909139 L18.9234777,36.0082633 L18.9424255,36.0255672 L18.9614279,36.0428207 L18.9804366,36.0599747 L18.9995596,36.0771294 L19.0187425,36.0942361 L19.0379307,36.1112461 L19.057184,36.1282104 L19.0765348,36.14516 L19.095896,36.1620182 L19.1153219,36.1788306 L19.1348015,36.1955898 L19.15434,36.2122983 L19.1739321,36.2289538 L19.193532,36.2455151 L19.2132476,36.2620736 L19.2330161,36.2785792 L19.2527859,36.2949859 L19.2726196,36.3113464 L19.2925056,36.3276512 L19.3124499,36.343905 L19.332452,36.3601079 L19.35256,36.3762982 L19.3726726,36.3923975 L19.3927352,36.4083571 L19.4129686,36.4243531 L19.4333025,36.4403347 L19.4535855,36.4561799 L19.47387,36.4719285 L19.4943221,36.4877085 L19.514831,36.5034402 L19.5352804,36.5190287 L19.5558418,36.5346059 L19.5764602,36.5501318 L19.5971348,36.565604 L19.6178606,36.5810208 L19.6385857,36.5963415 L19.6594242,36.6116505 L19.6802666,36.6268702 L19.7011534,36.6420251 L19.7221545,36.6571707 L19.7431529,36.6722206 L19.764143,36.6871707 L19.7852579,36.7021135 L19.806476,36.7170389 L19.8276259,36.7318234 L19.8489012,36.7466003 L19.8702257,36.7613219 L19.8914742,36.7758967 L19.9129089,36.7905046 L19.9343924,36.8050573 L19.9558039,36.8194675 L19.9773356,36.8338654 L19.9989777,36.8482464 L20.0205562,36.8624952 L20.0422393,36.876718 L20.063977,36.8908894 L20.0857109,36.9049641 L20.1075558,36.9190216 L20.1293913,36.9329817 L20.1512748,36.9468816 L20.1732804,36.9607678 L20.1952701,36.9745564 L20.2172439,36.9882423 L20.2393447,37.0019173 L20.2615521,37.0155684 L20.2837485,37.0291257 L20.3058672,37.0425444 L20.3281632,37.0559788 L20.3505167,37.0693618 L20.372857,37.0826459 L20.3952437,37.0958699 L20.4176774,37.109031 L20.4402344,37.1221766 L20.462705,37.1351848 L20.4852939,37.148169 L20.5079341,37.1610987 L20.5305536,37.1739246 L20.5532966,37.1867343 L20.5760906,37.1994839 L20.5988577,37.2121328 L20.621676,37.2247192 L20.6446182,37.2372884 L20.6675425,37.2497602 L20.6904432,37.262132 L20.7134583,37.2744757 L20.7365287,37.2867645 L20.7596442,37.2989879 L20.7828102,37.311154 L20.8059558,37.3232207 L20.8291465,37.3352248 L20.8523867,37.3471661 L20.8757471,37.3590834 L20.8991666,37.3709452 L20.9224787,37.3826679 L20.945907,37.3943586 L20.9693889,37.405994 L20.992853,37.4175308 L21.0164321,37.4290402 L21.0400562,37.4404844 L21.0637331,37.4518704 L21.0873,37.4631176 L21.1110017,37.4743402 L21.1348191,37.4855346 L21.1586079,37.4966297 L21.1824485,37.5076637 L21.2063239,37.5186286 L21.230252,37.5295324 L21.2542322,37.5403752 L21.27819,37.5511233 L21.3021812,37.5617999 L21.3262908,37.5724444 L21.3503857,37.5829986 L21.3745229,37.5934851 L21.3987693,37.6039353 L21.4229926,37.6142918 L21.4471991,37.6245557 L21.4715146,37.6347803 L21.495873,37.6449399 L21.5202819,37.6550352 L21.5447331,37.6650655 L21.5691585,37.6750003 L21.5936332,37.6848708 L21.6181412,37.6946704 L21.6426916,37.7044024 L21.6672917,37.71407 L21.6919414,37.7236731 L21.7166322,37.7332085 L21.7413648,37.7426763 L21.7661465,37.7520794 L21.7909696,37.7614149 L21.8157634,37.7706564 L21.8405976,37.7798277 L21.8654731,37.7889315 L21.890468,37.7979937 L21.9154332,37.8069652 L21.9403668,37.8158383 L21.9654993,37.8246998 L21.990593,37.8334658 L22.0156482,37.8421342 L22.0408304,37.8507622 L22.0659734,37.8592955 L22.0911636,37.8677584 L22.1165606,37.8762094 L22.1418304,37.8845375 L22.1670604,37.8927664 L22.1924243,37.9009559 L22.2179079,37.9091009 L22.2433511,37.9171526 L22.2687527,37.9251061 L22.2942754,37.9330147 L22.3197696,37.9408321 L22.345296,37.9485748 L22.3709505,37.9562738 L22.3966498,37.9639044 L22.4223008,37.9714388 L22.4479972,37.9789022 L22.473739,37.9862971 L22.499519,37.9936192 L22.5252561,38.000848 L22.551114,38.0080243 L22.5770174,38.0151347 L22.6028821,38.0221486 L22.6288624,38.029113 L22.6548046,38.035984 L22.6807907,38.0427837 L22.7068979,38.049532 L22.7329661,38.0561901 L22.758983,38.0627502 L22.7851278,38.0692598 L22.8113151,38.0756978 L22.8375356,38.0820615 L22.8637159,38.0883334 L22.890023,38.094551 L22.9162837,38.1006785 L22.9425824,38.1067279 L22.9690076,38.1127273 L22.9953864,38.1186321 L23.0218028,38.1244639 L23.0481774,38.1302028 L23.074678,38.1358854 L23.101211,38.1414939 L23.127702,38.1470101 L23.1543187,38.152469 L23.1809726,38.1578548 L23.2075785,38.1631479 L23.2342218,38.1683653 L23.2609063,38.173508 L23.2876277,38.1785749 L23.3143901,38.1835669 L23.3411889,38.1884831 L23.3680287,38.1933242 L23.3949042,38.1980895 L23.4217278,38.2027633 L23.4485958,38.2073602 L23.4755887,38.2118962 L23.5025285,38.2163416 L23.529505,38.2207085 L23.556525,38.2250007 L23.5835769,38.2292138 L23.6106693,38.2333515 L23.6378,38.2374111 L23.6649637,38.2413941 L23.6920809,38.2452867 L23.7192341,38.2491007 L23.746512,38.2528484 L23.7738283,38.2565203 L23.8010912,38.2601016 L23.8283074,38.2635936 L23.855647,38.2670155 L23.8831054,38.2703715 L23.9105163,38.2736385 L23.937879,38.276817 L23.9652768,38.279914 L23.9927957,38.2829418 L24.0203524,38.2858909 L24.0479437,38.2887608 L24.0754845,38.291543 L24.1029764,38.2942353 L24.1305891,38.2968544 L24.158325,38.2994025 L24.1860091,38.3018637 L24.2136424,38.3042356 L24.2413102,38.306526 L24.2691012,38.3087417 L24.2969297,38.3108783 L24.3247902,38.3129328 L24.3525981,38.3149016 L24.380444,38.3167861 L24.4083235,38.3185913 L24.4361521,38.3203066 L24.4641889,38.3219502 L24.4921722,38.3235093 L24.5201042,38.3249789 L24.5481562,38.3263709 L24.5762452,38.3276806 L24.6042809,38.3289042 L24.6323515,38.330043 L24.6605415,38.3311027 L24.6886794,38.3320769 L24.7167663,38.3329633 L24.7450588,38.3337698 L24.7732994,38.334494 L24.8014871,38.3351283 L24.8297945,38.3356819 L24.8580504,38.3361488 L24.8864254,38.3365315 L24.9148332,38.3368314 L24.9431894,38.3370451 L24.9715788,38.3371734 L25.0000004,38.3372161 L24.9999996,38.3372194 Z" id="Shape" sketch:type="MSShapeGroup"></path>
        </g>
    </g>
</svg>