<?xml version="1.0" encoding="UTF-8" standalone="no"?>
<svg width="20px" height="20px" viewBox="0 0 20 20" version="1.1" xmlns="http://www.w3.org/2000/svg" xmlns:xlink="http://www.w3.org/1999/xlink" xmlns:sketch="http://www.bohemiancoding.com/sketch/ns">
    <!-- Generator: Sketch 3.4.4 (17249) - http://www.bohemiancoding.com/sketch -->
    <title>envelope</title>
    <desc>Created with Sketch.</desc>
    <defs></defs>
    <g id="Icons" stroke="none" stroke-width="1" fill="none" fill-rule="evenodd" sketch:type="MSPage">
        <g id="envelope" sketch:type="MSArtboardGroup" fill="#000000">
            <g id="Rectangle-6-+-Group" sketch:type="MSLayerGroup" transform="translate(0.000000, 3.000000)">
                <path d="M1.5,3.00276013 C1.5,2.17214529 2.16942968,1.5 2.99508929,1.5 L17.0049107,1.5 C17.8313922,1.5 18.5,2.17045542 18.5,3.00276013 L18.5,11.9972399 C18.5,12.8278547 17.8305703,13.5 17.0049107,13.5 L2.99508929,13.5 C2.16860779,13.5 1.5,12.8295446 1.5,11.9972399 L1.5,3.00276013 L1.5,3.00276013 Z M0.5,3.00276013 L0.5,11.9972399 C0.5,13.3812125 1.61570435,14.5 2.99508929,14.5 L17.0049107,14.5 C18.3837634,14.5 19.5,13.3792352 19.5,11.9972399 L19.5,3.00276013 C19.5,1.61878748 18.3842957,0.5 17.0049107,0.5 L2.99508929,0.5 C1.61623665,0.5 0.5,1.62076477 0.5,3.00276013 L0.5,3.00276013 Z" id="Shape" sketch:type="MSShapeGroup"></path>
                <path d="M1.43877804,2.08086167 L9.66948235,9.33181773 L10.0446596,9.6623355 L10.7056952,8.91198092 L10.3305179,8.58146314 L2.09981359,1.33050709 L1.72463629,0.999989312 L1.06360074,1.7503439 L1.43877804,2.08086167 L1.43877804,2.08086167 Z" id="Shape" sketch:type="MSShapeGroup"></path>
                <path d="M17.9224233,1.43259385 L9.92565865,8.55747464 L9.5523401,8.89009042 L10.2175717,9.63672752 L10.5908902,9.30411174 L18.5876549,2.17923095 L18.9609734,1.84661516 L18.2957419,1.09997806 L17.9224233,1.43259385 L17.9224233,1.43259385 Z" id="Shape" sketch:type="MSShapeGroup"></path>
                <path d="M2.00966007,13.7163279 L8.26217705,8.34616023 L8.64147941,8.02038466 L7.98992828,7.26177994 L7.61062592,7.58755551 L1.35810893,12.9577231 L0.978806574,13.2834987 L1.63035771,14.0421034 L2.00966007,13.7163279 L2.00966007,13.7163279 Z" id="Shape" sketch:type="MSShapeGroup"></path>
                <path d="M18.6021973,12.8199338 L12.6634368,7.60051001 L12.2878704,7.27043439 L11.6277192,8.02156711 L12.0032855,8.35164272 L17.942046,13.5710666 L18.3176124,13.9011422 L18.9777636,13.1500094 L18.6021973,12.8199338 L18.6021973,12.8199338 Z" id="Shape" sketch:type="MSShapeGroup"></path>
            </g>
        </g>
    </g>
</svg>