<?xml version="1.0" encoding="UTF-8" standalone="no"?>
<svg width="50px" height="51px" viewBox="0 0 50 51" version="1.1" xmlns="http://www.w3.org/2000/svg" xmlns:xlink="http://www.w3.org/1999/xlink" xmlns:sketch="http://www.bohemiancoding.com/sketch/ns">
    <!-- Generator: Sketch 3.3.3 (12072) - http://www.bohemiancoding.com/sketch -->
    <title>espresso</title>
    <desc>Created with Sketch.</desc>
    <defs></defs>
    <g id="Icons" stroke="none" stroke-width="1" fill="none" fill-rule="evenodd" sketch:type="MSPage">
        <g id="espresso" sketch:type="MSArtboardGroup" transform="translate(0.000000, 0.431034)" fill="#000000">
            <path d="M43.9436494,27.8065121 L30.2486007,27.8065121 L30.2486007,26.0125698 L43.9436494,26.0125698 L43.9436494,27.8065121 L43.9436494,27.8065121 Z M32.3281947,35.4791166 L17.1512819,35.4791166 L16.1663193,24.3499232 C16.8821777,24.5667173 17.6402574,24.6842204 18.4256209,24.6842204 L20.9606572,24.6842204 L20.9606572,27.5448351 C20.9606572,28.3640043 21.6271302,29.030465 22.4466367,29.030465 L23.9121914,29.030465 C23.525035,29.29519 23.2704873,29.7399036 23.2704873,30.2430639 L24.1193353,30.2430639 C24.1193353,29.9011465 24.3977374,29.62301 24.740005,29.62301 C25.0815105,29.62301 25.3599125,29.9011465 25.3599125,30.2430639 L26.2087606,30.2430639 C26.2087606,29.7399036 25.9542891,29.29519 25.5674375,29.030465 L27.0326112,29.030465 C27.8521177,29.030465 28.5186669,28.3640043 28.5186669,27.5448351 L28.5186669,27.3339086 L29.399524,27.3339086 L29.399524,27.9124325 C29.399524,28.3223219 29.7327224,28.6552475 30.1426662,28.6552475 L32.9320215,28.6552475 L32.3281947,35.4791166 L32.3281947,35.4791166 Z M35.1857596,36.3280806 C35.4198063,36.3280806 35.6102599,36.5185089 35.6102599,36.7523721 L35.6102599,39.5059234 C35.6102599,39.7400914 35.4198063,39.9303673 35.1857596,39.9303673 L14.2933358,39.9303673 C14.0594415,39.9303673 13.868988,39.7400914 13.868988,39.5059234 L13.868988,36.7523721 C13.868988,36.5185089 14.0594415,36.3280806 14.2933358,36.3280806 L16.374073,36.3280806 L33.1056322,36.3280806 L35.1857596,36.3280806 L35.1857596,36.3280806 Z M11.4628261,16.873462 C11.4628261,13.0350261 14.5862944,9.9119724 18.4256209,9.9119724 L31.0537031,9.9119724 C34.8929535,9.9119724 38.0162694,13.0350261 38.0162694,16.873462 C38.0162694,20.7122028 34.8929535,23.835485 31.0537031,23.835485 L18.4256209,23.835485 C14.5862944,23.835485 11.4628261,20.7122028 11.4628261,16.873462 L11.4628261,16.873462 L11.4628261,16.873462 Z M21.8096577,24.6842204 L27.6695902,24.6842204 L27.6695902,27.5448351 C27.6695902,27.8959729 27.3837956,28.181501 27.0326112,28.181501 L22.4466367,28.181501 C22.0954523,28.181501 21.8096577,27.8959729 21.8096577,27.5448351 L21.8096577,24.6842204 L21.8096577,24.6842204 Z M33.2412894,25.1636058 L30.1426662,25.1636058 C29.7327224,25.1636058 29.399524,25.49676 29.399524,25.9062683 L29.399524,26.4849446 L28.5186669,26.4849446 L28.5186669,24.6842204 L31.0537031,24.6842204 C31.8390667,24.6842204 32.5975275,24.5667173 33.3131572,24.3499232 L33.2412894,25.1636058 L33.2412894,25.1636058 Z M44.0498126,25.1636058 L34.0933383,25.1636058 L34.1943953,24.0230938 C36.9418341,22.8114093 38.8654985,20.0638018 38.8654985,16.873462 C38.8654985,12.5669947 35.361047,9.0630846 31.0537031,9.0630846 L18.4256209,9.0630846 C14.1180485,9.0630846 10.6138256,12.5669947 10.6138256,16.873462 C10.6138256,20.0638018 12.5374138,22.8114093 15.2849288,24.0230938 L16.2988518,35.4791166 L14.2933358,35.4791166 C13.5913481,35.4791166 13.0201399,36.0504776 13.0201399,36.7523721 L13.0201399,39.5059234 C13.0201399,40.2081228 13.5913481,40.7792551 14.2933358,40.7792551 L35.1857596,40.7792551 C35.8878998,40.7792551 36.4591842,40.2081228 36.4591842,39.5059234 L36.4591842,36.7523721 C36.4591842,36.0504776 35.8878998,35.4791166 35.1857596,35.4791166 L33.1804723,35.4791166 L33.7842991,28.6552475 L44.0498126,28.6552475 C44.4592991,28.6552475 44.7927261,28.3223219 44.7927261,27.9124325 L44.7927261,25.9062683 C44.7927261,25.49676 44.4592991,25.1636058 44.0498126,25.1636058 L44.0498126,25.1636058 L44.0498126,25.1636058 Z" id="Fill-25" sketch:type="MSShapeGroup"></path>
            <path d="M24.7394715,12.7098731 C27.0358883,12.7098731 28.9037656,14.577731 28.9037656,16.8737668 C28.9037656,19.1697264 27.0358883,21.0373557 24.7394715,21.0373557 C22.4432834,21.0373557 20.5751774,19.1697264 20.5751774,16.8737668 C20.5751774,14.577731 22.4432834,12.7098731 24.7394715,12.7098731 M24.7394715,21.8864721 C27.5039818,21.8864721 29.7532234,19.6377577 29.7532234,16.8737668 C29.7532234,14.1096235 27.5039818,11.8609091 24.7394715,11.8609091 C21.9751899,11.8609091 19.7261007,14.1096235 19.7261007,16.8737668 C19.7261007,19.6377577 21.9751899,21.8864721 24.7394715,21.8864721" id="Fill-26" sketch:type="MSShapeGroup"></path>
            <path d="M22.6056147,16.5202668 C22.6056147,16.2301666 22.3708058,15.9953889 22.0808196,15.9953889 C21.791062,15.9953889 21.5558721,16.2301666 21.5558721,16.5202668 C21.5558721,16.8098335 21.791062,17.0446112 22.0808196,17.0446112 C22.3708058,17.0446112 22.6056147,16.8098335 22.6056147,16.5202668" id="Fill-27" sketch:type="MSShapeGroup"></path>
            <path d="M26.3483046,15.6210858 C26.6382909,15.6210858 26.8733283,15.3859271 26.8733283,15.0964365 C26.8733283,14.8062602 26.6382909,14.5714825 26.3483046,14.5714825 C26.0587756,14.5714825 25.8235857,14.8062602 25.8235857,15.0964365 C25.8235857,15.3859271 26.0587756,15.6210858 26.3483046,15.6210858" id="Fill-28" sketch:type="MSShapeGroup"></path>
            <path d="M24.7394715,15.0964365 C25.0294578,15.0964365 25.2648001,14.8612779 25.2648001,14.5715587 C25.2648001,14.2812299 25.0294578,14.0462999 24.7394715,14.0462999 C24.4498663,14.0462999 24.214524,14.2812299 24.214524,14.5715587 C24.214524,14.8612779 24.4498663,15.0964365 24.7394715,15.0964365" id="Fill-29" sketch:type="MSShapeGroup"></path>
            <path d="M27.3983521,17.0446874 C27.6883383,17.0446874 27.9231472,16.8099097 27.9231472,16.520343 C27.9231472,16.2302428 27.6883383,15.9952365 27.3983521,15.9952365 C27.108442,15.9952365 26.8734045,16.2302428 26.8734045,16.520343 C26.8734045,16.8099097 27.108442,17.0446874 27.3983521,17.0446874" id="Fill-30" sketch:type="MSShapeGroup"></path>
            <path d="M24.3562781,17.2403736 C24.460536,17.3493421 24.6000037,17.4041312 24.7394715,17.4041312 C24.8716229,17.4041312 25.0036982,17.3550572 25.1064318,17.2566807 C25.3181484,17.0541364 25.3254648,16.7181628 25.1227411,16.5064742 L23.4213868,14.7296012 C23.218968,14.5181413 22.8827974,14.5107497 22.6710807,14.713294 C22.4593641,14.9160669 22.4522001,15.251812 22.6547714,15.4635005 L24.3562781,17.2403736 L24.3562781,17.2403736 Z" id="Fill-31" sketch:type="MSShapeGroup"></path>
            <path d="M33.3057646,16.4806418 C33.5225875,16.4806418 33.699018,16.657049 33.699018,16.873462 C33.699018,17.0902561 33.5225875,17.2666632 33.3057646,17.2666632 C33.0889418,17.2666632 32.9128923,17.0902561 32.9128923,16.873462 C32.9128923,16.657049 33.0889418,16.4806418 33.3057646,16.4806418 M33.3057646,18.1156272 C33.9906809,18.1156272 34.5480947,17.5582874 34.5480947,16.873462 C34.5480947,16.1890176 33.9906809,15.6316778 33.3057646,15.6316778 C32.6210007,15.6316778 32.0638156,16.1890176 32.0638156,16.873462 C32.0638156,17.5582874 32.6210007,18.1156272 33.3057646,18.1156272" id="Fill-32" sketch:type="MSShapeGroup"></path>
            <path d="M16.1734833,17.2667394 C15.9567366,17.2667394 15.7802299,17.0903323 15.7802299,16.8735382 C15.7802299,16.6571252 15.9567366,16.480718 16.1734833,16.480718 C16.389925,16.480718 16.5662031,16.6571252 16.5662031,16.8735382 C16.5662031,17.0903323 16.389925,17.2667394 16.1734833,17.2667394 M16.1734833,15.631754 C15.488567,15.631754 14.9312294,16.1890938 14.9312294,16.8735382 C14.9312294,17.5583636 15.488567,18.1157034 16.1734833,18.1157034 C16.8582471,18.1157034 17.4154323,17.5583636 17.4154323,16.8735382 C17.4154323,16.1890938 16.8582471,15.631754 16.1734833,15.631754" id="Fill-33" sketch:type="MSShapeGroup"></path>
        </g>
    </g>
</svg>