<?xml version="1.0" encoding="UTF-8" standalone="no"?>
<svg width="20px" height="20px" viewBox="0 0 20 20" version="1.1" xmlns="http://www.w3.org/2000/svg" xmlns:xlink="http://www.w3.org/1999/xlink" xmlns:sketch="http://www.bohemiancoding.com/sketch/ns">
    <!-- Generator: Sketch 3.3.2 (12043) - http://www.bohemiancoding.com/sketch -->
    <title>facebook</title>
    <desc>Created with Sketch.</desc>
    <defs></defs>
    <g id="Icons" stroke="none" stroke-width="1" fill="none" fill-rule="evenodd" sketch:type="MSPage">
        <g id="facebook" sketch:type="MSArtboardGroup" fill="#3C5A99">
            <path d="M17.533769,18.4685608 C18.0499286,18.4685608 18.4684951,18.0499944 18.4684951,17.5337033 L18.4684951,2.46623103 C18.4684951,1.9498742 18.0499944,1.53143919 17.533769,1.53143919 L2.46629675,1.53143919 C1.94993992,1.53143919 1.53150491,1.9498742 1.53150491,2.46623103 L1.53150491,17.5337033 C1.53150491,18.0499286 1.9498742,18.4685608 2.46629675,18.4685608 L17.533769,18.4685608 Z M13.217783,18.4685608 L13.217783,11.9095739 L15.419315,11.9095739 L15.7489632,9.35342031 L13.217783,9.35342031 L13.217783,7.72147775 C13.217783,6.98141231 13.4232874,6.47708212 14.4845232,6.47708212 L15.8380787,6.47649065 L15.8380787,4.19024638 C15.6039864,4.15909541 14.8005018,4.08949863 13.8657099,4.08949863 C11.9141742,4.08949863 10.5781001,5.28072732 10.5781001,7.46832687 L10.5781001,9.35342031 L8.37091623,9.35342031 L8.37091623,11.9095739 L10.5781001,11.9095739 L10.5781001,18.4685608 L13.217783,18.4685608 Z" id="Blue_1_" sketch:type="MSShapeGroup"></path>
        </g>
    </g>
</svg>