<?xml version="1.0" encoding="UTF-8" standalone="no"?>
<svg width="20px" height="20px" viewBox="0 0 20 20" version="1.1" xmlns="http://www.w3.org/2000/svg" xmlns:xlink="http://www.w3.org/1999/xlink" xmlns:sketch="http://www.bohemiancoding.com/sketch/ns">
    <!-- Generator: Sketch 3.4.4 (17249) - http://www.bohemiancoding.com/sketch -->
    <title>bean copy</title>
    <desc>Created with Sketch.</desc>
    <defs></defs>
    <g id="Icons" stroke="none" stroke-width="1" fill="none" fill-rule="evenodd" sketch:type="MSPage">
        <g id="bean-copy" sketch:type="MSArtboardGroup" fill="#000000">
            <g id="Page-1" sketch:type="MSLayerGroup" transform="translate(0.000000, 1.000000)">
                <path d="M3.4136129,11.3978 C4.37296774,11.7151333 5.41296774,11.8764667 6.31683871,11.9498 C6.54780645,11.9691333 6.76716129,11.9818 6.97683871,11.9911333 C7.28587097,12.0044667 7.56974194,12.0104667 7.81103226,12.0104667 C8.30522581,12.0104667 8.6303871,11.9904667 8.68135484,11.9871333 C8.84587097,11.9758 8.97619355,11.8391333 8.98329032,11.6684667 C8.99232258,11.4591333 9.16716129,6.8078 7.43877419,4.45913333 C7.32458065,4.3038 7.202,4.15846667 7.07103226,4.02513333 C7.03812903,3.99246667 7.00264516,3.9638 6.96909677,3.93246667 C6.56135484,3.54513333 6.09683871,3.25846667 5.60522581,3.0698 C5.36909677,2.97913333 5.12651613,2.91313333 4.88135484,2.86846667 C3.57683871,2.63046667 2.18458065,3.0358 1.18909677,4.0858 C0.411032258,4.9058 -0.0109032258,5.9898 6.4516129e-05,7.1378 C0.0110322581,8.28513333 0.454258065,9.36046667 1.24780645,10.1638 C1.63748387,10.5591333 2.1336129,10.8631333 2.67554839,11.1091333 C2.91425806,11.2171333 3.15941935,11.3138 3.4136129,11.3978 L3.4136129,11.3978 Z M1.69941935,9.6878 C1.02909677,9.00846667 0.654258065,8.10113333 0.645225806,7.13113333 C0.636193548,6.16113333 0.992322581,5.24513333 1.64974194,4.55246667 C2.33683871,3.82846667 3.24780645,3.46513333 4.15941935,3.46513333 C4.22458065,3.46513333 4.28845161,3.48046667 4.35296774,3.4838 C4.60458065,3.49846667 4.85232258,3.54246667 5.09748387,3.61246667 C5.65167742,3.77113333 6.18006452,4.05646667 6.61877419,4.50113333 C8.262,6.1658 8.35296774,10.1924667 8.34458065,11.3338 C7.50974194,11.3591333 5.08070968,11.3571333 3.23296774,10.6344667 C2.98651613,10.5378 2.75296774,10.4264667 2.53232258,10.3031333 C2.21941935,10.1271333 1.93490323,9.92646667 1.69941935,9.6878 L1.69941935,9.6878 Z" id="Fill-8" sketch:type="MSShapeGroup"></path>
                <path d="M11.0794839,0.146133333 C8.64851613,0.146133333 6.4523871,1.1928 4.88141935,2.86813333 C5.12658065,2.91346667 5.36916129,2.97946667 5.60529032,3.06946667 C7.03754839,1.6748 8.96077419,0.8128 11.0794839,0.8128 C15.4872258,0.8128 19.0730323,4.51813333 19.0730323,9.0728 C19.0730323,13.6274667 15.4872258,17.3334667 11.0794839,17.3334667 C7.45367742,17.3334667 4.38851613,14.8234667 3.41367742,11.3981333 C3.15948387,11.3141333 2.91432258,11.2168 2.6756129,11.1088 C3.57109677,15.0521333 6.99432258,18.0001333 11.0794839,18.0001333 C15.8427097,18.0001333 19.7181935,13.9954667 19.7181935,9.0728 C19.7181935,4.1508 15.8427097,0.146133333 11.0794839,0.146133333" id="Fill-5" sketch:type="MSShapeGroup"></path>
                <path d="M11.0794839,0.146133333 C9.38270968,0.146133333 7.88206452,1.64613333 6.96916129,3.93213333 C7.00270968,3.96413333 7.03819355,3.99213333 7.07109677,4.02546667 C7.20206452,4.1588 7.32464516,4.30413333 7.43883871,4.45946667 C8.22851613,2.2608 9.56593548,0.8128 11.0794839,0.8128 C13.5007742,0.8128 15.4704516,4.51813333 15.4704516,9.0728 C15.4704516,13.6274667 13.5007742,17.3334667 11.0794839,17.3334667 C9.20464516,17.3334667 7.60529032,15.1074667 6.97690323,11.9908 C6.76722581,11.9814667 6.54787097,11.9688 6.31690323,11.9501333 C6.99432258,15.4634667 8.87109677,18.0001333 11.0794839,18.0001333 C13.8562581,18.0001333 16.1156129,13.9954667 16.1156129,9.0728 C16.1156129,4.1508 13.8562581,0.146133333 11.0794839,0.146133333" id="Fill-11" sketch:type="MSShapeGroup"></path>
                <path d="M2.70419355,8.69266667 C2.76677419,8.61533333 2.82483871,8.53733333 2.87516129,8.454 C2.98354839,8.288 3.07580645,8.11666667 3.15580645,7.93933333 C3.32483871,7.58133333 3.44870968,7.206 3.54806452,6.81066667 C3.56225806,6.75 3.58032258,6.69 3.5983871,6.63066667 C3.71774194,6.21066667 3.91129032,5.81533333 4.17,5.45266667 C4.31580645,5.25533333 4.4816129,5.07333333 4.66935484,4.924 C4.72935484,4.87733333 4.79322581,4.83066667 4.85645161,4.79266667 C5.01580645,4.72466667 4.94290323,4.634 4.88483871,4.61466667 C4.51064516,4.486 3.27,4.14333333 2.35967742,5.88 C1.57129032,7.38333333 2.02612903,8.35333333 2.31774194,8.67733333 C2.48032258,8.86 2.61387097,8.79866667 2.70419355,8.69266667" id="Fill-14" sketch:type="MSShapeGroup"></path>
                <path d="M4.64025806,5.81093333 C4.47574194,6.16493333 4.35187097,6.54493333 4.25251613,6.9356 C4.23896774,6.99626667 4.22025806,7.05626667 4.20219355,7.11626667 C4.08348387,7.53626667 3.88929032,7.9356 3.63122581,8.2936 C3.48541935,8.49093333 3.32025806,8.66826667 3.13122581,8.82226667 C3.07187097,8.86893333 3.008,8.9116 2.94477419,8.9536 C2.78541935,9.0216 2.85767742,9.11293333 2.91574194,9.1316 C3.68477419,9.39493333 4.588,9.06893333 5.32541935,7.9336 C5.32606452,7.9296 5.33122581,7.92093333 5.33574194,7.91293333 C5.34090323,7.90426667 5.34606452,7.89626667 5.35122581,7.8876 C6.11380645,6.7156 6.04348387,5.70493333 5.47445161,5.07293333 C5.31187097,4.8896 5.17832258,4.9516 5.09187097,5.0576 C5.02993548,5.1356 4.97122581,5.2176 4.92154839,5.29626667 C4.81251613,5.46226667 4.72025806,5.6336 4.64025806,5.81093333" id="Fill-16" sketch:type="MSShapeGroup"></path>
                <path d="M11.0794839,18 C10.9014194,18 10.7569032,17.8506667 10.7569032,17.6666667 L10.7569032,0.479333333 C10.7569032,0.295333333 10.9014194,0.146 11.0794839,0.146 C11.2575484,0.146 11.4020645,0.295333333 11.4020645,0.479333333 L11.4020645,17.6666667 C11.4020645,17.8506667 11.2575484,18 11.0794839,18" id="Fill-20" sketch:type="MSShapeGroup"></path>
                <path d="M19.3954194,9.40626667 L8.5696129,9.40626667 C8.39090323,9.40626667 8.24703226,9.25693333 8.24703226,9.07293333 C8.24703226,8.88893333 8.39090323,8.7396 8.5696129,8.7396 L19.3954194,8.7396 C19.5734839,8.7396 19.718,8.88893333 19.718,9.07293333 C19.718,9.25693333 19.5734839,9.40626667 19.3954194,9.40626667" id="Fill-24" sketch:type="MSShapeGroup"></path>
            </g>
        </g>
    </g>
</svg>