<svg id="Layer_1" data-name="Layer 1" xmlns="http://www.w3.org/2000/svg" viewBox="0 0 50 50"><defs><style>.cls-1{fill:#fff;}</style></defs><title>IG_icon</title><path class="cls-1" d="M32,41.05H20A9.1,9.1,0,0,1,10.95,32V20A9.1,9.1,0,0,1,20,10.95H32A9.1,9.1,0,0,1,41.05,20V32A9.1,9.1,0,0,1,32,41.05ZM20,13.86A6.19,6.19,0,0,0,13.86,20V32A6.19,6.19,0,0,0,20,38.14H32A6.19,6.19,0,0,0,38.14,32V20A6.19,6.19,0,0,0,32,13.86H20Z"/><path class="cls-1" d="M26,34a8,8,0,1,1,8-8A8,8,0,0,1,26,34Zm0-13.1A5.1,5.1,0,1,0,31.1,26,5.1,5.1,0,0,0,26,20.9Z"/><circle class="cls-1" cx="34.06" cy="17.99" r="1.85"/></svg>