<?xml version="1.0" encoding="UTF-8" standalone="no"?>
<svg width="20px" height="20px" viewBox="0 0 20 20" version="1.1" xmlns="http://www.w3.org/2000/svg" xmlns:xlink="http://www.w3.org/1999/xlink" xmlns:sketch="http://www.bohemiancoding.com/sketch/ns">
    <!-- Generator: Sketch 3.3.3 (12072) - http://www.bohemiancoding.com/sketch -->
    <title>instagram</title>
    <desc>Created with Sketch.</desc>
    <defs></defs>
    <g id="Icons" stroke="none" stroke-width="1" fill="none" fill-rule="evenodd" sketch:type="MSPage">
        <g id="instagram" sketch:type="MSArtboardGroup" fill="#125688">
            <path d="M16.4475773,15.7451948 C16.4475773,16.1183355 16.1512596,16.4146531 15.778119,16.4146531 L4.04613651,16.4146531 C3.67299581,16.4146531 3.3766782,16.1183355 3.3766782,15.7451948 L3.3766782,8.63357211 L4.92411461,8.63357211 C4.78144317,9.08353589 4.70462009,9.57739858 4.70462009,10.0712613 C4.70462009,12.8807912 7.05321152,15.1525596 9.93956455,15.1525596 C12.8368923,15.1525596 15.1854837,12.8807912 15.1854837,10.0712613 C15.1854837,9.57739858 15.1086606,9.08353589 14.9659892,8.63357211 L16.4475773,8.63357211 L16.4475773,15.7451948 Z M13.330755,9.89566564 C13.330755,11.7064955 11.8162427,13.1771088 9.93956455,13.1771088 C8.07386107,13.1771088 6.55934884,11.7064955 6.55934884,9.89566564 C6.55934884,8.0848358 8.07386107,6.61422247 9.93956455,6.61422247 C11.8162427,6.61422247 13.330755,8.0848358 13.330755,9.89566564 L13.330755,9.89566564 Z M16.4475773,5.94476416 C16.4475773,6.36180376 16.1073607,6.70202028 15.6903211,6.70202028 L13.7807188,6.70202028 C13.3636792,6.70202028 13.0234626,6.36180376 13.0234626,5.94476416 L13.0234626,4.13393432 C13.0234626,3.71689472 13.3636792,3.3766782 13.7807188,3.3766782 L15.6903211,3.3766782 C16.1073607,3.3766782 16.4475773,3.71689472 16.4475773,4.13393432 L16.4475773,5.94476416 Z M18.3571796,3.66202109 C18.3571796,2.47675064 17.380429,1.5 16.1951586,1.5 L3.66202109,1.5 C2.47675064,1.5 1.5,2.47675064 1.5,3.66202109 L1.5,16.1951586 C1.5,17.380429 2.47675064,18.3571796 3.66202109,18.3571796 L16.1951586,18.3571796 C17.380429,18.3571796 18.3571796,17.380429 18.3571796,16.1951586 L18.3571796,3.66202109 Z" id="" sketch:type="MSShapeGroup"></path>
        </g>
    </g>
</svg>