<?xml version="1.0" encoding="UTF-8"?>
<svg width="85px" height="16px" viewBox="0 0 85 16" version="1.1" xmlns="http://www.w3.org/2000/svg" xmlns:xlink="http://www.w3.org/1999/xlink">
    <!-- Generator: Sketch 46.2 (44496) - http://www.bohemiancoding.com/sketch -->
    <title>Mastercard</title>
    <desc>Created with Sketch.</desc>
    <defs></defs>
    <g id="Symbols" stroke="none" stroke-width="1" fill="none" fill-rule="evenodd" opacity="0.75">
        <g id="Trust-Symbol" transform="translate(-63.000000, 0.000000)">
            <g id="Mastercard">
                <g transform="translate(63.114583, 0.000000)">
                    <path d="M35.3702381,5.22727273 C34.7673363,5.22727273 33.9634673,5.43636364 33.5615327,6.16818182 C33.2600818,5.64545455 32.6571801,5.22727273 31.853311,5.22727273 C31.3508929,5.22727273 30.7479911,5.33181818 30.3460565,5.95909091 L30.3460565,5.33181818 L29.2407366,5.33181818 L29.2407366,10.4545455 L30.3460565,10.4545455 L30.3460565,7.63181818 C30.3460565,6.79545455 30.9489583,6.27272727 31.6523437,6.27272727 C32.3557292,6.27272727 32.7576637,6.79545455 32.7576637,7.63181818 L32.7576637,10.4545455 L33.8629836,10.4545455 L33.8629836,7.63181818 C33.8629836,6.79545455 34.4658854,6.27272727 35.1692708,6.27272727 C35.8726562,6.27272727 36.2745908,6.79545455 36.2745908,7.63181818 L36.2745908,10.4545455 L37.3799107,10.4545455 L37.3799107,7.31818182 C37.3799107,6.06363636 36.5760417,5.22727273 35.3702381,5.22727273 L35.3702381,5.22727273 Z M42.3036086,6.06363636 C42.0021577,5.64545455 41.4997396,5.33181818 40.7963542,5.33181818 C39.3895833,5.33181818 38.384747,6.48181818 38.384747,8.05 C38.384747,9.61818182 39.490067,10.7681818 40.7963542,10.7681818 C41.4997396,10.7681818 42.0021577,10.4545455 42.3036086,10.0363636 L42.3036086,10.4545455 L43.4089286,10.4545455 L43.4089286,5.33181818 L42.3036086,5.33181818 L42.3036086,6.06363636 Z M40.8968378,9.61818182 C39.9924851,9.61818182 39.3895833,8.88636364 39.3895833,7.94545455 C39.3895833,7.00454545 39.9924851,6.27272727 40.8968378,6.27272727 C41.8011905,6.27272727 42.4040923,7.00454545 42.4040923,7.94545455 C42.4040923,8.88636364 41.8011905,9.61818182 40.8968378,9.61818182 Z M47.1268229,7.42272727 L46.6244048,7.31818182 C46.2224702,7.21363636 45.8205357,7.10909091 45.8205357,6.79545455 C45.8205357,6.48181818 46.1219866,6.16818182 46.7248884,6.16818182 C47.3277902,6.16818182 47.930692,6.37727273 48.2321429,6.58636364 L48.734561,5.75 C48.2321429,5.43636364 47.5287574,5.22727273 46.7248884,5.22727273 C45.5190848,5.22727273 44.7152158,5.85454545 44.7152158,6.9 C44.7152158,7.73636364 45.3181176,8.25909091 46.3229539,8.36363636 L46.825372,8.46818182 C47.4282738,8.57272727 47.6292411,8.78181818 47.6292411,8.99090909 C47.6292411,9.40909091 47.2273065,9.61818182 46.5239211,9.61818182 C45.7200521,9.61818182 45.2176339,9.40909091 44.916183,9.09545455 L44.4137649,9.93181818 C45.1171503,10.4545455 46.021503,10.5590909 46.5239211,10.5590909 C47.930692,10.5590909 48.734561,9.82727273 48.734561,8.88636364 C48.8350446,8.05 48.2321429,7.63181818 47.1268229,7.42272727 L47.1268229,7.42272727 Z M52.552939,9.61818182 C52.1510045,9.61818182 51.7490699,9.30454545 51.7490699,8.67727273 L51.7490699,6.48181818 L53.6582589,6.48181818 L53.6582589,5.43636364 L51.7490699,5.43636364 L51.7490699,3.86818182 L50.64375,3.86818182 L50.64375,5.43636364 L49.6389137,5.43636364 L49.6389137,6.48181818 L50.64375,6.48181818 L50.64375,8.67727273 C50.64375,10.0363636 51.2466518,10.6636364 52.3519717,10.6636364 C52.9548735,10.6636364 53.4572917,10.4545455 53.8592262,10.1409091 L53.4572917,9.2 C53.1558408,9.40909091 52.8543899,9.61818182 52.552939,9.61818182 L52.552939,9.61818182 Z M56.9742187,5.22727273 C55.5674479,5.22727273 54.5626116,6.27272727 54.5626116,7.94545455 C54.5626116,9.61818182 55.5674479,10.6636364 57.0747024,10.6636364 C57.7780878,10.6636364 58.4814732,10.4545455 59.084375,9.93181818 L58.5819568,9.09545455 C58.1800223,9.40909091 57.6776042,9.61818182 57.175186,9.61818182 C56.4718006,9.61818182 55.8688988,9.2 55.7684152,8.36363636 L59.3858259,8.36363636 L59.3858259,7.94545455 C59.2853423,6.37727273 58.3809896,5.22727273 56.9742187,5.22727273 L56.9742187,5.22727273 Z M55.6679315,7.52727273 C55.7684152,6.79545455 56.1703497,6.27272727 56.9742187,6.27272727 C57.6776042,6.27272727 58.0795387,6.69090909 58.1800223,7.52727273 L55.6679315,7.52727273 Z M61.5964658,5.95909091 L61.5964658,5.33181818 L60.4911458,5.33181818 L60.4911458,10.4545455 L61.5964658,10.4545455 L61.5964658,7.63181818 C61.5964658,6.79545455 62.0988839,6.27272727 62.8022693,6.27272727 C63.1037202,6.27272727 63.4051711,6.37727273 63.6061384,6.48181818 L63.9075893,5.33181818 C63.706622,5.22727273 63.4051711,5.22727273 63.1037202,5.22727273 C62.4003348,5.22727273 61.8979167,5.43636364 61.5964658,5.95909091 Z M66.6206473,6.27272727 C67.1230655,6.27272727 67.4245164,6.48181818 67.8264509,6.79545455 L68.5298363,6.06363636 C68.1279018,5.54090909 67.4245164,5.22727273 66.721131,5.22727273 C65.2138765,5.22727273 64.1085565,6.37727273 64.1085565,7.94545455 C64.1085565,9.51363636 65.1133929,10.6636364 66.721131,10.6636364 C67.4245164,10.6636364 68.1279018,10.35 68.5298363,9.82727273 L67.8264509,9.09545455 C67.525,9.40909091 67.1230655,9.61818182 66.6206473,9.61818182 C65.8167783,9.61818182 65.2138765,8.99090909 65.2138765,7.94545455 C65.2138765,6.9 65.8167783,6.27272727 66.6206473,6.27272727 Z M73.0515997,6.06363636 C72.7501488,5.64545455 72.2477307,5.33181818 71.5443452,5.33181818 C70.1375744,5.33181818 69.1327381,6.48181818 69.1327381,8.05 C69.1327381,9.61818182 70.238058,10.7681818 71.5443452,10.7681818 C72.2477307,10.7681818 72.7501488,10.4545455 73.0515997,10.0363636 L73.0515997,10.4545455 L74.1569196,10.4545455 L74.1569196,5.33181818 L73.0515997,5.33181818 L73.0515997,6.06363636 Z M71.6448289,9.61818182 C70.7404762,9.61818182 70.1375744,8.88636364 70.1375744,7.94545455 C70.1375744,7.00454545 70.7404762,6.27272727 71.6448289,6.27272727 C72.5491815,6.27272727 73.1520833,7.00454545 73.1520833,7.94545455 C73.1520833,8.88636364 72.5491815,9.61818182 71.6448289,9.61818182 Z M76.769494,5.95909091 L76.769494,5.33181818 L75.6641741,5.33181818 L75.6641741,10.4545455 L76.769494,10.4545455 L76.769494,7.63181818 C76.769494,6.79545455 77.2719122,6.27272727 77.9752976,6.27272727 C78.2767485,6.27272727 78.5781994,6.37727273 78.7791667,6.48181818 L79.0806176,5.33181818 C78.8796503,5.22727273 78.5781994,5.22727273 78.2767485,5.22727273 C77.5733631,5.22727273 77.0709449,5.43636364 76.769494,5.95909091 L76.769494,5.95909091 Z M83.2004464,2.82272727 L83.2004464,5.95909091 C82.8989955,5.54090909 82.3965774,5.22727273 81.693192,5.22727273 C80.2864211,5.22727273 79.2815848,6.37727273 79.2815848,7.94545455 C79.2815848,9.51363636 80.3869048,10.6636364 81.693192,10.6636364 C82.3965774,10.6636364 82.8989955,10.35 83.2004464,9.93181818 L83.2004464,10.4545455 L84.3057664,10.4545455 L84.3057664,2.82272727 L83.2004464,2.82272727 Z M81.7936756,9.61818182 C80.8893229,9.61818182 80.2864211,8.88636364 80.2864211,7.94545455 C80.2864211,7.00454545 80.8893229,6.27272727 81.7936756,6.27272727 C82.6980283,6.27272727 83.3009301,7.00454545 83.3009301,7.94545455 C83.3009301,8.88636364 82.6980283,9.61818182 81.7936756,9.61818182 Z M9.24449405,7.94545455 C9.24449405,5.43636364 10.349814,3.24090909 12.0580357,1.77727273 C10.7517485,0.731818182 9.14401042,0.104545455 7.43578869,0.104545455 C3.31595982,-7.21644966e-16 -1.13686838e-12,3.55454545 -1.13686838e-12,7.94545455 C-1.13686838e-12,12.3363636 3.31595982,15.8909091 7.43578869,15.8909091 C9.14401042,15.8909091 10.7517485,15.2636364 12.0580357,14.2181818 C10.349814,12.65 9.24449405,10.4545455 9.24449405,7.94545455 L9.24449405,7.94545455 Z" id="Shape" fill="#000000" fill-rule="nonzero"></path>
                    <path d="M16.6802827,0 C14.972061,0 13.3643229,0.627272727 12.0580357,1.67272727 C13.7662574,3.13636364 14.8715774,5.33181818 14.8715774,7.84090909 C14.8715774,10.35 13.7662574,12.5454545 12.0580357,14.0090909 C13.3643229,15.0545455 14.972061,15.6818182 16.6802827,15.6818182 C20.8001116,15.6818182 24.1160714,12.1272727 24.1160714,7.84090909 C24.1160714,3.55454545 20.8001116,0 16.6802827,0 Z" id="Shape" fill="#AAB7C4" fill-rule="nonzero" opacity="0.5"></path>
                    <path d="M14.8715774,7.94545455 C14.8715774,5.43636364 13.7662574,3.24090909 12.0580357,1.77727273 C10.349814,3.24090909 8.23965774,5.43636364 8.23965774,7.94545455 C8.23965774,10.4545455 10.2493304,12.65 12.0580357,14.1136364 C13.7662574,12.65 14.8715774,10.4545455 14.8715774,7.94545455 Z" id="Shape" fill="#697D8B" fill-rule="nonzero" opacity="0.75"></path>
                    <circle id="Oval" fill="#000000" cx="17" cy="8" r="8"></circle>
                    <circle id="Oval-Copy" fill-opacity="0.5" fill="#FFFFFF" cx="17" cy="8" r="8"></circle>
                </g>
            </g>
        </g>
    </g>
</svg>