<?xml version="1.0" encoding="UTF-8" standalone="no"?>
<svg width="20px" height="20px" viewBox="0 0 20 20" version="1.1" xmlns="http://www.w3.org/2000/svg" xmlns:xlink="http://www.w3.org/1999/xlink" xmlns:sketch="http://www.bohemiancoding.com/sketch/ns">
    <!-- Generator: Sketch 3.3.2 (12043) - http://www.bohemiancoding.com/sketch -->
    <title>more</title>
    <desc>Created with Sketch.</desc>
    <defs></defs>
    <g id="Icons" stroke="none" stroke-width="1" fill="none" fill-rule="evenodd" sketch:type="MSPage">
        <g id="more" sketch:type="MSArtboardGroup" fill="#626262">
            <path d="M3.57142857,11.6875 C4.81406926,11.6875 5.82142857,10.7081229 5.82142857,9.5 C5.82142857,8.29187711 4.81406926,7.3125 3.57142857,7.3125 C2.32878788,7.3125 1.32142857,8.29187711 1.32142857,9.5 C1.32142857,10.7081229 2.32878788,11.6875 3.57142857,11.6875 L3.57142857,11.6875 Z M3.56928573,11.0583334 C2.6828687,11.0583334 1.96428571,10.359711 1.96428571,9.49791669 C1.96428571,8.63612235 2.6828687,7.9375 3.56928573,7.9375 C4.45570277,7.9375 5.17428575,8.63612235 5.17428575,9.49791669 C5.17428575,10.359711 4.45570277,11.0583334 3.56928573,11.0583334 Z M10,11.6875 C11.2426407,11.6875 12.25,10.7081229 12.25,9.5 C12.25,8.29187711 11.2426407,7.3125 10,7.3125 C8.75735931,7.3125 7.75,8.29187711 7.75,9.5 C7.75,10.7081229 8.75735931,11.6875 10,11.6875 Z M9.99785716,11.0583334 C9.11144013,11.0583334 8.39285714,10.359711 8.39285714,9.49791669 C8.39285714,8.63612235 9.11144013,7.9375 9.99785716,7.9375 C10.8842742,7.9375 11.6028572,8.63612235 11.6028572,9.49791669 C11.6028572,10.359711 10.8842742,11.0583334 9.99785716,11.0583334 Z M16.4285714,11.6875 C17.6712121,11.6875 18.6785714,10.7081229 18.6785714,9.5 C18.6785714,8.29187711 17.6712121,7.3125 16.4285714,7.3125 C15.1859307,7.3125 14.1785714,8.29187711 14.1785714,9.5 C14.1785714,10.7081229 15.1859307,11.6875 16.4285714,11.6875 Z M16.4264286,11.0583334 C15.5400116,11.0583334 14.8214286,10.359711 14.8214286,9.49791669 C14.8214286,8.63612235 15.5400116,7.9375 16.4264286,7.9375 C17.3128456,7.9375 18.0314286,8.63612235 18.0314286,9.49791669 C18.0314286,10.359711 17.3128456,11.0583334 16.4264286,11.0583334 L16.4264286,11.0583334 Z" id="Shape" sketch:type="MSShapeGroup"></path>
        </g>
    </g>
</svg>