<?xml version="1.0" encoding="UTF-8"?>
<svg width="151px" height="89px" viewBox="0 0 151 89" version="1.1" xmlns="http://www.w3.org/2000/svg" xmlns:xlink="http://www.w3.org/1999/xlink">
    <!-- Generator: Sketch 43.2 (39069) - http://www.bohemiancoding.com/sketch -->
    <title>paw_paw-col</title>
    <desc>Created with Sketch.</desc>
    <defs></defs>
    <g id="Icons" stroke="none" stroke-width="1" fill="none" fill-rule="evenodd">
        <g id="paw_paw-col" transform="translate(0.000000, -1.000000)" fill-rule="nonzero">
            <g id="at-work" transform="translate(2.000000, 75.000000)" fill="#3C3C3C">
                <path d="M0.34,13.84 L6.19,1.17 C6.25506866,1.05647916 6.37950789,0.990370816 6.51,1 L6.7,1 C6.84138821,0.99146227 6.97156681,1.07689198 7.02,1.21 L12.81,13.87 C12.8702171,13.9772315 12.8658095,14.1090518 12.7985641,14.2120214 C12.7313186,14.314991 12.6123932,14.3720243 12.49,14.36 L10.86,14.36 C10.6108737,14.3756791 10.3834684,14.2185627 10.31,13.98 L9.39,11.98 L3.76,11.98 L2.84,13.98 C2.75798478,14.212164 2.53616503,14.3654213 2.29,14.36 L0.66,14.36 C0.527895917,14.3816155 0.395821346,14.3212866 0.325665237,14.2072829 C0.255509128,14.0932793 0.261171888,13.9481889 0.34,13.84 L0.34,13.84 Z M8.47,9.84 L6.59,5.69 L6.53,5.69 L4.69,9.83 L8.47,9.84 Z" id="Shape"></path>
                <path d="M25,3.41 L22.12,3.41 C21.9211775,3.41 21.76,3.24882251 21.76,3.05 L21.76,1.51 C21.76,1.31117749 21.9211775,1.15 22.12,1.15 L30.34,1.15 C30.5388225,1.15 30.7,1.31117749 30.7,1.51 L30.7,3.05 C30.7,3.24882251 30.5388225,3.41 30.34,3.41 L27.47,3.41 L27.47,14 C27.4647543,14.1966087 27.3066087,14.3547543 27.11,14.36 L25.36,14.36 C25.1633913,14.3547543 25.0052457,14.1966087 25,14 L25,3.41 Z" id="Shape"></path>
                <path d="M62.95,1.51 C62.9075052,1.40287308 62.9239764,1.28133767 62.9934514,1.18938547 C63.0629263,1.09743327 63.1753391,1.04838709 63.29,1.06 L65,1.06 C65.1550153,1.07117856 65.2885966,1.173329 65.34,1.32 L67.34,8.83 L67.42,8.83 L70.42,1.08 C70.4623587,0.942208902 70.5967329,0.854025838 70.74,0.87 L71,0.87 C71.1432671,0.854025838 71.2776413,0.942208902 71.32,1.08 L74.32,8.83 L74.4,8.83 L76.32,1.32 C76.3714034,1.173329 76.5049847,1.07117856 76.66,1.06 L78.39,1.06 C78.5046609,1.04838709 78.6170737,1.09743327 78.6865486,1.18938547 C78.7560236,1.28133767 78.7724948,1.40287308 78.73,1.51 L75.21,14.16 C75.1660865,14.3119452 75.0281428,14.4174316 74.87,14.42 L74.57,14.42 C74.4286118,14.4285377 74.2984332,14.343108 74.25,14.21 L70.88,5.69 L70.79,5.69 L67.46,14.21 C67.4115668,14.343108 67.2813882,14.4285377 67.14,14.42 L66.84,14.42 C66.6818572,14.4174316 66.5439135,14.3119452 66.5,14.16 L62.95,1.51 Z" id="Shape"></path>
                <path d="M96.15,0.87 C99.8889438,0.858970691 102.928901,3.88103671 102.939941,7.61998048 C102.950981,11.3589242 99.9289239,14.3988899 96.1899801,14.409941 C92.4510364,14.420992 89.4110619,11.3989437 89.4,7.66 C89.3920261,5.86367593 90.0993438,4.13804524 91.3657912,2.8640929 C92.6322387,1.59014056 94.3536602,0.872639612 96.15,0.87 Z M96.15,11.97 C97.9049352,11.9780874 99.4911979,10.9260926 100.166524,9.30627842 C100.84185,7.68646423 100.472666,5.81921339 99.2317264,4.57827361 C97.9907866,3.33733384 96.1235358,2.96815039 94.5037216,3.64347627 C92.8839074,4.31880215 91.8319126,5.90506477 91.84,7.66 C91.839943,10.0452488 93.7648082,11.9835121 96.15,12 L96.15,11.97 Z" id="Shape"></path>
                <path d="M114.79,1.42 C114.79,1.22117749 114.951177,1.06 115.15,1.06 L120.53,1.06 C122.762408,1.04321531 124.591667,2.82785785 124.63,5.06 C124.581085,6.78062795 123.475067,8.29245115 121.85,8.86 L124.43,13.64 C124.500483,13.7531935 124.502625,13.8960744 124.435567,14.0113299 C124.368509,14.1265853 124.243237,14.1953343 124.11,14.19 L122.11,14.19 C121.98541,14.1966643 121.868307,14.1303061 121.81,14.02 L119.31,9.02 L117.22,9.02 L117.22,13.82 C117.214754,14.0166087 117.056609,14.1747543 116.86,14.18 L115.13,14.18 C114.931177,14.18 114.77,14.0188225 114.77,13.82 L114.79,1.42 Z M120.32,7.06 C121.356884,7.02758167 122.180507,6.17739043 122.18,5.14 C122.153016,4.13067667 121.329671,3.32503873 120.32,3.32 L117.25,3.32 L117.25,7.06 L120.32,7.06 Z" id="Shape"></path>
                <path d="M136.72,1.51 C136.72,1.26147186 136.921472,1.06 137.17,1.06 L138.83,1.06 C139.0763,1.0652986 139.274701,1.2637 139.28,1.51 L139.28,6.59 L144,1.25 C144.082859,1.13290938 144.216576,1.0623364 144.36,1.06 L146.24,1.06 C146.403676,1.05401997 146.554461,1.14842686 146.620572,1.29827721 C146.686682,1.44812757 146.654759,1.62314084 146.54,1.74 L141.63,7.27 L146.9,13.57 C146.997074,13.6959537 147.012562,13.8666803 146.939737,14.0080462 C146.866912,14.149412 146.718911,14.2359176 146.56,14.23 L144.51,14.23 C144.382588,14.2421092 144.256831,14.1940254 144.17,14.1 L139.28,8 L139.28,13.74 C139.274701,13.9863 139.0763,14.1847014 138.83,14.19 L137.17,14.19 C136.921472,14.19 136.72,13.9885281 136.72,13.74 L136.72,1.51 Z" id="Shape"></path>
            </g>
            <rect id="line" fill="#75BCBB" x="0.82" y="62.35" width="150" height="1.4"></rect>
            <g id="text" transform="translate(63.000000, 0.000000)" fill="#3C3C3C">
                <path d="M22.36,5.31 C21.06,2.82 16.7,1.51 14.7,1.19 C12.7,0.87 8.18,1 3.65,1.23 C0.06,1.07 0.87,2.59 0.77,5.74 C0.44,7.32 1.77,7.48 1.77,7.48 L4.65,7.7 L4.38,19.7 L3.84,41.51 C3.84,41.51 3.89,43.58 3.62,43.74 C2.13,43.66 1.94,43.74 1.72,44.8 C1.55904007,46.3066421 1.6129115,47.82851 1.88,49.32 C1.92636915,49.7302083 2.27725251,50.0377727 2.69,50.03 C2.69,50.03 8.1,50.24 10.69,50.24 C12.69,50.24 12.46,49.13 12.46,49.13 C12.5301846,47.8435113 12.5101355,46.5536858 12.4,45.27 C12.29,44.21 11.97,43.85 10.5,43.8 C10.5,43.8 10.5,41.8 10.55,39.18 C10.55,36.07 10.72,32.51 10.72,32.51 C11.5836822,32.4186496 12.4515024,32.3719208 13.32,32.37 C15.37,32.37 18.38,32.51 20.54,31.24 C22.98,29.8 23.41,27.11 23.93,24.33 C24.3768516,21.3518021 24.5675498,18.3407767 24.5,15.33 C24.4327465,11.8840261 23.7063362,8.48279657 22.36,5.31 Z M16.95,24.53 C16.22,25.45 13.36,26.46 11.07,25.4 C10.66,24.56 11.07,21.71 10.91,16.29 C11.03,11.19 11.05,8.6 11.18,8.21 C12.6770417,8.03220626 14.1946151,8.16150624 15.64,8.59 C17.82,9.32 17.64,12.3 18.13,14.12 C18.3213057,15.6765482 18.4314547,17.2419996 18.46,18.81 C18.58,22.88 17.86,23.51 16.95,24.53 Z" id="Shape"></path>
                <path d="M33.5,24 C34.22,24 34.76,23.73 34.76,22.14 C34.71,20.72 35.49,19.74 36.94,20.22 C37.3,20.31 38.44,20.89 38.46,22.85 C38.5116489,23.799298 38.5116489,24.750702 38.46,25.7 C36.3410427,25.536561 34.2106267,25.7913955 32.19,26.45 C29.63,27.45 27.05,28.69 26.72,32.81 C26.4,37.54 26.79,40.57 27.97,43 C29.15,45.43 31.43,49.1 35.86,48.75 C38.07,48.47 40.43,47.23 40.43,47.43 C40.43,47.63 40.57,48.68 40.57,48.88 C40.57,49.08 40.57,49.48 42.23,49.43 C43.89,49.38 46.66,49.29 46.88,49.26 C47.3,49.26 47.44,49.08 47.45,47.26 C47.28,45.2 47.63,44.51 44.64,44.63 C44.72,42.29 44.37,32.56 44.37,32.56 C44.37,32.56 43.54,21.83 42.78,19.68 C42.0783348,17.3586925 40.09153,15.6568322 37.69,15.32 C35.89,14.98 33.98,14.42 31.35,16.57 C29.8662934,18.3562564 28.9812895,20.5635193 28.82,22.88 C28.82,22.88 28.73,23.32 29.72,23.49 L33.5,24 Z M39,33.32 C39.09,33.8 39.52,37.21 39.6,37.76 C39.7693521,38.9824539 39.7491141,40.2237167 39.54,41.44 C39.4266502,41.8511505 39.1670578,42.2067564 38.81,42.44 C38.2252867,42.8117013 37.5600787,43.0380092 36.87,43.1 C34.66,43.1 34.08,42.79 33.01,41.46 C32.01,39.59 32.15,37.25 32.2,35.15 C32.46,33.21 32.38,30.06 34.78,29.91 C37.78,29.62 38.13,30.71 38.4,31.15 C38.7122424,31.8375081 38.9147033,32.5697419 39,33.32 L39,33.32 Z" id="Shape"></path>
                <path d="M59.66,26.53 C59.59,27.01 59.87,27.15 60.86,27.2 C64.06,27.2 65.02,27.62 64.97,26.2 C65.1319027,24.7545194 65.1319027,23.2954806 64.97,21.85 C64.77,20.49 64.07,17.6 62.49,16.76 C61.24,16.09 60.01,15.76 57.23,16.39 C55.4014944,16.7469187 53.7778809,17.7876049 52.69,19.3 C51.41,21.3 50.48,23.09 50.21,27.35 C49.89,31.35 49.86,35.21 49.86,35.21 C49.86,35.21 49.79,42.76 50.97,44.7 C51.69,46.01 53.46,49.95 58.7,49.85 C62.7,49.85 63.79,49.11 65.15,47.92 C65.9947805,47.2241984 66.5361998,46.2274132 66.66,45.14 C66.8816302,43.9705455 66.3712504,42.7836158 65.37,42.14 C65.13,41.96 64.52,41.19 61.68,41.14 C60.7860751,41.0426826 59.9308288,41.5308185 59.56,42.35 C59.56,42.44 59.36,42.55 59.4,43.62 C59.4,44.24 59.26,45.18 58.4,45.17 C57.4,45.17 56.73,44.17 56.53,43.37 C55.8608087,40.8954306 55.4189744,38.3649247 55.21,35.81 C55.1188168,33.0670439 55.2090134,30.32106 55.48,27.59 C55.6590596,26.0957511 55.9942235,24.6243817 56.48,23.2 C56.62,22.9 57.11,22.12 57.7,22.1 C58.29,22.08 58.83,22.76 59.15,23.28 C59.4571839,23.8760165 59.6344193,24.5304243 59.67,25.2 C59.68,25.83 59.66,26.53 59.66,26.53 Z" id="Shape"></path>
                <path d="M72.31,15.24 L72.24,10 C72.24,10 72.31,8.15 73.83,8.2 C74.6596141,8.1177582 75.4963166,8.14127996 76.32,8.27 C77.03,8.39 77.91,8.7 78.1,10.5 C78.1929055,12.3021367 78.1929055,14.1078633 78.1,15.91 C79.1,16.05 79.55,16.15 81.01,16.3 C81.01,16.3 84.65,16.47 85.18,16.82 C85.5754116,17.1084286 85.8065041,17.5706136 85.8,18.06 C85.96,19.06 86.08,20.5 85.47,20.99 C84.86,21.48 80.95,21.64 78.47,21.59 C78.4,23.59 77.91,32.59 77.91,32.59 C77.7125853,35.4798357 77.7761762,38.381587 78.1,41.26 C78.26,42.05 78.7,43.88 80.28,43.59 C81.14,43.42 81.19,43.37 82.12,42.08 C82.66,41.51 82.52,40.98 85.21,42.03 C87.36,43.03 88.63,43.78 87.58,45.88 C86.53,47.98 86,49.66 82.58,50.26 C81.34,50.26 77.26,50.45 74.67,47.54 C73.85,46.54 72.83,45.42 72.39,41.46 C72.1292511,39.1921201 71.9824,36.9125905 71.95,34.63 C72.01,32.54 72.11,25.04 72.11,25.04 L72.11,21.18 C72.11,21.18 68.55,21.4 68.11,21.01 C66.99,20.38 67.03,17.55 67.68,16.58 C68.09,15.97 72.19,16.28 72.3,16.17 C72.41,16.06 72.33,15.62 72.31,15.24 Z" id="Shape"></path>
            </g>
            <g id="stamp" transform="translate(1.000000, 0.000000)" fill="#3C3C3C">
                <path d="M39.85,45.4 C39.72,45.4 36.85,45.4 37.39,48.61 C37.5948821,49.5015217 38.2775285,50.2057348 39.1622485,50.4382387 C40.0469686,50.6707427 40.9876367,50.3931357 41.6043587,49.7175311 C42.2210807,49.0419264 42.4119951,48.0799109 42.1,47.22 C41.82,46.41 41.7,45.59 39.85,45.4 Z" id="Shape"></path>
                <path d="M18.69,8.93 C18.5972296,8.75801125 18.3841928,8.69143725 18.21,8.78 L17.6,9.1 L17.93,9.74 L18.54,9.42 C18.709176,9.32002131 18.7742187,9.10754851 18.69,8.93 L18.69,8.93 Z M43.29,25.59 C42.9143222,25.5546829 42.5545408,25.7498629 42.3793141,26.0840436 C42.2040874,26.4182243 42.2481514,26.8251595 42.4908498,27.1140861 C42.7335482,27.4030128 43.1267698,27.5166557 43.4861801,27.4017413 C43.8455905,27.2868268 44.0999421,26.9661351 44.13,26.59 C44.1705105,26.0830651 43.7963185,25.6375985 43.29,25.59 L43.29,25.59 Z M12.83,35.24 C12.5441493,35.4847741 12.4339912,35.8776948 12.550934,36.2353949 C12.6678768,36.593095 12.9888673,36.8450605 13.3641065,36.8737047 C13.7393457,36.9023489 14.0948621,36.7020252 14.2647442,36.3662201 C14.4346263,36.0304151 14.385385,35.6253264 14.14,35.34 C13.8029763,34.9563884 13.221346,34.9119892 12.83,35.24 Z M26.08,12.24 C19.1122825,12.3288314 13.5352145,18.0481405 13.6218548,25.0158856 C13.7084952,31.9836307 19.4260501,37.5624969 26.3938221,37.4780477 C33.3615942,37.3935985 38.9422581,31.6777982 38.86,24.71 C38.8178333,21.362882 37.4476178,18.1696353 35.0508438,15.8328745 C32.6540698,13.4961136 29.4271112,12.2072953 26.08,12.25 L26.08,12.24 Z M22.92,31.43 C22.65,31.82 22.2,32.08 21.59,31.52 C19.41,29.61 18.82,26.26 21.06,22.09 L21.06,22 L21.06,21.92 C23.23,17.86 26.24,16.46 28.97,17.07 C29.18,17.07 29.46,17.39 28.97,17.68 C28.7607202,17.8352047 28.5603994,18.0021387 28.37,18.18 C27.7691086,18.7509018 27.2477649,19.4000588 26.82,20.11 C26.0522652,21.3809064 25.5203943,22.780032 25.25,24.24 C25.25,24.45 25.17,24.65 25.14,24.85 L25.14,24.85 C24.9334881,26.1760036 24.5985802,27.4787954 24.14,28.74 C23.9180582,29.365358 23.6506784,29.9736471 23.34,30.56 C23.28,30.87 23.11,31.16 22.92,31.43 Z M31.77,27.82 L31.77,27.9 L31.77,27.99 C29.6,32.05 26.59,33.45 23.86,32.84 C23.65,32.84 23.37,32.52 23.86,32.23 C24.0690915,32.0709951 24.2693868,31.9007441 24.46,31.72 C25.057192,31.1520299 25.5751799,30.5062267 26,29.8 C26.7695296,28.5299688 27.3015287,27.1305062 27.57,25.67 C27.57,25.47 27.65,25.26 27.68,25.06 L27.68,25.06 C27.8716752,23.7359632 28.189796,22.4333421 28.63,21.17 C28.8513837,20.5476512 29.1187892,19.9426462 29.43,19.36 C29.58,19.07 29.76,18.78 29.94,18.5 C30.12,18.22 30.65,17.86 31.27,18.41 C33.42,20.3 34,23.65 31.78,27.83 L31.77,27.82 Z M26,4.54 C14.8243068,4.67882592 5.8764734,13.8497985 6.01291272,25.0255211 C6.14935204,36.2012437 15.3184136,45.1510354 26.4941651,45.0169827 C37.6699165,44.88293 46.6216661,35.7157798 46.49,24.54 C46.4293833,19.1692984 44.2354923,14.043155 40.3919111,10.2914896 C36.5483299,6.53982418 31.3705957,4.47062821 26,4.54 L26,4.54 Z M31.48,10.2 L32.77,7.4 C32.8041641,7.36944272 32.8558359,7.36944272 32.89,7.4 L33.39,7.63 C33.4205573,7.66416408 33.4205573,7.71583592 33.39,7.75 L32.9,8.82 L34.11,9.38 L34.6,8.32 C34.6151866,8.30277997 34.63704,8.29291503 34.66,8.29291503 C34.68296,8.29291503 34.7048134,8.30277997 34.72,8.32 L35.23,8.55 C35.2605573,8.58416408 35.2605573,8.63583592 35.23,8.67 L34,11.37 C33.9658359,11.4005573 33.9141641,11.4005573 33.88,11.37 L33.38,11.14 C33.3494427,11.1058359 33.3494427,11.0541641 33.38,11.02 L33.87,10 L32.66,9.4 L32.15,10.51 C32.1158359,10.5405573 32.0641641,10.5405573 32.03,10.51 L31.53,10.28 C31.4995726,10.2649048 31.4802354,10.2339652 31.48,10.2 L31.48,10.2 Z M27.06,9 L27.32,8.64 C27.3655521,8.59925696 27.4344479,8.59925696 27.48,8.64 C27.6580934,8.80239513 27.8750953,8.91606276 28.11,8.97 C28.188542,8.98754114 28.2708413,8.97165594 28.337213,8.92614394 C28.4035847,8.88063193 28.4480596,8.80958623 28.46,8.73 C28.46,8.54 28.34,8.37 28.04,8.21 C27.5741636,8.03291797 27.2645455,7.58833821 27.26,7.09 C27.3085168,6.82847463 27.4592255,6.59705387 27.678793,6.44692224 C27.8983605,6.29679061 28.1686931,6.24031989 28.43,6.29 C28.8043283,6.33108201 29.1552262,6.49249505 29.43,6.75 C29.4651,6.79383994 29.4651,6.85616006 29.43,6.9 L29.15,7.23 C29.15,7.23 29.02,7.31 28.99,7.23 C28.8133809,7.05924219 28.5967826,6.93547172 28.36,6.87 C28.2167173,6.83868991 28.0746429,6.92748645 28.04,7.07 C28.04,7.24 28.15,7.39 28.49,7.58 C28.83,7.77 29.37,8.11 29.3,8.74 C29.2592298,9.01338577 29.107121,9.25770308 28.8797914,9.41493937 C28.6524618,9.57217567 28.3701897,9.62830515 28.1,9.57 C27.7170452,9.54568718 27.3585032,9.37358702 27.1,9.09 C27,9.08 27,9.06 27.06,9 Z M22.21,6.63 L24.11,6.3 C24.1564814,6.29371002 24.2000003,6.32417325 24.21,6.37 L24.3,6.87 C24.30629,6.9164814 24.2758267,6.96000031 24.23,6.97 L23,7.19 L23.1,7.76 L24.1,7.58 C24.1464814,7.57371002 24.1900003,7.60417325 24.2,7.65 L24.29,8.15 C24.29629,8.1964814 24.2658267,8.24000031 24.22,8.25 L23.22,8.43 L23.33,9.05 L24.6,8.83 C24.6464814,8.82371002 24.6900003,8.85417325 24.7,8.9 L24.79,9.4 C24.79629,9.4464814 24.7658267,9.49000031 24.72,9.5 L22.82,9.83 C22.7735186,9.83628998 22.7299997,9.80582675 22.72,9.76 L22.19,6.76 C22.1745823,6.740408 22.1679822,6.71529843 22.1717731,6.6906574 C22.175564,6.66601637 22.1894063,6.64405179 22.21,6.63 L22.21,6.63 Z M16.72,8.8 L18,8.16 C18.2356988,8.03356374 18.512225,8.00681893 18.7677855,8.08574203 C19.0233461,8.16466513 19.2366385,8.34267749 19.36,8.58 C19.552268,8.96235655 19.4799045,9.42467915 19.18,9.73 L20.29,10.48 C20.3199495,10.4954356 20.3387689,10.5263068 20.3387689,10.56 C20.3387689,10.5936932 20.3199495,10.6245644 20.29,10.64 L19.74,10.93 C19.7121539,10.946077 19.6778461,10.946077 19.65,10.93 L18.53,10.12 L18.25,10.27 L18.8,11.32 C18.8305573,11.3541641 18.8305573,11.4058359 18.8,11.44 L18.31,11.69 C18.2758359,11.7205573 18.2241641,11.7205573 18.19,11.69 L16.69,8.92 C16.6665737,8.87837646 16.6797422,8.82570252 16.72,8.8 L16.72,8.8 Z M12.55,12.22 L13.91,10.86 C13.9269763,10.8422736 13.9504558,10.8322495 13.975,10.8322495 C13.9995442,10.8322495 14.0230237,10.8422736 14.04,10.86 L14.4,11.22 C14.4305573,11.2541641 14.4305573,11.3058359 14.4,11.34 L13.49,12.25 L13.96,12.72 L14.71,11.97 C14.7269763,11.9522736 14.7504558,11.9422495 14.775,11.9422495 C14.7995442,11.9422495 14.8230237,11.9522736 14.84,11.97 L15.2,12.33 C15.2305573,12.3641641 15.2305573,12.4158359 15.2,12.45 L14.45,13.2 L15.25,14 C15.2677264,14.0169763 15.2777505,14.0404558 15.2777505,14.065 C15.2777505,14.0895442 15.2677264,14.1130237 15.25,14.13 L14.86,14.52 C14.8258359,14.5505573 14.7741641,14.5505573 14.74,14.52 L12.56,12.34 C12.5264579,12.3084487 12.5221428,12.2566679 12.55,12.22 Z M10.31,17.37 C10.5993058,17.3451192 10.8865811,17.4367021 11.1081059,17.624435 C11.3296308,17.8121679 11.4670921,18.0805313 11.49,18.37 C11.530074,18.9632542 11.0830715,19.477307 10.49,19.52 C9.91452619,19.5725115 9.40302779,19.1544172 9.34,18.58 C9.30355606,18.2911231 9.38641049,17.9998693 9.56944917,17.7734297 C9.75248784,17.5469901 10.0199019,17.4049221 10.31,17.38 L10.31,17.37 Z M7.78,27.07 L7.64,25.15 C7.63719521,25.126102 7.64407684,25.1020759 7.65910829,25.0832866 C7.67413974,25.0644973 7.69606916,25.0525095 7.72,25.05 L8.23,25.05 C8.27604862,25.049715 8.31488427,25.0842355 8.32,25.13 L8.42,26.42 L9,26.42 L8.92,25.36 C8.8730558,25.3379086 8.85290863,25.2819442 8.87500001,25.235 C8.8970914,25.1880558 8.9530558,25.1679086 9,25.19 L9.51,25.19 C9.53389803,25.1871952 9.55792406,25.1940768 9.57671337,25.2091083 C9.59550268,25.2241397 9.60749047,25.2460692 9.61,25.27 L9.69,26.33 L10.32,26.33 L10.2,25 C10.199715,24.9539514 10.2342355,24.9151157 10.28,24.91 L10.79,24.91 C10.8360486,24.909715 10.8748843,24.9442355 10.88,24.99 L11,26.83 C11.0028048,26.853898 10.9959232,26.8779241 10.9808917,26.8967134 C10.9658603,26.9155027 10.9439308,26.9274905 10.92,26.93 L7.85,27.16 C7.81172847,27.1514333 7.78341056,27.11907 7.78,27.08 L7.78,27.07 Z M9.54,33.07 L9.31,32.5 C9.29392305,32.4721539 9.29392305,32.4378461 9.31,32.41 L10.6,31.07 L10.6,31.07 L8.75,31 C8.71603479,30.9997646 8.6850952,30.9804274 8.67,30.95 L8.44,30.37 C8.42431931,30.3435392 8.42519755,30.3104316 8.44225904,30.2848394 C8.45932054,30.2592471 8.48954361,30.2457027 8.52,30.25 L11.97,30.45 C12.0039652,30.4502354 12.0349048,30.4695726 12.05,30.5 L12.05,30.5 C12.0642629,30.5283048 12.0642629,30.5616952 12.05,30.59 L9.68,33.13 C9.66257228,33.1539734 9.63331856,33.166347 9.60397779,33.1621554 C9.57463703,33.1579639 9.55001806,33.1378942 9.54,33.11 L9.54,33.07 Z M14.54,37.17 C13.8421446,37.7718109 12.7887098,37.6946179 12.186036,36.9975075 C11.5833623,36.300397 11.6592521,35.2468676 12.3556165,34.6433319 C13.0519808,34.0397963 14.1056034,34.1143828 14.71,34.81 C15.0138949,35.1471212 15.1674833,35.5934134 15.1354142,36.0461543 C15.103345,36.4988953 14.888381,36.9190817 14.54,37.21 L14.54,37.17 Z M17.35,41.04 C17.3158359,41.0705573 17.2641641,41.0705573 17.23,41.04 L16.76,40.75 C16.7294427,40.7158359 16.7294427,40.6641641 16.76,40.63 L18,38.57 L17.07,38 C17.0394427,37.9658359 17.0394427,37.9141641 17.07,37.88 L17.33,37.45 C17.3451866,37.43278 17.36704,37.422915 17.39,37.422915 C17.41296,37.422915 17.4348134,37.43278 17.45,37.45 L18.95,38.36 C18.9805573,38.3941641 18.9805573,38.4458359 18.95,38.48 L17.35,41.04 Z M23.69,42.71 C23.1073396,42.7707513 22.5857513,42.3476604 22.525,41.765 C22.4642487,41.1823396 22.8873396,40.6607513 23.47,40.6 C23.8469152,40.5607008 24.2161651,40.7254687 24.4386568,41.0322372 C24.6611485,41.3390057 24.7030803,41.7411695 24.5486568,42.0872372 C24.3942333,42.4333049 24.0669152,42.6707008 23.69,42.71 L23.69,42.71 Z M26.42,38.5 C20.8870912,38.5726062 15.8561237,35.3025327 13.6761738,30.2166532 C11.4962239,25.1307737 12.5973095,19.2323311 16.465308,15.275446 C20.3333065,11.318561 26.2052148,10.0837704 31.3393017,12.1476268 C36.4733886,14.2114833 39.8569018,19.1668696 39.91,24.7 C39.9580346,28.3263723 38.562011,31.8229957 36.0296409,34.419144 C33.4972709,37.0152922 30.0364454,38.4978386 26.41,38.54 L26.42,38.5 Z M32.2,42.5 L30.34,43 C30.2931455,43.0129985 30.2444384,42.986431 30.23,42.94 L30.09,42.45 C30.0804893,42.4275254 30.0817571,42.4019387 30.0934431,42.3805144 C30.1051291,42.3590901 30.125955,42.3441715 30.15,42.34 L31.39,42 L31.24,41.44 L30.24,41.73 C30.1931455,41.7429985 30.1444384,41.716431 30.13,41.67 L30,41.2 C29.9797775,41.1697338 29.9797775,41.1302662 30,41.1 L31,40.81 L30.83,40.21 L29.59,40.56 C29.5431455,40.5729985 29.4944384,40.546431 29.48,40.5 L29.39,40 C29.3770015,39.9531455 29.403569,39.9044384 29.45,39.89 L31.3,39.37 C31.3468545,39.3570015 31.3955616,39.383569 31.41,39.43 L32.24,42.43 C32.2397646,42.4639652 32.2204274,42.4949048 32.19,42.51 L32.2,42.5 Z M37.08,40 L35.46,41 C35.4258359,41.0305573 35.3741641,41.0305573 35.34,41 L35.07,40.57 C35.05278,40.5548134 35.042915,40.53296 35.042915,40.51 C35.042915,40.48704 35.05278,40.4651866 35.07,40.45 L36.15,39.75 L35.84,39.26 L34.95,39.83 C34.9158359,39.8605573 34.8641641,39.8605573 34.83,39.83 L34.56,39.4 C34.5294427,39.3658359 34.5294427,39.3141641 34.56,39.28 L35.45,38.71 L35.11,38.18 L34.02,38.88 C33.9858359,38.9105573 33.9341641,38.9105573 33.9,38.88 L33.63,38.45 C33.61278,38.4348134 33.602915,38.41296 33.602915,38.39 C33.602915,38.36704 33.61278,38.3451866 33.63,38.33 L35.25,37.33 C35.2841641,37.2994427 35.3358359,37.2994427 35.37,37.33 L37.03,39.92 C37.0604274,39.9350952 37.0797646,39.9660348 37.08,40 L37.08,40 Z M39.7,37.76 C39.6830237,37.7777264 39.6595442,37.7877505 39.635,37.7877505 C39.6104558,37.7877505 39.5869763,37.7777264 39.57,37.76 L39.18,37.43 C39.1494427,37.3958359 39.1494427,37.3441641 39.18,37.31 L40.02,36.31 L39.51,35.88 L38.82,36.68 C38.8030237,36.6977264 38.7795442,36.7077505 38.755,36.7077505 C38.7304558,36.7077505 38.7069763,36.6977264 38.69,36.68 L38.31,36.35 C38.2794427,36.3158359 38.2794427,36.2641641 38.31,36.23 L39,35.42 L38.14,34.68 C38.1094427,34.6458359 38.1094427,34.5941641 38.14,34.56 L38.5,34.14 C38.5341641,34.1094427 38.5858359,34.1094427 38.62,34.14 L40.96,36.14 C40.9920088,36.1774224 40.9920088,36.2325776 40.96,36.27 L39.7,37.76 Z M43,28.18 C42.0851618,28.082081 41.4218542,27.2626604 41.5166126,26.3474894 C41.611371,25.4323185 42.4284955,24.7661844 43.3439883,24.857781 C44.2594811,24.9493776 44.9284337,25.7641963 44.84,26.68 C44.7971404,27.1238462 44.5785564,27.5321185 44.232939,27.8138718 C43.8873216,28.0956252 43.4433782,28.2274567 43,28.18 Z M42.45,19.49 C43.3441196,19.2836647 44.237226,19.8373908 44.45,20.73 C44.5615391,21.1351511 44.5037957,21.5682269 44.29,21.93 C44.2558359,21.9605573 44.2041641,21.9605573 44.17,21.93 L43.72,21.66 C43.690793,21.6291496 43.690793,21.5808504 43.72,21.55 C43.8268679,21.343886 43.8586872,21.1070094 43.81,20.88 C43.5830614,20.5096822 43.1430335,20.3281907 42.721016,20.4308436 C42.2989985,20.5334965 41.9914933,20.8968204 41.96,21.33 C42.0172159,21.5500674 42.1477231,21.7440645 42.33,21.88 C42.3566667,21.9155556 42.3566667,21.9644444 42.33,22 L42.04,22.44 C42.0058359,22.4705573 41.9541641,22.4705573 41.92,22.44 C41.5636871,22.2122673 41.3120176,21.8527394 41.22,21.44 C41.0456107,20.5566079 41.6029766,19.6940178 42.48,19.49 L42.45,19.49 Z M43.54,31.57 C43.5705573,31.6041641 43.5705573,31.6558359 43.54,31.69 L42.75,33.45 C42.7158359,33.4805573 42.6641641,33.4805573 42.63,33.45 L42.17,33.24 C42.1449854,33.2075997 42.1449854,33.1624003 42.17,33.13 L42.73,32 L42.12,31.73 L41.68,32.73 C41.6458359,32.7605573 41.5941641,32.7605573 41.56,32.73 L41.1,32.53 C41.0733333,32.4944444 41.0733333,32.4455556 41.1,32.41 L41.54,31.41 L40.54,30.95 C40.5094427,30.9158359 40.5094427,30.8641641 40.54,30.83 L40.77,30.33 C40.8041641,30.2994427 40.8558359,30.2994427 40.89,30.33 L43.54,31.57 Z M39.72,15 C39.3430848,15.0392992 38.9738349,14.8745313 38.7513432,14.5677628 C38.5288515,14.2609943 38.4869197,13.8588305 38.6413432,13.5127628 C38.7957667,13.1666951 39.1230848,12.9292992 39.5,12.89 C39.8769152,12.8507008 40.2461651,13.0154687 40.4686568,13.3222372 C40.6911485,13.6290057 40.7330803,14.0311695 40.5786568,14.3772372 C40.4242333,14.7233049 40.0969152,14.9607008 39.72,15 L39.72,15 Z M52.24,20 C51.9064334,18.3593413 51.2614623,16.7978323 50.34,15.4 C49.3916985,14.4833209 48.2788835,13.7538842 47.06,13.25 C45.2417819,9.82362825 42.6914002,6.83964748 39.59,4.51 C36.5713755,2.34574876 32.9335732,1.2161708 29.22,1.29 C25.5705245,0.747619203 21.8500342,0.927697727 18.27,1.82 C13.1659766,2.55853099 8.70255631,5.64517489 6.21,10.16 C6.21,10.16 3.68,15.5 2.69,17.65 C-4.23,24.81 4.39,35.65 4.39,35.65 C3,38.11 7.62,41 9.61,41.89 C12.07,44.41 12.61,43.49 13.38,43.98 C13.79,44.61 14.07,45.37 14.6,45.67 C15.268675,46.1498082 16.1228617,46.2903238 16.91,46.05 C16.91,46.05 17.18,46.05 17.2,46.1 C30.79,55.77 36.81,46.4 38.82,44.15 C46.76,48.28 52.18,28.76 50.82,26.91 C52.7,25.33 52.56,22 52.24,20 Z M26.51,46.39 C14.6427672,46.5381629 4.90219351,37.0383131 4.75340615,25.1710881 C4.6046188,13.3038631 14.1039561,3.56278952 25.9711733,3.41337774 C37.8383904,3.26396596 47.5799638,12.7627907 47.73,24.63 C47.80206,30.3296346 45.6067648,35.8244061 41.6271466,39.9052965 C37.6475283,43.9861868 32.2096459,46.3188397 26.51,46.39 L26.51,46.39 Z" id="Shape"></path>
            </g>
        </g>
    </g>
</svg>