<?xml version="1.0" encoding="UTF-8" standalone="no"?>
<svg width="20px" height="20px" viewBox="0 0 20 20" version="1.1" xmlns="http://www.w3.org/2000/svg" xmlns:xlink="http://www.w3.org/1999/xlink" xmlns:sketch="http://www.bohemiancoding.com/sketch/ns">
    <!-- Generator: Sketch 3.3.2 (12043) - http://www.bohemiancoding.com/sketch -->
    <title>pactH</title>
    <desc>Created with Sketch.</desc>
    <defs></defs>
    <g id="Icons" stroke="none" stroke-width="1" fill="none" fill-rule="evenodd" sketch:type="MSPage">
        <g id="pactH" sketch:type="MSArtboardGroup">
            <g id="Group" sketch:type="MSLayerGroup" transform="translate(0.000000, 6.349810)">
                <path d="M10.8714829,3.3730038 C10.7774905,3.49148289 10.4106464,3.6208365 10.1176426,3.48494297 C10.0654753,3.37673004 10.1123194,3.01186312 10.096654,2.31604563 C10.1123194,1.66159696 10.1148289,1.32889734 10.1317871,1.27977186 C10.2643346,1.26912548 10.4681369,1.25368821 10.7039544,1.32874525 C10.9831939,1.42258555 10.9640304,1.80463878 11.0231179,2.03855513 C11.0577947,2.27581749 11.0577947,2.49361217 11.0651711,2.64038023 C11.0806084,3.16053232 10.988289,3.24243346 10.8714829,3.3730038 L10.8714829,3.3730038 Z M11.5657795,0.906539924 C11.3996198,0.58730038 10.839924,0.419771863 10.5835741,0.378098859 C10.3269962,0.336045627 9.74608365,0.356958175 9.16532319,0.383193916 C8.7043346,0.362129278 8.80942966,0.557870722 8.79543726,0.961901141 C8.75361217,1.16463878 8.92114068,1.18555133 8.92114068,1.18555133 L9.29064639,1.21323194 L9.25604563,2.74844106 L9.18593156,5.54653992 C9.18593156,5.54653992 9.19292776,5.81178707 9.15809886,5.83262357 C8.96646388,5.82228137 8.94212928,5.83239544 8.91414449,5.96836502 C8.87064639,6.17764259 8.93475285,6.54806084 8.93475285,6.54806084 C8.95596958,6.64555133 9.03923954,6.63901141 9.03923954,6.63901141 C9.03923954,6.63901141 9.73391635,6.66646388 10.0689734,6.66646388 C10.3305703,6.66646388 10.2958935,6.52342205 10.2958935,6.52342205 C10.2958935,6.33505703 10.3125475,6.30015209 10.2885171,6.02828897 C10.2749049,5.89186312 10.2328517,5.84661597 10.0446388,5.83969582 C10.0446388,5.83969582 10.0479848,5.57809886 10.0514829,5.24661597 C10.0555133,4.84760456 10.073384,4.39087452 10.073384,4.39087452 C10.073384,4.39087452 10.2398479,4.37163498 10.4072243,4.37262357 C10.6706464,4.37422053 11.0569582,4.39087452 11.3337643,4.22790875 C11.6469202,4.04365019 11.7022053,3.69787072 11.7679087,3.341673 C11.8101901,3.09064639 11.8622814,2.49034221 11.8412928,2.18334601 C11.8379468,1.83102662 11.7312548,1.22532319 11.5657795,0.906539924 L11.5657795,0.906539924 Z" id="Fill-1" fill="#1A1918" sketch:type="MSShapeGroup"></path>
                <path d="M13.7013688,4.49992395 C13.7122433,4.56190114 13.7676806,4.99878327 13.7785551,5.06942966 C13.7993916,5.28456274 13.7977186,5.38570342 13.7712548,5.54174905 C13.7690494,5.54935361 13.7511787,5.62144487 13.6778707,5.66965779 C13.5729278,5.72821293 13.5679848,5.72821293 13.4297338,5.75429658 C13.1455513,5.74912548 13.0714068,5.71498099 12.9345247,5.54456274 C12.8088213,5.30410646 12.8237262,5.00501901 12.8304943,4.73543726 C12.8638023,4.48653992 12.8539924,4.08190114 13.161597,4.06281369 C13.5463878,4.02555133 13.5913308,4.16501901 13.6263118,4.22235741 C13.6611407,4.28015209 13.6980228,4.44418251 13.7013688,4.49992395 L13.7013688,4.49992395 Z M12.9946768,3.30319392 C13.0870722,3.30547529 13.1568821,3.26821293 13.1568821,3.06418251 C13.150038,2.88197719 13.250038,2.75581749 13.4365019,2.81787072 C13.48327,2.82882129 13.6296578,2.9043346 13.6319392,3.15528517 C13.6348289,3.4938403 13.6273004,3.52152091 13.6273004,3.52152091 C13.6273004,3.52152091 13.3209125,3.47505703 12.8237262,3.61764259 C12.4952091,3.74159696 12.1645627,3.9051711 12.1213688,4.43307985 C12.0809125,5.04 12.1307985,5.42920152 12.281673,5.74 C12.4329278,6.05110266 12.7261597,6.52205323 13.2942966,6.47741445 C13.5787072,6.44190114 13.8803802,6.28212928 13.8803802,6.30874525 C13.8803802,6.33505703 13.898403,6.4686692 13.898403,6.49498099 C13.9038783,6.53422053 13.8939924,6.57269962 14.1113308,6.5661597 C14.330038,6.5661597 14.6795437,6.54768061 14.7076046,6.54479087 C14.7619772,6.54106464 14.7797719,6.52205323 14.7811407,6.29330798 C14.7587072,6.0286692 14.8044867,5.94114068 14.4205323,5.95596958 C14.4306464,5.65612167 14.3865399,4.40798479 14.3865399,4.40798479 C14.3865399,4.40798479 14.2803802,3.03110266 14.1825095,2.75581749 C14.1825095,2.75581749 14.0669202,2.28288973 13.5298859,2.19619772 C13.2987072,2.15201521 13.0544487,2.08076046 12.7171103,2.35627376 C12.5188593,2.57376426 12.3918631,2.95292776 12.3918631,3.16593156 C12.3918631,3.16593156 12.3801521,3.2218251 12.5071483,3.24365019 L12.9946768,3.30319392 L12.9946768,3.30319392 Z" id="Fill-2" fill="#1A1918" sketch:type="MSShapeGroup"></path>
                <path d="M16.3508745,3.62958175 C16.3422053,3.69163498 16.378327,3.70942966 16.5054753,3.71551331 C16.9158935,3.718327 17.0386312,3.7695057 17.0322433,3.581673 C17.048289,3.4034981 17.0513308,3.19840304 17.0260076,3.02334601 C17.0002281,2.84821293 16.9112548,2.47779468 16.7076046,2.37072243 C16.546692,2.28486692 16.3892776,2.24326996 16.0329278,2.32319392 C15.8896578,2.36121673 15.6141445,2.44060837 15.4505703,2.69703422 C15.2863118,2.95346008 15.1673764,3.18281369 15.1323194,3.72980989 C15.0909506,4.24874525 15.0876046,4.73847909 15.0876046,4.73847909 C15.0876046,4.73847909 15.0780989,5.70760456 15.2294297,5.95596958 C15.321597,6.12357414 15.5492776,6.62897338 16.2206084,6.6165019 C16.7390875,6.62015209 16.8729278,6.52129278 17.048289,6.36859316 C17.1212167,6.30365019 17.219924,6.19939163 17.2421293,6.01186312 C17.250038,5.82342205 17.2234221,5.75551331 17.0760456,5.63072243 C17.0447909,5.60752852 16.9670722,5.50889734 16.6022814,5.49901141 C16.5549049,5.49596958 16.4188593,5.48874525 16.330038,5.65422053 C16.3260837,5.66608365 16.3047148,5.68038023 16.3098859,5.81764259 C16.3130038,5.89711027 16.2914829,6.0173384 16.1838783,6.01574144 C16.0504183,6.01870722 15.970038,5.88425856 15.9438783,5.78555133 C15.9055513,5.64357414 15.80327,5.23490494 15.775057,4.81528517 C15.7686692,4.26775665 15.7908745,3.83475285 15.8098859,3.76152091 C15.8290494,3.57703422 15.9067681,3.26973384 15.9403802,3.19840304 C15.9585551,3.16007605 16.0209886,3.05992395 16.0964259,3.05680608 C16.1796198,3.0530038 16.2408365,3.14098859 16.2826616,3.20790875 C16.32327,3.28958175 16.344943,3.36844106 16.3494297,3.45460076 C16.3542205,3.5391635 16.3508745,3.62958175 16.3508745,3.62958175" id="Fill-3" fill="#1A1918" sketch:type="MSShapeGroup"></path>
                <path d="M17.9737643,2.18144487 L17.9647148,1.50570342 C17.9647148,1.50570342 17.9737643,1.26806084 18.1686692,1.27414449 C18.330038,1.26479087 18.3969582,1.26806084 18.4885171,1.28304183 C18.5798479,1.29855513 18.6923194,1.338327 18.716654,1.56965779 C18.7440304,1.77665399 18.716654,2.1539924 18.72,2.26372624 C18.8418251,2.28205323 18.9062357,2.29520913 19.0926996,2.31346008 C19.0926996,2.31346008 19.5593156,2.33574144 19.6273764,2.37946768 C19.6952852,2.42319392 19.6990114,2.48471483 19.7074525,2.53893536 C19.7276806,2.66684411 19.7437262,2.85155894 19.6648669,2.91444867 C19.5978707,2.96114068 19.0853232,2.99771863 18.7682129,2.99155894 C18.7595437,3.24722433 18.6964259,4.40243346 18.6964259,4.40243346 C18.6732319,5.08228137 18.7003802,5.41330798 18.7209886,5.51490494 C18.7412167,5.61634981 18.7980228,5.85034221 19.0010646,5.81353612 C19.111635,5.7921673 19.1168821,5.78524715 19.2374144,5.61969582 C19.3063118,5.54653992 19.2891255,5.47847909 19.6342966,5.61262357 C19.9104943,5.7461597 20.0726236,5.83764259 19.9389354,6.10593156 C19.805019,6.37376426 19.7356654,6.59079848 19.293308,6.66806084 C19.1347529,6.66806084 18.6114068,6.69224335 18.278327,6.31847909 C18.1726236,6.18912548 18.0425856,6.04669202 17.9860837,5.5391635 C17.9577186,5.1618251 17.9209886,4.93034221 17.9291255,4.66228137 C17.9373384,4.39414449 17.9492015,3.43186312 17.9492015,3.43186312 L17.9451711,2.93688213 C17.9451711,2.93688213 17.4885171,2.96547529 17.4296578,2.91444867 C17.2852471,2.83353612 17.291635,2.47079848 17.374981,2.3460076 C17.4274525,2.26714829 17.953384,2.30737643 17.9675285,2.29315589 C17.9818251,2.2791635 17.9760456,2.23019011 17.9737643,2.18144487" id="Fill-5" fill="#1A1918" sketch:type="MSShapeGroup"></path>
                <path d="M5.87155894,6.54745247 C5.85231939,6.54555133 5.43475285,6.54479087 5.50912548,7.01992395 C5.56897338,7.26136882 5.82212928,7.35885932 6.01361217,7.26524715 C6.24920152,7.15057034 6.24106464,6.92897338 6.20288973,6.81589354 C6.16212928,6.69528517 6.14326996,6.57452471 5.87155894,6.54745247" id="Fill-6" fill="#F1A84B" sketch:type="MSShapeGroup"></path>
                <path d="M5.99330798,1.89581749 C6.00212928,1.97923954 5.9373384,2.05711027 5.85231939,2.06562738 C5.7686692,2.07429658 5.69087452,2.01110266 5.68243346,1.92752852 C5.67353612,1.84258555 5.73657795,1.76319392 5.82007605,1.75475285 C5.90562738,1.74577947 5.98494297,1.81072243 5.99330798,1.89581749 L5.99330798,1.89581749 Z M6.0060076,4.32319392 L6.42038023,4.50897338 C6.42661597,4.51171103 6.42980989,4.51923954 6.42676806,4.5261597 L6.31041825,4.7851711 C6.30760456,4.79239544 6.29961977,4.79467681 6.29346008,4.79193916 L6.22539924,4.76106464 C6.21901141,4.75840304 6.21551331,4.75079848 6.21870722,4.74425856 L6.29634981,4.57041825 L6.20646388,4.53026616 L6.14235741,4.67277567 C6.13946768,4.67901141 6.1313308,4.68212928 6.12486692,4.67923954 L6.05703422,4.64912548 C6.05087452,4.6461597 6.04745247,4.63787072 6.05026616,4.63163498 L6.11437262,4.48882129 L5.96258555,4.42060837 C5.95612167,4.41787072 5.9530038,4.40973384 5.9556654,4.40334601 L5.98904943,4.32958175 C5.99239544,4.32296578 5.99977186,4.32022814 6.0060076,4.32319392 L6.0060076,4.32319392 Z M6.25901141,2.72942966 C6.39224335,2.69726236 6.52532319,2.77893536 6.55726236,2.91247148 C6.57323194,2.97931559 6.56441065,3.03361217 6.53376426,3.08882129 C6.52996198,3.09612167 6.52174905,3.09787072 6.51551331,3.0939924 L6.44904943,3.0548289 C6.44311787,3.05125475 6.44136882,3.04395437 6.44456274,3.03802281 C6.46098859,3.00821293 6.46509506,2.97262357 6.45756654,2.94 C6.43946768,2.86441065 6.3634981,2.82425856 6.28851711,2.84205323 C6.21452471,2.85992395 6.16646388,2.9304943 6.18456274,3.00577947 C6.19224335,3.0373384 6.21155894,3.06859316 6.23840304,3.08760456 C6.24342205,3.09125475 6.24524715,3.1 6.24152091,3.1051711 L6.19885932,3.1704943 C6.19513308,3.17619772 6.18631179,3.17771863 6.18045627,3.17406844 C6.12577947,3.13931559 6.0913308,3.08653992 6.07703422,3.02737643 C6.04494297,2.89406844 6.12562738,2.76114068 6.25901141,2.72942966 L6.25901141,2.72942966 Z M6.33954373,4.00980989 C6.20288973,3.99612167 6.10532319,3.87619772 6.11863118,3.73961977 C6.13262357,3.60319392 6.25201521,3.50547529 6.38851711,3.51908745 C6.52486692,3.53285171 6.62372624,3.65201521 6.61041825,3.7886692 C6.59657795,3.92532319 6.47574144,4.02357414 6.33954373,4.00980989 L6.33954373,4.00980989 Z M6.03452471,5.20980989 L5.84958175,5.4251711 C5.84425856,5.43117871 5.83642586,5.43117871 5.83102662,5.42669202 L5.77414449,5.37809886 C5.76904943,5.37376426 5.76806084,5.36547529 5.7730038,5.35969582 L5.89657795,5.21536122 L5.8218251,5.15125475 L5.71969582,5.26988593 C5.71551331,5.27520913 5.70646388,5.27589354 5.70114068,5.2713308 L5.64456274,5.2226616 C5.63961977,5.218327 5.63870722,5.20942966 5.64334601,5.20418251 L5.74509506,5.08547529 L5.61840304,4.97718631 C5.61323194,4.97262357 5.61292776,4.96418251 5.61711027,4.95885932 L5.67003802,4.89749049 C5.67452471,4.89171103 5.68296578,4.89171103 5.68806084,4.89589354 L6.03277567,5.19117871 C6.03787072,5.19589354 6.03870722,5.20425856 6.03452471,5.20980989 L6.03452471,5.20980989 Z M5.46319392,5.7556654 L5.22403042,5.90889734 C5.21787072,5.91285171 5.21003802,5.91079848 5.2061597,5.90486692 L5.1660076,5.84205323 C5.16228137,5.83619772 5.16319392,5.82798479 5.16980989,5.82403042 L5.32965779,5.72144487 L5.28357414,5.64958175 L5.15209125,5.73406844 C5.14653992,5.73787072 5.13794677,5.73619772 5.1339924,5.73019011 L5.09361217,5.66760456 C5.0895057,5.66076046 5.09178707,5.65307985 5.09726236,5.6495057 L5.22927757,5.56479087 L5.1791635,5.48692015 L5.01923954,5.58965779 C5.01307985,5.5939924 5.0051711,5.59163498 5.00136882,5.58570342 L4.96106464,5.52288973 C4.95703422,5.51726236 4.958327,5.50912548 4.96494297,5.50471483 L5.20365019,5.35140684 C5.21034221,5.34760456 5.21809886,5.34942966 5.22174905,5.35536122 L5.46707224,5.73756654 C5.47064639,5.74319392 5.46935361,5.75140684 5.46319392,5.7556654 L5.46319392,5.7556654 Z M4.74281369,6.12114068 L4.46927757,6.19825095 C4.46235741,6.20030418 4.45536122,6.1956654 4.45361217,6.18912548 L4.43315589,6.11703422 C4.43125475,6.11041825 4.43490494,6.10326996 4.44205323,6.10129278 L4.62501901,6.04958175 L4.60235741,5.96775665 L4.45140684,6.01011407 C4.44501901,6.01186312 4.43703422,6.00775665 4.43543726,6.00106464 L4.41513308,5.92897338 C4.41307985,5.921673 4.41741445,5.91460076 4.42410646,5.91323194 L4.57452471,5.8704943 L4.54973384,5.78152091 L4.36676806,5.83285171 C4.35954373,5.8348289 4.35262357,5.83057034 4.35079848,5.82403042 L4.33019011,5.75193916 C4.32859316,5.74547529 4.3321673,5.738327 4.33939163,5.73581749 L4.61269962,5.65878327 C4.62007605,5.65688213 4.62692015,5.66159696 4.62897338,5.66844106 L4.75171103,6.10524715 C4.75361217,6.11171103 4.75034221,6.11885932 4.74281369,6.12114068 L4.74281369,6.12114068 Z M3.89125475,5.53589354 C2.77901141,5.54973384 1.86608365,4.65961977 1.85247148,3.54775665 C1.83840304,2.43551331 2.72851711,1.52258555 3.84060837,1.50859316 C4.95262357,1.49460076 5.86593156,2.38479087 5.87961977,3.49718631 C5.89346008,4.60920152 5.00342205,5.52212928 3.89125475,5.53589354 L3.89125475,5.53589354 Z M3.48996198,6.15642586 C3.40623574,6.16486692 3.32859316,6.10152091 3.32007605,6.01787072 C3.31163498,5.93269962 3.37467681,5.85353612 3.45764259,5.84547529 C3.5434981,5.83642586 3.6226616,5.90129278 3.63110266,5.98661597 C3.63969582,6.07011407 3.57452471,6.14760456 3.48996198,6.15642586 L3.48996198,6.15642586 Z M2.79155894,5.52235741 L2.55596958,5.91011407 C2.55231939,5.91596958 2.54448669,5.91855513 2.53802281,5.91460076 L2.46844106,5.87247148 C2.46235741,5.86874525 2.46038023,5.86007605 2.46403042,5.85429658 L2.65406844,5.54121673 L2.51452471,5.45680608 C2.50790875,5.45285171 2.50676806,5.44471483 2.51041825,5.43870722 L2.54912548,5.37490494 C2.55247148,5.36889734 2.56030418,5.36669202 2.56669202,5.37064639 L2.78745247,5.50441065 C2.79361217,5.50836502 2.79513308,5.51665399 2.79155894,5.52235741 L2.79155894,5.52235741 Z M2.14197719,5.34 C2.03847909,5.42958175 1.88372624,5.41984791 1.79368821,5.31627376 C1.7034981,5.21239544 1.71520913,5.05695817 1.81863118,4.96714829 C1.92228137,4.87756654 2.07680608,4.88897338 2.16661597,4.99231939 C2.25634981,5.09634981 2.24555133,5.25034221 2.14197719,5.34 L2.14197719,5.34 Z M1.40539924,4.73581749 L1.37148289,4.65125475 C1.36965779,4.6461597 1.37148289,4.64007605 1.37429658,4.63749049 L1.56486692,4.43961977 L1.56334601,4.4356654 L1.28897338,4.42326996 C1.28501901,4.42326996 1.27954373,4.42038023 1.27741445,4.41543726 L1.24395437,4.3304943 C1.24,4.3208365 1.24608365,4.31269962 1.25604563,4.31338403 L1.76441065,4.34243346 C1.76927757,4.34258555 1.77391635,4.34539924 1.77596958,4.35026616 L1.77870722,4.35673004 C1.78038023,4.3618251 1.77893536,4.3669962 1.77589354,4.37041825 L1.42608365,4.74015209 C1.41939163,4.74730038 1.40920152,4.74539924 1.40539924,4.73581749 L1.40539924,4.73581749 Z M1.14669202,3.84768061 L1.12532319,3.5643346 C1.12479087,3.55657795 1.13064639,3.55095057 1.13741445,3.55041825 L1.21186312,3.54471483 C1.21893536,3.54418251 1.22532319,3.54935361 1.22585551,3.55665399 L1.24015209,3.7461597 L1.32494297,3.73977186 L1.31323194,3.58395437 C1.31285171,3.57711027 1.31847909,3.57034221 1.32539924,3.56996198 L1.39977186,3.5643346 C1.40752852,3.56395437 1.41330798,3.56958175 1.41376426,3.57627376 L1.42532319,3.73231939 L1.51771863,3.72539924 L1.5034981,3.53581749 C1.50296578,3.52851711 1.5086692,3.52235741 1.51558935,3.52190114 L1.59011407,3.51627376 C1.59673004,3.51581749 1.6034981,3.52098859 1.60395437,3.52851711 L1.62524715,3.81155894 C1.62585551,3.81893536 1.62038023,3.82486692 1.61330798,3.82570342 L1.16060837,3.85961977 C1.15353612,3.86007605 1.14714829,3.85490494 1.14669202,3.84768061 L1.14669202,3.84768061 Z M1.51931559,2.41847909 C1.60479087,2.40973384 1.68395437,2.47437262 1.69269962,2.55977186 C1.70121673,2.64311787 1.63619772,2.72098859 1.5513308,2.72942966 C1.46775665,2.73802281 1.38996198,2.67475285 1.381673,2.59125475 C1.3730038,2.5060076 1.43589354,2.4269962 1.51931559,2.41847909 L1.51931559,2.41847909 Z M1.84889734,1.6591635 L2.04958175,1.45863118 C2.05513308,1.45307985 2.06326996,1.45368821 2.06813688,1.45863118 L2.12106464,1.51140684 C2.12577947,1.51619772 2.12638783,1.52441065 2.12106464,1.52965779 L1.98676806,1.66403042 L2.05657795,1.7338403 L2.1669962,1.62342205 C2.17178707,1.61847909 2.18068441,1.61847909 2.18570342,1.62342205 L2.238327,1.67627376 C2.24326996,1.68106464 2.24296578,1.68980989 2.238327,1.69452471 L2.12768061,1.80539924 L2.24555133,1.92326996 C2.25026616,1.92790875 2.25026616,1.93665399 2.24555133,1.9418251 L2.18813688,1.99870722 C2.18273764,2.00403042 2.17475285,2.00372624 2.16980989,1.99870722 L1.84889734,1.67764259 C1.84395437,1.67277567 1.84357414,1.66441065 1.84889734,1.6591635 L1.84889734,1.6591635 Z M2.46380228,1.15536122 L2.64555133,1.06038023 C2.71847909,1.02228137 2.80889734,1.05019011 2.84669202,1.12258555 C2.87581749,1.178327 2.86212928,1.24304183 2.82038023,1.29186312 L2.9843346,1.40273764 C2.99269962,1.40836502 2.99346008,1.42038023 2.98311787,1.42577947 L2.90243346,1.46798479 C2.89741445,1.47057034 2.8921673,1.46942966 2.88965779,1.46760456 L2.72471483,1.34859316 L2.68273764,1.3704943 L2.76365019,1.52562738 C2.76684411,1.53186312 2.76425856,1.53984791 2.7581749,1.54342205 L2.68593156,1.5808365 C2.6791635,1.58456274 2.67148289,1.58144487 2.66836502,1.57520913 L2.4581749,1.1730038 C2.45498099,1.16676806 2.45711027,1.15885932 2.46380228,1.15536122 L2.46380228,1.15536122 Z M3.27155894,0.83513308 L3.55117871,0.786311787 C3.55885932,0.78486692 3.56501901,0.790114068 3.56646388,0.796806084 L3.57931559,0.870342205 C3.58030418,0.877110266 3.57596958,0.88418251 3.56874525,0.885475285 L3.38159696,0.918174905 L3.39619772,1.00212928 L3.55011407,0.975057034 C3.55680608,0.973764259 3.56410646,0.979087452 3.56555133,0.985627376 L3.57840304,1.05946768 C3.57931559,1.06661597 3.57437262,1.07338403 3.56760456,1.07452471 L3.41361217,1.10121673 L3.42942966,1.19254753 L3.61665399,1.15977186 C3.62403042,1.15870722 3.63057034,1.16365019 3.63140684,1.1704943 L3.64463878,1.24410646 C3.64555133,1.25079848 3.64144487,1.25764259 3.63414449,1.25893536 L3.35422053,1.30798479 C3.34684411,1.3095057 3.34045627,1.30425856 3.33931559,1.29718631 L3.26098859,0.850114068 C3.25954373,0.843346008 3.26425856,0.836425856 3.27155894,0.83513308 L3.27155894,0.83513308 Z M3.9861597,1.18380228 L4.02479087,1.13087452 C4.0313308,1.12281369 4.04425856,1.12570342 4.04844106,1.12942966 C4.05095057,1.13095057 4.09581749,1.1730038 4.14106464,1.1781749 C4.16828897,1.18129278 4.18980989,1.16661597 4.19262357,1.1426616 C4.19574144,1.11414449 4.17452471,1.08935361 4.13019011,1.06585551 C4.07444867,1.03589354 4.00593156,0.981825095 4.01574144,0.900076046 C4.02357414,0.832471483 4.08357414,0.770494297 4.18851711,0.782585551 C4.25954373,0.790722433 4.30988593,0.833155894 4.32859316,0.850646388 C4.33627376,0.85634981 4.33323194,0.868441065 4.33003802,0.872851711 L4.28912548,0.921140684 C4.28372624,0.928212928 4.27072243,0.932775665 4.2651711,0.927604563 C4.25954373,0.923346008 4.21391635,0.880152091 4.17239544,0.875209125 C4.14768061,0.872471483 4.12737643,0.886692015 4.12539924,0.905095057 C4.12235741,0.93026616 4.14106464,0.951863118 4.19224335,0.979695817 C4.24273764,1.0069962 4.32243346,1.05847909 4.31140684,1.15110266 C4.30365019,1.22114068 4.23490494,1.28509506 4.13467681,1.27346008 C4.04608365,1.26311787 4.00144487,1.22068441 3.98737643,1.20326996 C3.98136882,1.19581749 3.97984791,1.19254753 3.9861597,1.18380228 L3.9861597,1.18380228 Z M4.63870722,1.36106464 L4.82904943,0.94904943 C4.83193916,0.942661597 4.84038023,0.939695817 4.84646388,0.942509506 L4.92053232,0.976806084 C4.92760456,0.98 4.92980989,0.988060837 4.92714829,0.993992395 L4.85460076,1.15110266 L5.03285171,1.23307985 L5.10494297,1.07634981 C5.10760456,1.07003802 5.11513308,1.06684411 5.12205323,1.07003802 L5.19657795,1.10425856 C5.20235741,1.10707224 5.20577947,1.11528517 5.20281369,1.12152091 L5.01224335,1.53353612 C5.00927757,1.53961977 5.00114068,1.54288973 4.99475285,1.53984791 L4.92098859,1.50585551 C4.9138403,1.50273764 4.91155894,1.49460076 4.91452471,1.48836502 L4.99026616,1.32471483 L4.8121673,1.24258555 L4.73642586,1.40631179 C4.73376426,1.41254753 4.72608365,1.41558935 4.71939163,1.41285171 L4.64532319,1.378327 C4.63893536,1.37551331 4.63619772,1.36730038 4.63870722,1.36106464 L4.63870722,1.36106464 Z M3.83330798,0.526692015 C2.18684411,0.547528517 0.868821293,1.89878327 0.889657795,3.5451711 C0.910190114,5.19155894 2.261673,6.50973384 3.90806084,6.48904943 C5.55444867,6.46851711 6.87285171,5.11711027 6.85201521,3.47057034 C6.83110266,1.82395437 5.47984791,0.505931559 3.83330798,0.526692015 L3.83330798,0.526692015 Z M3.90570342,6.69285171 C2.15749049,6.71452471 0.722281369,5.31498099 0.700532319,3.56684411 C0.678707224,1.81840304 2.07802281,0.383574144 3.82653992,0.361444867 C5.57467681,0.339695817 7.00973384,1.7391635 7.03163498,3.48752852 C7.05368821,5.23558935 5.65414449,6.67079848 3.90570342,6.69285171 L3.90570342,6.69285171 Z M7.69703422,2.81163498 C7.64813688,2.56030418 7.50410646,2.23505703 7.41764259,2.13391635 C7.33125475,2.03262357 7.10456274,1.88646388 6.93376426,1.81634981 C6.61323194,1.17961977 6.1261597,0.758555133 5.83262357,0.528212928 C5.55923954,0.313612167 5.01840304,0.0486692015 4.30456274,0.0486692015 C3.65756654,-0.0181749049 3.33406844,-0.0181749049 2.6921673,0.126311787 C1.39467681,0.333764259 0.914752852,1.35536122 0.914752852,1.35536122 C0.914752852,1.35536122 0.541673004,2.14159696 0.396045627,2.4591635 C-0.622965779,3.51353612 0.646235741,5.11703422 0.646235741,5.11703422 C0.441596958,5.47330798 1.12334601,5.89825095 1.41581749,6.03019011 C1.77893536,6.4018251 1.85840304,6.26562738 1.97148289,6.33802281 C2.03231939,6.4313308 2.07323194,6.54288973 2.15171103,6.58692015 C2.23034221,6.63102662 2.30980989,6.68684411 2.49239544,6.64243346 C2.49946768,6.64456274 2.53224335,6.64722433 2.53528517,6.65003802 C4.53840304,8.07543726 5.42463878,6.6948289 5.72091255,6.36334601 C6.89072243,6.97095057 7.68927757,4.09536122 7.48920152,3.82372624 C7.76479087,3.5904943 7.74441065,3.09847909 7.69703422,2.81163498 L7.69703422,2.81163498 Z M1.89079848,5.05026616 C1.83376426,5.09969582 1.82692015,5.18737643 1.87657795,5.2443346 C1.92547529,5.3008365 2.01315589,5.30646388 2.06996198,5.25711027 C2.12661597,5.20821293 2.13285171,5.12114068 2.08365019,5.06448669 C2.03429658,5.00752852 1.94714829,5.00114068 1.89079848,5.05026616 L1.89079848,5.05026616 Z M6.37749049,3.62828897 C6.30281369,3.6208365 6.23551331,3.67634981 6.22798479,3.75087452 C6.22091255,3.82577947 6.27604563,3.89307985 6.35003802,3.90060837 C6.42570342,3.90790875 6.49376426,3.85285171 6.50114068,3.77787072 C6.50851711,3.70319392 6.45262357,3.63574144 6.37749049,3.62828897 L6.37749049,3.62828897 Z M4.68190114,3.958327 C4.67946768,3.9626616 4.67764259,3.96631179 4.67513308,3.97041825 C4.67292776,3.97505703 4.67102662,3.97923954 4.66828897,3.98342205 C4.34836502,4.58159696 3.90547529,4.78806084 3.50273764,4.69756654 C3.47209125,4.6904943 3.43003802,4.6504943 3.50904943,4.60798479 C3.54,4.58463878 3.56904943,4.55992395 3.59756654,4.53330798 C3.68707224,4.45011407 3.7626616,4.35193916 3.82608365,4.24874525 C3.94060837,4.058327 4.01931559,3.85201521 4.05764259,3.64007605 C4.06365019,3.61011407 4.06927757,3.58007605 4.07338403,3.54996198 L4.0738403,3.54973384 L4.0738403,3.54912548 C4.10441065,3.35117871 4.14768061,3.15901141 4.21391635,2.97528517 C4.24653992,2.88380228 4.28555133,2.79460076 4.33201521,2.7078327 C4.35490494,2.66479087 4.38053232,2.62258555 4.4078327,2.58098859 C4.44669202,2.52334601 4.51285171,2.48593156 4.60357414,2.56806084 C4.92418251,2.84965779 5.01140684,3.34296578 4.68190114,3.958327 L4.68190114,3.958327 Z M3.37771863,4.48958175 C3.3381749,4.54745247 3.27178707,4.58463878 3.18129278,4.50258555 C2.86091255,4.22098859 2.77368821,3.72760456 3.10304183,3.11254753 C3.10547529,3.10806084 3.1078327,3.10425856 3.10988593,3.09977186 C3.11277567,3.09536122 3.11422053,3.09163498 3.1165019,3.08722433 C3.43688213,2.48912548 3.87931559,2.28250951 4.2826616,2.37338403 C4.31292776,2.38030418 4.35490494,2.42015209 4.27604563,2.46304183 C4.24524715,2.48570342 4.21581749,2.51072243 4.18722433,2.53726236 C4.09779468,2.62068441 4.02243346,2.71870722 3.95893536,2.82235741 C3.84471483,3.01247148 3.76577947,3.21863118 3.72730038,3.43041825 C3.72129278,3.46091255 3.71596958,3.49026616 3.71148289,3.52060837 C3.71148289,3.52060837 3.71148289,3.52060837 3.71148289,3.52068441 L3.71148289,3.52144487 C3.68121673,3.71969582 3.63718631,3.91178707 3.5713308,4.09490494 C3.538327,4.1869962 3.49931559,4.27634981 3.45323194,4.36243346 C3.43003802,4.40631179 3.4043346,4.44844106 3.37771863,4.48958175 L3.37771863,4.48958175 Z M3.84258555,1.66365019 C2.81612167,1.67634981 1.99452471,2.51901141 2.00737643,3.54562738 C2.02022814,4.57231939 2.86281369,5.39391635 3.88942966,5.38114068 C4.91604563,5.36813688 5.73741445,4.52547529 5.72501901,3.49931559 C5.71201521,2.47247148 4.86927757,1.65064639 3.84258555,1.66365019 L3.84258555,1.66365019 Z M2.73262357,1.24638783 C2.7573384,1.23338403 2.76684411,1.19893536 2.75346008,1.17346008 C2.74015209,1.14813688 2.7078327,1.138327 2.68296578,1.1513308 L2.59315589,1.19855513 L2.64235741,1.29323194 L2.73262357,1.24638783 L2.73262357,1.24638783 Z" id="Fill-7" fill="#F1A84B" sketch:type="MSShapeGroup"></path>
            </g>
        </g>
    </g>
</svg>