<?xml version="1.0" encoding="UTF-8" standalone="no"?>
<svg width="20px" height="20px" viewBox="0 0 20 20" version="1.1" xmlns="http://www.w3.org/2000/svg" xmlns:xlink="http://www.w3.org/1999/xlink" xmlns:sketch="http://www.bohemiancoding.com/sketch/ns">
    <!-- Generator: Sketch 3.3.2 (12043) - http://www.bohemiancoding.com/sketch -->
    <title>pactV</title>
    <desc>Created with Sketch.</desc>
    <defs></defs>
    <g id="Icons" stroke="none" stroke-width="1" fill="none" fill-rule="evenodd" sketch:type="MSPage">
        <g id="pactV" sketch:type="MSArtboardGroup">
            <path d="M13.6952319,11.9830406 C13.6596934,11.97957 12.8961728,11.9782512 13.0322877,12.847346 C13.1418182,13.289008 13.6049282,13.467186 13.9549677,13.2959491 C14.3860098,13.0862586 14.3712947,12.6809679 14.3013284,12.4740538 C14.2267811,12.2531187 14.192145,12.0325306 13.6952319,11.9830406" id="Fill-1" fill="#F1A84B" sketch:type="MSShapeGroup"></path>
            <path d="M10.0992577,12.2490234 C6.90135544,12.2887959 4.27595488,9.72857225 4.2361824,6.53087824 C4.19613227,3.33283717 6.75614769,0.708200135 9.9544664,0.667455895 C13.1519522,0.62775282 15.7768669,3.18756001 15.8171252,6.38560108 C15.8573836,9.58385038 13.2973682,12.2084874 10.0992577,12.2490234 L10.0992577,12.2490234 Z M17.0343854,5.14953051 C16.9449147,4.6894746 16.6813612,4.09469199 16.5233819,3.90985057 C16.3654719,3.72438446 15.9506719,3.4570134 15.6380449,3.32895016 C15.0517999,2.16402584 14.1608406,1.39377229 13.624155,0.972655934 C13.1237713,0.57985925 12.1345956,0.0953012629 10.8286976,0.0953012629 C9.64524053,-0.0272091005 9.05344259,-0.0272091005 7.87942543,0.237524342 C5.50584787,0.616785886 4.62814615,2.48560686 4.62814615,2.48560686 C4.62814615,2.48560686 3.94555866,3.92387159 3.679437,4.50470259 C1.81512774,6.43349465 4.13664706,9.36652463 4.13664706,9.36652463 C3.7623137,10.018016 5.00962884,10.7957659 5.5445792,11.0367608 C6.20877278,11.7167801 6.35411935,11.4675253 6.56082522,11.5998226 C6.67243806,11.7707124 6.74705485,11.9744336 6.89073556,12.0554362 C7.03455509,12.1360224 7.18017931,12.2380565 7.51411549,12.1568457 C7.52709534,12.1606633 7.58671937,12.1657303 7.59241107,12.1708667 C11.256408,14.7778733 12.8774318,12.2527716 13.4197397,11.6464668 C15.5595411,12.7577364 17.020295,7.49791189 16.6543604,7.00079051 C17.1584228,6.57419069 17.1210103,5.67406922 17.0343854,5.14953051 L17.0343854,5.14953051 Z M13.9180411,3.47422732 C13.934075,3.62686205 13.8154517,3.76915454 13.6596934,3.78504965 C13.5067811,3.80073653 13.3648356,3.68502844 13.349357,3.53211607 C13.3331148,3.37677432 13.4484759,3.23149716 13.6012494,3.21615733 C13.7575629,3.19984575 13.9026318,3.31853851 13.9180411,3.47422732 L13.9180411,3.47422732 Z M13.9412243,7.91444712 L14.6990533,8.25421382 C14.7103673,8.25928083 14.7162672,8.27309361 14.7108532,8.28586523 L14.4980391,8.75931746 C14.4927639,8.77250554 14.4783264,8.77653138 14.4668736,8.7716032 L14.3423503,8.71565796 C14.3308975,8.71052155 14.3245117,8.69663935 14.3303422,8.68421479 L14.4720794,8.36686783 L14.3075754,8.29322279 L14.1905485,8.55399981 C14.1852733,8.5653138 14.1703499,8.5710055 14.1586889,8.56579967 L14.0343044,8.5102709 C14.0229905,8.50485684 14.0168823,8.4900723 14.0220187,8.47855008 L14.1396009,8.21763424 L13.8616794,8.09262508 C13.8497407,8.08748867 13.8441878,8.07256531 13.8490466,8.06118191 L13.90992,7.92624699 C13.9160282,7.91396125 13.9297021,7.90882483 13.9412243,7.91444712 L13.9412243,7.91444712 Z M14.403779,4.99890871 C14.6476892,4.9400482 14.8909746,5.08962884 14.9492105,5.33388605 C14.9789183,5.45604936 14.9623985,5.55544587 14.9065227,5.65616119 C14.899304,5.66969633 14.8847971,5.67309746 14.8729972,5.66601755 L14.7513892,5.59431601 C14.7405611,5.58772197 14.737507,5.57453389 14.7434069,5.56356695 C14.7735313,5.50887111 14.7806806,5.44383303 14.7671455,5.384209 C14.7337588,5.24601176 14.5949369,5.17236672 14.4577808,5.20505929 C14.3224988,5.23768244 14.2346939,5.36685626 14.2676641,5.50456763 C14.2815463,5.56231756 14.3170847,5.61944278 14.3658807,5.65407886 C14.3749735,5.66101996 14.3785134,5.67691507 14.3717806,5.68642437 L14.2936932,5.80574183 C14.2870298,5.81615348 14.2707182,5.81892991 14.260376,5.81240528 C14.1601465,5.74882483 14.0969131,5.65248241 14.0709534,5.54392365 C14.0121623,5.3000135 14.1596607,5.05714451 14.403779,4.99890871 L14.403779,4.99890871 Z M15.046594,6.93658537 C15.0213979,7.18653427 14.8006016,7.36610045 14.5510691,7.34132074 C14.3013284,7.31612455 14.1226646,7.09664706 14.1473055,6.84683698 C14.1725017,6.59737395 14.3910768,6.4186407 14.6407481,6.44348983 C14.8902111,6.46854719 15.0710961,6.68670587 15.046594,6.93658537 L15.046594,6.93658537 Z M13.9930049,9.53609563 L13.6547653,9.93014171 C13.6451865,9.94096983 13.6308185,9.94096983 13.6211703,9.93312639 L13.5170539,9.84414152 C13.507614,9.83602044 13.5056705,9.82088885 13.5147633,9.81040779 L13.7409043,9.54636846 L13.6037482,9.42913333 L13.4173797,9.64611202 C13.4093975,9.65569074 13.3930165,9.65700954 13.3833684,9.64881905 L13.2798072,9.55962595 C13.2705755,9.55192133 13.2691179,9.53560976 13.2777943,9.52589222 L13.4636074,9.30884411 L13.2318442,9.11081461 C13.2227514,9.1024853 13.2217796,9.08693724 13.2295536,9.07708088 L13.3261737,8.96470452 C13.3349889,8.9544317 13.3504676,8.95401523 13.359491,8.9620669 L13.9898814,9.50215367 C13.9993907,9.51096886 14.0011954,9.52589222 13.9930049,9.53609563 L13.9930049,9.53609563 Z M12.9480922,10.5345724 L12.5108725,10.8148539 C12.4993502,10.8222115 12.4848433,10.8186716 12.4781105,10.8078434 L12.4041878,10.6927601 C12.397802,10.682279 12.399329,10.6668698 12.4114759,10.6599287 L12.7040432,10.472172 L12.6197089,10.3411241 L12.3789916,10.4954941 C12.368927,10.5020881 12.3531013,10.4992423 12.3460214,10.4884142 L12.2724458,10.3736778 C12.2646717,10.3611144 12.268767,10.3468158 12.2790398,10.34043 L12.5203818,10.1857823 L12.4288287,10.0430734 L12.1360532,10.2310383 C12.1247392,10.2386735 12.1102323,10.2346476 12.1034995,10.2237501 L12.0295768,10.1089444 C12.0221498,10.0986021 12.024718,10.0836094 12.0368649,10.0759048 L12.4733211,9.79534561 C12.485468,9.78819628 12.4999055,9.79187506 12.5066384,9.80270317 L12.9552415,10.5014634 C12.9619049,10.5119445 12.9594756,10.5269372 12.9480922,10.5345724 L12.9480922,10.5345724 Z M11.6304637,11.2035554 L11.1303577,11.3444597 C11.1171002,11.3479302 11.1046062,11.3396703 11.1014133,11.3275928 L11.0639314,11.1955037 C11.0602526,11.1837733 11.0671243,11.170724 11.0802429,11.167184 L11.4148038,11.0724381 L11.3734349,10.9226492 L11.097318,11.0001118 C11.0857958,11.0035824 11.0711501,10.9959472 11.0683043,10.983592 L11.0310306,10.8515029 C11.0273518,10.8384537 11.0351258,10.8256821 11.0474115,10.8229056 L11.3224872,10.7450959 L11.2770925,10.582119 L10.9424622,10.6758932 C10.9292741,10.6794331 10.9168495,10.6717285 10.9131707,10.6599287 L10.8756194,10.5278396 C10.872843,10.5161091 10.8792982,10.5027128 10.8925557,10.4985482 L11.3925923,10.3577133 C11.4059192,10.3541733 11.4183438,10.3627803 11.4219531,10.3748578 L11.6469141,11.1741945 C11.6502458,11.1860638 11.6439294,11.1993907 11.6304637,11.2035554 L11.6304637,11.2035554 Z M10.0727427,10.1326829 C8.03830714,10.1581568 6.36848742,8.5299142 6.34329124,6.49596452 C6.317748,4.46159838 7.94585173,2.7914316 9.98007905,2.76602719 C12.014237,2.74055336 13.6847508,4.36879591 13.7100858,6.40350911 C13.735282,8.43745879 12.1070394,10.1075562 10.0727427,10.1326829 L10.0727427,10.1326829 Z M9.33851345,11.2678994 C9.18546226,11.2831698 9.043378,11.1675311 9.02796877,11.0144799 C9.0123513,10.8589299 9.12778174,10.714208 9.27965295,10.6990764 C9.43652174,10.6825566 9.58124361,10.80118 9.59706931,10.957077 C9.61268678,11.1097812 9.49343874,11.2516572 9.33851345,11.2678994 L9.33851345,11.2678994 Z M8.06107394,10.108042 L7.63010122,10.8174916 C7.62371542,10.8279726 7.60927793,10.832762 7.59740866,10.8256821 L7.46997011,10.7482194 C7.45900318,10.741556 7.45518558,10.7259385 7.46198785,10.7151104 L7.80952858,10.1426087 L7.55451268,9.98796105 C7.54250458,9.98074231 7.5400752,9.96561072 7.54673865,9.9547132 L7.61760725,9.83824159 C7.62399306,9.82727466 7.63822231,9.82324882 7.64995276,9.83032874 L8.05364697,10.0751412 C8.06489155,10.0824294 8.06766798,10.0974222 8.06107394,10.108042 L8.06107394,10.108042 Z M6.87296635,9.77445291 C6.68361323,9.93854044 6.40020823,9.92063241 6.23584305,9.73093223 C6.070992,9.5409544 6.09223176,9.25692471 6.28151547,9.09249012 C6.47093801,8.92861082 6.7536489,8.94943411 6.91794466,9.138579 C7.08217102,9.32862624 7.06218066,9.61015714 6.87296635,9.77445291 L6.87296635,9.77445291 Z M5.52563,8.66929143 L5.463646,8.51443555 C5.45996722,8.50485684 5.463646,8.49388991 5.468713,8.48937819 L5.81715608,8.12733057 L5.81451846,8.12025065 L5.31260773,8.09748385 C5.3054584,8.09748385 5.29525499,8.09227803 5.2915068,8.08311578 L5.23021691,7.92777403 C5.22285935,7.91028246 5.23438157,7.89535911 5.25256724,7.89626145 L6.18225778,7.94949966 C6.19114239,7.95019377 6.19981876,7.95491372 6.20342813,7.96400656 L6.20821749,7.97580642 C6.21141039,7.98524631 6.20877278,7.99440856 6.20328931,8.00065555 L5.56345898,8.67692664 C5.55110383,8.69011472 5.53250169,8.68692182 5.52563,8.66929143 L5.52563,8.66929143 Z M5.05217777,7.04451943 L5.01323821,6.52650535 C5.01212764,6.5122761 5.02274752,6.50179504 5.03517208,6.50096211 L5.17156464,6.49034223 C5.18433626,6.48964812 5.19627494,6.49881037 5.1972467,6.51255375 L5.2232064,6.85891449 L5.3782011,6.84732286 L5.35703075,6.562252 C5.35612841,6.54968861 5.36640123,6.53719464 5.37910344,6.53650053 L5.51542659,6.52650535 C5.52930878,6.52539477 5.53999807,6.53594524 5.54090041,6.54823098 L5.56220958,6.83357949 L5.73094765,6.82115492 L5.70498795,6.4743083 C5.70415502,6.46084257 5.71435843,6.44966741 5.72699123,6.44876506 L5.8634532,6.43856165 C5.87573894,6.4375899 5.88795527,6.44702979 5.88871879,6.46084257 L5.92786658,6.97844018 C5.92897715,6.99211414 5.91856551,7.00301166 5.90579389,7.00439988 L5.07772101,7.06638388 C5.06487998,7.0671474 5.05328834,7.05784633 5.05217777,7.04451943 L5.05217777,7.04451943 Z M5.73414056,4.43043285 C5.89038465,4.41446833 6.03510653,4.53274463 6.05127928,4.68871108 C6.06668852,4.84113757 5.94757929,4.98363829 5.79244577,4.99911694 C5.63946399,5.01480382 5.49744915,4.89895691 5.48210932,4.74639159 C5.46628362,4.59035573 5.58143642,4.44577268 5.73414056,4.43043285 L5.73414056,4.43043285 Z M6.33690543,3.04138051 L6.70408946,2.67447412 C6.71422346,2.66447894 6.72907741,2.66545069 6.73796202,2.67447412 L6.83472091,2.77088595 C6.84332787,2.77983997 6.84429962,2.79504097 6.83472091,2.80441145 L6.58893666,3.05012629 L6.71658344,3.1779813 L6.9187776,2.97571773 C6.92752338,2.96676371 6.94376555,2.96676371 6.95285838,2.97571773 L7.0491314,3.07254603 C7.05822424,3.08150005 7.05794659,3.09739516 7.0491314,3.10600212 L6.84672901,3.30861274 L7.06218066,3.52441145 C7.07113468,3.532949 7.07113468,3.54891353 7.06218066,3.55814518 L6.95730068,3.66253928 C6.94758315,3.67232623 6.93279861,3.6714933 6.9238446,3.66253928 L6.33690543,3.07511424 C6.32781259,3.06629905 6.32718789,3.05088981 6.33690543,3.04138051 L6.33690543,3.04138051 Z M7.46157139,2.1195334 L7.79411935,1.94607539 C7.92766606,1.8765256 8.09300299,1.92712619 8.16185867,2.05963174 C8.21544394,2.16180469 8.19038658,2.28028921 8.11389569,2.3694129 L8.41388991,2.57237058 C8.42888268,2.58243517 8.43040972,2.60436903 8.41166876,2.61436421 L8.26382339,2.69154921 C8.25479996,2.69633857 8.24542948,2.69432565 8.24064012,2.69078569 L7.93884122,2.47311289 L7.8621421,2.51337125 L8.01005688,2.79684566 C8.01602622,2.80822906 8.01116745,2.82315241 8.0000617,2.82932999 L7.86790321,2.89790803 C7.85547865,2.90484913 7.84138822,2.89929625 7.83548829,2.88798226 L7.4515068,2.15174009 C7.44560686,2.14049552 7.44942447,2.12605804 7.46157139,2.1195334 L7.46157139,2.1195334 Z M8.9389839,1.53405187 L9.45075099,1.4444423 C9.46456377,1.44215174 9.47587776,1.45152222 9.47858479,1.46394678 L9.50218452,1.59846525 C9.5039892,1.61068158 9.49593753,1.62386966 9.48274945,1.6260214 L9.14048395,1.68599248 L9.16713776,1.83932131 L9.44859925,1.7899007 C9.46102381,1.78767955 9.47428131,1.79725827 9.47684951,1.80954401 L9.50031042,1.94420129 C9.50218452,1.9575282 9.49295286,1.96974453 9.48052829,1.97189627 L9.1989974,2.02096983 L9.22787236,2.1878338 L9.57062373,2.12793213 C9.58381182,2.12598862 9.59588933,2.13473441 9.59755519,2.14729779 L9.6216408,2.28216331 C9.62330666,2.29465728 9.61560204,2.30708185 9.60248337,2.309303 L9.09029982,2.39905138 C9.07676468,2.401689 9.06510363,2.39211029 9.06302131,2.37947749 L8.91989588,1.56139979 C8.91725827,1.54904464 8.92558758,1.53627302 8.9389839,1.53405187 L8.9389839,1.53405187 Z M10.2463395,2.17186928 L10.3169305,2.07497156 C10.3287304,2.06011761 10.3524689,2.06539285 10.3602429,2.07240335 C10.3649629,2.07545744 10.4468678,2.15174009 10.5296751,2.16131881 C10.5795816,2.16721874 10.6190764,2.14028728 10.6237964,2.09648896 C10.6296963,2.04443073 10.5908262,1.99903596 10.5100318,1.95586233 C10.4078589,1.90102767 10.2826415,1.80218645 10.3003413,1.65267521 C10.3147788,1.52933192 10.4245869,1.41577557 10.6165082,1.43805649 C10.7463068,1.45270221 10.8383457,1.53044249 10.872843,1.56230213 C10.8867252,1.57278319 10.8812417,1.59471705 10.8753418,1.60304637 L10.8004473,1.69154536 C10.7904521,1.70431698 10.7669218,1.71257688 10.7567184,1.70306758 C10.7460985,1.69522414 10.6626665,1.6165121 10.5868003,1.60741926 C10.5418914,1.60214403 10.5047566,1.62824255 10.5010778,1.66211511 C10.4955249,1.70799576 10.5296751,1.74735178 10.6232411,1.79857708 C10.7159742,1.84841415 10.8613207,1.94246602 10.8414692,2.11175938 C10.8271011,2.24016967 10.7014673,2.35712716 10.5180141,2.33574858 C10.35587,2.3169382 10.2743816,2.23926733 10.2484219,2.20740769 C10.2375938,2.1935255 10.2345397,2.1878338 10.2463395,2.17186928 L10.2463395,2.17186928 Z M11.44,2.4959491 L11.7880266,1.7424236 C11.7935795,1.73090138 11.8087805,1.72527909 11.8204415,1.73048491 L11.9554459,1.79316302 C11.9682175,1.79906295 11.9724516,1.81363926 11.9676622,1.8246756 L11.8348096,2.11175938 L12.1606941,2.26189531 L12.2928526,1.97515858 C12.2977114,1.96377519 12.3114547,1.95787525 12.3242264,1.96377519 L12.4602719,2.02617565 C12.4709611,2.03124265 12.4769999,2.04644365 12.4715164,2.05789646 L12.1232816,2.81142196 C12.1178675,2.82287477 12.1028748,2.8287747 12.0912137,2.82315241 L11.9562094,2.76075195 C11.9435072,2.75506025 11.9392037,2.74055336 11.9447566,2.72903114 L12.0830926,2.42945339 L11.7571387,2.27931746 L11.6186638,2.57889521 C11.6139439,2.5902092 11.6001311,2.59583149 11.5873595,2.59048684 L11.4520775,2.52787815 C11.4405553,2.52239468 11.4352801,2.50740191 11.44,2.4959491 L11.44,2.4959491 Z M9.96696038,0.969879495 C6.95494071,1.0078473 4.54415887,3.47964138 4.58205726,6.49145281 C4.61967801,9.50312542 7.09188856,11.9141849 10.1034223,11.8762171 C13.115095,11.8385964 15.5265709,9.36652463 15.4886031,6.3547132 C15.4504965,3.34276294 12.9787024,0.931772872 9.96696038,0.969879495 L9.96696038,0.969879495 Z M6.41339632,9.24443073 C6.30914104,9.33515087 6.29650824,9.49521257 6.38722838,9.59946785 C6.47683794,9.70275137 6.63738552,9.71309361 6.74136315,9.62285935 C6.8447855,9.53331919 6.85609949,9.37388219 6.76621228,9.27004338 C6.6758392,9.16634339 6.51654102,9.15482117 6.41339632,9.24443073 L6.41339632,9.24443073 Z M14.6208271,6.64339343 C14.4842264,6.62965005 14.3610913,6.73112889 14.3471397,6.86738263 C14.334021,7.00439988 14.4351528,7.12774318 14.5705736,7.14141714 C14.7085626,7.15488287 14.8331553,7.05402873 14.8469681,6.91687265 C14.860295,6.78034127 14.7580526,6.65699798 14.6208271,6.64339343 L14.6208271,6.64339343 Z M7.95320929,2.28618914 C7.99846525,2.26238118 8.01581799,2.19956425 7.99124651,2.15292008 C7.96709149,2.10634532 7.90809216,2.0885067 7.86262798,2.11224525 L7.69833221,2.19866191 L7.78835824,2.37205052 L7.95320929,2.28618914 L7.95320929,2.28618914 Z M11.5187815,7.24699123 C11.5145474,7.25476526 11.5111462,7.26163694 11.5062875,7.26934156 C11.5026781,7.27774029 11.4989993,7.28523667 11.49421,7.2930107 C10.9090061,8.38713583 10.0987024,8.7646621 9.36190495,8.59918635 C9.3059597,8.58641473 9.22898294,8.51304733 9.37356599,8.43523764 C9.43048298,8.39268871 9.48323532,8.34736335 9.53557119,8.29905331 C9.69938109,8.14655741 9.83757833,7.96726887 9.95363347,7.77805456 C10.1631158,7.42995855 10.3069353,7.05243228 10.3771098,6.664772 C10.3880767,6.61014557 10.3982802,6.55510267 10.4059154,6.49999036 L10.4066789,6.49943507 L10.4066789,6.4983245 C10.4626935,6.13634628 10.5418914,5.78477972 10.6626665,5.44876121 C10.7222906,5.28141136 10.7940615,5.11815675 10.8788817,4.95969151 C10.9208059,4.88091005 10.9676583,4.80358623 11.0175648,4.72758122 C11.0886417,4.62166008 11.2096944,4.55377615 11.3755866,4.70412031 C11.9619705,5.21887207 12.1215463,6.12149234 11.5187815,7.24699123 L11.5187815,7.24699123 Z M9.13333462,8.21888364 C9.06121662,8.32459655 8.9396086,8.39289694 8.77406343,8.24262219 C8.18781837,7.72724573 8.02824255,6.82490311 8.63079919,5.69975128 C8.6353109,5.69183843 8.63947556,5.6846891 8.64357081,5.67642919 C8.64842958,5.66844693 8.65120602,5.66178348 8.6555095,5.65345416 C9.24154632,4.55974549 10.0507394,4.18138629 10.7886475,4.34769498 C10.8438986,4.3604666 10.9208059,4.43334812 10.7767088,4.51157428 C10.7201388,4.55342909 10.6663453,4.59889328 10.6142871,4.64748096 C10.4505466,4.8001851 10.312627,4.97947363 10.1965719,5.16931264 C9.98750603,5.51685337 9.84354767,5.89389376 9.77274848,6.28155403 C9.76192037,6.3370134 9.75192519,6.39094572 9.74394293,6.44619686 C9.74394293,6.44619686 9.74394293,6.44619686 9.74394293,6.44668273 L9.74394293,6.44779331 C9.68841415,6.81067386 9.60810566,7.16182397 9.4875388,7.49687072 C9.42729008,7.66540056 9.35565796,7.8288634 9.27153186,7.98649571 C9.22898294,8.06652656 9.18178348,8.14371156 9.13333462,8.21888364 L9.13333462,8.21888364 Z M9.98382724,3.049571 C8.10626048,3.07275427 6.60295768,4.61423311 6.62676564,6.49235515 C6.65015714,8.36999132 8.19149716,9.87301649 10.0690639,9.84962499 C11.9470471,9.82588644 13.4500723,8.2844076 13.4269584,6.40718789 C13.4031505,4.5287882 11.8614634,3.02583245 9.98382724,3.049571 L9.98382724,3.049571 Z" id="Fill-3" fill="#F1A84B" sketch:type="MSShapeGroup"></path>
            <path d="M6.44261834,16.580268 C6.34530416,16.7026395 5.9659732,16.8366027 5.66257785,16.6956984 C5.60871493,16.5837386 5.65702497,16.2065593 5.64085221,15.4863511 C5.65702497,14.8091083 5.65959317,14.4647604 5.67722356,14.4138128 C5.81431023,14.4026376 6.02538899,14.3866731 6.26929914,14.4644828 C6.55811819,14.561797 6.53840548,14.9570925 6.59962595,15.1993367 C6.63551142,15.4444963 6.63551142,15.6699431 6.64307722,15.8217449 C6.65924998,16.3598882 6.56353225,16.4450554 6.44261834,16.580268 L6.44261834,16.580268 Z M7.16109129,14.0274019 C6.98922973,13.6970751 6.41006459,13.5238947 6.14477586,13.4808599 C5.87941772,13.4372004 5.27804107,13.4589261 4.67708088,13.486274 C4.20008869,13.4643401 4.30878627,13.6663954 4.29434879,14.0850824 C4.25096693,14.2949118 4.42428613,14.316221 4.42428613,14.316221 L4.80680999,14.3451653 L4.7708551,15.9337048 L4.69859828,18.8291835 C4.69859828,18.8291835 4.70581702,19.1037038 4.6695845,19.1254989 C4.47127735,19.114532 4.44621999,19.1251518 4.41706739,19.2659173 C4.37215849,19.4824795 4.43858479,19.8656975 4.43858479,19.8656975 C4.46031042,19.9664822 4.54665767,19.9598188 4.54665767,19.9598188 C4.54665767,19.9598188 5.26547768,19.9884161 5.6123243,19.9884161 C5.88288827,19.9884161 5.8470028,19.8402237 5.8470028,19.8402237 C5.8470028,19.6454565 5.86421672,19.6090157 5.83957582,19.3279013 C5.82513834,19.1865805 5.78182589,19.1400752 5.58705871,19.132787 C5.58705871,19.132787 5.59039044,18.8620148 5.59399981,18.5190552 C5.5983727,18.1061294 5.61662778,17.6333018 5.61662778,17.6333018 C5.61662778,17.6333018 5.78911405,17.6135891 5.96222501,17.6145609 C6.23501012,17.6160879 6.63467849,17.6333018 6.92099875,17.4646332 C7.24507857,17.2740307 7.30213439,16.9162171 7.37015714,16.5477143 C7.41388605,16.2874925 7.4679572,15.6667502 7.44623156,15.348848 C7.4426916,14.9845098 7.33246698,14.3576593 7.16109129,14.0274019 L7.16109129,14.0274019 Z" id="Fill-4" fill="#1A1918" sketch:type="MSShapeGroup"></path>
            <path d="M9.37099778,17.7460947 C9.38252,17.8102304 9.43971464,18.2624429 9.45102863,18.3353938 C9.47254603,18.558203 9.47081076,18.663083 9.44339343,18.8241859 C9.4413111,18.8321681 9.42263954,18.9067155 9.34691218,18.9567608 C9.2382146,19.0173566 9.23314759,19.0173566 9.08995276,19.0444269 C8.7959973,19.0389434 8.71902053,19.0036132 8.57756098,18.8273094 C8.44748482,18.5786099 8.46268582,18.2691063 8.46969633,17.9897966 C8.50426299,17.7321431 8.49405958,17.3134561 8.81272534,17.2937434 C9.21058903,17.2554979 9.25716379,17.3995257 9.29332691,17.4589415 C9.32955943,17.5184961 9.36766606,17.6884142 9.37099778,17.7460947 L9.37099778,17.7460947 Z M8.63989203,16.5075253 C8.73540152,16.5100935 8.80745011,16.471501 8.80745011,16.2600752 C8.80057842,16.0719715 8.90407018,15.9414094 9.09696327,16.005684 C9.14527331,16.0171368 9.29686687,16.0952936 9.29908802,16.3548212 C9.3021421,16.7051383 9.29443748,16.7338745 9.29443748,16.7338745 C9.29443748,16.7338745 8.97722935,16.6858421 8.46268582,16.8329933 C8.12278029,16.9614731 7.78072303,17.1308358 7.73602237,17.677239 C7.69409814,18.3054083 7.74580931,18.7080613 7.901984,19.0295035 C8.05843633,19.3514316 8.36176227,19.8386272 8.94981201,19.7927466 C9.24411453,19.7557505 9.55639449,19.5905524 9.55639449,19.6180391 C9.55639449,19.6454565 9.57492721,19.7834455 9.57492721,19.8109322 C9.58061891,19.8511212 9.57062373,19.8912407 9.79558469,19.8845079 C10.0217256,19.8845079 10.3834262,19.8654198 10.4123706,19.862574 C10.4689405,19.8584093 10.4870568,19.8386272 10.4885838,19.601797 C10.4654006,19.3284566 10.5126,19.237667 10.1154999,19.2529374 C10.1258421,18.9427398 10.0802391,17.651071 10.0802391,17.651071 C10.0802391,17.651071 9.97043093,16.2259944 9.86874385,15.9414094 C9.86874385,15.9414094 9.74949581,15.4519233 9.19358334,15.3623137 C8.95446255,15.316433 8.70180661,15.242788 8.3524612,15.5277895 C8.14735178,15.7528198 8.01602622,16.1456165 8.01602622,16.3659963 C8.01602622,16.3659963 8.0038793,16.4236769 8.13506604,16.4463742 L8.63989203,16.5075253 L8.63989203,16.5075253 Z" id="Fill-6" fill="#1A1918" sketch:type="MSShapeGroup"></path>
            <path d="M12.11287,16.8458344 C12.1039853,16.9095536 12.1413284,16.9282946 12.2727928,16.9344028 C12.6977962,16.9375957 12.8245406,16.9902092 12.8178772,16.7960667 C12.8346052,16.6114335 12.837937,16.3991054 12.8115608,16.2180816 C12.7849764,16.0368495 12.692868,15.6534233 12.4819975,15.5431293 C12.3156194,15.4541444 12.152573,15.4111096 11.7839314,15.4936393 C11.6356695,15.5332035 11.3505293,15.6151779 11.1812359,15.8803972 C11.011179,16.1456165 10.8881134,16.3831408 10.8519503,16.9491179 C10.8090543,17.4862894 10.8056531,17.9932671 10.8056531,17.9932671 C10.8056531,17.9932671 10.796005,18.995978 10.9523879,19.2529374 C11.0476892,19.4263954 11.28327,19.9496153 11.9780738,19.9364967 C12.5148289,19.9403143 12.6531649,19.8380025 12.8346052,19.6798149 C12.9101244,19.6124863 13.0122279,19.5051075 13.0353418,19.3106874 C13.0434628,19.1158508 13.0159761,19.0453986 12.8634108,18.9162942 C12.8310653,18.8926945 12.7505485,18.790591 12.3730917,18.7801099 C12.3240181,18.776917 12.1833221,18.7696983 12.091422,18.9407963 C12.0871879,18.9529432 12.065254,18.9675889 12.0705293,19.1097426 C12.0737222,19.192064 12.0515801,19.3164485 11.9402449,19.314852 C11.802117,19.3179755 11.7188933,19.1786677 11.6917536,19.0766336 C11.6520505,18.9296905 11.5463376,18.5069083 11.5170462,18.0723262 C11.5105215,17.5060021 11.5334272,17.0578155 11.5532093,16.9819493 C11.5729914,16.7912774 11.6532999,16.4730975 11.6882136,16.3991054 C11.707024,16.3596105 11.7716456,16.2559799 11.8495941,16.252787 C11.9358026,16.2489 11.9989665,16.3401755 12.042279,16.4090311 C12.084342,16.4935043 12.1067618,16.5750622 12.1114817,16.6643941 C12.1164099,16.7520602 12.11287,16.8458344 12.11287,16.8458344" id="Fill-7" fill="#1A1918" sketch:type="MSShapeGroup"></path>
            <path d="M13.7923378,15.3466268 L13.7830367,14.6475195 C13.7830367,14.6475195 13.7923378,14.4016659 13.9941155,14.4080517 C14.1611877,14.398473 14.2303904,14.4016659 14.325067,14.4172833 C14.4196742,14.4335949 14.5361458,14.4743391 14.5612031,14.713807 C14.5895922,14.9280787 14.5612031,15.3186542 14.5647431,15.4321411 C14.6905852,15.4509515 14.7573585,15.4646949 14.9502516,15.4835053 C14.9502516,15.4835053 15.4332826,15.5067579 15.5035265,15.5520139 C15.5739092,15.5972698 15.5776574,15.6607809 15.5864726,15.7167955 C15.6073653,15.8491622 15.6241627,16.0403895 15.542466,16.105497 C15.473055,16.1539458 14.9426858,16.1919136 14.6145802,16.1854584 C14.6054873,16.4498448 14.5403104,17.6453794 14.5403104,17.6453794 C14.516086,18.3490678 14.5442668,18.6915415 14.5656454,18.7966991 C14.5865381,18.9015791 14.6453986,19.1436152 14.8554362,19.1056474 C14.9698255,19.083297 14.9753784,19.0763559 15.1002487,18.9050496 C15.171395,18.8291835 15.1536952,18.7586619 15.5110228,18.8977615 C15.796649,19.036167 15.9644847,19.1305659 15.8258016,19.4082792 C15.6872573,19.685229 15.6156252,19.9100511 15.1578598,19.9900819 C14.9939111,19.9900819 14.4522279,20.0149311 14.1074636,19.6282426 C13.9983496,19.4942794 13.8636923,19.3469893 13.8051094,18.8219647 C13.7757486,18.4313892 13.737642,18.1919213 13.7461101,17.914208 C13.7547171,17.6364947 13.7670028,16.6411414 13.7670028,16.6411414 L13.7628381,16.128472 C13.7628381,16.128472 13.2903577,16.1583881 13.2293454,16.105497 C13.0798342,16.0216485 13.0864976,15.6463434 13.1728449,15.517586 C13.2270549,15.4359587 13.7712369,15.4773277 13.7861602,15.4624043 C13.8008059,15.4480362 13.794559,15.3977133 13.7923378,15.3466268" id="Fill-9" fill="#1A1918" sketch:type="MSShapeGroup"></path>
        </g>
    </g>
</svg>