<?xml version="1.0" encoding="UTF-8" standalone="no"?>
<svg width="20px" height="20px" viewBox="0 0 20 20" version="1.1" xmlns="http://www.w3.org/2000/svg" xmlns:xlink="http://www.w3.org/1999/xlink" xmlns:sketch="http://www.bohemiancoding.com/sketch/ns">
    <!-- Generator: Sketch 3.3.3 (12072) - http://www.bohemiancoding.com/sketch -->
    <title>pactV</title>
    <desc>Created with Sketch.</desc>
    <defs></defs>
    <g id="Icons" stroke="none" stroke-width="1" fill="none" fill-rule="evenodd" sketch:type="MSPage">
        <g id="pactV" sketch:type="MSArtboardGroup">
            <path d="M13.6952319,11.9830406 C13.6596934,11.97957 12.8961728,11.9782512 13.0322877,12.847346 C13.1418182,13.289008 13.6049282,13.467186 13.9549677,13.2959491 C14.3860098,13.0862586 14.3712947,12.6809679 14.3013284,12.4740538 C14.2267811,12.2531187 14.192145,12.0325306 13.6952319,11.9830406 Z M10.0992577,12.2490234 C6.90135544,12.2887959 4.27595488,9.72857225 4.2361824,6.53087824 C4.19613227,3.33283717 6.75614769,0.708200135 9.9544664,0.667455895 C13.1519522,0.62775282 15.7768669,3.18756001 15.8171252,6.38560108 C15.8573836,9.58385038 13.2973682,12.2084874 10.0992577,12.2490234 Z M17.0343854,5.14953051 C16.9449147,4.6894746 16.6813612,4.09469199 16.5233819,3.90985057 C16.3654719,3.72438446 15.9506719,3.4570134 15.6380449,3.32895016 C15.0517999,2.16402584 14.1608406,1.39377229 13.624155,0.972655934 C13.1237713,0.57985925 12.1345956,0.0953012629 10.8286976,0.0953012629 C9.64524053,-0.0272091005 9.05344259,-0.0272091005 7.87942543,0.237524342 C5.50584787,0.616785886 4.62814615,2.48560686 4.62814615,2.48560686 C4.62814615,2.48560686 3.94555866,3.92387159 3.679437,4.50470259 C1.81512774,6.43349465 4.13664706,9.36652463 4.13664706,9.36652463 C3.7623137,10.018016 5.00962884,10.7957659 5.5445792,11.0367608 C6.20877278,11.7167801 6.35411935,11.4675253 6.56082522,11.5998226 C6.67243806,11.7707124 6.74705485,11.9744336 6.89073556,12.0554362 C7.03455509,12.1360224 7.18017931,12.2380565 7.51411549,12.1568457 C7.52709534,12.1606633 7.58671937,12.1657303 7.59241107,12.1708667 C11.256408,14.7778733 12.8774318,12.2527716 13.4197397,11.6464668 C15.5595411,12.7577364 17.020295,7.49791189 16.6543604,7.00079051 C17.1584228,6.57419069 17.1210103,5.67406922 17.0343854,5.14953051 L17.0343854,5.14953051 Z M13.9180411,3.47422732 C13.934075,3.62686205 13.8154517,3.76915454 13.6596934,3.78504965 C13.5067811,3.80073653 13.3648356,3.68502844 13.349357,3.53211607 C13.3331148,3.37677432 13.4484759,3.23149716 13.6012494,3.21615733 C13.7575629,3.19984575 13.9026318,3.31853851 13.9180411,3.47422732 L13.9180411,3.47422732 Z M13.9412243,7.91444712 L14.6990533,8.25421382 C14.7103673,8.25928083 14.7162672,8.27309361 14.7108532,8.28586523 L14.4980391,8.75931746 C14.4927639,8.77250554 14.4783264,8.77653138 14.4668736,8.7716032 L14.3423503,8.71565796 C14.3308975,8.71052155 14.3245117,8.69663935 14.3303422,8.68421479 L14.4720794,8.36686783 L14.3075754,8.29322279 L14.1905485,8.55399981 C14.1852733,8.5653138 14.1703499,8.5710055 14.1586889,8.56579967 L14.0343044,8.5102709 C14.0229905,8.50485684 14.0168823,8.4900723 14.0220187,8.47855008 L14.1396009,8.21763424 L13.8616794,8.09262508 C13.8497407,8.08748867 13.8441878,8.07256531 13.8490466,8.06118191 L13.90992,7.92624699 C13.9160282,7.91396125 13.9297021,7.90882483 13.9412243,7.91444712 L13.9412243,7.91444712 Z M14.403779,4.99890871 C14.6476892,4.9400482 14.8909746,5.08962884 14.9492105,5.33388605 C14.9789183,5.45604936 14.9623985,5.55544587 14.9065227,5.65616119 C14.899304,5.66969633 14.8847971,5.67309746 14.8729972,5.66601755 L14.7513892,5.59431601 C14.7405611,5.58772197 14.737507,5.57453389 14.7434069,5.56356695 C14.7735313,5.50887111 14.7806806,5.44383303 14.7671455,5.384209 C14.7337588,5.24601176 14.5949369,5.17236672 14.4577808,5.20505929 C14.3224988,5.23768244 14.2346939,5.36685626 14.2676641,5.50456763 C14.2815463,5.56231756 14.3170847,5.61944278 14.3658807,5.65407886 C14.3749735,5.66101996 14.3785134,5.67691507 14.3717806,5.68642437 L14.2936932,5.80574183 C14.2870298,5.81615348 14.2707182,5.81892991 14.260376,5.81240528 C14.1601465,5.74882483 14.0969131,5.65248241 14.0709534,5.54392365 C14.0121623,5.3000135 14.1596607,5.05714451 14.403779,4.99890871 L14.403779,4.99890871 Z M15.046594,6.93658537 C15.0213979,7.18653427 14.8006016,7.36610045 14.5510691,7.34132074 C14.3013284,7.31612455 14.1226646,7.09664706 14.1473055,6.84683698 C14.1725017,6.59737395 14.3910768,6.4186407 14.6407481,6.44348983 C14.8902111,6.46854719 15.0710961,6.68670587 15.046594,6.93658537 L15.046594,6.93658537 Z M13.9930049,9.53609563 L13.6547653,9.93014171 C13.6451865,9.94096983 13.6308185,9.94096983 13.6211703,9.93312639 L13.5170539,9.84414152 C13.507614,9.83602044 13.5056705,9.82088885 13.5147633,9.81040779 L13.7409043,9.54636846 L13.6037482,9.42913333 L13.4173797,9.64611202 C13.4093975,9.65569074 13.3930165,9.65700954 13.3833684,9.64881905 L13.2798072,9.55962595 C13.2705755,9.55192133 13.2691179,9.53560976 13.2777943,9.52589222 L13.4636074,9.30884411 L13.2318442,9.11081461 C13.2227514,9.1024853 13.2217796,9.08693724 13.2295536,9.07708088 L13.3261737,8.96470452 C13.3349889,8.9544317 13.3504676,8.95401523 13.359491,8.9620669 L13.9898814,9.50215367 C13.9993907,9.51096886 14.0011954,9.52589222 13.9930049,9.53609563 L13.9930049,9.53609563 Z M12.9480922,10.5345724 L12.5108725,10.8148539 C12.4993502,10.8222115 12.4848433,10.8186716 12.4781105,10.8078434 L12.4041878,10.6927601 C12.397802,10.682279 12.399329,10.6668698 12.4114759,10.6599287 L12.7040432,10.472172 L12.6197089,10.3411241 L12.3789916,10.4954941 C12.368927,10.5020881 12.3531013,10.4992423 12.3460214,10.4884142 L12.2724458,10.3736778 C12.2646717,10.3611144 12.268767,10.3468158 12.2790398,10.34043 L12.5203818,10.1857823 L12.4288287,10.0430734 L12.1360532,10.2310383 C12.1247392,10.2386735 12.1102323,10.2346476 12.1034995,10.2237501 L12.0295768,10.1089444 C12.0221498,10.0986021 12.024718,10.0836094 12.0368649,10.0759048 L12.4733211,9.79534561 C12.485468,9.78819628 12.4999055,9.79187506 12.5066384,9.80270317 L12.9552415,10.5014634 C12.9619049,10.5119445 12.9594756,10.5269372 12.9480922,10.5345724 L12.9480922,10.5345724 Z M11.6304637,11.2035554 L11.1303577,11.3444597 C11.1171002,11.3479302 11.1046062,11.3396703 11.1014133,11.3275928 L11.0639314,11.1955037 C11.0602526,11.1837733 11.0671243,11.170724 11.0802429,11.167184 L11.4148038,11.0724381 L11.3734349,10.9226492 L11.097318,11.0001118 C11.0857958,11.0035824 11.0711501,10.9959472 11.0683043,10.983592 L11.0310306,10.8515029 C11.0273518,10.8384537 11.0351258,10.8256821 11.0474115,10.8229056 L11.3224872,10.7450959 L11.2770925,10.582119 L10.9424622,10.6758932 C10.9292741,10.6794331 10.9168495,10.6717285 10.9131707,10.6599287 L10.8756194,10.5278396 C10.872843,10.5161091 10.8792982,10.5027128 10.8925557,10.4985482 L11.3925923,10.3577133 C11.4059192,10.3541733 11.4183438,10.3627803 11.4219531,10.3748578 L11.6469141,11.1741945 C11.6502458,11.1860638 11.6439294,11.1993907 11.6304637,11.2035554 L11.6304637,11.2035554 Z M10.0727427,10.1326829 C8.03830714,10.1581568 6.36848742,8.5299142 6.34329124,6.49596452 C6.317748,4.46159838 7.94585173,2.7914316 9.98007905,2.76602719 C12.014237,2.74055336 13.6847508,4.36879591 13.7100858,6.40350911 C13.735282,8.43745879 12.1070394,10.1075562 10.0727427,10.1326829 L10.0727427,10.1326829 Z M9.33851345,11.2678994 C9.18546226,11.2831698 9.043378,11.1675311 9.02796877,11.0144799 C9.0123513,10.8589299 9.12778174,10.714208 9.27965295,10.6990764 C9.43652174,10.6825566 9.58124361,10.80118 9.59706931,10.957077 C9.61268678,11.1097812 9.49343874,11.2516572 9.33851345,11.2678994 L9.33851345,11.2678994 Z M8.06107394,10.108042 L7.63010122,10.8174916 C7.62371542,10.8279726 7.60927793,10.832762 7.59740866,10.8256821 L7.46997011,10.7482194 C7.45900318,10.741556 7.45518558,10.7259385 7.46198785,10.7151104 L7.80952858,10.1426087 L7.55451268,9.98796105 C7.54250458,9.98074231 7.5400752,9.96561072 7.54673865,9.9547132 L7.61760725,9.83824159 C7.62399306,9.82727466 7.63822231,9.82324882 7.64995276,9.83032874 L8.05364697,10.0751412 C8.06489155,10.0824294 8.06766798,10.0974222 8.06107394,10.108042 L8.06107394,10.108042 Z M6.87296635,9.77445291 C6.68361323,9.93854044 6.40020823,9.92063241 6.23584305,9.73093223 C6.070992,9.5409544 6.09223176,9.25692471 6.28151547,9.09249012 C6.47093801,8.92861082 6.7536489,8.94943411 6.91794466,9.138579 C7.08217102,9.32862624 7.06218066,9.61015714 6.87296635,9.77445291 L6.87296635,9.77445291 Z M5.52563,8.66929143 L5.463646,8.51443555 C5.45996722,8.50485684 5.463646,8.49388991 5.468713,8.48937819 L5.81715608,8.12733057 L5.81451846,8.12025065 L5.31260773,8.09748385 C5.3054584,8.09748385 5.29525499,8.09227803 5.2915068,8.08311578 L5.23021691,7.92777403 C5.22285935,7.91028246 5.23438157,7.89535911 5.25256724,7.89626145 L6.18225778,7.94949966 C6.19114239,7.95019377 6.19981876,7.95491372 6.20342813,7.96400656 L6.20821749,7.97580642 C6.21141039,7.98524631 6.20877278,7.99440856 6.20328931,8.00065555 L5.56345898,8.67692664 C5.55110383,8.69011472 5.53250169,8.68692182 5.52563,8.66929143 L5.52563,8.66929143 Z M5.05217777,7.04451943 L5.01323821,6.52650535 C5.01212764,6.5122761 5.02274752,6.50179504 5.03517208,6.50096211 L5.17156464,6.49034223 C5.18433626,6.48964812 5.19627494,6.49881037 5.1972467,6.51255375 L5.2232064,6.85891449 L5.3782011,6.84732286 L5.35703075,6.562252 C5.35612841,6.54968861 5.36640123,6.53719464 5.37910344,6.53650053 L5.51542659,6.52650535 C5.52930878,6.52539477 5.53999807,6.53594524 5.54090041,6.54823098 L5.56220958,6.83357949 L5.73094765,6.82115492 L5.70498795,6.4743083 C5.70415502,6.46084257 5.71435843,6.44966741 5.72699123,6.44876506 L5.8634532,6.43856165 C5.87573894,6.4375899 5.88795527,6.44702979 5.88871879,6.46084257 L5.92786658,6.97844018 C5.92897715,6.99211414 5.91856551,7.00301166 5.90579389,7.00439988 L5.07772101,7.06638388 C5.06487998,7.0671474 5.05328834,7.05784633 5.05217777,7.04451943 L5.05217777,7.04451943 Z M5.73414056,4.43043285 C5.89038465,4.41446833 6.03510653,4.53274463 6.05127928,4.68871108 C6.06668852,4.84113757 5.94757929,4.98363829 5.79244577,4.99911694 C5.63946399,5.01480382 5.49744915,4.89895691 5.48210932,4.74639159 C5.46628362,4.59035573 5.58143642,4.44577268 5.73414056,4.43043285 L5.73414056,4.43043285 Z M6.33690543,3.04138051 L6.70408946,2.67447412 C6.71422346,2.66447894 6.72907741,2.66545069 6.73796202,2.67447412 L6.83472091,2.77088595 C6.84332787,2.77983997 6.84429962,2.79504097 6.83472091,2.80441145 L6.58893666,3.05012629 L6.71658344,3.1779813 L6.9187776,2.97571773 C6.92752338,2.96676371 6.94376555,2.96676371 6.95285838,2.97571773 L7.0491314,3.07254603 C7.05822424,3.08150005 7.05794659,3.09739516 7.0491314,3.10600212 L6.84672901,3.30861274 L7.06218066,3.52441145 C7.07113468,3.532949 7.07113468,3.54891353 7.06218066,3.55814518 L6.95730068,3.66253928 C6.94758315,3.67232623 6.93279861,3.6714933 6.9238446,3.66253928 L6.33690543,3.07511424 C6.32781259,3.06629905 6.32718789,3.05088981 6.33690543,3.04138051 L6.33690543,3.04138051 Z M7.46157139,2.1195334 L7.79411935,1.94607539 C7.92766606,1.8765256 8.09300299,1.92712619 8.16185867,2.05963174 C8.21544394,2.16180469 8.19038658,2.28028921 8.11389569,2.3694129 L8.41388991,2.57237058 C8.42888268,2.58243517 8.43040972,2.60436903 8.41166876,2.61436421 L8.26382339,2.69154921 C8.25479996,2.69633857 8.24542948,2.69432565 8.24064012,2.69078569 L7.93884122,2.47311289 L7.8621421,2.51337125 L8.01005688,2.79684566 C8.01602622,2.80822906 8.01116745,2.82315241 8.0000617,2.82932999 L7.86790321,2.89790803 C7.85547865,2.90484913 7.84138822,2.89929625 7.83548829,2.88798226 L7.4515068,2.15174009 C7.44560686,2.14049552 7.44942447,2.12605804 7.46157139,2.1195334 L7.46157139,2.1195334 Z M8.9389839,1.53405187 L9.45075099,1.4444423 C9.46456377,1.44215174 9.47587776,1.45152222 9.47858479,1.46394678 L9.50218452,1.59846525 C9.5039892,1.61068158 9.49593753,1.62386966 9.48274945,1.6260214 L9.14048395,1.68599248 L9.16713776,1.83932131 L9.44859925,1.7899007 C9.46102381,1.78767955 9.47428131,1.79725827 9.47684951,1.80954401 L9.50031042,1.94420129 C9.50218452,1.9575282 9.49295286,1.96974453 9.48052829,1.97189627 L9.1989974,2.02096983 L9.22787236,2.1878338 L9.57062373,2.12793213 C9.58381182,2.12598862 9.59588933,2.13473441 9.59755519,2.14729779 L9.6216408,2.28216331 C9.62330666,2.29465728 9.61560204,2.30708185 9.60248337,2.309303 L9.09029982,2.39905138 C9.07676468,2.401689 9.06510363,2.39211029 9.06302131,2.37947749 L8.91989588,1.56139979 C8.91725827,1.54904464 8.92558758,1.53627302 8.9389839,1.53405187 L8.9389839,1.53405187 Z M10.2463395,2.17186928 L10.3169305,2.07497156 C10.3287304,2.06011761 10.3524689,2.06539285 10.3602429,2.07240335 C10.3649629,2.07545744 10.4468678,2.15174009 10.5296751,2.16131881 C10.5795816,2.16721874 10.6190764,2.14028728 10.6237964,2.09648896 C10.6296963,2.04443073 10.5908262,1.99903596 10.5100318,1.95586233 C10.4078589,1.90102767 10.2826415,1.80218645 10.3003413,1.65267521 C10.3147788,1.52933192 10.4245869,1.41577557 10.6165082,1.43805649 C10.7463068,1.45270221 10.8383457,1.53044249 10.872843,1.56230213 C10.8867252,1.57278319 10.8812417,1.59471705 10.8753418,1.60304637 L10.8004473,1.69154536 C10.7904521,1.70431698 10.7669218,1.71257688 10.7567184,1.70306758 C10.7460985,1.69522414 10.6626665,1.6165121 10.5868003,1.60741926 C10.5418914,1.60214403 10.5047566,1.62824255 10.5010778,1.66211511 C10.4955249,1.70799576 10.5296751,1.74735178 10.6232411,1.79857708 C10.7159742,1.84841415 10.8613207,1.94246602 10.8414692,2.11175938 C10.8271011,2.24016967 10.7014673,2.35712716 10.5180141,2.33574858 C10.35587,2.3169382 10.2743816,2.23926733 10.2484219,2.20740769 C10.2375938,2.1935255 10.2345397,2.1878338 10.2463395,2.17186928 L10.2463395,2.17186928 Z M11.44,2.4959491 L11.7880266,1.7424236 C11.7935795,1.73090138 11.8087805,1.72527909 11.8204415,1.73048491 L11.9554459,1.79316302 C11.9682175,1.79906295 11.9724516,1.81363926 11.9676622,1.8246756 L11.8348096,2.11175938 L12.1606941,2.26189531 L12.2928526,1.97515858 C12.2977114,1.96377519 12.3114547,1.95787525 12.3242264,1.96377519 L12.4602719,2.02617565 C12.4709611,2.03124265 12.4769999,2.04644365 12.4715164,2.05789646 L12.1232816,2.81142196 C12.1178675,2.82287477 12.1028748,2.8287747 12.0912137,2.82315241 L11.9562094,2.76075195 C11.9435072,2.75506025 11.9392037,2.74055336 11.9447566,2.72903114 L12.0830926,2.42945339 L11.7571387,2.27931746 L11.6186638,2.57889521 C11.6139439,2.5902092 11.6001311,2.59583149 11.5873595,2.59048684 L11.4520775,2.52787815 C11.4405553,2.52239468 11.4352801,2.50740191 11.44,2.4959491 L11.44,2.4959491 Z M9.96696038,0.969879495 C6.95494071,1.0078473 4.54415887,3.47964138 4.58205726,6.49145281 C4.61967801,9.50312542 7.09188856,11.9141849 10.1034223,11.8762171 C13.115095,11.8385964 15.5265709,9.36652463 15.4886031,6.3547132 C15.4504965,3.34276294 12.9787024,0.931772872 9.96696038,0.969879495 L9.96696038,0.969879495 Z M6.41339632,9.24443073 C6.30914104,9.33515087 6.29650824,9.49521257 6.38722838,9.59946785 C6.47683794,9.70275137 6.63738552,9.71309361 6.74136315,9.62285935 C6.8447855,9.53331919 6.85609949,9.37388219 6.76621228,9.27004338 C6.6758392,9.16634339 6.51654102,9.15482117 6.41339632,9.24443073 L6.41339632,9.24443073 Z M14.6208271,6.64339343 C14.4842264,6.62965005 14.3610913,6.73112889 14.3471397,6.86738263 C14.334021,7.00439988 14.4351528,7.12774318 14.5705736,7.14141714 C14.7085626,7.15488287 14.8331553,7.05402873 14.8469681,6.91687265 C14.860295,6.78034127 14.7580526,6.65699798 14.6208271,6.64339343 L14.6208271,6.64339343 Z M7.95320929,2.28618914 C7.99846525,2.26238118 8.01581799,2.19956425 7.99124651,2.15292008 C7.96709149,2.10634532 7.90809216,2.0885067 7.86262798,2.11224525 L7.69833221,2.19866191 L7.78835824,2.37205052 L7.95320929,2.28618914 L7.95320929,2.28618914 Z M11.5187815,7.24699123 C11.5145474,7.25476526 11.5111462,7.26163694 11.5062875,7.26934156 C11.5026781,7.27774029 11.4989993,7.28523667 11.49421,7.2930107 C10.9090061,8.38713583 10.0987024,8.7646621 9.36190495,8.59918635 C9.3059597,8.58641473 9.22898294,8.51304733 9.37356599,8.43523764 C9.43048298,8.39268871 9.48323532,8.34736335 9.53557119,8.29905331 C9.69938109,8.14655741 9.83757833,7.96726887 9.95363347,7.77805456 C10.1631158,7.42995855 10.3069353,7.05243228 10.3771098,6.664772 C10.3880767,6.61014557 10.3982802,6.55510267 10.4059154,6.49999036 L10.4066789,6.49943507 L10.4066789,6.4983245 C10.4626935,6.13634628 10.5418914,5.78477972 10.6626665,5.44876121 C10.7222906,5.28141136 10.7940615,5.11815675 10.8788817,4.95969151 C10.9208059,4.88091005 10.9676583,4.80358623 11.0175648,4.72758122 C11.0886417,4.62166008 11.2096944,4.55377615 11.3755866,4.70412031 C11.9619705,5.21887207 12.1215463,6.12149234 11.5187815,7.24699123 L11.5187815,7.24699123 Z M9.13333462,8.21888364 C9.06121662,8.32459655 8.9396086,8.39289694 8.77406343,8.24262219 C8.18781837,7.72724573 8.02824255,6.82490311 8.63079919,5.69975128 C8.6353109,5.69183843 8.63947556,5.6846891 8.64357081,5.67642919 C8.64842958,5.66844693 8.65120602,5.66178348 8.6555095,5.65345416 C9.24154632,4.55974549 10.0507394,4.18138629 10.7886475,4.34769498 C10.8438986,4.3604666 10.9208059,4.43334812 10.7767088,4.51157428 C10.7201388,4.55342909 10.6663453,4.59889328 10.6142871,4.64748096 C10.4505466,4.8001851 10.312627,4.97947363 10.1965719,5.16931264 C9.98750603,5.51685337 9.84354767,5.89389376 9.77274848,6.28155403 C9.76192037,6.3370134 9.75192519,6.39094572 9.74394293,6.44619686 C9.74394293,6.44619686 9.74394293,6.44619686 9.74394293,6.44668273 L9.74394293,6.44779331 C9.68841415,6.81067386 9.60810566,7.16182397 9.4875388,7.49687072 C9.42729008,7.66540056 9.35565796,7.8288634 9.27153186,7.98649571 C9.22898294,8.06652656 9.18178348,8.14371156 9.13333462,8.21888364 L9.13333462,8.21888364 Z M9.98382724,3.049571 C8.10626048,3.07275427 6.60295768,4.61423311 6.62676564,6.49235515 C6.65015714,8.36999132 8.19149716,9.87301649 10.0690639,9.84962499 C11.9470471,9.82588644 13.4500723,8.2844076 13.4269584,6.40718789 C13.4031505,4.5287882 11.8614634,3.02583245 9.98382724,3.049571 L9.98382724,3.049571 Z" id="stamp" fill="#F1A84B" sketch:type="MSShapeGroup"></path>
            <g id="text" sketch:type="MSLayerGroup" transform="translate(4.000000, 13.000000)" fill="#1A1918">
                <path d="M2.44261834,3.580268 C2.34530416,3.70263954 1.9659732,3.83660272 1.66257785,3.69569845 C1.60871493,3.58373855 1.65702497,3.20655934 1.64085221,2.4863511 C1.65702497,1.80910826 1.65959317,1.46476044 1.67722356,1.41381278 C1.81431023,1.40263762 2.02538899,1.38667309 2.26929914,1.46448279 C2.55811819,1.56179697 2.53840548,1.95709245 2.59962595,2.19933674 C2.63551142,2.44449629 2.63551142,2.66994312 2.64307722,2.82174491 C2.65924998,3.35988817 2.56353225,3.44505543 2.44261834,3.580268 L2.44261834,3.580268 Z M3.16109129,1.02740191 C2.98922973,0.697075099 2.41006459,0.523894727 2.14477586,0.480859925 C1.87941772,0.437200424 1.27804107,0.458926058 0.677080883,0.486273981 C0.200088692,0.464340114 0.308786272,0.66639545 0.29434879,1.08508243 C0.250966933,1.29491179 0.424286127,1.31622096 0.424286127,1.31622096 L0.806809987,1.34516533 L0.770855105,2.93370481 L0.698598284,5.82918346 C0.698598284,5.82918346 0.705817025,6.10370385 0.669584498,6.12549889 C0.471277355,6.11453196 0.446219994,6.12515184 0.417067386,6.26591729 C0.372158488,6.48247951 0.438584787,6.86569748 0.438584787,6.86569748 C0.460310421,6.96648221 0.546657669,6.95981876 0.546657669,6.95981876 C0.546657669,6.95981876 1.26547768,6.98841608 1.6123243,6.98841608 C1.88288827,6.98841608 1.8470028,6.84022366 1.8470028,6.84022366 C1.8470028,6.64545647 1.86421672,6.60901571 1.83957582,6.32790128 C1.82513834,6.18658055 1.78182589,6.1400752 1.58705871,6.13278704 C1.58705871,6.13278704 1.59039044,5.86201485 1.59399981,5.51905524 C1.5983727,5.10612937 1.61662778,4.63330184 1.61662778,4.63330184 C1.61662778,4.63330184 1.78911405,4.61358913 1.96222501,4.61456088 C2.23501012,4.61608792 2.63467849,4.63330184 2.92099875,4.46463318 C3.24507857,4.27403066 3.30213439,3.9162171 3.37015714,3.54771426 C3.41388605,3.28749253 3.4679572,2.66675022 3.44623156,2.34884797 C3.4426916,1.98450979 3.33246698,1.35765931 3.16109129,1.02740191 L3.16109129,1.02740191 Z" id="Fill-4" sketch:type="MSShapeGroup"></path>
                <path d="M5.37099778,4.74609467 C5.38252,4.81023041 5.43971464,5.26244288 5.45102863,5.33539381 C5.47254603,5.55820303 5.47081076,5.663083 5.44339343,5.82418587 C5.4413111,5.83216813 5.42263954,5.90671551 5.34691218,5.95676082 C5.2382146,6.0173566 5.23314759,6.0173566 5.08995276,6.04442688 C4.7959973,6.03894341 4.71902053,6.00361323 4.57756098,5.82730936 C4.44748482,5.57860985 4.46268582,5.26910633 4.46969633,4.98979659 C4.50426299,4.73214306 4.49405958,4.31345609 4.81272534,4.29374337 C5.21058903,4.25549793 5.25716379,4.39952569 5.29332691,4.45894148 C5.32955943,4.5184961 5.36766606,4.68841415 5.37099778,4.74609467 L5.37099778,4.74609467 Z M4.63989203,3.50752531 C4.73540152,3.51009351 4.80745011,3.47150101 4.80745011,3.2600752 C4.80057842,3.07197146 4.90407018,2.94140943 5.09696327,3.00568399 C5.14527331,3.0171368 5.29686687,3.09529355 5.29908802,3.35482117 C5.3021421,3.70513834 5.29443748,3.73387448 5.29443748,3.73387448 C5.29443748,3.73387448 4.97722935,3.68584209 4.46268582,3.83299335 C4.12278029,3.96147306 3.78072303,4.13083582 3.73602237,4.67723899 C3.69409814,5.30540827 3.74580931,5.70806131 3.901984,6.02950352 C4.05843633,6.3514316 4.36176227,6.83862721 4.94981201,6.79274655 C5.24411453,6.75575051 5.55639449,6.5905524 5.55639449,6.61803914 C5.55639449,6.64545647 5.57492721,6.78344548 5.57492721,6.81093223 C5.58061891,6.85112118 5.57062373,6.89124072 5.79558469,6.88450786 C6.02172563,6.88450786 6.3834262,6.86541984 6.41237058,6.86257399 C6.46894052,6.85840933 6.48705678,6.83862721 6.48858382,6.60179697 C6.46540056,6.32845657 6.51260002,6.23766702 6.11549986,6.25293743 C6.12584209,5.94273981 6.08023908,4.65107105 6.08023908,4.65107105 C6.08023908,4.65107105 5.97043093,3.22599441 5.86874385,2.94140943 C5.86874385,2.94140943 5.74949581,2.45192326 5.19358334,2.3623137 C4.95446255,2.31643305 4.70180661,2.24278801 4.3524612,2.52778945 C4.14735178,2.75281982 4.01602622,3.1456165 4.01602622,3.36599634 C4.01602622,3.36599634 4.0038793,3.42367685 4.13506604,3.44637424 L4.63989203,3.50752531 L4.63989203,3.50752531 Z" id="Fill-6" sketch:type="MSShapeGroup"></path>
                <path d="M8.11286995,3.84583438 C8.10398535,3.90955365 8.14132845,3.92829461 8.27279283,3.93440278 C8.6977962,3.93759568 8.82454063,3.9902092 8.81787718,3.79606671 C8.83460523,3.61143353 8.83793695,3.39910537 8.81156078,3.21808156 C8.78497638,3.03684951 8.69286802,2.65342331 8.48199749,2.54312928 C8.3156194,2.45414441 8.15257303,2.41110961 7.78393136,2.49363926 C7.63566953,2.53320351 7.35052926,2.61517787 7.1812359,2.88039718 C7.01117902,3.1456165 6.88811337,3.38314085 6.85195026,3.9491179 C6.80905428,4.48628941 6.80565314,4.99326714 6.80565314,4.99326714 C6.80565314,4.99326714 6.79600501,5.99597802 6.95238793,6.25293743 C7.04768919,6.42639545 7.28327003,6.94961535 7.97807385,6.93649667 C8.51482888,6.94031428 8.65316495,6.83800251 8.83460523,6.6798149 C8.91012436,6.61248626 9.0122279,6.50510749 9.03534175,6.31068736 C9.04346284,6.11585077 9.01597609,6.04539863 8.86341078,5.91629423 C8.83106527,5.8926945 8.75054854,5.79059096 8.37309168,5.7801099 C8.32401812,5.776917 8.18332209,5.76969826 8.09142196,5.9407963 C8.08718789,5.95294322 8.06525402,5.96758893 8.07052926,6.1097426 C8.07372216,6.19206401 8.05158006,6.31644847 7.94024487,6.31485202 C7.80211703,6.31797551 7.71889328,6.17866769 7.69175359,6.07663357 C7.65205052,5.92969054 7.54633761,5.50690832 7.51704618,5.07232623 C7.51052155,4.50600212 7.53342717,4.05781548 7.55320929,3.98194929 C7.57299142,3.79127735 7.65329991,3.47309746 7.68821363,3.39910537 C7.707024,3.35961053 7.77164562,3.25597995 7.84959414,3.25278704 C7.93580256,3.24890003 7.99896655,3.34017546 8.04227899,3.40903114 C8.08434204,3.49350429 8.10676179,3.57506218 8.11148173,3.6643941 C8.11640991,3.75206016 8.11286995,3.84583438 8.11286995,3.84583438" id="Fill-7" sketch:type="MSShapeGroup"></path>
                <path d="M9.7923378,2.34662682 L9.78303673,1.64751952 C9.78303673,1.64751952 9.7923378,1.40166586 9.99411549,1.40805167 C10.1611877,1.39847296 10.2303904,1.40166586 10.325067,1.41728333 C10.4196742,1.43359491 10.5361458,1.47433915 10.5612031,1.713807 C10.5895922,1.92807867 10.5612031,2.3186542 10.5647431,2.43214114 C10.6905852,2.45095151 10.7573585,2.46469488 10.9502516,2.48350525 C10.9502516,2.48350525 11.4332826,2.50675793 11.5035265,2.55201388 C11.5739092,2.59726984 11.5776574,2.66078087 11.5864726,2.71679553 C11.6073653,2.84916225 11.6241627,3.04038947 11.542466,3.10549696 C11.473055,3.15394582 10.9426858,3.19191362 10.6145802,3.1854584 C10.6054873,3.44984479 10.5403104,4.64537935 10.5403104,4.64537935 C10.516086,5.34906777 10.5442668,5.6915415 10.5656454,5.79669912 C10.5865381,5.9015791 10.6453986,6.14361515 10.8554362,6.10564735 C10.9698255,6.08329702 10.9753784,6.07635592 11.1002487,5.90504965 C11.171395,5.82918346 11.1536952,5.75866191 11.5110228,5.8977615 C11.796649,6.03616697 11.9644847,6.13056589 11.8258016,6.40827919 C11.6872573,6.68522896 11.6156252,6.91005109 11.1578598,6.99008194 C10.9939111,6.99008194 10.4522279,7.01493107 10.1074636,6.62824255 C9.99834956,6.49427938 9.86369228,6.3469893 9.80510942,5.82196472 C9.77574858,5.43138918 9.73764196,5.19192133 9.74611009,4.91420804 C9.75471705,4.63649475 9.7670028,3.64114142 9.7670028,3.64114142 L9.76283814,3.12847199 C9.76283814,3.12847199 9.29035766,3.15838812 9.22934542,3.10549696 C9.07983418,3.02164851 9.08649764,2.64634339 9.17284489,2.51758604 C9.22705485,2.43595874 9.77123686,2.47732768 9.78616022,2.46240432 C9.80080594,2.44803625 9.79455895,2.39771329 9.7923378,2.34662682" id="Fill-9" sketch:type="MSShapeGroup"></path>
            </g>
        </g>
    </g>
</svg>