<?xml version="1.0" encoding="UTF-8" standalone="no"?>
<svg width="20px" height="8px" viewBox="0 0 20 8" version="1.1" xmlns="http://www.w3.org/2000/svg" xmlns:xlink="http://www.w3.org/1999/xlink" xmlns:sketch="http://www.bohemiancoding.com/sketch/ns">
    <!-- Generator: Sketch 3.3.3 (12072) - http://www.bohemiancoding.com/sketch -->
    <title>pactH</title>
    <desc>Created with Sketch.</desc>
    <defs></defs>
    <g id="Icons" stroke="none" stroke-width="1" fill="none" fill-rule="evenodd" sketch:type="MSPage">
        <g id="pactH" sketch:type="MSArtboardGroup">
            <g id="text" sketch:type="MSLayerGroup" transform="translate(8.000000, 0.000000)" fill="#1A1918">
                <path d="M2.87148289,3.72281369 C2.77749049,3.84129278 2.41064639,3.97064639 2.11764259,3.83475285 C2.06547529,3.72653992 2.11231939,3.361673 2.09665399,2.66585551 C2.11231939,2.01140684 2.1148289,1.67870722 2.13178707,1.62958175 C2.2643346,1.61893536 2.46813688,1.6034981 2.70395437,1.67855513 C2.98319392,1.77239544 2.96403042,2.15444867 3.02311787,2.38836502 C3.05779468,2.62562738 3.05779468,2.84342205 3.0651711,2.99019011 C3.08060837,3.51034221 2.98828897,3.59224335 2.87148289,3.72281369 L2.87148289,3.72281369 Z M3.56577947,1.25634981 C3.39961977,0.937110266 2.83992395,0.769581749 2.58357414,0.727908745 C2.3269962,0.685855513 1.74608365,0.706768061 1.16532319,0.733003802 C0.704334601,0.711939163 0.809429658,0.907680608 0.795437262,1.31171103 C0.753612167,1.51444867 0.921140684,1.53536122 0.921140684,1.53536122 L1.29064639,1.56304183 L1.25604563,3.09825095 L1.18593156,5.89634981 C1.18593156,5.89634981 1.19292776,6.16159696 1.15809886,6.18243346 C0.966463878,6.17209125 0.942129278,6.18220532 0.914144487,6.3181749 C0.870646388,6.52745247 0.934752852,6.89787072 0.934752852,6.89787072 C0.955969582,6.99536122 1.03923954,6.98882129 1.03923954,6.98882129 C1.03923954,6.98882129 1.73391635,7.01627376 2.06897338,7.01627376 C2.33057034,7.01627376 2.29589354,6.87323194 2.29589354,6.87323194 C2.29589354,6.68486692 2.31254753,6.64996198 2.28851711,6.37809886 C2.27490494,6.241673 2.23285171,6.19642586 2.04463878,6.1895057 C2.04463878,6.1895057 2.04798479,5.92790875 2.05148289,5.59642586 C2.05551331,5.19741445 2.07338403,4.74068441 2.07338403,4.74068441 C2.07338403,4.74068441 2.23984791,4.72144487 2.40722433,4.72243346 C2.67064639,4.72403042 3.05695817,4.74068441 3.33376426,4.57771863 C3.64692015,4.39346008 3.70220532,4.04768061 3.76790875,3.69148289 C3.81019011,3.44045627 3.86228137,2.84015209 3.84129278,2.53315589 C3.83794677,2.1808365 3.73125475,1.57513308 3.56577947,1.25634981 L3.56577947,1.25634981 Z" id="Fill-1" sketch:type="MSShapeGroup"></path>
                <path d="M5.70136882,4.84973384 C5.71224335,4.91171103 5.76768061,5.34859316 5.77855513,5.41923954 C5.79939163,5.63437262 5.79771863,5.73551331 5.77125475,5.89155894 C5.76904943,5.8991635 5.75117871,5.97125475 5.67787072,6.01946768 C5.57292776,6.07802281 5.56798479,6.07802281 5.42973384,6.10410646 C5.14555133,6.09893536 5.07140684,6.06479087 4.93452471,5.89437262 C4.80882129,5.65391635 4.82372624,5.3548289 4.8304943,5.08524715 C4.86380228,4.83634981 4.8539924,4.43171103 5.16159696,4.41262357 C5.54638783,4.37536122 5.5913308,4.5148289 5.62631179,4.5721673 C5.66114068,4.62996198 5.69802281,4.7939924 5.70136882,4.84973384 L5.70136882,4.84973384 Z M4.99467681,3.6530038 C5.08707224,3.65528517 5.15688213,3.61802281 5.15688213,3.4139924 C5.15003802,3.23178707 5.25003802,3.10562738 5.4365019,3.16768061 C5.48326996,3.17863118 5.62965779,3.25414449 5.63193916,3.50509506 C5.6348289,3.84365019 5.62730038,3.8713308 5.62730038,3.8713308 C5.62730038,3.8713308 5.32091255,3.82486692 4.82372624,3.96745247 C4.49520913,4.09140684 4.16456274,4.25498099 4.12136882,4.78288973 C4.08091255,5.38980989 4.13079848,5.77901141 4.281673,6.08980989 C4.43292776,6.40091255 4.7261597,6.87186312 5.29429658,6.82722433 C5.57870722,6.79171103 5.88038023,6.63193916 5.88038023,6.65855513 C5.88038023,6.68486692 5.89840304,6.81847909 5.89840304,6.84479087 C5.90387833,6.88403042 5.8939924,6.92250951 6.1113308,6.91596958 C6.33003802,6.91596958 6.67954373,6.89749049 6.70760456,6.89460076 C6.76197719,6.89087452 6.77977186,6.87186312 6.78114068,6.64311787 C6.75870722,6.37847909 6.80448669,6.29095057 6.42053232,6.30577947 C6.43064639,6.00593156 6.38653992,4.75779468 6.38653992,4.75779468 C6.38653992,4.75779468 6.28038023,3.38091255 6.18250951,3.10562738 C6.18250951,3.10562738 6.06692015,2.63269962 5.52988593,2.5460076 C5.29870722,2.5018251 5.05444867,2.43057034 4.71711027,2.70608365 C4.51885932,2.92357414 4.39186312,3.30273764 4.39186312,3.51574144 C4.39186312,3.51574144 4.38015209,3.57163498 4.50714829,3.59346008 L4.99467681,3.6530038 L4.99467681,3.6530038 Z" id="Fill-2" sketch:type="MSShapeGroup"></path>
                <path d="M8.35087452,3.97939163 C8.34220532,4.04144487 8.378327,4.05923954 8.50547529,4.06532319 C8.91589354,4.06813688 9.03863118,4.11931559 9.03224335,3.93148289 C9.04828897,3.75330798 9.0513308,3.54821293 9.0260076,3.37315589 C9.00022814,3.19802281 8.91125475,2.82760456 8.70760456,2.72053232 C8.54669202,2.63467681 8.38927757,2.59307985 8.03292776,2.6730038 C7.88965779,2.71102662 7.61414449,2.79041825 7.45057034,3.04684411 C7.28631179,3.30326996 7.16737643,3.53262357 7.13231939,4.07961977 C7.09095057,4.59855513 7.08760456,5.08828897 7.08760456,5.08828897 C7.08760456,5.08828897 7.07809886,6.05741445 7.22942966,6.30577947 C7.32159696,6.47338403 7.54927757,6.97878327 8.22060837,6.96631179 C8.73908745,6.96996198 8.87292776,6.87110266 9.04828897,6.71840304 C9.12121673,6.65346008 9.21992395,6.54920152 9.24212928,6.361673 C9.25003802,6.17323194 9.22342205,6.10532319 9.07604563,5.98053232 C9.04479087,5.9573384 8.96707224,5.85870722 8.60228137,5.84882129 C8.55490494,5.84577947 8.41885932,5.83855513 8.33003802,6.00403042 C8.32608365,6.01589354 8.30471483,6.03019011 8.30988593,6.16745247 C8.3130038,6.24692015 8.29148289,6.36714829 8.18387833,6.36555133 C8.05041825,6.36851711 7.97003802,6.23406844 7.94387833,6.13536122 C7.90555133,5.99338403 7.80326996,5.58471483 7.77505703,5.16509506 C7.7686692,4.61756654 7.79087452,4.18456274 7.80988593,4.1113308 C7.82904943,3.92684411 7.90676806,3.61954373 7.94038023,3.54821293 C7.95855513,3.50988593 8.02098859,3.40973384 8.09642586,3.40661597 C8.17961977,3.40281369 8.2408365,3.49079848 8.2826616,3.55771863 C8.32326996,3.63939163 8.34494297,3.71825095 8.34942966,3.80441065 C8.35422053,3.88897338 8.35087452,3.97939163 8.35087452,3.97939163" id="Fill-3" sketch:type="MSShapeGroup"></path>
                <path d="M9.97376426,2.53125475 L9.96471483,1.85551331 C9.96471483,1.85551331 9.97376426,1.61787072 10.1686692,1.62395437 C10.330038,1.61460076 10.3969582,1.61787072 10.4885171,1.63285171 C10.5798479,1.64836502 10.6923194,1.68813688 10.716654,1.91946768 C10.7440304,2.12646388 10.716654,2.50380228 10.72,2.61353612 C10.8418251,2.63186312 10.9062357,2.64501901 11.0926996,2.66326996 C11.0926996,2.66326996 11.5593156,2.68555133 11.6273764,2.72927757 C11.6952852,2.7730038 11.6990114,2.83452471 11.7074525,2.88874525 C11.7276806,3.01665399 11.7437262,3.20136882 11.6648669,3.26425856 C11.5978707,3.31095057 11.0853232,3.34752852 10.7682129,3.34136882 C10.7595437,3.59703422 10.6964259,4.75224335 10.6964259,4.75224335 C10.6732319,5.43209125 10.7003802,5.76311787 10.7209886,5.86471483 C10.7412167,5.9661597 10.7980228,6.20015209 11.0010646,6.16334601 C11.111635,6.14197719 11.1168821,6.13505703 11.2374144,5.9695057 C11.3063118,5.89634981 11.2891255,5.82828897 11.6342966,5.96243346 C11.9104943,6.09596958 12.0726236,6.18745247 11.9389354,6.45574144 C11.805019,6.72357414 11.7356654,6.94060837 11.293308,7.01787072 C11.1347529,7.01787072 10.6114068,7.04205323 10.278327,6.66828897 C10.1726236,6.53893536 10.0425856,6.3965019 9.98608365,5.88897338 C9.95771863,5.51163498 9.92098859,5.28015209 9.92912548,5.01209125 C9.9373384,4.74395437 9.94920152,3.781673 9.94920152,3.781673 L9.9451711,3.28669202 C9.9451711,3.28669202 9.48851711,3.31528517 9.42965779,3.26425856 C9.28524715,3.18334601 9.29163498,2.82060837 9.37498099,2.69581749 C9.42745247,2.61695817 9.95338403,2.65718631 9.96752852,2.64296578 C9.9818251,2.62897338 9.97604563,2.58 9.97376426,2.53125475" id="Fill-5" sketch:type="MSShapeGroup"></path>
            </g>
            <path d="M5.87155894,6.89726236 C5.85231939,6.89536122 5.43475285,6.89460076 5.50912548,7.36973384 C5.56897338,7.61117871 5.82212928,7.7086692 6.01361217,7.61505703 C6.24920152,7.50038023 6.24106464,7.27878327 6.20288973,7.16570342 C6.16212928,7.04509506 6.14326996,6.9243346 5.87155894,6.89726236 Z M5.99330798,2.24562738 C6.00212928,2.32904943 5.9373384,2.40692015 5.85231939,2.41543726 C5.7686692,2.42410646 5.69087452,2.36091255 5.68243346,2.2773384 C5.67353612,2.19239544 5.73657795,2.1130038 5.82007605,2.10456274 C5.90562738,2.09558935 5.98494297,2.16053232 5.99330798,2.24562738 Z M6.0060076,4.6730038 L6.42038023,4.85878327 C6.42661597,4.86152091 6.42980989,4.86904943 6.42676806,4.87596958 L6.31041825,5.13498099 C6.30760456,5.14220532 6.29961977,5.14448669 6.29346008,5.14174905 L6.22539924,5.11087452 C6.21901141,5.10821293 6.21551331,5.10060837 6.21870722,5.09406844 L6.29634981,4.92022814 L6.20646388,4.88007605 L6.14235741,5.02258555 C6.13946768,5.02882129 6.1313308,5.03193916 6.12486692,5.02904943 L6.05703422,4.99893536 C6.05087452,4.99596958 6.04745247,4.98768061 6.05026616,4.98144487 L6.11437262,4.83863118 L5.96258555,4.77041825 C5.95612167,4.76768061 5.9530038,4.75954373 5.9556654,4.75315589 L5.98904943,4.67939163 C5.99239544,4.67277567 5.99977186,4.67003802 6.0060076,4.6730038 L6.0060076,4.6730038 Z M6.25901141,3.07923954 C6.39224335,3.04707224 6.52532319,3.12874525 6.55726236,3.26228137 C6.57323194,3.32912548 6.56441065,3.38342205 6.53376426,3.43863118 C6.52996198,3.44593156 6.52174905,3.44768061 6.51551331,3.44380228 L6.44904943,3.40463878 C6.44311787,3.40106464 6.44136882,3.39376426 6.44456274,3.3878327 C6.46098859,3.35802281 6.46509506,3.32243346 6.45756654,3.28980989 C6.43946768,3.21422053 6.3634981,3.17406844 6.28851711,3.19186312 C6.21452471,3.20973384 6.16646388,3.28030418 6.18456274,3.35558935 C6.19224335,3.38714829 6.21155894,3.41840304 6.23840304,3.43741445 C6.24342205,3.44106464 6.24524715,3.44980989 6.24152091,3.45498099 L6.19885932,3.52030418 C6.19513308,3.5260076 6.18631179,3.52752852 6.18045627,3.52387833 C6.12577947,3.48912548 6.0913308,3.43634981 6.07703422,3.37718631 C6.04494297,3.24387833 6.12562738,3.11095057 6.25901141,3.07923954 L6.25901141,3.07923954 Z M6.33954373,4.35961977 C6.20288973,4.34593156 6.10532319,4.2260076 6.11863118,4.08942966 C6.13262357,3.9530038 6.25201521,3.85528517 6.38851711,3.86889734 C6.52486692,3.8826616 6.62372624,4.0018251 6.61041825,4.13847909 C6.59657795,4.27513308 6.47574144,4.37338403 6.33954373,4.35961977 L6.33954373,4.35961977 Z M6.03452471,5.55961977 L5.84958175,5.77498099 C5.84425856,5.78098859 5.83642586,5.78098859 5.83102662,5.7765019 L5.77414449,5.72790875 C5.76904943,5.72357414 5.76806084,5.71528517 5.7730038,5.7095057 L5.89657795,5.5651711 L5.8218251,5.50106464 L5.71969582,5.61969582 C5.71551331,5.62501901 5.70646388,5.62570342 5.70114068,5.62114068 L5.64456274,5.57247148 C5.63961977,5.56813688 5.63870722,5.55923954 5.64334601,5.5539924 L5.74509506,5.43528517 L5.61840304,5.3269962 C5.61323194,5.32243346 5.61292776,5.3139924 5.61711027,5.3086692 L5.67003802,5.24730038 C5.67452471,5.24152091 5.68296578,5.24152091 5.68806084,5.24570342 L6.03277567,5.54098859 C6.03787072,5.54570342 6.03870722,5.55406844 6.03452471,5.55961977 L6.03452471,5.55961977 Z M5.46319392,6.10547529 L5.22403042,6.25870722 C5.21787072,6.2626616 5.21003802,6.26060837 5.2061597,6.25467681 L5.1660076,6.19186312 C5.16228137,6.1860076 5.16319392,6.17779468 5.16980989,6.1738403 L5.32965779,6.07125475 L5.28357414,5.99939163 L5.15209125,6.08387833 C5.14653992,6.08768061 5.13794677,6.0860076 5.1339924,6.08 L5.09361217,6.01741445 C5.0895057,6.01057034 5.09178707,6.00288973 5.09726236,5.99931559 L5.22927757,5.91460076 L5.1791635,5.83673004 L5.01923954,5.93946768 C5.01307985,5.94380228 5.0051711,5.94144487 5.00136882,5.93551331 L4.96106464,5.87269962 C4.95703422,5.86707224 4.958327,5.85893536 4.96494297,5.85452471 L5.20365019,5.70121673 C5.21034221,5.69741445 5.21809886,5.69923954 5.22174905,5.7051711 L5.46707224,6.08737643 C5.47064639,6.0930038 5.46935361,6.10121673 5.46319392,6.10547529 L5.46319392,6.10547529 Z M4.74281369,6.47095057 L4.46927757,6.54806084 C4.46235741,6.55011407 4.45536122,6.54547529 4.45361217,6.53893536 L4.43315589,6.46684411 C4.43125475,6.46022814 4.43490494,6.45307985 4.44205323,6.45110266 L4.62501901,6.39939163 L4.60235741,6.31756654 L4.45140684,6.35992395 C4.44501901,6.361673 4.43703422,6.35756654 4.43543726,6.35087452 L4.41513308,6.27878327 C4.41307985,6.27148289 4.41741445,6.26441065 4.42410646,6.26304183 L4.57452471,6.22030418 L4.54973384,6.1313308 L4.36676806,6.1826616 C4.35954373,6.18463878 4.35262357,6.18038023 4.35079848,6.1738403 L4.33019011,6.10174905 C4.32859316,6.09528517 4.3321673,6.08813688 4.33939163,6.08562738 L4.61269962,6.00859316 C4.62007605,6.00669202 4.62692015,6.01140684 4.62897338,6.01825095 L4.75171103,6.45505703 C4.75361217,6.46152091 4.75034221,6.4686692 4.74281369,6.47095057 L4.74281369,6.47095057 Z M3.89125475,5.88570342 C2.77901141,5.89954373 1.86608365,5.00942966 1.85247148,3.89756654 C1.83840304,2.78532319 2.72851711,1.87239544 3.84060837,1.85840304 C4.95262357,1.84441065 5.86593156,2.73460076 5.87961977,3.8469962 C5.89346008,4.95901141 5.00342205,5.87193916 3.89125475,5.88570342 L3.89125475,5.88570342 Z M3.48996198,6.50623574 C3.40623574,6.51467681 3.32859316,6.4513308 3.32007605,6.36768061 C3.31163498,6.28250951 3.37467681,6.20334601 3.45764259,6.19528517 C3.5434981,6.18623574 3.6226616,6.25110266 3.63110266,6.33642586 C3.63969582,6.41992395 3.57452471,6.49741445 3.48996198,6.50623574 L3.48996198,6.50623574 Z M2.79155894,5.8721673 L2.55596958,6.25992395 C2.55231939,6.26577947 2.54448669,6.26836502 2.53802281,6.26441065 L2.46844106,6.22228137 C2.46235741,6.21855513 2.46038023,6.20988593 2.46403042,6.20410646 L2.65406844,5.89102662 L2.51452471,5.80661597 C2.50790875,5.8026616 2.50676806,5.79452471 2.51041825,5.78851711 L2.54912548,5.72471483 C2.55247148,5.71870722 2.56030418,5.7165019 2.56669202,5.72045627 L2.78745247,5.85422053 C2.79361217,5.8581749 2.79513308,5.86646388 2.79155894,5.8721673 L2.79155894,5.8721673 Z M2.14197719,5.68980989 C2.03847909,5.77939163 1.88372624,5.76965779 1.79368821,5.66608365 C1.7034981,5.56220532 1.71520913,5.40676806 1.81863118,5.31695817 C1.92228137,5.22737643 2.07680608,5.23878327 2.16661597,5.34212928 C2.25634981,5.4461597 2.24555133,5.60015209 2.14197719,5.68980989 L2.14197719,5.68980989 Z M1.40539924,5.08562738 L1.37148289,5.00106464 C1.36965779,4.99596958 1.37148289,4.98988593 1.37429658,4.98730038 L1.56486692,4.78942966 L1.56334601,4.78547529 L1.28897338,4.77307985 C1.28501901,4.77307985 1.27954373,4.77019011 1.27741445,4.76524715 L1.24395437,4.68030418 C1.24,4.67064639 1.24608365,4.66250951 1.25604563,4.66319392 L1.76441065,4.69224335 C1.76927757,4.69239544 1.77391635,4.69520913 1.77596958,4.70007605 L1.77870722,4.70653992 C1.78038023,4.71163498 1.77893536,4.71680608 1.77589354,4.72022814 L1.42608365,5.08996198 C1.41939163,5.09711027 1.40920152,5.09520913 1.40539924,5.08562738 L1.40539924,5.08562738 Z M1.14669202,4.19749049 L1.12532319,3.91414449 C1.12479087,3.90638783 1.13064639,3.90076046 1.13741445,3.90022814 L1.21186312,3.89452471 C1.21893536,3.8939924 1.22532319,3.8991635 1.22585551,3.90646388 L1.24015209,4.09596958 L1.32494297,4.08958175 L1.31323194,3.93376426 C1.31285171,3.92692015 1.31847909,3.92015209 1.32539924,3.91977186 L1.39977186,3.91414449 C1.40752852,3.91376426 1.41330798,3.91939163 1.41376426,3.92608365 L1.42532319,4.08212928 L1.51771863,4.07520913 L1.5034981,3.88562738 C1.50296578,3.878327 1.5086692,3.8721673 1.51558935,3.87171103 L1.59011407,3.86608365 C1.59673004,3.86562738 1.6034981,3.87079848 1.60395437,3.878327 L1.62524715,4.16136882 C1.62585551,4.16874525 1.62038023,4.17467681 1.61330798,4.17551331 L1.16060837,4.20942966 C1.15353612,4.20988593 1.14714829,4.20471483 1.14669202,4.19749049 L1.14669202,4.19749049 Z M1.51931559,2.76828897 C1.60479087,2.75954373 1.68395437,2.82418251 1.69269962,2.90958175 C1.70121673,2.99292776 1.63619772,3.07079848 1.5513308,3.07923954 C1.46775665,3.0878327 1.38996198,3.02456274 1.381673,2.94106464 C1.3730038,2.85581749 1.43589354,2.77680608 1.51931559,2.76828897 L1.51931559,2.76828897 Z M1.84889734,2.00897338 L2.04958175,1.80844106 C2.05513308,1.80288973 2.06326996,1.8034981 2.06813688,1.80844106 L2.12106464,1.86121673 C2.12577947,1.8660076 2.12638783,1.87422053 2.12106464,1.87946768 L1.98676806,2.0138403 L2.05657795,2.08365019 L2.1669962,1.97323194 C2.17178707,1.96828897 2.18068441,1.96828897 2.18570342,1.97323194 L2.238327,2.02608365 C2.24326996,2.03087452 2.24296578,2.03961977 2.238327,2.0443346 L2.12768061,2.15520913 L2.24555133,2.27307985 C2.25026616,2.27771863 2.25026616,2.28646388 2.24555133,2.29163498 L2.18813688,2.34851711 C2.18273764,2.3538403 2.17475285,2.35353612 2.16980989,2.34851711 L1.84889734,2.02745247 C1.84395437,2.02258555 1.84357414,2.01422053 1.84889734,2.00897338 L1.84889734,2.00897338 Z M2.46380228,1.5051711 L2.64555133,1.41019011 C2.71847909,1.37209125 2.80889734,1.4 2.84669202,1.47239544 C2.87581749,1.52813688 2.86212928,1.59285171 2.82038023,1.641673 L2.9843346,1.75254753 C2.99269962,1.7581749 2.99346008,1.77019011 2.98311787,1.77558935 L2.90243346,1.81779468 C2.89741445,1.82038023 2.8921673,1.81923954 2.88965779,1.81741445 L2.72471483,1.69840304 L2.68273764,1.72030418 L2.76365019,1.87543726 C2.76684411,1.881673 2.76425856,1.88965779 2.7581749,1.89323194 L2.68593156,1.93064639 C2.6791635,1.93437262 2.67148289,1.93125475 2.66836502,1.92501901 L2.4581749,1.52281369 C2.45498099,1.51657795 2.45711027,1.5086692 2.46380228,1.5051711 L2.46380228,1.5051711 Z M3.27155894,1.18494297 L3.55117871,1.13612167 C3.55885932,1.13467681 3.56501901,1.13992395 3.56646388,1.14661597 L3.57931559,1.22015209 C3.58030418,1.22692015 3.57596958,1.2339924 3.56874525,1.23528517 L3.38159696,1.26798479 L3.39619772,1.35193916 L3.55011407,1.32486692 C3.55680608,1.32357414 3.56410646,1.32889734 3.56555133,1.33543726 L3.57840304,1.40927757 C3.57931559,1.41642586 3.57437262,1.42319392 3.56760456,1.4243346 L3.41361217,1.45102662 L3.42942966,1.54235741 L3.61665399,1.50958175 C3.62403042,1.50851711 3.63057034,1.51346008 3.63140684,1.52030418 L3.64463878,1.59391635 C3.64555133,1.60060837 3.64144487,1.60745247 3.63414449,1.60874525 L3.35422053,1.65779468 C3.34684411,1.65931559 3.34045627,1.65406844 3.33931559,1.6469962 L3.26098859,1.19992395 C3.25954373,1.19315589 3.26425856,1.18623574 3.27155894,1.18494297 L3.27155894,1.18494297 Z M3.9861597,1.53361217 L4.02479087,1.48068441 C4.0313308,1.47262357 4.04425856,1.47551331 4.04844106,1.47923954 C4.05095057,1.48076046 4.09581749,1.52281369 4.14106464,1.52798479 C4.16828897,1.53110266 4.18980989,1.51642586 4.19262357,1.49247148 C4.19574144,1.46395437 4.17452471,1.4391635 4.13019011,1.4156654 C4.07444867,1.38570342 4.00593156,1.33163498 4.01574144,1.24988593 C4.02357414,1.18228137 4.08357414,1.12030418 4.18851711,1.13239544 C4.25954373,1.14053232 4.30988593,1.18296578 4.32859316,1.20045627 C4.33627376,1.2061597 4.33323194,1.21825095 4.33003802,1.2226616 L4.28912548,1.27095057 C4.28372624,1.27802281 4.27072243,1.28258555 4.2651711,1.27741445 C4.25954373,1.27315589 4.21391635,1.22996198 4.17239544,1.22501901 C4.14768061,1.22228137 4.12737643,1.2365019 4.12539924,1.25490494 C4.12235741,1.28007605 4.14106464,1.301673 4.19224335,1.3295057 C4.24273764,1.35680608 4.32243346,1.40828897 4.31140684,1.50091255 C4.30365019,1.57095057 4.23490494,1.63490494 4.13467681,1.62326996 C4.04608365,1.61292776 4.00144487,1.5704943 3.98737643,1.55307985 C3.98136882,1.54562738 3.97984791,1.54235741 3.9861597,1.53361217 L3.9861597,1.53361217 Z M4.63870722,1.71087452 L4.82904943,1.29885932 C4.83193916,1.29247148 4.84038023,1.2895057 4.84646388,1.29231939 L4.92053232,1.32661597 C4.92760456,1.32980989 4.92980989,1.33787072 4.92714829,1.34380228 L4.85460076,1.50091255 L5.03285171,1.58288973 L5.10494297,1.4261597 C5.10760456,1.41984791 5.11513308,1.41665399 5.12205323,1.41984791 L5.19657795,1.45406844 C5.20235741,1.45688213 5.20577947,1.46509506 5.20281369,1.4713308 L5.01224335,1.88334601 C5.00927757,1.88942966 5.00114068,1.89269962 4.99475285,1.88965779 L4.92098859,1.8556654 C4.9138403,1.85254753 4.91155894,1.84441065 4.91452471,1.8381749 L4.99026616,1.67452471 L4.8121673,1.59239544 L4.73642586,1.75612167 C4.73376426,1.76235741 4.72608365,1.76539924 4.71939163,1.7626616 L4.64532319,1.72813688 C4.63893536,1.72532319 4.63619772,1.71711027 4.63870722,1.71087452 L4.63870722,1.71087452 Z M3.83330798,0.876501901 C2.18684411,0.897338403 0.868821293,2.24859316 0.889657795,3.89498099 C0.910190114,5.54136882 2.261673,6.85954373 3.90806084,6.83885932 C5.55444867,6.818327 6.87285171,5.46692015 6.85201521,3.82038023 C6.83110266,2.17376426 5.47984791,0.855741445 3.83330798,0.876501901 L3.83330798,0.876501901 Z M3.90570342,7.0426616 C2.15749049,7.0643346 0.722281369,5.66479087 0.700532319,3.91665399 C0.678707224,2.16821293 2.07802281,0.73338403 3.82653992,0.711254753 C5.57467681,0.689505703 7.00973384,2.08897338 7.03163498,3.8373384 C7.05368821,5.58539924 5.65414449,7.02060837 3.90570342,7.0426616 L3.90570342,7.0426616 Z M7.69703422,3.16144487 C7.64813688,2.91011407 7.50410646,2.58486692 7.41764259,2.48372624 C7.33125475,2.38243346 7.10456274,2.23627376 6.93376426,2.1661597 C6.61323194,1.52942966 6.1261597,1.10836502 5.83262357,0.878022814 C5.55923954,0.663422053 5.01840304,0.398479087 4.30456274,0.398479087 C3.65756654,0.331634981 3.33406844,0.331634981 2.6921673,0.476121673 C1.39467681,0.683574144 0.914752852,1.7051711 0.914752852,1.7051711 C0.914752852,1.7051711 0.541673004,2.49140684 0.396045627,2.80897338 C-0.622965779,3.86334601 0.646235741,5.46684411 0.646235741,5.46684411 C0.441596958,5.82311787 1.12334601,6.24806084 1.41581749,6.38 C1.77893536,6.75163498 1.85840304,6.61543726 1.97148289,6.6878327 C2.03231939,6.78114068 2.07323194,6.89269962 2.15171103,6.93673004 C2.23034221,6.9808365 2.30980989,7.03665399 2.49239544,6.99224335 C2.49946768,6.99437262 2.53224335,6.99703422 2.53528517,6.99984791 C4.53840304,8.42524715 5.42463878,7.04463878 5.72091255,6.71315589 C6.89072243,7.32076046 7.68927757,4.4451711 7.48920152,4.17353612 C7.76479087,3.94030418 7.74441065,3.44828897 7.69703422,3.16144487 L7.69703422,3.16144487 Z M1.89079848,5.40007605 C1.83376426,5.4495057 1.82692015,5.53718631 1.87657795,5.59414449 C1.92547529,5.65064639 2.01315589,5.65627376 2.06996198,5.60692015 C2.12661597,5.55802281 2.13285171,5.47095057 2.08365019,5.41429658 C2.03429658,5.3573384 1.94714829,5.35095057 1.89079848,5.40007605 L1.89079848,5.40007605 Z M6.37749049,3.97809886 C6.30281369,3.97064639 6.23551331,4.0261597 6.22798479,4.10068441 C6.22091255,4.17558935 6.27604563,4.24288973 6.35003802,4.25041825 C6.42570342,4.25771863 6.49376426,4.2026616 6.50114068,4.12768061 C6.50851711,4.0530038 6.45262357,3.98555133 6.37749049,3.97809886 L6.37749049,3.97809886 Z M4.68190114,4.30813688 C4.67946768,4.31247148 4.67764259,4.31612167 4.67513308,4.32022814 C4.67292776,4.32486692 4.67102662,4.32904943 4.66828897,4.33323194 C4.34836502,4.93140684 3.90547529,5.13787072 3.50273764,5.04737643 C3.47209125,5.04030418 3.43003802,5.00030418 3.50904943,4.95779468 C3.54,4.93444867 3.56904943,4.90973384 3.59756654,4.88311787 C3.68707224,4.79992395 3.7626616,4.70174905 3.82608365,4.59855513 C3.94060837,4.40813688 4.01931559,4.2018251 4.05764259,3.98988593 C4.06365019,3.95992395 4.06927757,3.92988593 4.07338403,3.89977186 L4.0738403,3.89954373 L4.0738403,3.89893536 C4.10441065,3.70098859 4.14768061,3.50882129 4.21391635,3.32509506 C4.24653992,3.23361217 4.28555133,3.14441065 4.33201521,3.05764259 C4.35490494,3.01460076 4.38053232,2.97239544 4.4078327,2.93079848 C4.44669202,2.87315589 4.51285171,2.83574144 4.60357414,2.91787072 C4.92418251,3.19946768 5.01140684,3.69277567 4.68190114,4.30813688 L4.68190114,4.30813688 Z M3.37771863,4.83939163 C3.3381749,4.89726236 3.27178707,4.93444867 3.18129278,4.85239544 C2.86091255,4.57079848 2.77368821,4.07741445 3.10304183,3.46235741 C3.10547529,3.45787072 3.1078327,3.45406844 3.10988593,3.44958175 C3.11277567,3.4451711 3.11422053,3.44144487 3.1165019,3.43703422 C3.43688213,2.83893536 3.87931559,2.63231939 4.2826616,2.72319392 C4.31292776,2.73011407 4.35490494,2.76996198 4.27604563,2.81285171 C4.24524715,2.83551331 4.21581749,2.86053232 4.18722433,2.88707224 C4.09779468,2.9704943 4.02243346,3.06851711 3.95893536,3.1721673 C3.84471483,3.36228137 3.76577947,3.56844106 3.72730038,3.78022814 C3.72129278,3.81072243 3.71596958,3.84007605 3.71148289,3.87041825 C3.71148289,3.87041825 3.71148289,3.87041825 3.71148289,3.8704943 L3.71148289,3.87125475 C3.68121673,4.0695057 3.63718631,4.26159696 3.5713308,4.44471483 C3.538327,4.53680608 3.49931559,4.6261597 3.45323194,4.71224335 C3.43003802,4.75612167 3.4043346,4.79825095 3.37771863,4.83939163 L3.37771863,4.83939163 Z M3.84258555,2.01346008 C2.81612167,2.0261597 1.99452471,2.86882129 2.00737643,3.89543726 C2.02022814,4.92212928 2.86281369,5.74372624 3.88942966,5.73095057 C4.91604563,5.71794677 5.73741445,4.87528517 5.72501901,3.84912548 C5.71201521,2.82228137 4.86927757,2.00045627 3.84258555,2.01346008 L3.84258555,2.01346008 Z M2.73262357,1.59619772 C2.7573384,1.58319392 2.76684411,1.54874525 2.75346008,1.52326996 C2.74015209,1.49794677 2.7078327,1.48813688 2.68296578,1.50114068 L2.59315589,1.54836502 L2.64235741,1.64304183 L2.73262357,1.59619772 L2.73262357,1.59619772 Z" id="stamp" fill="#F1A84B" sketch:type="MSShapeGroup"></path>
        </g>
    </g>
</svg>