<?xml version="1.0" encoding="UTF-8" standalone="no"?>
<svg width="20px" height="20px" viewBox="0 0 20 20" version="1.1" xmlns="http://www.w3.org/2000/svg" xmlns:xlink="http://www.w3.org/1999/xlink" xmlns:sketch="http://www.bohemiancoding.com/sketch/ns">
    <!-- Generator: Sketch 3.3.3 (12072) - http://www.bohemiancoding.com/sketch -->
    <title>plus</title>
    <desc>Created with Sketch.</desc>
    <defs></defs>
    <g id="Icons" stroke="none" stroke-width="1" fill="none" fill-rule="evenodd" sketch:type="MSPage">
        <g id="plus" sketch:type="MSArtboardGroup" stroke="#000000" stroke-width="1.5" stroke-linecap="round" stroke-linejoin="round">
            <path d="M9.66987989,10 L4.34603554,4.67615565 C4.25487539,4.5849955 4.25487539,4.43719569 4.34603554,4.34603554 C4.43719569,4.25487539 4.5849955,4.25487539 4.67615565,4.34603554 L10,9.66987989 L15.3238443,4.34603554 C15.4150045,4.25487539 15.5628043,4.25487539 15.6539645,4.34603554 C15.7451246,4.43719569 15.7451246,4.5849955 15.6539645,4.67615565 L10.3301201,10 L15.6539645,15.3238443 C15.7451246,15.4150045 15.7451246,15.5628043 15.6539645,15.6539645 C15.5628043,15.7451246 15.4150045,15.7451246 15.3238443,15.6539645 L10,10.3301201 L4.67615565,15.6539645 C4.5849955,15.7451246 4.43719569,15.7451246 4.34603554,15.6539645 C4.25487539,15.5628043 4.25487539,15.4150045 4.34603554,15.3238443 L9.66987989,10 Z" id="Path-694" sketch:type="MSShapeGroup" transform="translate(10.000000, 10.000000) rotate(-315.000000) translate(-10.000000, -10.000000) "></path>
        </g>
    </g>
</svg>