<?xml version="1.0" encoding="UTF-8" standalone="no"?>
<svg width="50px" height="50px" viewBox="0 0 50 50" version="1.1" xmlns="http://www.w3.org/2000/svg" xmlns:xlink="http://www.w3.org/1999/xlink" xmlns:sketch="http://www.bohemiancoding.com/sketch/ns">
    <!-- Generator: Sketch 3.3.3 (12072) - http://www.bohemiancoding.com/sketch -->
    <title>pod</title>
    <desc>Created with Sketch.</desc>
    <defs></defs>
    <g id="Icons" stroke="none" stroke-width="1" fill="none" fill-rule="evenodd" sketch:type="MSPage">
        <g id="pod" sketch:type="MSArtboardGroup" fill="#000000">
            <g id="Shape-Copy-6-+-Shape-Copy-4-+-Shape-Copy-5" sketch:type="MSLayerGroup" transform="translate(9.000000, 10.000000)">
                <path d="M16.127316,28.5865392 C14.6056508,28.5480572 13.288017,28.3538033 12.8169555,28.0927993 C11.5148867,27.3714147 6.62746679,23.7358699 6.33226135,23.2307695 C6.19346993,22.9933717 5.78340461,20.0300704 5.00205104,13.7579954 C4.9917706,13.6754689 4.9917706,13.6754689 4.98149052,13.5929339 C4.35653664,8.57526651 4.1392659,6.88743649 3.90492826,5.34917751 L3.85412307,5.01567784 L3.52841168,4.94007886 C2.71190113,4.75056335 2.08911042,4.55192084 1.65066353,4.34901787 C1.31680906,4.19451783 1.11174435,4.04774711 1.02288694,3.92724409 C0.986362229,3.8777115 0.984537248,3.86644929 0.994091484,3.83864107 C1.04696844,3.68473929 1.32827669,3.44795328 1.76006568,3.2153684 C2.05153211,3.05836883 2.28891004,2.95645992 2.66437934,2.81026292 C3.11824698,2.63376657 4.983983,2.18759714 6.96333705,1.8422601 C9.8943249,1.33089192 12.9987987,1.0167538 16.0721336,0.994682378 L16.0686297,0 L15.788574,0 L15.7850702,0.994682379 C18.8585002,1.0167538 21.9629902,1.33089152 24.893947,1.84225994 C26.8732658,2.18759465 28.738935,2.63375812 29.1930223,2.81033995 C29.5677404,2.95619236 29.8056842,3.05833387 30.0971757,3.21533655 C30.5289907,3.44791999 30.8103278,3.68471682 30.8632187,3.8386353 C30.8727767,3.86645024 30.8709522,3.87771342 30.8344318,3.92724414 C30.7455823,4.04774606 30.5405255,4.19451812 30.2066775,4.34902064 C29.7682482,4.55192263 29.1454822,4.75056461 28.3290046,4.94007981 L28.0033131,5.01567709 L27.9524955,5.34915466 C27.7180592,6.8875856 27.5003834,8.57830531 26.8757597,13.5929291 C26.8655906,13.6745666 26.8655906,13.6745666 26.8554212,13.7561959 C26.0736365,20.0312692 25.663743,22.993356 25.5249775,23.2307093 C25.2297247,23.7358908 20.3424512,27.3714604 19.0404802,28.0927908 C18.5692304,28.3538057 17.251556,28.5480571 15.7298877,28.5865392 L15.7545583,29.5809223 C17.4316111,29.5385106 18.8584373,29.328168 19.5144001,28.9648447 C20.9703565,28.1582018 25.957123,24.4486209 26.373458,23.7362663 C26.6289476,23.2992604 26.935203,21.086112 27.8329403,13.8803341 C27.8431115,13.7986908 27.8431115,13.7986908 27.8532819,13.7170425 C28.4762594,8.71563494 28.6938773,7.02536399 28.9262599,5.50041072 L28.5497509,5.90948557 C29.4263975,5.70600436 30.1101545,5.48790825 30.6172133,5.25324501 C31.5909141,4.80262315 32.0318199,4.20464545 31.7940149,3.51260601 C31.6342853,3.04777464 31.1990115,2.68141181 30.5609145,2.33772111 C30.3677977,2.23370485 30.1644849,2.13734449 29.9524018,2.04630415 C29.811309,1.98573761 29.7342799,1.95495907 29.5472821,1.88217347 C27.6679969,1.15137211 21.2953901,0.0395338756 15.7920779,1.25810109e-05 L15.788574,0.49734748 L15.788574,0.99469496 L16.0686297,0.99469496 L16.0686297,0.49734748 L16.0651257,1.25817892e-05 C10.5619719,0.0395339606 4.18913498,1.15140005 2.31006451,1.88211789 C2.1221197,1.95529817 2.04585889,1.98577479 1.90482019,2.04632423 C1.69272433,2.13737927 1.489417,2.23374419 1.29630293,2.33776586 C0.658227622,2.6814677 0.222984663,3.04782539 0.0632797366,3.51265685 C-0.174485801,4.20468875 0.266436426,4.80264066 1.24013972,5.25324778 C1.74721498,5.48791035 2.43099531,5.70600584 3.30767349,5.90948651 L2.93115692,5.50038786 C3.16344376,7.02518484 3.38065868,8.71258111 4.00396714,13.7170377 C4.01424859,13.7995837 4.01424859,13.7995837 4.02453082,13.8821246 C4.92174122,21.0842047 5.22826565,23.2992767 5.48378089,23.7363264 C5.90007322,24.4486081 10.8869714,28.1581506 12.3429704,28.9648171 C12.9987388,29.3281628 14.4255273,29.538509 16.1026454,29.5809223 L16.127316,28.5865392 L16.127316,28.5865392 Z" id="Shape-Copy-6" sketch:type="MSShapeGroup"></path>
                <path d="M5.76790328,23.235015 C5.81307084,23.2325296 5.90036652,23.2278471 6.02629779,23.2212815 C6.23643814,23.2103255 6.47823351,23.1981138 6.7481905,23.1849602 C7.51970435,23.1473686 8.3619846,23.1097734 9.24706469,23.0746854 C10.7327558,23.0157869 12.1854611,22.9700627 13.5479816,22.9426259 C14.1202214,22.9311028 14.6698976,22.9229699 15.194175,22.9184769 C15.4322929,22.9163903 15.6883391,22.9189548 15.9626408,22.9259872 L15.9751459,22.4288 L15.9751459,21.9314525 L15.463335,21.9314525 L15.463335,22.4288 L15.4758302,22.9259875 C15.7504322,22.9189529 16.0062484,22.9163908 16.244432,22.9184761 C16.7687999,22.9229699 17.3184761,22.9311028 17.8907159,22.9426259 C19.2532364,22.9700627 20.7059417,23.0157869 22.1916328,23.0746854 C23.0767129,23.1097734 23.9189932,23.1473686 24.690507,23.1849602 C24.960464,23.1981138 25.2022594,23.2103255 25.4123997,23.2212815 C25.538331,23.2278471 25.6256267,23.2325296 25.6707942,23.235015 L25.7244118,22.2417941 C25.6783261,22.2392582 25.5900958,22.2345256 25.4632089,22.2279101 C25.2519858,22.2168977 25.0090868,22.2046302 24.737999,22.1914216 C23.9636708,22.1536928 23.1184747,22.1159675 22.230289,22.0807564 C20.7386786,22.0216232 19.2798092,21.975705 17.9103623,21.9481288 C17.3344937,21.9365326 16.7810783,21.9283443 16.2528849,21.9238178 C16.0030533,21.9216304 15.7361538,21.9243036 15.4508399,21.9316125 L15.463335,22.9261475 L15.9751459,22.9261475 L15.987651,21.9316128 C15.7026266,21.9243054 15.4354873,21.9216299 15.1857184,21.9238186 C14.6576192,21.9283443 14.1042038,21.9365326 13.5283352,21.9481288 C12.1588884,21.975705 10.7000189,22.0216232 9.20840847,22.0807564 C8.32022277,22.1159675 7.47502672,22.1536928 6.70069847,22.1914216 C6.42961073,22.2046302 6.1867117,22.2168977 5.97548857,22.2279101 C5.84860175,22.2345256 5.76037144,22.2392582 5.71428571,22.2417941 L5.76790328,23.235015 L5.76790328,23.235015 Z" id="Shape-Copy-4" sketch:type="MSShapeGroup"></path>
                <path d="M4.40757908,5.50428903 C4.41417658,5.52891303 4.41470876,5.53126543 4.41594173,5.53919058 C4.41141555,5.51009782 4.42106732,5.44601823 4.47690668,5.34457915 C4.59294452,5.13378211 4.84761117,4.90114497 5.29101919,4.66512743 C6.96076073,3.77635623 10.4693268,3.24753487 16.2935711,3.30691175 L16.298545,2.80958962 L16.298545,2.31224214 L15.9985628,2.31224214 L15.9985628,2.80958962 L16.0035319,3.3069118 C21.7007461,3.24888734 25.2247295,3.82462794 27.052209,4.77964757 C27.6023272,5.06713302 27.9140841,5.34545169 28.0681941,5.59623472 C28.1045826,5.65544957 28.1128377,5.67408127 28.144345,5.75695027 C28.1525352,5.78219188 28.1525352,5.78219188 28.2053771,5.87776054 C28.2643373,5.9777843 28.2643373,5.9777843 28.5812339,6.09722863 C28.9660315,5.99173099 28.9660315,5.99173099 29.0456431,5.84739301 C29.1003378,5.72084599 29.1003378,5.72084599 29.1053773,5.68885677 C29.1112931,5.66143014 29.1112931,5.66143014 29.1160356,5.63834652 L28.151941,5.4334587 C28.1861705,5.26928011 28.1520066,5.42074313 28.1923158,5.35022099 C28.269136,5.20990711 28.269136,5.20990711 28.6510376,5.10503341 C28.9649283,5.22343055 28.9649283,5.22343055 29.0205468,5.3191228 C29.0660287,5.40118877 29.0660287,5.40118877 29.0641293,5.40048526 C29.0516483,5.36616582 29.0369358,5.32812059 29.0172406,5.28366883 C28.9867844,5.21492945 28.9502571,5.14486386 28.9053776,5.07183146 C28.6532302,4.66151252 28.2068316,4.26299335 27.5050978,3.89627537 C25.5075667,2.85238875 21.8373133,2.25275087 15.9935937,2.31226744 L15.9985628,3.3069371 L16.298545,3.3069371 L16.303519,2.31226749 C10.3295306,2.251364 6.67973702,2.80147158 4.83154462,3.78522873 C3.73561876,4.36856892 3.3464944,5.07546125 3.44265345,5.69353852 C3.44828411,5.72973047 3.45321397,5.75152231 3.46274326,5.78616348 L4.40757908,5.50428903 L4.40757908,5.50428903 Z" id="Shape-Copy-5" sketch:type="MSShapeGroup"></path>
            </g>
        </g>
    </g>
</svg>