<?xml version="1.0" encoding="UTF-8" standalone="no"?>
<svg width="50px" height="50px" viewBox="0 0 50 50" version="1.1" xmlns="http://www.w3.org/2000/svg" xmlns:xlink="http://www.w3.org/1999/xlink" xmlns:sketch="http://www.bohemiancoding.com/sketch/ns">
    <!-- Generator: Sketch 3.5.1 (25234) - http://www.bohemiancoding.com/sketch -->
    <title>pods_mixed</title>
    <desc>Created with Sketch.</desc>
    <defs></defs>
    <g id="Icons" stroke="none" stroke-width="1" fill="none" fill-rule="evenodd" sketch:type="MSPage">
        <g id="pods_mixed" sketch:type="MSArtboardGroup">
            <path d="M18.7224,25.8404 C18.7224,25.9244 18.7896,26 18.882,26 L22.0404001,26 C22.1328001,26 22.2000001,25.9244 22.2000001,25.8404 L22.2000001,24.9248 C22.2000001,24.8408 22.1328001,24.7652 22.0404001,24.7652 L20.0412,24.7652 L20.0412,20.2795999 C20.0412,20.1955999 19.9656,20.1199999 19.8816,20.1199999 L18.882,20.1199999 C18.7896,20.1199999 18.7224,20.1955999 18.7224,20.2795999 L18.7224,25.8404 Z M22.8804001,24.488 C22.8804001,25.3616 23.6532001,26.084 24.7284002,26.084 C25.9884002,26.084 26.5596002,25.4372 26.5596002,25.4372 L27.1056002,25.9832 C27.2400002,26.1176 27.3828002,26.1008 27.4836002,26.0084 L27.9540002,25.5296 C28.1640002,25.3196 28.0800002,25.244 27.9708002,25.1432 L27.2568002,24.4796 C27.2568002,24.4628 27.5844002,24.0176 27.7860002,23.4295999 C27.8196002,23.3287999 27.9120002,23.1271999 27.6768002,23.0431999 L27.0636002,22.8247999 C26.8368002,22.7407999 26.7864002,22.8751999 26.7360002,23.0515999 C26.6772002,23.2531999 26.5680002,23.5219999 26.4588002,23.6983999 L25.7028002,22.9255999 C25.7028002,22.8583999 26.6184002,22.3627999 26.6184002,21.4387999 C26.6184002,20.6575999 25.8960002,20.0359999 24.9384002,20.0359999 C23.8632001,20.0359999 23.3088001,20.7583999 23.3088001,21.3967999 C23.3088001,21.8839999 23.5272001,22.2451999 23.8632001,22.5979999 L24.0312001,22.7743999 L24.0312001,22.7995999 C24.0312001,22.7995999 22.8804001,23.2783999 22.8804001,24.488 L22.8804001,24.488 Z M24.9972002,22.2283999 L24.8124002,22.0435999 C24.5940001,21.7999999 24.4260001,21.6403999 24.4260001,21.3883999 C24.4260001,21.1699999 24.6108002,20.9767999 24.9216002,20.9767999 C25.2828002,20.9767999 25.5432002,21.2287999 25.5432002,21.5143999 C25.5432002,21.9847999 24.9972002,22.2283999 24.9972002,22.2283999 L24.9972002,22.2283999 Z M24.0816001,24.32 C24.0816001,23.6395999 24.6780002,23.4379999 24.6780002,23.4379999 L25.7784002,24.6056 C25.7784002,24.6056 25.5264002,25.034 24.8712002,25.034 C24.4260001,25.034 24.0816001,24.7232 24.0816001,24.32 L24.0816001,24.32 Z M28.5924002,25.4372 C28.7856002,25.6304 29.3904003,26.084 30.4824003,26.084 C31.7172003,26.084 32.4648003,25.2104 32.4648003,24.3452 C32.4648003,23.2027999 31.4232003,22.6903999 30.7680003,22.4299999 C30.1044003,22.1611999 29.8524003,21.9259999 29.8524003,21.6151999 C29.8524003,21.3883999 30.0792003,21.1867999 30.3816003,21.1867999 C30.8940003,21.1867999 31.5072003,21.6487999 31.5828003,21.6907999 C31.6584003,21.7495999 31.8096003,21.6739999 31.8684003,21.5815999 L32.2968003,20.9347999 C32.3304003,20.8759999 32.3472003,20.7247999 32.2464003,20.6659999 C31.9944003,20.4811999 31.3224003,20.0359999 30.4488003,20.0359999 C29.1552003,20.0359999 28.5084002,20.8759999 28.5084002,21.7075999 C28.5084002,22.7155999 29.4156003,23.2783999 30.1380003,23.5639999 C30.7092003,23.7907999 31.0032003,24.0596 31.0032003,24.4124 C31.0032003,24.7064 30.7596003,24.9164 30.4236003,24.9164 C29.8692003,24.9164 29.2644003,24.4712 29.2308003,24.4544 C29.1720003,24.4124 29.0124003,24.3956 28.9452002,24.5048 L28.5504002,25.202 C28.4832002,25.3196 28.5084002,25.3532 28.5924002,25.4372 L28.5924002,25.4372 Z" id="L&amp;S" fill="#333333" sketch:type="MSShapeGroup"></path>
            <g id="Page-1" sketch:type="MSLayerGroup" transform="translate(8.000000, 9.000000)" fill="#010202">
                <path d="M17,1.5001 C7.538,1.5001 1.5,3.2771 1.5,4.5001 C1.5,4.8551 2.21,5.4831 4.212,6.0831 L4.525,6.1761 L4.565,6.5001 C5.792,16.4221 6.926,23.5551 7.387,24.2501 C8.358,25.3511 12.323,29.0021 14.137,29.5191 C16.098,30.0781 17.917,30.0781 19.862,29.5191 C21.68,28.9991 25.768,25.3721 26.612,24.3331 C27.032,23.6591 28.17,16.4861 29.434,6.4991 L29.475,6.1761 L29.786,6.0831 C31.789,5.4831 32.5,4.8551 32.5,4.5001 C32.5,3.2771 26.462,1.5001 17,1.5001 M17.006,30.9331 C15.965,30.9331 14.922,30.7821 13.863,30.4801 C11.576,29.8301 7.356,25.7271 6.625,24.8961 C5.873,24.0431 4.58,14.7401 3.612,6.9431 C1.519,6.2721 0.5,5.4721 0.5,4.5001 C0.5,1.8741 8.801,0.5001 17,0.5001 C25.199,0.5001 33.5,1.8741 33.5,4.5001 C33.5,5.4721 32.48,6.2731 30.385,6.9441 C29.392,14.7711 28.081,24.1121 27.388,24.9631 C26.634,25.8911 22.389,29.8341 20.138,30.4801 C19.086,30.7821 18.047,30.9331 17.006,30.9331" id="Fill-1" sketch:type="MSShapeGroup"></path>
                <path d="M6.5391,24.5358 L6.4641,23.5388 L6.9621,23.5008 C7.0291,23.4958 13.6731,22.9998 17.0001,22.9998 C20.3001,22.9998 26.9711,23.4958 27.0371,23.5008 L27.5361,23.5388 L27.4611,24.5358 L26.9631,24.4988 C26.8961,24.4928 20.2631,23.9998 17.0001,23.9998 C13.7101,23.9998 7.1041,24.4928 7.0381,24.4988 L6.5391,24.5358 Z" id="Fill-3" sketch:type="MSShapeGroup"></path>
                <path d="M29.5,6.5011 C29.415,5.8221 24.926,4.5001 17,4.5001 C9.074,4.5001 4.585,5.8221 4.5,6.5011 L3.5,6.5001 C3.5,4.1271 12.331,3.5001 17,3.5001 C21.669,3.5001 30.5,4.1271 30.5,6.5001 L29.5,6.5011 Z" id="Fill-5" sketch:type="MSShapeGroup"></path>
            </g>
        </g>
    </g>
</svg>