<?xml version="1.0" encoding="UTF-8" standalone="no"?>
<svg width="50px" height="50px" viewBox="0 0 50 50" version="1.1" xmlns="http://www.w3.org/2000/svg" xmlns:xlink="http://www.w3.org/1999/xlink" xmlns:sketch="http://www.bohemiancoding.com/sketch/ns">
    <!-- Generator: Sketch 3.5.1 (25234) - http://www.bohemiancoding.com/sketch -->
    <title>pod_long</title>
    <desc>Created with Sketch.</desc>
    <defs></defs>
    <g id="Icons" stroke="none" stroke-width="1" fill="none" fill-rule="evenodd" sketch:type="MSPage">
        <g id="pod_long" sketch:type="MSArtboardGroup">
            <path d="M23,26.7828571 C23,26.8971429 23.0966184,27 23.2294686,27 L27.7705314,27 C27.9033816,27 28,26.8971429 28,26.7828571 L28,25.5371429 C28,25.4228571 27.9033816,25.32 27.7705314,25.32 L24.8961353,25.32 L24.8961353,19.2171429 C24.8961353,19.1028571 24.7874396,19 24.6666667,19 L23.2294686,19 C23.0966184,19 23,19.1028571 23,19.2171429 L23,26.7828571 Z" id="L&amp;S" fill="#333333" sketch:type="MSShapeGroup"></path>
            <g id="Page-1" sketch:type="MSLayerGroup" transform="translate(8.000000, 9.000000)" fill="#010202">
                <path d="M17,1.5001 C7.538,1.5001 1.5,3.2771 1.5,4.5001 C1.5,4.8551 2.21,5.4831 4.212,6.0831 L4.525,6.1761 L4.565,6.5001 C5.792,16.4221 6.926,23.5551 7.387,24.2501 C8.358,25.3511 12.323,29.0021 14.137,29.5191 C16.098,30.0781 17.917,30.0781 19.862,29.5191 C21.68,28.9991 25.768,25.3721 26.612,24.3331 C27.032,23.6591 28.17,16.4861 29.434,6.4991 L29.475,6.1761 L29.786,6.0831 C31.789,5.4831 32.5,4.8551 32.5,4.5001 C32.5,3.2771 26.462,1.5001 17,1.5001 M17.006,30.9331 C15.965,30.9331 14.922,30.7821 13.863,30.4801 C11.576,29.8301 7.356,25.7271 6.625,24.8961 C5.873,24.0431 4.58,14.7401 3.612,6.9431 C1.519,6.2721 0.5,5.4721 0.5,4.5001 C0.5,1.8741 8.801,0.5001 17,0.5001 C25.199,0.5001 33.5,1.8741 33.5,4.5001 C33.5,5.4721 32.48,6.2731 30.385,6.9441 C29.392,14.7711 28.081,24.1121 27.388,24.9631 C26.634,25.8911 22.389,29.8341 20.138,30.4801 C19.086,30.7821 18.047,30.9331 17.006,30.9331" id="Fill-1" sketch:type="MSShapeGroup"></path>
                <path d="M6.5391,24.5358 L6.4641,23.5388 L6.9621,23.5008 C7.0291,23.4958 13.6731,22.9998 17.0001,22.9998 C20.3001,22.9998 26.9711,23.4958 27.0371,23.5008 L27.5361,23.5388 L27.4611,24.5358 L26.9631,24.4988 C26.8961,24.4928 20.2631,23.9998 17.0001,23.9998 C13.7101,23.9998 7.1041,24.4928 7.0381,24.4988 L6.5391,24.5358 Z" id="Fill-3" sketch:type="MSShapeGroup"></path>
                <path d="M29.5,6.5011 C29.415,5.8221 24.926,4.5001 17,4.5001 C9.074,4.5001 4.585,5.8221 4.5,6.5011 L3.5,6.5001 C3.5,4.1271 12.331,3.5001 17,3.5001 C21.669,3.5001 30.5,4.1271 30.5,6.5001 L29.5,6.5011 Z" id="Fill-5" sketch:type="MSShapeGroup"></path>
            </g>
        </g>
    </g>
</svg>