<?xml version="1.0" encoding="UTF-8" standalone="no"?>
<svg width="50px" height="50px" viewBox="0 0 50 50" version="1.1" xmlns="http://www.w3.org/2000/svg" xmlns:xlink="http://www.w3.org/1999/xlink" xmlns:sketch="http://www.bohemiancoding.com/sketch/ns">
    <!-- Generator: Sketch 3.5.1 (25234) - http://www.bohemiancoding.com/sketch -->
    <title>pod_short</title>
    <desc>Created with Sketch.</desc>
    <defs></defs>
    <g id="Icons" stroke="none" stroke-width="1" fill="none" fill-rule="evenodd" sketch:type="MSPage">
        <g id="pod_short" sketch:type="MSArtboardGroup">
            <g id="Group" sketch:type="MSLayerGroup" transform="translate(23.000000, 19.000000)" fill="#333333">
                <path d="M0.106157113,7.14444444 C0.350318471,7.4 1.11464968,8 2.49469214,8 C4.0552017,8 5,6.84444444 5,5.7 C5,4.18888889 3.6836518,3.51111111 2.85562633,3.16666667 C2.01698514,2.81111111 1.6985138,2.5 1.6985138,2.08888889 C1.6985138,1.78888889 1.985138,1.52222222 2.36730361,1.52222222 C3.014862,1.52222222 3.78980892,2.13333333 3.88535032,2.18888889 C3.98089172,2.26666667 4.17197452,2.16666667 4.2462845,2.04444444 L4.78768577,1.18888889 C4.83014862,1.11111111 4.85138004,0.911111111 4.72399151,0.833333333 C4.40552017,0.588888889 3.55626327,0 2.4522293,0 C0.817409766,0 0,1.11111111 0,2.21111111 C0,3.54444444 1.14649682,4.28888889 2.05944798,4.66666667 C2.78131635,4.96666667 3.15286624,5.32222222 3.15286624,5.78888889 C3.15286624,6.17777778 2.84501062,6.45555556 2.42038217,6.45555556 C1.71974522,6.45555556 0.955414013,5.86666667 0.912951168,5.84444444 C0.838641189,5.78888889 0.636942675,5.76666667 0.552016985,5.91111111 L0.0530785563,6.83333333 C-0.0318471338,6.98888889 0,7.03333333 0.106157113,7.14444444 L0.106157113,7.14444444 Z" id="L&amp;S" sketch:type="MSShapeGroup"></path>
            </g>
            <g id="Page-1" sketch:type="MSLayerGroup" transform="translate(8.000000, 9.000000)" fill="#010202">
                <path d="M17,1.5001 C7.538,1.5001 1.5,3.2771 1.5,4.5001 C1.5,4.8551 2.21,5.4831 4.212,6.0831 L4.525,6.1761 L4.565,6.5001 C5.792,16.4221 6.926,23.5551 7.387,24.2501 C8.358,25.3511 12.323,29.0021 14.137,29.5191 C16.098,30.0781 17.917,30.0781 19.862,29.5191 C21.68,28.9991 25.768,25.3721 26.612,24.3331 C27.032,23.6591 28.17,16.4861 29.434,6.4991 L29.475,6.1761 L29.786,6.0831 C31.789,5.4831 32.5,4.8551 32.5,4.5001 C32.5,3.2771 26.462,1.5001 17,1.5001 M17.006,30.9331 C15.965,30.9331 14.922,30.7821 13.863,30.4801 C11.576,29.8301 7.356,25.7271 6.625,24.8961 C5.873,24.0431 4.58,14.7401 3.612,6.9431 C1.519,6.2721 0.5,5.4721 0.5,4.5001 C0.5,1.8741 8.801,0.5001 17,0.5001 C25.199,0.5001 33.5,1.8741 33.5,4.5001 C33.5,5.4721 32.48,6.2731 30.385,6.9441 C29.392,14.7711 28.081,24.1121 27.388,24.9631 C26.634,25.8911 22.389,29.8341 20.138,30.4801 C19.086,30.7821 18.047,30.9331 17.006,30.9331" id="Fill-1" sketch:type="MSShapeGroup"></path>
                <path d="M6.5391,24.5358 L6.4641,23.5388 L6.9621,23.5008 C7.0291,23.4958 13.6731,22.9998 17.0001,22.9998 C20.3001,22.9998 26.9711,23.4958 27.0371,23.5008 L27.5361,23.5388 L27.4611,24.5358 L26.9631,24.4988 C26.8961,24.4928 20.2631,23.9998 17.0001,23.9998 C13.7101,23.9998 7.1041,24.4928 7.0381,24.4988 L6.5391,24.5358 Z" id="Fill-3" sketch:type="MSShapeGroup"></path>
                <path d="M29.5,6.5011 C29.415,5.8221 24.926,4.5001 17,4.5001 C9.074,4.5001 4.585,5.8221 4.5,6.5011 L3.5,6.5001 C3.5,4.1271 12.331,3.5001 17,3.5001 C21.669,3.5001 30.5,4.1271 30.5,6.5001 L29.5,6.5011 Z" id="Fill-5" sketch:type="MSShapeGroup"></path>
            </g>
        </g>
    </g>
</svg>