<?xml version="1.0" encoding="UTF-8" standalone="no"?>
<svg width="50px" height="50px" viewBox="0 0 50 50" version="1.1" xmlns="http://www.w3.org/2000/svg" xmlns:xlink="http://www.w3.org/1999/xlink" xmlns:sketch="http://www.bohemiancoding.com/sketch/ns">
    <!-- Generator: Sketch 3.4.4 (17249) - http://www.bohemiancoding.com/sketch -->
    <title>pod copy 3</title>
    <desc>Created with Sketch.</desc>
    <defs></defs>
    <g id="Icons" stroke="none" stroke-width="1" fill="none" fill-rule="evenodd" sketch:type="MSPage">
        <g id="pod-copy-3" sketch:type="MSArtboardGroup">
            <g id="Group" sketch:type="MSLayerGroup" transform="translate(9.000000, 10.000000)">
                <path d="M28.9294425,5.56211727 C30.8603486,4.98377951 32,4.27100318 32,3.5 C32,1.56700338 24.836556,0 16,0 C7.163444,0 0,1.56700338 0,3.5 C0,4.27078277 1.13899987,4.98337199 3.06890178,5.56162125 C3.44083215,8.57078459 5.22087724,22.682625 6,23.5662785 C6.87245512,24.5557861 10.9571667,28.4183578 13,29 C15.0428333,29.5816422 16.972434,29.5816422 19,29 C21.027566,28.4183578 25.189415,24.6449318 26,23.6484222 C26.7240238,22.7583285 28.5481149,8.58011011 28.9294425,5.56211727 Z" id="Oval-3" stroke="#000000" sketch:type="MSShapeGroup"></path>
                <path d="M6,23 C6,23 12.6530654,22.5 16,22.5 C19.3197321,22.5 26,23 26,23" id="Line" stroke="#000000" stroke-linecap="square" sketch:type="MSShapeGroup"></path>
                <path d="M29,5.5 C29,4.11928813 23.1797017,3 16,3 C8.82029825,3 3,4.11928813 3,5.5" id="Path-Copy" stroke="#000000" sketch:type="MSShapeGroup"></path>
                <text id="L&amp;S" sketch:type="MSTextLayer" font-family="Brandon Grotesque" font-size="8.40000019" font-weight="686" fill="#333333">
                    <tspan x="9" y="16">L&amp;S</tspan>
                </text>
            </g>
        </g>
    </g>
</svg>