<?xml version="1.0" encoding="UTF-8" standalone="no"?>
<svg width="50px" height="50px" viewBox="0 0 50 50" version="1.1" xmlns="http://www.w3.org/2000/svg" xmlns:xlink="http://www.w3.org/1999/xlink" xmlns:sketch="http://www.bohemiancoding.com/sketch/ns">
    <!-- Generator: Sketch 3.4.4 (17249) - http://www.bohemiancoding.com/sketch -->
    <title>pod copy 3</title>
    <desc>Created with Sketch.</desc>
    <defs></defs>
    <g id="Icons" stroke="none" stroke-width="1" fill="none" fill-rule="evenodd" sketch:type="MSPage">
        <g id="pod-copy-3" sketch:type="MSArtboardGroup">
            <g id="Group" sketch:type="MSLayerGroup" transform="translate(9.000000, 10.000000)">
                <path d="M28.9294425,5.56211727 C30.8603486,4.98377951 32,4.27100318 32,3.5 C32,1.56700338 24.836556,0 16,0 C7.163444,0 0,1.56700338 0,3.5 C0,4.27078277 1.13899987,4.98337199 3.06890178,5.56162125 C3.44083215,8.57078459 5.22087724,22.682625 6,23.5662785 C6.87245512,24.5557861 10.9571667,28.4183578 13,29 C15.0428333,29.5816422 16.972434,29.5816422 19,29 C21.027566,28.4183578 25.189415,24.6449318 26,23.6484222 C26.7240238,22.7583285 28.5481149,8.58011011 28.9294425,5.56211727 Z" id="Oval-3" stroke="#000000" sketch:type="MSShapeGroup"></path>
                <path d="M6,23 C6,23 12.6530654,22.5 16,22.5 C19.3197321,22.5 26,23 26,23" id="Line" stroke="#000000" stroke-linecap="square" sketch:type="MSShapeGroup"></path>
                <path d="M29,5.5 C29,4.11928813 23.1797017,3 16,3 C8.82029825,3 3,4.11928813 3,5.5" id="Path-Copy" stroke="#000000" sketch:type="MSShapeGroup"></path>
                <path d="M9.72240002,15.8404 C9.72240002,15.9244 9.78960002,16 9.88200002,16 L13.0404001,16 C13.1328001,16 13.2000001,15.9244 13.2000001,15.8404 L13.2000001,14.9248 C13.2000001,14.8408 13.1328001,14.7652 13.0404001,14.7652 L11.0412,14.7652 L11.0412,10.2795999 C11.0412,10.1955999 10.9656,10.1199999 10.8816,10.1199999 L9.88200002,10.1199999 C9.78960002,10.1199999 9.72240002,10.1955999 9.72240002,10.2795999 L9.72240002,15.8404 Z M13.8804001,14.488 C13.8804001,15.3616 14.6532001,16.084 15.7284002,16.084 C16.9884002,16.084 17.5596002,15.4372 17.5596002,15.4372 L18.1056002,15.9832 C18.2400002,16.1176 18.3828002,16.1008 18.4836002,16.0084 L18.9540002,15.5296 C19.1640002,15.3196 19.0800002,15.244 18.9708002,15.1432 L18.2568002,14.4796 C18.2568002,14.4628 18.5844002,14.0176 18.7860002,13.4295999 C18.8196002,13.3287999 18.9120002,13.1271999 18.6768002,13.0431999 L18.0636002,12.8247999 C17.8368002,12.7407999 17.7864002,12.8751999 17.7360002,13.0515999 C17.6772002,13.2531999 17.5680002,13.5219999 17.4588002,13.6983999 L16.7028002,12.9255999 C16.7028002,12.8583999 17.6184002,12.3627999 17.6184002,11.4387999 C17.6184002,10.6575999 16.8960002,10.0359999 15.9384002,10.0359999 C14.8632001,10.0359999 14.3088001,10.7583999 14.3088001,11.3967999 C14.3088001,11.8839999 14.5272001,12.2451999 14.8632001,12.5979999 L15.0312001,12.7743999 L15.0312001,12.7995999 C15.0312001,12.7995999 13.8804001,13.2783999 13.8804001,14.488 L13.8804001,14.488 Z M15.9972002,12.2283999 L15.8124002,12.0435999 C15.5940001,11.7999999 15.4260001,11.6403999 15.4260001,11.3883999 C15.4260001,11.1699999 15.6108002,10.9767999 15.9216002,10.9767999 C16.2828002,10.9767999 16.5432002,11.2287999 16.5432002,11.5143999 C16.5432002,11.9847999 15.9972002,12.2283999 15.9972002,12.2283999 L15.9972002,12.2283999 Z M15.0816001,14.32 C15.0816001,13.6395999 15.6780002,13.4379999 15.6780002,13.4379999 L16.7784002,14.6056 C16.7784002,14.6056 16.5264002,15.034 15.8712002,15.034 C15.4260001,15.034 15.0816001,14.7232 15.0816001,14.32 L15.0816001,14.32 Z M19.5924002,15.4372 C19.7856002,15.6304 20.3904003,16.084 21.4824003,16.084 C22.7172003,16.084 23.4648003,15.2104 23.4648003,14.3452 C23.4648003,13.2027999 22.4232003,12.6903999 21.7680003,12.4299999 C21.1044003,12.1611999 20.8524003,11.9259999 20.8524003,11.6151999 C20.8524003,11.3883999 21.0792003,11.1867999 21.3816003,11.1867999 C21.8940003,11.1867999 22.5072003,11.6487999 22.5828003,11.6907999 C22.6584003,11.7495999 22.8096003,11.6739999 22.8684003,11.5815999 L23.2968003,10.9347999 C23.3304003,10.8759999 23.3472003,10.7247999 23.2464003,10.6659999 C22.9944003,10.4811999 22.3224003,10.0359999 21.4488003,10.0359999 C20.1552003,10.0359999 19.5084002,10.8759999 19.5084002,11.7075999 C19.5084002,12.7155999 20.4156003,13.2783999 21.1380003,13.5639999 C21.7092003,13.7907999 22.0032003,14.0596 22.0032003,14.4124 C22.0032003,14.7064 21.7596003,14.9164 21.4236003,14.9164 C20.8692003,14.9164 20.2644003,14.4712 20.2308003,14.4544 C20.1720003,14.4124 20.0124003,14.3956 19.9452002,14.5048 L19.5504002,15.202 C19.4832002,15.3196 19.5084002,15.3532 19.5924002,15.4372 L19.5924002,15.4372 Z" id="L&amp;S" fill="#333333" sketch:type="MSShapeGroup"></path>
            </g>
        </g>
    </g>
</svg>