<?xml version="1.0" encoding="UTF-8" standalone="no"?>
<svg width="50px" height="50px" viewBox="0 0 50 50" version="1.1" xmlns="http://www.w3.org/2000/svg" xmlns:xlink="http://www.w3.org/1999/xlink" xmlns:sketch="http://www.bohemiancoding.com/sketch/ns">
    <!-- Generator: Sketch 3.4.4 (17249) - http://www.bohemiancoding.com/sketch -->
    <title>pod copy 2</title>
    <desc>Created with Sketch.</desc>
    <defs></defs>
    <g id="Icons" stroke="none" stroke-width="1" fill="none" fill-rule="evenodd" sketch:type="MSPage">
        <g id="pod-copy-2" sketch:type="MSArtboardGroup">
            <g id="Group" sketch:type="MSLayerGroup" transform="translate(9.000000, 10.000000)">
                <path d="M28.9294425,5.56211727 C30.8603486,4.98377951 32,4.27100318 32,3.5 C32,1.56700338 24.836556,0 16,0 C7.163444,0 0,1.56700338 0,3.5 C0,4.27078277 1.13899987,4.98337199 3.06890178,5.56162125 C3.44083215,8.57078459 5.22087724,22.682625 6,23.5662785 C6.87245512,24.5557861 10.9571667,28.4183578 13,29 C15.0428333,29.5816422 16.972434,29.5816422 19,29 C21.027566,28.4183578 25.189415,24.6449318 26,23.6484222 C26.7240238,22.7583285 28.5481149,8.58011011 28.9294425,5.56211727 Z" id="Oval-3" stroke="#000000" sketch:type="MSShapeGroup"></path>
                <path d="M6,23 C6,23 12.6530654,22.5 16,22.5 C19.3197321,22.5 26,23 26,23" id="Line" stroke="#000000" stroke-linecap="square" sketch:type="MSShapeGroup"></path>
                <path d="M29,5.5 C29,4.11928813 23.1797017,3 16,3 C8.82029825,3 3,4.11928813 3,5.5" id="Path-Copy" stroke="#000000" sketch:type="MSShapeGroup"></path>
                <path d="M13.612,16.196 C13.888,16.472 14.7520001,17.12 16.3120001,17.12 C18.0760002,17.12 19.1440002,15.872 19.1440002,14.6359999 C19.1440002,13.0039998 17.6560002,12.2719998 16.7200001,11.8999998 C15.7720001,11.5159998 15.4120001,11.1799998 15.4120001,10.7359998 C15.4120001,10.4119997 15.7360001,10.1239997 16.1680001,10.1239997 C16.9000002,10.1239997 17.7760002,10.7839998 17.8840002,10.8439998 C17.9920002,10.9279998 18.2080002,10.8199998 18.2920002,10.6879997 L18.9040002,9.76399971 C18.9520002,9.67999971 18.9760002,9.4639997 18.8320002,9.3799997 C18.4720002,9.11599969 17.5120002,8.47999966 16.2640001,8.47999966 C14.4160001,8.47999966 13.492,9.67999971 13.492,10.8679998 C13.492,12.3079998 14.7880001,13.1119998 15.8200001,13.5199999 C16.6360001,13.8439999 17.0560002,14.2279999 17.0560002,14.7319999 C17.0560002,15.1519999 16.7080001,15.4519999 16.2280001,15.4519999 C15.4360001,15.4519999 14.5720001,14.8159999 14.5240001,14.7919999 C14.4400001,14.7319999 14.212,14.7079999 14.116,14.8639999 L13.552,15.86 C13.456,16.028 13.492,16.076 13.612,16.196 L13.612,16.196 Z" id="S" fill="#333333" sketch:type="MSShapeGroup"></path>
            </g>
        </g>
    </g>
</svg>