<?xml version="1.0" encoding="UTF-8" standalone="no"?>
<svg width="20px" height="20px" viewBox="0 0 20 20" version="1.1" xmlns="http://www.w3.org/2000/svg" xmlns:xlink="http://www.w3.org/1999/xlink" xmlns:sketch="http://www.bohemiancoding.com/sketch/ns">
    <!-- Generator: Sketch 3.4.4 (17249) - http://www.bohemiancoding.com/sketch -->
    <title>randomise</title>
    <desc>Created with Sketch.</desc>
    <defs></defs>
    <g id="Icons" stroke="none" stroke-width="1" fill="none" fill-rule="evenodd" sketch:type="MSPage">
        <g id="randomise" sketch:type="MSArtboardGroup">
            <g id="Shape-Copy-3-+-Shape-Copy-+-Shape-Copy-2" sketch:type="MSLayerGroup" transform="translate(3.000000, 9.000000)" stroke="#636363" stroke-width="1.2" stroke-linecap="round" stroke-linejoin="round">
                <path d="M12.6037807,1.62214275 C12.6097291,1.49740428 12.6127416,1.37178293 12.6127416,1.24536558 C12.6127416,0.852955514 12.5837147,0.468218662 12.5279607,0.0937962145 L0.528774522,0.0937962145 C0.473020577,0.468219957 0.443993599,0.852958104 0.443993599,1.24536558 C0.443993599,5.04676904 3.16806343,8.12842601 6.52836762,8.12842601 C8.81908529,8.12842601 10.8141303,6.69634847 11.8520972,4.58041868 C12.10668,5.03597116 12.5260612,5.38255226 13.0515814,5.51357915 C14.1116394,5.77788129 15.2021377,5.06502496 15.4872842,3.92136507 C15.7724294,2.77771022 15.1442435,1.63633243 14.0841855,1.37203029 C13.5653437,1.2426685 13.0392096,1.34739285 12.6037807,1.62214275 Z" id="Shape-Copy-3" sketch:type="MSShapeGroup"></path>
            </g>
            <path d="M7.46330217,5.628 L7.97930217,5.628 C8.04530217,5.628 8.08130217,5.592 8.09330217,5.532 L8.14130217,5.304 C8.22530217,4.902 9.13730217,4.728 9.13730217,3.906 C9.13730217,3.39 8.69330217,3 8.14130217,3 C7.46330217,3 7.12130217,3.45 7.04330217,3.534 C7.00130217,3.582 6.98330217,3.648 7.01930217,3.69 L7.29530217,3.996 C7.33730217,4.038 7.40930217,4.056 7.46930217,4.002 C7.55930217,3.918 7.77530217,3.69 8.01530217,3.69 C8.21930217,3.69 8.33330217,3.816 8.33330217,3.996 C8.33330217,4.464 7.49330217,4.668 7.40930217,5.262 L7.37330217,5.514 C7.36730217,5.58 7.40930217,5.628 7.46330217,5.628 L7.46330217,5.628 Z M7.06130217,6.888 C7.06130217,7.122 7.24130217,7.32 7.48130217,7.32 C7.76330217,7.32 8.03930217,7.068 8.03930217,6.768 C8.03930217,6.534 7.85930217,6.33 7.61930217,6.33 C7.33130217,6.33 7.06130217,6.588 7.06130217,6.888 L7.06130217,6.888 Z" id="?" fill="#636363" sketch:type="MSShapeGroup"></path>
            <path d="M11.4633022,5.628 L11.9793022,5.628 C12.0453022,5.628 12.0813022,5.592 12.0933022,5.532 L12.1413022,5.304 C12.2253022,4.902 13.1373022,4.728 13.1373022,3.906 C13.1373022,3.39 12.6933022,3 12.1413022,3 C11.4633022,3 11.1213022,3.45 11.0433022,3.534 C11.0013022,3.582 10.9833022,3.648 11.0193022,3.69 L11.2953022,3.996 C11.3373022,4.038 11.4093022,4.056 11.4693022,4.002 C11.5593022,3.918 11.7753022,3.69 12.0153022,3.69 C12.2193022,3.69 12.3333022,3.816 12.3333022,3.996 C12.3333022,4.464 11.4933022,4.668 11.4093022,5.262 L11.3733022,5.514 C11.3673022,5.58 11.4093022,5.628 11.4633022,5.628 L11.4633022,5.628 Z M11.0613022,6.888 C11.0613022,7.122 11.2413022,7.32 11.4813022,7.32 C11.7633022,7.32 12.0393022,7.068 12.0393022,6.768 C12.0393022,6.534 11.8593022,6.33 11.6193022,6.33 C11.3313022,6.33 11.0613022,6.588 11.0613022,6.888 L11.0613022,6.888 Z" id="?-copy" fill="#636363" sketch:type="MSShapeGroup"></path>
        </g>
    </g>
</svg>