<?xml version="1.0" encoding="UTF-8" standalone="no"?>
<svg width="50px" height="50px" viewBox="0 0 50 50" version="1.1" xmlns="http://www.w3.org/2000/svg" xmlns:xlink="http://www.w3.org/1999/xlink" xmlns:sketch="http://www.bohemiancoding.com/sketch/ns">
    <!-- Generator: Sketch 3.4.4 (17249) - http://www.bohemiancoding.com/sketch -->
    <title>randomise</title>
    <desc>Created with Sketch.</desc>
    <defs></defs>
    <g id="Icons" stroke="none" stroke-width="1" fill="none" fill-rule="evenodd" sketch:type="MSPage">
        <g id="randomise" sketch:type="MSArtboardGroup" fill="#000000">
            <g id="Shape-Copy-3-+-?-?" sketch:type="MSLayerGroup" transform="translate(6.000000, 5.000000)">
                <path d="M32.4792227,20.9096566 C32.4945006,20.5875011 32.5021653,20.2641247 32.5021653,19.9397484 C32.5021653,18.9235106 32.4269382,17.9177338 32.2783806,16.9296301 C32.2415933,16.6849461 32.0313716,16.5039677 31.7839376,16.5039677 L0.897809707,16.5039677 C0.650375566,16.5039677 0.440153784,16.6849462 0.403366618,16.9296304 C0.254809321,17.9177366 0.17958204,18.9235164 0.17958204,19.9397484 C0.17958204,29.8952217 7.40177877,37.9872416 16.3408736,37.9872416 C22.2988822,37.9872416 27.6771618,34.3591511 30.4988973,28.6506427 L29.6151266,28.6746508 C30.3580997,29.9923807 31.5688029,30.9434684 33.0235101,31.3061676 C36.0275108,32.0551491 39.0944156,30.0712579 39.8864389,26.8946261 C40.6784601,23.7180028 38.9019225,20.5264967 35.8979257,19.7775162 C34.4676966,19.42092 32.9782602,19.677032 31.7159299,20.4612583 L31.979784,20.8859712 L32.4792227,20.9096566 L32.4792227,20.9096566 Z M31.4803453,20.8622857 C31.4612634,21.264651 31.9014745,21.5232542 32.2436381,21.310684 C33.2806005,20.6664682 34.4933581,20.4579318 35.6560038,20.7478119 C38.1092173,21.3594667 39.5780074,23.998112 38.9161432,26.6527042 C38.254277,29.3073046 35.7186498,30.9475278 33.265432,30.3358719 C32.0828189,30.0410133 31.0967776,29.2664125 30.4862074,28.183511 C30.2889226,27.8336087 29.780434,27.8474221 29.6024367,28.2075191 C26.9432382,33.5872073 21.903029,36.9872416 16.3408736,36.9872416 C7.98100208,36.9872416 1.17958204,29.3666757 1.17958204,19.9397484 C1.17958204,18.9732962 1.2510923,18.0172124 1.3922528,17.078305 L0.897809707,17.5039677 L31.7839376,17.5039677 L31.2894945,17.0783053 C31.4306552,18.01721 31.5021653,18.9732904 31.5021653,19.9397484 C31.5021653,20.2483267 31.494875,20.5559083 31.4803453,20.8622857 L31.4803453,20.8622857 Z" id="Shape" sketch:type="MSShapeGroup"></path>
                <path d="M12.0326531,7.7293617 L12.5714286,7.7293617 C12.7183673,7.7293617 12.8816327,7.63234043 12.9142857,7.40595745 L13.0122449,6.74297872 C13.0938776,6.16085106 13.5836735,5.8212766 14.1387755,5.41702128 C14.9387755,4.8187234 15.8693878,4.13957447 15.8693878,2.7812766 C15.8693878,1.50382979 14.9061224,0.646808511 13.5836735,0.646808511 C11.5918367,0.646808511 10.7755102,1.89191489 10.6612245,2.06978723 C10.5795918,2.19914894 10.4816327,2.39319149 10.6612245,2.55489362 L10.955102,2.79744681 C11.0857143,2.9106383 11.1836735,2.92680851 11.3306122,2.7812766 C11.6734694,2.44170213 12.244898,1.6493617 13.3877551,1.6493617 C14.2204082,1.6493617 14.7102041,2.21531915 14.7102041,2.86212766 C14.7102041,3.84851064 14.0244898,4.20425532 13.4204082,4.6893617 C12.8,5.1906383 12.0653061,5.62723404 11.9020408,6.74297872 L11.8040816,7.42212766 C11.7877551,7.6 11.8857143,7.7293617 12.0326531,7.7293617 L12.0326531,7.7293617 L12.0326531,7.7293617 Z M11.0204082,11.4808511 C11.0204082,11.9174468 11.3469388,12.2893617 11.8040816,12.2893617 C12.3428571,12.2893617 12.8326531,11.8204255 12.8326531,11.2544681 C12.8326531,10.8017021 12.522449,10.4459574 12.0653061,10.4459574 C11.5265306,10.4459574 11.0204082,10.8987234 11.0204082,11.4808511 L11.0204082,11.4808511 L11.0204082,11.4808511 Z M22.7428571,7.7293617 L23.2816327,7.7293617 C23.4285714,7.7293617 23.5918367,7.63234043 23.6244898,7.40595745 L23.722449,6.74297872 C23.8040816,6.16085106 24.2938776,5.8212766 24.8489796,5.41702128 C25.6489796,4.8187234 26.5795918,4.13957447 26.5795918,2.7812766 C26.5795918,1.50382979 25.6163265,0.646808511 24.2938776,0.646808511 C22.3020408,0.646808511 21.4857143,1.89191489 21.3714286,2.06978723 C21.2897959,2.19914894 21.1918367,2.39319149 21.3714286,2.55489362 L21.6653061,2.79744681 C21.7959184,2.9106383 21.8938776,2.92680851 22.0408163,2.7812766 C22.3836735,2.44170213 22.955102,1.6493617 24.0979592,1.6493617 C24.9306122,1.6493617 25.4204082,2.21531915 25.4204082,2.86212766 C25.4204082,3.84851064 24.7346939,4.20425532 24.1306122,4.6893617 C23.5102041,5.1906383 22.7755102,5.62723404 22.6122449,6.74297872 L22.5142857,7.42212766 C22.4979592,7.6 22.5959184,7.7293617 22.7428571,7.7293617 L22.7428571,7.7293617 L22.7428571,7.7293617 Z M21.7306122,11.4808511 C21.7306122,11.9174468 22.0571429,12.2893617 22.5142857,12.2893617 C23.0530612,12.2893617 23.5428571,11.8204255 23.5428571,11.2544681 C23.5428571,10.8017021 23.2326531,10.4459574 22.7755102,10.4459574 C22.2367347,10.4459574 21.7306122,10.8987234 21.7306122,11.4808511 L21.7306122,11.4808511 L21.7306122,11.4808511 Z" id="?-?" sketch:type="MSShapeGroup"></path>
            </g>
        </g>
    </g>
</svg>