<?xml version="1.0" encoding="UTF-8" standalone="no"?>
<svg width="50px" height="50px" viewBox="0 0 50 50" version="1.1" xmlns="http://www.w3.org/2000/svg" xmlns:xlink="http://www.w3.org/1999/xlink" xmlns:sketch="http://www.bohemiancoding.com/sketch/ns">
    <!-- Generator: Sketch 3.4.4 (17249) - http://www.bohemiancoding.com/sketch -->
    <title>randomise</title>
    <desc>Created with Sketch.</desc>
    <defs></defs>
    <g id="Icons" stroke="none" stroke-width="1" fill="none" fill-rule="evenodd" sketch:type="MSPage">
        <g id="randomise" sketch:type="MSArtboardGroup">
            <path d="M39.1618767,25.3337079 C43.22004,24.4606742 45.3118767,26.4146067 46.2741216,28.4516854 C47.5292236,31.1123596 46.6506522,34.3550562 44.2659583,36.1842697 C42.0486114,37.888764 39.6220808,37.6808989 36.6098359,35.4775281 C35.9404481,36.3921348 35.2710604,37.3067416 34.5598359,38.1797753 C28.4516726,45.5382022 17.6996318,45.8292135 11.1731012,38.8449438 C6.98942771,34.3550562 5.48330526,28.9921348 6.15269302,22.9640449 C6.23636649,22.2157303 6.52922363,21.9662921 7.28228486,21.9662921 L37.8649379,21.9662921 C38.5761624,21.9662921 38.8690195,22.2988764 38.952693,22.9224719 C38.9945298,23.6707865 39.0782032,24.4606742 39.1618767,25.3337079 L39.1618767,25.3337079 Z M22.6363665,23.2134831 L8.32820322,23.2134831 C7.65881547,23.2134831 7.32412159,23.3382022 7.28228486,24.0865169 C7.03126445,28.0359551 7.82616241,31.7359551 9.87616241,35.1033708 C12.1353461,38.8449438 15.3567747,41.4224719 19.7496318,42.3370787 C26.3598359,43.7089888 32.4679991,40.1752809 35.5639175,34.4797753 C36.2333053,33.2325843 36.4843257,33.2741573 37.4465706,34.3134831 C38.0322849,34.9786517 38.8690195,35.6022472 39.7057542,35.8516854 C41.6720808,36.4337079 43.7639175,35.4775281 44.7679991,33.6898876 C45.897591,31.7359551 45.730244,29.3662921 44.3077951,27.7865169 C42.9271828,26.2483146 41.1282032,25.9573034 38.9945298,26.9134831 C38.1996318,27.2876404 37.8231012,27.0382022 37.7812644,26.1651685 C37.7394277,25.5831461 37.697591,25.0011236 37.7812644,24.4191011 C37.8649379,23.4629213 37.4884073,23.2134831 36.5261624,23.2134831 C31.8822849,23.2134831 27.280244,23.2134831 22.6363665,23.2134831 Z M40.8081633,33.4051124 C42.0941814,33.4051124 43.1154592,32.2936203 43.1154592,30.9460674 C43.1154592,29.5985146 42.0941814,28.4870225 40.8081633,28.4870225 C39.5221452,28.4870225 38.5008673,29.5985146 38.5008673,30.9460674 C38.5008673,32.2936203 39.5221452,33.4051124 40.8081633,33.4051124 Z M40.8081633,32.3117416 C40.153295,32.3117416 39.6011735,31.7108486 39.6011735,30.9460674 C39.6011735,30.1812862 40.153295,29.5803933 40.8081633,29.5803933 C41.4630316,29.5803933 42.0151531,30.1812862 42.0151531,30.9460674 C42.0151531,31.7108486 41.4630316,32.3117416 40.8081633,32.3117416 L40.8081633,32.3117416 Z" id="Shape" fill="#000000" sketch:type="MSShapeGroup"></path>
            <path d="M18.1326531,16.6033708 L18.1326531,16.1460674 C18.1326531,15.1898876 19.6806122,14.7741573 19.6806122,14.0674157 C19.6806122,13.7348315 19.3040816,13.4022472 18.8438776,13.4022472 C18.0489796,13.4022472 17.8397959,14.1089888 17.5469388,13.8595506 L16.8357143,13.194382 C16.7520408,13.111236 16.7520408,12.9865169 16.8357143,12.9033708 C16.8357143,12.9033708 17.672449,11.905618 19.1367347,11.905618 C20.35,11.905618 21.4377551,12.7370787 21.4377551,13.8595506 C21.4377551,15.3561798 19.722449,15.3977528 19.722449,16.6033708 C19.722449,16.7280899 19.6387755,16.811236 19.5132653,16.811236 L18.3,16.811236 C18.2163265,16.811236 18.1326531,16.7280899 18.1326531,16.6033708 L18.1326531,16.6033708 Z" id="Shape" fill="#231F20" sketch:type="MSShapeGroup"></path>
            <rect id="Rectangle-path" fill="#231F20" sketch:type="MSShapeGroup" x="18.4673469" y="17.9337079" width="1.04591837" height="0.873033708"></rect>
            <path d="M19.1367347,18.2662921 L19.1367347,18.4325843 L18.8020408,18.4325843 L18.8020408,18.2662921 L19.1367347,18.2662921 L19.1367347,18.2662921 Z M19.8061224,17.5595506 L18.0908163,17.5595506 L18.0908163,19.1393258 L19.8061224,19.1393258 L19.8061224,17.5595506 L19.8061224,17.5595506 L19.8061224,17.5595506 Z" id="Shape" fill="#231F20" sketch:type="MSShapeGroup"></path>
            <path d="M24.5336735,14.4 L24.5336735,13.6516854 C24.5755102,12.1966292 27.0020408,11.6146067 27.0438776,10.4921348 C27.0438776,9.95168539 26.5,9.45280899 25.7469388,9.45280899 C24.5336735,9.41123596 24.1571429,10.5337079 23.7387755,10.1179775 L22.6928571,9.03707865 C22.5673469,8.91235955 22.5673469,8.70449438 22.6928571,8.57977528 C22.6928571,8.57977528 24.0316327,7.08314607 26.2908163,7.1247191 C28.1316327,7.16629213 29.8469388,8.49662921 29.805102,10.2426966 C29.7632653,12.5292135 27.127551,12.5707865 27.0857143,14.441573 C27.0857143,14.6494382 26.9183673,14.7741573 26.7510204,14.7741573 L24.8683673,14.7325843 C24.7010204,14.7325843 24.5336735,14.6078652 24.5336735,14.4 L24.5336735,14.4 Z" id="Shape" fill="#231F20" sketch:type="MSShapeGroup"></path>
            <path d="M26.581794,16.4920794 L26.5520327,17.8221504 L24.9625547,17.7870315 L24.992316,16.4569605 L26.581794,16.4920794 L26.581794,16.4920794 Z" id="Rectangle-path" fill="#231F20" sketch:type="MSShapeGroup"></path>
            <path d="M25.5377551,17.0191011 L26.0397959,17.0191011 L26.0397959,17.2685393 L25.5377551,17.2685393 L25.5377551,17.0191011 L25.5377551,17.0191011 Z M24.4918367,15.8966292 L24.45,18.3078652 L27.127551,18.3494382 L27.1693878,15.9382022 L24.4918367,15.8966292 L24.4918367,15.8966292 L24.4918367,15.8966292 Z" id="Shape" fill="#231F20" sketch:type="MSShapeGroup"></path>
        </g>
    </g>
</svg>