<?xml version="1.0" encoding="UTF-8" standalone="no"?>
<svg width="20px" height="20px" viewBox="0 0 20 20" version="1.1" xmlns="http://www.w3.org/2000/svg" xmlns:xlink="http://www.w3.org/1999/xlink" xmlns:sketch="http://www.bohemiancoding.com/sketch/ns">
    <!-- Generator: Sketch 3.4.4 (17249) - http://www.bohemiancoding.com/sketch -->
    <title>Recurrable Small</title>
    <desc>Created with Sketch.</desc>
    <defs></defs>
    <g id="Icons" stroke="none" stroke-width="1" fill="none" fill-rule="evenodd" sketch:type="MSPage">
        <g id="Recurrable-Small" sketch:type="MSArtboardGroup" stroke-linecap="round" stroke="#000000" stroke-linejoin="round">
            <g id="Group-Copy" sketch:type="MSLayerGroup" transform="translate(10.390163, 10.085600) rotate(19.000000) translate(-10.390163, -10.085600) translate(1.390163, 3.085600)">
                <g id="Group" transform="translate(0.340572, 0.000000)" sketch:type="MSShapeGroup">
                    <g transform="translate(7.207941, 10.414005) scale(-1, -1) translate(-7.207941, -10.414005) translate(0.207941, 6.914005)" id="Shape">
                        <g transform="translate(6.035292, 3.506353) rotate(0.000000) translate(-6.035292, -3.506353) translate(0.035292, 1.006353)">
                            <path d="M0.0450955404,4.29509194 C0.0450955404,4.29509194 1.58331913,0.0294435418 5.94364124,0.0225285855 C10.6132158,0.0151244511 11.9753168,4.29713955 11.9753168,4.29713955"></path>
                        </g>
                        <g transform="translate(12.789432, 3.489427) scale(-1, -1) translate(-12.789432, -3.489427) translate(11.789432, 0.989427)">
                            <path d="M1.40387034,0.30109406 L0.288770361,4.33860754"></path>
                        </g>
                        <g transform="translate(10.703170, 4.976525) scale(1, -1) translate(-10.703170, -4.976525) translate(8.203170, 3.976525)">
                            <path d="M4.05053586,0.30109406 L0.133380362,1.21202593"></path>
                        </g>
                    </g>
                    <g transform="translate(2.245711, 0.022055)" id="Shape">
                        <g transform="translate(6.035292, 3.506353) rotate(0.000000) translate(-6.035292, -3.506353) translate(0.035292, 1.006353)">
                            <path d="M0.0450955404,4.29509194 C0.0450955404,4.29509194 1.58331913,0.0294435418 5.94364124,0.0225285855 C10.6132158,0.0151244511 11.9753168,4.29713955 11.9753168,4.29713955"></path>
                        </g>
                        <g transform="translate(12.789432, 3.489427) scale(-1, -1) translate(-12.789432, -3.489427) translate(11.789432, 0.989427)">
                            <path d="M1.40387034,0.30109406 L0.288770361,4.33860754"></path>
                        </g>
                        <g transform="translate(10.299808, 5.180562) scale(1, -1) translate(-10.299808, -5.180562) translate(8.299808, 4.680562)">
                            <path d="M3.95389856,0.00513123966 L0.0367430621,0.916063112"></path>
                        </g>
                    </g>
                </g>
            </g>
        </g>
    </g>
</svg>