<?xml version="1.0" encoding="UTF-8" standalone="no"?>
<svg width="50px" height="50px" viewBox="0 0 50 50" version="1.1" xmlns="http://www.w3.org/2000/svg" xmlns:xlink="http://www.w3.org/1999/xlink" xmlns:sketch="http://www.bohemiancoding.com/sketch/ns">
    <!-- Generator: Sketch 3.4.4 (17249) - http://www.bohemiancoding.com/sketch -->
    <title>recurring</title>
    <desc>Created with Sketch.</desc>
    <defs></defs>
    <g id="Icons" stroke="none" stroke-width="1" fill="none" fill-rule="evenodd" sketch:type="MSPage">
        <g id="recurring" sketch:type="MSArtboardGroup" stroke-linecap="round" stroke="#000000" stroke-linejoin="round">
            <g id="Group-Copy" sketch:type="MSLayerGroup" transform="translate(24.472759, 26.662784) rotate(19.000000) translate(-24.472759, -26.662784) translate(3.972759, 11.162784)">
                <g id="Group" transform="translate(0.833333, 0.000000)" sketch:type="MSShapeGroup">
                    <g transform="translate(17.764907, 22.651958) scale(-1, -1) translate(-17.764907, -22.651958) translate(0.764907, 16.151958)" id="Shape">
                        <g transform="translate(15.086355, 5.515545) rotate(0.000000) translate(-15.086355, -5.515545) translate(0.086355, 0.015545)" stroke-width="1.35500002">
                            <path d="M0.110342679,10.5095082 C0.110342679,10.5095082 3.87416745,0.0720443587 14.543285,0.0551243973 C25.9691016,0.0370074831 29.3019782,10.5145184 29.3019782,10.5145184"></path>
                        </g>
                        <g transform="translate(31.740872, 6.708451) scale(-1, -1) translate(-31.740872, -6.708451) translate(29.740872, 1.208451)" stroke-width="1.255">
                            <path d="M3.43508056,0.73673638 L0.706581959,10.615985"></path>
                        </g>
                        <g transform="translate(25.072047, 10.676883) scale(1, -1) translate(-25.072047, -10.676883) translate(20.072047, 9.176883)" stroke-width="1.255">
                            <path d="M9.91111259,0.73673638 L0.326363679,2.96566328"></path>
                        </g>
                    </g>
                    <g transform="translate(5.494952, 0.053965)" id="Shape">
                        <g transform="translate(15.086355, 5.515545) rotate(0.000000) translate(-15.086355, -5.515545) translate(0.086355, 0.015545)" stroke-width="1.35500002">
                            <path d="M0.110342679,10.5095082 C0.110342679,10.5095082 3.87416745,0.0720443587 14.543285,0.0551243973 C25.9691016,0.0370074831 29.3019782,10.5145184 29.3019782,10.5145184"></path>
                        </g>
                        <g transform="translate(31.740872, 6.708451) scale(-1, -1) translate(-31.740872, -6.708451) translate(29.740872, 1.208451)" stroke-width="1.255">
                            <path d="M3.43508056,0.73673638 L0.706581959,10.615985"></path>
                        </g>
                        <g transform="translate(25.308505, 9.952702) scale(1, -1) translate(-25.308505, -9.952702) translate(20.308505, 8.452702)" stroke-width="1.255">
                            <path d="M9.67465421,0.0125554484 L0.089905296,2.24148235"></path>
                        </g>
                    </g>
                </g>
            </g>
        </g>
    </g>
</svg>