<svg xmlns="http://www.w3.org/2000/svg" xmlns:xlink="http://www.w3.org/1999/xlink" viewBox="0 0 50 50" version="1.1" width="50" height="50">
<g id="surface1">
<path style=" " d="M 23 2 C 22.449219 2 22 2.449219 22 3 L 22 4 C 22 4.226563 22.078125 4.449219 22.21875 4.625 L 26 9.351563 L 26 11 L 8 11 C 7.449219 11 7 11.449219 7 12 L 7 47 C 7 47.550781 7.449219 48 8 48 L 39 48 C 39.550781 48 40 47.550781 40 47 L 40 33 L 42 33 C 42.550781 33 43 32.550781 43 32 L 43 26 C 43 25.449219 42.550781 25 42 25 L 28 25 L 28 22.261719 L 29.8125 19 L 34 19 C 34.15625 19 34.308594 18.964844 34.449219 18.894531 L 35.898438 18.167969 C 36.496094 18.5625 37.253906 18.609375 37.894531 18.289063 L 38.894531 17.789063 C 39.738281 17.382813 40.1875 16.445313 39.976563 15.53125 C 39.761719 14.621094 38.945313 13.976563 38.011719 13.984375 C 37.695313 13.988281 37.386719 14.066406 37.105469 14.210938 L 36.105469 14.710938 C 35.46875 15.03125 35.046875 15.667969 35.003906 16.378906 L 33.765625 17 L 30.921875 17 L 32.875 13.484375 C 32.957031 13.335938 33 13.171875 33 13 L 33 12 L 37 12 C 37.15625 12 37.308594 11.964844 37.449219 11.894531 L 38.90625 11.164063 C 39.234375 11.378906 39.613281 11.5 40 11.5 C 40.304688 11.5 40.609375 11.433594 40.894531 11.289063 L 41.894531 10.789063 C 42.882813 10.292969 43.28125 9.09375 42.789063 8.105469 C 42.292969 7.117188 41.089844 6.714844 40.105469 7.210938 L 39.105469 7.710938 C 38.445313 8.042969 38.054688 8.6875 38.011719 9.375 L 36.765625 10 L 33 10 L 33 9.351563 L 36.78125 4.625 C 36.921875 4.449219 37 4.226563 37 4 L 37 3 C 37 2.449219 36.550781 2 36 2 Z M 24.28125 4 L 34.71875 4 L 31.519531 8 L 27.480469 8 Z M 28 10 L 31 10 L 31 10.832031 C 30.980469 10.941406 30.980469 11.050781 31 11.15625 L 31 12.738281 L 28 18.140625 Z M 9 13 L 26 13 L 26 25.832031 C 25.980469 25.941406 25.980469 26.050781 26 26.15625 L 26 31.832031 C 25.949219 32.125 26.03125 32.425781 26.226563 32.652344 C 26.417969 32.875 26.703125 33.003906 27 33 L 38 33 L 38 46 L 9 46 Z M 13 27 C 12.449219 27 12 27.449219 12 28 C 12 28.550781 12.449219 29 13 29 C 13.550781 29 14 28.550781 14 28 C 14 27.449219 13.550781 27 13 27 Z M 16 27 C 15.449219 27 15 27.449219 15 28 C 15 28.550781 15.449219 29 16 29 C 16.550781 29 17 28.550781 17 28 C 17 27.449219 16.550781 27 16 27 Z M 19 27 C 18.449219 27 18 27.449219 18 28 C 18 28.550781 18.449219 29 19 29 C 19.550781 29 20 28.550781 20 28 C 20 27.449219 19.550781 27 19 27 Z M 22 27 C 21.449219 27 21 27.449219 21 28 C 21 28.550781 21.449219 29 22 29 C 22.550781 29 23 28.550781 23 28 C 23 27.449219 22.550781 27 22 27 Z M 28 27 L 41 27 L 41 31 L 28 31 Z M 12 30 L 12 32 L 17 32 L 17 30 Z M 18 30 L 18 32 L 23 32 L 23 30 Z M 14 38 C 12.355469 38 11 39.355469 11 41 C 11 42.644531 12.355469 44 14 44 C 15.644531 44 17 42.644531 17 41 C 17 39.355469 15.644531 38 14 38 Z M 14 40 C 14.5625 40 15 40.4375 15 41 C 15 41.5625 14.5625 42 14 42 C 13.4375 42 13 41.5625 13 41 C 13 40.4375 13.4375 40 14 40 Z "/>
</g>
</svg>