<?xml version="1.0" encoding="UTF-8" standalone="no"?>
<svg width="20px" height="20px" viewBox="0 0 20 20" version="1.1" xmlns="http://www.w3.org/2000/svg" xmlns:xlink="http://www.w3.org/1999/xlink" xmlns:sketch="http://www.bohemiancoding.com/sketch/ns">
    <!-- Generator: Sketch 3.3.3 (12072) - http://www.bohemiancoding.com/sketch -->
    <title>stamp</title>
    <desc>Created with Sketch.</desc>
    <defs></defs>
    <g id="Icons" stroke="none" stroke-width="1" fill="none" fill-rule="evenodd" sketch:type="MSPage">
        <g id="stamp" sketch:type="MSArtboardGroup" fill="#F1A84B">
            <path d="M14.6788973,17.2431559 C14.6307985,17.238403 13.5868821,17.2365019 13.7728137,18.4243346 C13.9224335,19.0279468 14.5553232,19.271673 15.0340304,19.0376426 C15.6230038,18.7509506 15.6026616,18.1969582 15.5072243,17.9142586 C15.4053232,17.6127376 15.3581749,17.3108365 14.6788973,17.2431559 Z M14.98327,5.61406844 C15.0053232,5.82262357 14.843346,6.01730038 14.6307985,6.03859316 C14.421673,6.06026616 14.2271863,5.90228137 14.2060837,5.69334601 C14.1838403,5.48098859 14.3414449,5.28250951 14.5501901,5.26140684 C14.7640684,5.23897338 14.9623574,5.4013308 14.98327,5.61406844 Z M15.015019,11.6825095 L16.0509506,12.1469582 C16.0665399,12.1538023 16.0745247,12.1726236 16.0669202,12.189924 L15.7760456,12.8374525 C15.7690114,12.8555133 15.7490494,12.8612167 15.7336502,12.8543726 L15.5634981,12.7771863 C15.5475285,12.7705323 15.5387833,12.7515209 15.5467681,12.7351711 L15.7408745,12.3005703 L15.5161597,12.2001901 L15.3558935,12.5564639 C15.3486692,12.5720532 15.328327,12.5798479 15.3121673,12.5726236 L15.1425856,12.4973384 C15.1271863,12.489924 15.1186312,12.4692015 15.1256654,12.4536122 L15.2859316,12.0965779 L14.9064639,11.9260456 C14.8903042,11.9192015 14.8825095,11.8988593 14.8891635,11.8828897 L14.9726236,11.6984791 C14.9809886,11.6819392 14.9994297,11.6750951 15.015019,11.6825095 L15.015019,11.6825095 Z M15.6475285,7.69809886 C15.9806084,7.61768061 16.313308,7.82186312 16.3931559,8.15570342 C16.4330798,8.32281369 16.4110266,8.45855513 16.3344106,8.59657795 C16.3249049,8.6148289 16.3043726,8.61920152 16.2887833,8.6095057 L16.1226236,8.51159696 C16.1077947,8.5026616 16.1034221,8.48441065 16.1114068,8.46958175 C16.1524715,8.39505703 16.1627376,8.30608365 16.1439163,8.22452471 C16.0986692,8.03555133 15.9087452,7.9351711 15.7212928,7.97965779 C15.5363118,8.0243346 15.4161597,8.20076046 15.4614068,8.38897338 C15.4806084,8.46787072 15.5288973,8.5460076 15.5960076,8.59353612 C15.6085551,8.6026616 15.6131179,8.62452471 15.6038023,8.63745247 L15.4971483,8.80076046 C15.4878327,8.81501901 15.4657795,8.81882129 15.4511407,8.80969582 C15.3144487,8.72281369 15.228327,8.59087452 15.1925856,8.44296578 C15.1123574,8.10969582 15.3140684,7.77737643 15.6475285,7.69809886 L15.6475285,7.69809886 Z M15.8488593,10.8990494 C15.5072243,10.8648289 15.263308,10.565019 15.2965779,10.2235741 C15.3315589,9.88250951 15.630038,9.63821293 15.9712928,9.67224335 C16.3121673,9.70665399 16.5593156,10.0045627 16.5260456,10.3461977 C16.4914449,10.6878327 16.1893536,10.9334601 15.8488593,10.8990494 L15.8488593,10.8990494 Z M15.0863118,13.8990494 L14.6239544,14.4374525 C14.6106464,14.4524715 14.5910646,14.4524715 14.5775665,14.4412548 L14.4353612,14.3197719 C14.4226236,14.3089354 14.4201521,14.2882129 14.4325095,14.2737643 L14.7414449,13.9129278 L14.5545627,13.7526616 L14.2992395,14.0492395 C14.2887833,14.0625475 14.2661597,14.0642586 14.2528517,14.0528517 L14.1114068,13.9311787 C14.0990494,13.9203422 14.0967681,13.8980989 14.108365,13.884981 L14.3627376,13.5882129 L14.0460076,13.3174905 C14.0330798,13.3060837 14.0323194,13.284981 14.0427757,13.271673 L14.1750951,13.118251 C14.1863118,13.1038023 14.2074144,13.1038023 14.2201521,13.1142586 L15.0819392,13.8524715 C15.0946768,13.8642586 15.0967681,13.8851711 15.0863118,13.8990494 L15.0863118,13.8990494 Z M13.6579848,15.2636882 L13.060076,15.6467681 C13.0446768,15.656654 13.0250951,15.6515209 13.0153992,15.636692 L12.915019,15.4796578 C12.9057034,15.465019 12.9079848,15.4444867 12.9245247,15.4346008 L13.3241445,15.1781369 L13.2089354,14.9984791 L12.8802281,15.2096958 C12.8663498,15.2192015 12.8448669,15.215019 12.834981,15.2 L12.7340304,15.0435361 C12.7237643,15.0264259 12.7294677,15.0072243 12.7431559,14.998289 L13.0731939,14.7865019 L12.9479087,14.5918251 L12.5480989,14.8486692 C12.5326996,14.8595057 12.5129278,14.8536122 12.5034221,14.8387833 L12.4026616,14.681749 C12.3925856,14.6676806 12.3958175,14.6473384 12.4123574,14.6363118 L13.0091255,14.2530418 C13.0258555,14.2435361 13.0452471,14.2480989 13.0543726,14.2629278 L13.6676806,15.2184411 C13.676616,15.2325095 13.673384,15.2530418 13.6579848,15.2636882 L13.6579848,15.2636882 Z M11.8570342,16.1773764 L11.1731939,16.3701521 C11.1558935,16.3752852 11.138403,16.3636882 11.1340304,16.3473384 L11.0828897,16.1671103 C11.0781369,16.1505703 11.0872624,16.1326996 11.1051331,16.1277567 L11.5625475,15.9984791 L11.5058935,15.7939163 L11.1285171,15.8998099 C11.1125475,15.9041825 11.0925856,15.8939163 11.0885932,15.8771863 L11.0378327,15.6969582 C11.0326996,15.6787072 11.0435361,15.6610266 11.0602662,15.6576046 L11.4363118,15.5507605 L11.3743346,15.328327 L10.9169202,15.456654 C10.8988593,15.461597 10.8815589,15.4509506 10.8769962,15.4346008 L10.8254753,15.2543726 C10.8214829,15.2382129 10.8304183,15.2203422 10.8484791,15.2140684 L11.531749,15.0214829 C11.5501901,15.01673 11.5673004,15.0285171 11.5724335,15.0456274 L11.8792776,16.1376426 C11.8840304,16.1538023 11.8758555,16.171673 11.8570342,16.1773764 L11.8570342,16.1773764 Z M9.72813688,14.7142586 C6.94752852,14.7488593 4.66520913,12.5235741 4.63117871,9.74391635 C4.5960076,6.96330798 6.82129278,4.68098859 9.60152091,4.6460076 C12.3815589,4.61102662 14.6648289,6.8365019 14.6990494,9.61749049 C14.7336502,12.3975285 12.5085551,14.6798479 9.72813688,14.7142586 L9.72813688,14.7142586 Z M8.72490494,16.2655894 C8.51558935,16.286692 8.32148289,16.128327 8.30019011,15.9192015 C8.27908745,15.7062738 8.43669202,15.508365 8.64410646,15.4882129 C8.85874525,15.4655894 9.05665399,15.6277567 9.07775665,15.8410646 C9.09923954,16.0498099 8.93631179,16.2435361 8.72490494,16.2655894 L8.72490494,16.2655894 Z M6.97889734,14.6804183 L6.38992395,15.6498099 C6.38079848,15.6644487 6.36121673,15.6709125 6.34505703,15.6610266 L6.17110266,15.5557034 C6.15589354,15.5463878 6.15095057,15.5247148 6.16007605,15.5102662 L6.6351711,14.7275665 L6.28631179,14.5165399 C6.26977186,14.506654 6.26692015,14.4863118 6.27604563,14.4712928 L6.37281369,14.3117871 C6.38117871,14.2967681 6.40076046,14.2912548 6.41673004,14.3011407 L6.96863118,14.6355513 C6.98403042,14.6454373 6.9878327,14.6661597 6.97889734,14.6804183 L6.97889734,14.6804183 Z M5.35494297,14.2245247 C5.09619772,14.4484791 4.70931559,14.4241445 4.48422053,14.1652091 C4.25874525,13.9055133 4.28802281,13.5169202 4.54657795,13.2923954 C4.80570342,13.0684411 5.19201521,13.0969582 5.41653992,13.3553232 C5.64087452,13.6153992 5.61387833,14.0003802 5.35494297,14.2245247 L5.35494297,14.2245247 Z M3.5134981,12.7140684 L3.42870722,12.5026616 C3.42414449,12.489924 3.42870722,12.4747148 3.43574144,12.468251 L3.9121673,11.9735741 L3.90836502,11.9636882 L3.22243346,11.9326996 C3.21254753,11.9326996 3.19885932,11.9254753 3.19353612,11.9131179 L3.10988593,11.7007605 C3.1,11.676616 3.11520913,11.6562738 3.14011407,11.6579848 L4.41102662,11.7306084 C4.42319392,11.7309886 4.43479087,11.7380228 4.43992395,11.7501901 L4.44676806,11.7663498 C4.45095057,11.7790875 4.4473384,11.7920152 4.43973384,11.8005703 L3.56520913,12.7249049 C3.54847909,12.7427757 3.5230038,12.7380228 3.5134981,12.7140684 L3.5134981,12.7140684 Z M2.86673004,10.4937262 L2.81330798,9.78536122 C2.81197719,9.76596958 2.82661597,9.75190114 2.84353612,9.75057034 L3.02965779,9.73631179 C3.0473384,9.73498099 3.06330798,9.74790875 3.06463878,9.7661597 L3.10038023,10.239924 L3.31235741,10.2239544 L3.28307985,9.83441065 C3.28212928,9.81730038 3.29619772,9.80038023 3.3134981,9.79942966 L3.49942966,9.78536122 C3.51882129,9.78441065 3.53326996,9.79847909 3.53441065,9.81520913 L3.56330798,10.2053232 L3.79429658,10.1880228 L3.75874525,9.71406844 C3.75741445,9.69581749 3.771673,9.68041825 3.78897338,9.67927757 L3.97528517,9.66520913 C3.9918251,9.66406844 4.00874525,9.6769962 4.00988593,9.69581749 L4.06311787,10.4034221 C4.06463878,10.4218631 4.05095057,10.436692 4.03326996,10.4387833 L2.90152091,10.5235741 C2.8838403,10.5247148 2.86787072,10.5117871 2.86673004,10.4937262 L2.86673004,10.4937262 Z M3.79828897,6.92072243 C4.01197719,6.89885932 4.20988593,7.06045627 4.23174905,7.27395437 C4.25304183,7.48231939 4.0904943,7.6769962 3.878327,7.69809886 C3.66939163,7.71958175 3.47490494,7.56140684 3.45418251,7.3526616 C3.43250951,7.13954373 3.58973384,6.94201521 3.79828897,6.92072243 L3.79828897,6.92072243 Z M4.62224335,5.02243346 L5.12395437,4.52110266 C5.1378327,4.50722433 5.1581749,4.50874525 5.17034221,4.52110266 L5.3026616,4.65304183 C5.31444867,4.66501901 5.31596958,4.68555133 5.3026616,4.6986692 L4.96692015,5.03460076 L5.14144487,5.20912548 L5.41749049,4.93307985 C5.42946768,4.92072243 5.45171103,4.92072243 5.46425856,4.93307985 L5.59581749,5.06520913 C5.6081749,5.07718631 5.60741445,5.09904943 5.59581749,5.1108365 L5.31920152,5.38802281 L5.61387833,5.68269962 C5.6256654,5.69429658 5.6256654,5.7161597 5.61387833,5.72908745 L5.47034221,5.87129278 C5.45684411,5.88460076 5.43688213,5.8838403 5.42452471,5.87129278 L4.62224335,5.06863118 C4.60988593,5.05646388 4.60893536,5.03555133 4.62224335,5.02243346 L4.62224335,5.02243346 Z M6.1595057,3.76292776 L6.61387833,3.52547529 C6.79619772,3.43022814 7.02224335,3.5 7.11673004,3.68098859 C7.18954373,3.82034221 7.15532319,3.98212928 7.05095057,4.10418251 L7.4608365,4.38136882 C7.48174905,4.39543726 7.48365019,4.42547529 7.45779468,4.43897338 L7.25608365,4.54448669 C7.24353612,4.55095057 7.23041825,4.54809886 7.22414449,4.54353612 L6.81178707,4.2460076 L6.70684411,4.30076046 L6.90912548,4.68859316 C6.91711027,4.70418251 6.91064639,4.72414449 6.89543726,4.73307985 L6.7148289,4.82661597 C6.69790875,4.83593156 6.67870722,4.82813688 6.67091255,4.81254753 L6.14543726,3.80703422 C6.13745247,3.79144487 6.14277567,3.771673 6.1595057,3.76292776 L6.1595057,3.76292776 Z M8.17889734,2.96235741 L8.87794677,2.84030418 C8.89714829,2.83669202 8.91254753,2.84980989 8.9161597,2.86653992 L8.94828897,3.05038023 C8.95076046,3.06730038 8.93992395,3.08498099 8.92186312,3.08821293 L8.4539924,3.16996198 L8.4904943,3.37984791 L8.87528517,3.3121673 C8.89201521,3.30893536 8.91026616,3.32224335 8.91387833,3.33859316 L8.9460076,3.52319392 C8.94828897,3.54106464 8.93593156,3.55798479 8.91901141,3.5608365 L8.53403042,3.62756654 L8.57357414,3.85589354 L9.04163498,3.77395437 C9.06007605,3.77129278 9.07642586,3.78365019 9.07851711,3.80076046 L9.11159696,3.98479087 C9.11387833,4.00152091 9.10361217,4.01863118 9.08536122,4.02186312 L8.38555133,4.14448669 C8.36711027,4.14828897 8.35114068,4.1351711 8.34828897,4.11749049 L8.15247148,2.99980989 C8.14885932,2.98288973 8.16064639,2.96558935 8.17889734,2.96235741 L8.17889734,2.96235741 Z M9.96539924,3.83403042 L10.0619772,3.70171103 C10.078327,3.68155894 10.1106464,3.68878327 10.1211027,3.69809886 C10.1273764,3.70190114 10.2395437,3.80703422 10.3526616,3.81996198 C10.4207224,3.82775665 10.4745247,3.79106464 10.4815589,3.73117871 C10.4893536,3.65988593 10.4363118,3.59790875 10.3254753,3.5391635 C10.1861217,3.46425856 10.0148289,3.32908745 10.0393536,3.12471483 C10.0589354,2.95570342 10.2089354,2.80076046 10.4712928,2.83098859 C10.6488593,2.8513308 10.7747148,2.95741445 10.8214829,3.00114068 C10.8406844,3.01539924 10.8330798,3.04562738 10.8250951,3.05665399 L10.7228137,3.17737643 C10.7093156,3.19505703 10.6768061,3.20646388 10.6629278,3.19353612 C10.6488593,3.18288973 10.5347909,3.07490494 10.4309886,3.06254753 C10.3692015,3.05570342 10.3184411,3.09125475 10.3134981,3.13726236 C10.3058935,3.20019011 10.3526616,3.25418251 10.4806084,3.32376426 C10.6068441,3.39201521 10.8060837,3.52072243 10.7785171,3.75228137 C10.7591255,3.92737643 10.5872624,4.08726236 10.336692,4.0581749 C10.1152091,4.03231939 10.0036122,3.92623574 9.96844106,3.88269962 C9.95342205,3.86406844 9.94961977,3.85589354 9.96539924,3.83403042 L9.96539924,3.83403042 Z M11.5967681,4.27718631 L12.0726236,3.24714829 C12.0798479,3.23117871 12.1009506,3.22376426 12.1161597,3.23079848 L12.3013308,3.31653992 C12.3190114,3.32452471 12.3245247,3.34467681 12.3178707,3.3595057 L12.1365019,3.75228137 L12.5821293,3.95722433 L12.7623574,3.56539924 C12.7690114,3.54961977 12.7878327,3.54163498 12.8051331,3.54961977 L12.9914449,3.6351711 C13.0058935,3.64220532 13.0144487,3.66273764 13.0070342,3.678327 L12.5306084,4.70836502 C12.5231939,4.72357414 12.5028517,4.73174905 12.4868821,4.72414449 L12.3024715,4.6391635 C12.2846008,4.63136882 12.2788973,4.61102662 12.2863118,4.59543726 L12.4756654,4.18631179 L12.0304183,3.98098859 L11.8410646,4.39030418 C11.8344106,4.40589354 11.8152091,4.4134981 11.7984791,4.40665399 L11.613308,4.32034221 C11.5973384,4.31330798 11.5904943,4.29277567 11.5967681,4.27718631 L11.5967681,4.27718631 Z M9.58326996,2.19125475 C5.46711027,2.24334601 2.17205323,5.62148289 2.22414449,9.73745247 C2.27547529,13.8534221 5.65418251,17.1488593 9.77015209,17.0971483 C13.8861217,17.0458175 17.1821293,13.6673004 17.130038,9.55095057 C17.0777567,5.43441065 13.6996198,2.13935361 9.58326996,2.19125475 L9.58326996,2.19125475 Z M9.76425856,17.606654 C5.39372624,17.6608365 1.80570342,14.1619772 1.7513308,9.79163498 C1.69676806,5.42053232 5.19505703,1.83346008 9.56634981,1.77813688 C13.936692,1.72376426 17.5243346,5.22243346 17.5790875,9.59334601 C17.6342205,13.9634981 14.1353612,17.5515209 9.76425856,17.606654 L9.76425856,17.606654 Z M19.2425856,7.90361217 C19.1203422,7.27528517 18.7602662,6.4621673 18.5441065,6.20931559 C18.3281369,5.95608365 17.7614068,5.59068441 17.3344106,5.41539924 C16.5330798,3.82357414 15.3153992,2.77091255 14.5815589,2.19505703 C13.8980989,1.65855513 12.5460076,0.996197719 10.7614068,0.996197719 C9.14391635,0.829087452 8.3351711,0.829087452 6.73041825,1.19030418 C3.48669202,1.70893536 2.28688213,4.26292776 2.28688213,4.26292776 C2.28688213,4.26292776 1.35418251,6.22851711 0.990114068,7.02243346 C-1.55741445,9.65836502 1.61558935,13.6671103 1.61558935,13.6671103 C1.1039924,14.5577947 2.80836502,15.6201521 3.53954373,15.95 C4.4473384,16.8790875 4.6460076,16.5385932 4.92870722,16.7195817 C5.08079848,16.9528517 5.18307985,17.231749 5.37927757,17.3418251 C5.57585551,17.4520913 5.77452471,17.591635 6.23098859,17.4806084 C6.2486692,17.4859316 6.33060837,17.4925856 6.33821293,17.4996198 C11.3460076,21.0631179 13.561597,17.611597 14.3022814,16.7828897 C17.2268061,18.3019011 19.2231939,11.1129278 18.7230038,10.4338403 C19.4119772,9.85076046 19.3610266,8.62072243 19.2425856,7.90361217 L19.2425856,7.90361217 Z M4.7269962,13.5001901 C4.58441065,13.6237643 4.56730038,13.8429658 4.69144487,13.9853612 C4.81368821,14.126616 5.03288973,14.1406844 5.17490494,14.0173004 C5.31653992,13.895057 5.33212928,13.6773764 5.20912548,13.5357414 C5.08574144,13.393346 4.86787072,13.3773764 4.7269962,13.5001901 L4.7269962,13.5001901 Z M15.9437262,9.94524715 C15.7570342,9.92661597 15.5887833,10.0653992 15.569962,10.251711 C15.5522814,10.4389734 15.6901141,10.6072243 15.8750951,10.6260456 C16.0642586,10.6442966 16.2344106,10.506654 16.2528517,10.3192015 C16.2712928,10.1325095 16.1315589,9.96387833 15.9437262,9.94524715 L15.9437262,9.94524715 Z M11.7047529,10.7703422 C11.6986692,10.7811787 11.6941065,10.7903042 11.6878327,10.8005703 C11.6823194,10.8121673 11.6775665,10.8226236 11.6707224,10.8330798 C10.8709125,12.3285171 9.76368821,12.8446768 8.75684411,12.6184411 C8.68022814,12.6007605 8.57509506,12.5007605 8.77262357,12.3944867 C8.85,12.3361217 8.92262357,12.2743346 8.99391635,12.2077947 C9.21768061,11.9998099 9.40665399,11.7543726 9.56520913,11.4963878 C9.85152091,11.0203422 10.048289,10.5045627 10.1441065,9.97471483 C10.1591255,9.89980989 10.1731939,9.82471483 10.1834601,9.74942966 L10.1846008,9.74885932 L10.1846008,9.7473384 C10.2610266,9.25247148 10.3692015,8.77205323 10.5347909,8.31273764 C10.6163498,8.08403042 10.7138783,7.86102662 10.830038,7.64410646 C10.8872624,7.5365019 10.9513308,7.43098859 11.0195817,7.3269962 C11.11673,7.18288973 11.2821293,7.08935361 11.5089354,7.29467681 C12.3104563,7.9986692 12.5285171,9.23193916 11.7047529,10.7703422 L11.7047529,10.7703422 Z M8.44429658,12.0984791 C8.34543726,12.2431559 8.17946768,12.3361217 7.95323194,12.1309886 C7.15228137,11.4269962 6.93422053,10.1935361 7.75760456,8.65589354 C7.76368821,8.64467681 7.76958175,8.6351711 7.77471483,8.62395437 C7.78193916,8.61292776 7.78555133,8.60361217 7.79125475,8.59258555 C8.59220532,7.0973384 9.69828897,6.58079848 10.706654,6.80798479 C10.7823194,6.82528517 10.8872624,6.92490494 10.6901141,7.03212928 C10.6131179,7.08878327 10.5395437,7.1513308 10.4680608,7.21768061 C10.2444867,7.42623574 10.0560837,7.67129278 9.8973384,7.93041825 C9.61178707,8.40570342 9.41444867,8.92110266 9.31825095,9.45057034 C9.30323194,9.52680608 9.28992395,9.60019011 9.27870722,9.67604563 C9.27870722,9.67604563 9.27870722,9.67604563 9.27870722,9.67623574 L9.27870722,9.67813688 C9.20304183,10.1737643 9.09296578,10.6539924 8.928327,11.1117871 C8.84581749,11.3420152 8.74828897,11.5653992 8.63307985,11.7806084 C8.57509506,11.8903042 8.5108365,11.9956274 8.44429658,12.0984791 L8.44429658,12.0984791 Z M9.60646388,5.03365019 C7.04030418,5.06539924 4.98631179,7.17205323 5.01844106,9.73859316 C5.05057034,12.3053232 7.15703422,14.3593156 9.72357414,14.3273764 C12.2901141,14.2948669 14.3435361,12.1882129 14.3125475,9.62281369 C14.280038,7.05570342 12.1731939,5.00114068 9.60646388,5.03365019 L9.60646388,5.03365019 Z M6.83155894,3.9904943 C6.89334601,3.95798479 6.91711027,3.87186312 6.88365019,3.8081749 C6.85038023,3.74486692 6.76958175,3.72034221 6.70741445,3.75285171 L6.48288973,3.87091255 L6.60589354,4.10760456 L6.83155894,3.9904943 L6.83155894,3.9904943 Z" sketch:type="MSShapeGroup"></path>
        </g>
    </g>
</svg>