<?xml version="1.0" encoding="UTF-8" standalone="no"?>
<svg width="50px" height="51px" viewBox="0 0 50 51" version="1.1" xmlns="http://www.w3.org/2000/svg" xmlns:xlink="http://www.w3.org/1999/xlink" xmlns:sketch="http://www.bohemiancoding.com/sketch/ns">
    <!-- Generator: Sketch 3.3.3 (12072) - http://www.bohemiancoding.com/sketch -->
    <title>stovetop</title>
    <desc>Created with Sketch.</desc>
    <defs></defs>
    <g id="Icons" stroke="none" stroke-width="1" fill="none" fill-rule="evenodd" sketch:type="MSPage">
        <g id="stovetop" sketch:type="MSArtboardGroup" transform="translate(0.000000, 0.431034)" fill="#000000">
            <path d="M36.854058,24.9175619 L36.0049813,24.9175619 L36.0049813,17.2030463 L32.9330322,17.2030463 L33.0138168,16.3543109 L35.6627136,16.3543109 C36.319584,16.3543109 36.854058,16.8886378 36.854058,17.5456495 L36.854058,24.9175619 L36.854058,24.9175619 Z M31.0875612,27.6013885 C31.0861894,27.6161716 31.0600487,27.6397942 31.0452636,27.6397942 L29.686939,27.6397942 L19.7460882,27.6397942 L18.3876112,27.6397942 C18.3728261,27.6397942 18.346914,27.6161716 18.3453898,27.6013885 L17.0071852,13.581633 L32.4256897,13.581633 L31.0875612,27.6013885 L31.0875612,27.6013885 Z M28.8379385,30.1440132 L20.5949363,30.1440132 L20.5949363,28.4886058 L28.8379385,28.4886058 L28.8379385,30.1440132 L28.8379385,30.1440132 Z M31.0452636,30.993282 C31.0678223,30.993282 31.1074525,31.0275728 31.1106534,31.0497475 L32.402445,39.9543063 L17.0308871,39.9543063 L18.3226024,31.0493665 C18.3258796,31.0275728 18.3654335,30.993282 18.3876112,30.993282 L19.7460882,30.993282 L29.686939,30.993282 L31.0452636,30.993282 L31.0452636,30.993282 Z M24.7183046,11.0069274 L29.6390017,12.732669 L19.9180222,12.732669 L24.7183046,11.0069274 L24.7183046,11.0069274 Z M24.3398363,10.1320548 L24.3398363,8.69473684 L25.0931909,8.69473684 L25.0931909,10.1320548 L24.7890292,10.1320548 L24.7147226,10.1059176 L24.64255,10.1320548 L24.3398363,10.1320548 L24.3398363,10.1320548 Z M13.3877299,15.7839406 L16.3538968,15.7839406 L16.7543903,20.3406545 L13.3877299,15.7839406 L13.3877299,15.7839406 Z M35.6627136,15.5049659 L33.0951349,15.5049659 L33.2751474,13.6201149 C33.296944,13.3905952 33.222485,13.1630567 33.0704423,12.9957176 C32.9184758,12.8287595 32.6988331,12.732669 32.4683683,12.732669 L32.2039893,12.732669 L25.942039,10.5364576 L25.942039,8.27044534 C25.942039,8.03604868 25.7519665,7.84584904 25.5175387,7.84584904 L23.9151837,7.84584904 C23.6809083,7.84584904 23.4908358,8.03604868 23.4908358,8.27044534 L23.4908358,10.5461352 L17.4093553,12.732669 L16.9648876,12.732669 C16.7342704,12.732669 16.5147801,12.8287595 16.3628136,12.9957176 C16.2109995,13.1630567 16.1363118,13.3905952 16.1581084,13.6201149 L16.2837819,14.9349766 L12.5460457,14.9349766 C12.3859245,14.9349766 12.2392166,15.0253519 12.167044,15.1684589 C12.0950237,15.3113372 12.1095802,15.4827912 12.2047689,15.6116484 L16.9629823,22.051994 L17.5005047,27.6818576 C17.5434883,28.1341913 17.9335407,28.4886058 18.3876112,28.4886058 L19.7460882,28.4886058 L19.7460882,30.1440132 L18.3876112,30.1440132 C17.9437531,30.1440132 17.5457746,30.4882928 17.4821377,30.9277485 L16.1812769,39.8978408 C16.147515,40.1299514 16.2132859,40.3615286 16.3616704,40.5332112 C16.5102836,40.7048938 16.7303073,40.8032703 16.9648876,40.8032703 L32.4683683,40.8032703 C32.7030247,40.8032703 32.9226674,40.7048938 33.071433,40.5332112 C33.21997,40.3615286 33.2857409,40.1299514 33.2520552,39.8978408 L31.9508133,30.9277485 C31.8869478,30.4882928 31.4891217,30.1440132 31.0452636,30.1440132 L29.686939,30.1440132 L29.686939,28.4886058 L31.0452636,28.4886058 C31.4997151,28.4886058 31.889539,28.1341913 31.9327511,27.6818576 L32.8519428,18.0520103 L35.1557521,18.0520103 L35.1557521,25.7664497 L37.7030585,25.7664497 L37.7030585,17.5456495 C37.7030585,16.4204541 36.7876774,15.5049659 35.6627136,15.5049659 L35.6627136,15.5049659 L35.6627136,15.5049659 Z" id="Fill-17" sketch:type="MSShapeGroup"></path>
            <path d="M21.918432,38.7977157 C21.9263581,38.7980967 21.9347414,38.7983253 21.9430485,38.7983253 C22.1662731,38.7983253 22.3533733,38.6239756 22.3662531,38.3981136 L22.7031859,32.4816551 C22.716523,32.2476395 22.5375775,32.0473812 22.3033021,32.0338935 C22.0723038,32.0191104 21.8689705,32.1995562 21.8557096,32.4333432 L21.5187006,38.3497254 C21.5052874,38.5835887 21.6841567,38.7844566 21.918432,38.7977157" id="Fill-18" sketch:type="MSShapeGroup"></path>
            <path d="M27.4899788,38.7983253 C27.4983621,38.7983253 27.5066692,38.7979443 27.5145952,38.7977157 C27.7488706,38.7844566 27.9275875,38.5835887 27.9143266,38.3498016 L27.5776987,32.4334194 C27.5642854,32.1995562 27.3626287,32.0191866 27.1297251,32.0339697 C26.8956784,32.0473812 26.7165805,32.2477157 26.7302224,32.4817314 L27.0667741,38.3981136 C27.0795015,38.6239756 27.2667541,38.7983253 27.4899788,38.7983253" id="Fill-19" sketch:type="MSShapeGroup"></path>
            <path d="M22.1947001,26.3799502 C22.2051412,26.3799502 22.2157346,26.3795692 22.2264043,26.3788072 C22.46007,26.3615094 22.6357384,26.158203 22.6185145,25.9241874 L21.8547189,15.5128147 C21.8376474,15.278799 21.6356097,15.1046018 21.4002674,15.1203755 C21.1662206,15.1375971 20.9907046,15.3409035 21.0077761,15.5749191 L21.7718766,25.986368 C21.7881859,26.2097154 21.9742954,26.3799502 22.1947001,26.3799502" id="Fill-20" sketch:type="MSShapeGroup"></path>
            <path d="M27.2068516,26.378731 C27.2172926,26.3797216 27.2278861,26.379874 27.2383271,26.379874 C27.4589605,26.379874 27.6452224,26.2097154 27.6613793,25.9865204 L28.4250987,15.5749191 C28.4420177,15.3410559 28.2666542,15.1375209 28.0328361,15.1205279 C27.7955122,15.1026967 27.5953798,15.2787228 27.5781559,15.5127385 L26.814589,25.9243398 C26.7977461,26.158203 26.9730335,26.3615094 27.2068516,26.378731" id="Fill-21" sketch:type="MSShapeGroup"></path>
        </g>
    </g>
</svg>