<?xml version="1.0" encoding="UTF-8" standalone="no"?>
<svg width="20px" height="20px" viewBox="0 0 20 20" version="1.1" xmlns="http://www.w3.org/2000/svg" xmlns:xlink="http://www.w3.org/1999/xlink" xmlns:sketch="http://www.bohemiancoding.com/sketch/ns">
    <!-- Generator: Sketch 3.3.2 (12043) - http://www.bohemiancoding.com/sketch -->
    <title>thumb</title>
    <desc>Created with Sketch.</desc>
    <defs></defs>
    <g id="Icons" stroke="none" stroke-width="1" fill="none" fill-rule="evenodd" sketch:type="MSPage">
        <g id="thumb" sketch:type="MSArtboardGroup" fill="#636363">
            <path d="M17.5206429,11.606843 C17.4110854,11.7894388 17.3745662,11.8989963 17.3380471,11.9720346 C17.3015279,12.0815921 17.3015279,12.2641879 17.3380471,12.5563412 C17.3745662,13.1771669 17.3380471,13.7249543 17.1919704,14.2362225 C17.1189321,14.4553375 17.0458938,14.6379333 16.9363363,14.8205291 C16.8267788,15.0031249 16.7172213,15.1492015 16.644183,15.258759 C16.5711447,15.3683165 16.4615872,15.4778739 16.3155106,15.6604697 C16.1329148,15.8430655 15.9868382,16.0256613 15.9137998,16.171738 C15.8772807,16.2447763 15.8042424,16.3543338 15.731204,16.5734487 C15.6581657,16.7560445 15.5851274,16.9021212 15.5486082,17.0116787 C15.5120891,17.1212361 15.4025316,17.2673128 15.2929741,17.4499086 C15.1834166,17.6325044 15.0008208,17.8151002 14.818225,17.9611768 C14.6356292,18.1072534 14.3799951,18.2533301 14.0878418,18.3994067 C13.430497,18.7280792 12.5905563,18.8741558 11.6410582,18.8741558 L11.4949815,18.8741558 C9.92465765,18.8741558 8.4273721,18.472445 7.00312487,17.6325044 C6.45533748,17.3038319 4.92153277,17.1577553 2.40171076,17.1577553 L2.07303832,17.1577553 L2.07303832,15.4778739 L2.40171076,15.4778739 L3.8989963,15.4778739 C4.4467837,15.4778739 4.92153277,15.5143931 5.39628185,15.5509123 C5.87103092,15.5874314 6.34578,15.6604697 6.78400992,15.7700272 C7.22223983,15.8795847 7.58743143,16.0256613 7.87958471,16.171738 C9.04819781,16.8290829 10.2533301,17.1942745 11.5315007,17.1942745 C12.2618839,17.2307936 12.8827096,17.1212361 13.3574587,16.9021212 C13.6130928,16.7925637 13.7956886,16.6830062 13.8687269,16.5369296 C13.9417652,16.3908529 14.0513227,16.2447763 14.1608802,15.9891422 C14.2704376,15.6969889 14.3799951,15.4413548 14.5260718,15.2222398 C14.6356292,15.039644 14.818225,14.8205291 15.0738592,14.5283758 C15.1103783,14.4918566 15.1834166,14.4188183 15.256455,14.3092608 C15.3294933,14.1997034 15.4025316,14.1631842 15.4390508,14.126665 C15.4755699,14.0901459 15.5120891,14.0171076 15.5486082,13.9805884 C15.5851274,13.9075501 15.6216466,13.8345118 15.6216466,13.7979926 C15.6946849,13.5058393 15.731204,13.1771669 15.6946849,12.7754561 C15.6581657,12.3372262 15.6581657,11.9355155 15.731204,11.6433622 C15.8042424,11.3146897 15.9137998,11.0225365 16.0233573,10.8399407 C16.2424723,10.4747491 16.3155106,10.1460766 16.3155106,9.89044252 C16.3155106,9.78088504 16.3155106,9.70784672 16.2789914,9.6348084 C16.2789914,9.56177008 16.2424723,9.48873176 16.1694339,9.37917429 C16.0963956,9.26961681 15.9868382,9.19657849 15.8407615,9.16005933 C15.6946849,9.12354017 15.4755699,9.08702101 15.2199358,9.08702101 L13.3574587,9.08702101 C12.5905563,9.08702101 11.9697306,8.86790605 11.4584624,8.46619529 C10.9471941,8.06448454 10.6550408,7.5532163 10.6185217,6.89587143 C10.5454834,6.16548824 10.7645983,5.36206672 11.2393474,4.44908773 C11.4949815,3.97433866 11.604539,3.68218538 11.604539,3.49958958 C11.604539,3.31699378 11.4949815,3.17091714 11.3123857,3.06135966 C11.0202324,2.91528303 10.7645983,2.91528303 10.4359259,3.09787882 C10.2898492,3.17091714 9.99769597,3.46307042 9.55946605,3.9378195 C9.12123613,4.41256857 8.6099679,4.99687513 8.09869966,5.65422 L7.98914218,5.76377748 C7.73350807,6.09244992 7.55091227,6.31156487 7.40483563,6.45764151 C7.25875899,6.60371815 7.07616319,6.85935227 6.82052908,7.11498639 C6.56489496,7.40713966 6.34578,7.62625462 6.1631842,7.77233126 C5.9805884,7.9184079 5.76147345,8.13752286 5.50583933,8.35663782 C5.25020521,8.57575277 4.99457109,8.75834857 4.73893697,8.90442521 C4.48330286,9.05050185 4.22766874,9.16005933 3.93551546,9.30613597 C3.64336218,9.45221261 3.35120891,9.52525092 3.02253647,9.59828924 C2.69386403,9.67132756 2.3651916,9.70784672 2,9.74436588 L2,8.02796538 C2.29215328,7.99144622 2.58430655,7.95492706 2.83994067,7.84536958 C3.09557479,7.77233126 3.35120891,7.66277378 3.57032387,7.5532163 C3.78943882,7.44365882 4.00855378,7.29758219 4.2641879,7.11498639 C4.51982202,6.93239059 4.70241781,6.74979479 4.88501361,6.60371815 C5.03109025,6.45764151 5.25020521,6.23852655 5.50583933,5.98289244 C5.76147345,5.72725832 5.94406924,5.50814336 6.05362672,5.32554756 C6.19970336,5.17947092 6.38229916,4.92383681 6.63793328,4.59516437 L6.74749076,4.44908773 C8.13521882,2.76920639 9.08471697,1.78318908 9.59598521,1.4910358 C9.99769597,1.27192084 10.4359259,1.16236336 10.8741558,1.1258442 C11.3123857,1.1258442 11.7140965,1.23540168 12.1158072,1.41799748 C12.4444797,1.60059328 12.7366329,1.8562274 12.9192287,2.18489983 C13.1018245,2.51357227 13.211382,2.87876387 13.2479012,3.24395546 C13.2479012,3.46307042 13.2479012,3.68218538 13.1748629,3.9378195 C13.1018245,4.19345361 13.0287862,4.37604941 12.9922671,4.52212605 C12.9192287,4.66820269 12.8096713,4.85079849 12.7001138,5.10643261 C12.4079605,5.69073916 12.2618839,6.2020074 12.298403,6.60371815 C12.298403,6.82283311 12.4444797,6.96890975 12.6270755,7.07846723 C12.8461904,7.18802471 13.0653054,7.26106303 13.3574587,7.26106303 L15.2199358,7.26106303 C16.0963956,7.26106303 16.7902597,7.48017798 17.2650087,7.9184079 C17.776277,8.35663782 17.9953919,8.97746353 17.9953919,9.74436588 C18.0319111,10.3651916 17.8493153,10.9494982 17.5206429,11.606843 L17.5206429,11.606843 Z" id="Shape" sketch:type="MSShapeGroup"></path>
        </g>
    </g>
</svg>