<svg xmlns="http://www.w3.org/2000/svg" viewBox="0 0 50 50" enable-background="new 0 0 50 50" width="50" height="50">
    <path style="text-indent:0;text-align:start;line-height:normal;text-transform:none;block-progression:tb;-inkscape-font-specification:Bitstream Vera Sans" d="M 38.5 -0.09375 C 38.20489 -0.085155165 37.893397 -0.06532186 37.59375 -0.03125 C 36.395164 0.10503744 35.155824 0.43314467 33.96875 0.875 C 31.594602 1.7587107 29.405563 3.0944365 28 4.5 C 26.479771 6.0202294 25.735655 7.8734206 25.75 9.78125 C 25.76241 11.43127 26.377127 13.09276 27.28125 14.6875 L 25 17 A 1.0001 1.0001 0 1 0 26.40625 18.40625 L 29.21875 15.59375 A 1.0001 1.0001 0 0 0 29.34375 14.34375 C 28.319938 12.761495 27.760655 11.198421 27.75 9.78125 C 27.739345 8.3640794 28.226479 7.0860206 29.40625 5.90625 C 30.500687 4.8118135 32.561648 3.5412893 34.6875 2.75 C 36.023076 2.252869 37.296932 2.066222 38.46875 2.03125 L 34.6875 5.78125 A 1.0001 1.0001 0 0 0 34.65625 5.84375 C 33.629911 7.0167084 33.583439 8.802189 34.6875 9.90625 L 40 15.21875 A 1.0001 1.0001 0 0 0 40.03125 15.25 C 41.204208 16.276339 42.989689 16.322811 44.09375 15.21875 L 47.875 11.4375 C 47.843969 12.628029 47.656351 13.913909 47.15625 15.25 C 46.365835 17.361705 45.099151 19.400849 44 20.5 C 42.820229 21.679771 41.564521 22.115087 40.15625 22.09375 C 38.747979 22.072413 37.147918 21.520001 35.5 20.53125 A 1.0001 1.0001 0 0 0 34.28125 20.6875 L 32.6875 22.28125 A 1.0054782 1.0054782 0 1 0 34.09375 23.71875 L 35.21875 22.59375 C 36.843011 23.466009 38.47724 24.068784 40.125 24.09375 C 42.016729 24.12241 43.886021 23.426479 45.40625 21.90625 C 46.807099 20.505401 48.146665 18.332045 49.03125 15.96875 C 49.915835 13.605455 50.379227 11.043932 49.65625 8.875 A 1.0001 1.0001 0 0 0 48 8.5 L 42.6875 13.78125 C 42.404903 14.063847 41.828943 14.103393 41.40625 13.78125 C 41.38629 13.76604 41.363 13.76684 41.34375 13.75 L 36.09375 8.5 C 35.797811 8.204061 35.782589 7.5832916 36.15625 7.15625 L 41.40625 1.90625 A 1.0001 1.0001 0 0 0 41.03125 0.25 C 40.23119 -0.024306065 39.385329 -0.1195345 38.5 -0.09375 z M 3.34375 0 A 1.0001 1.0001 0 0 0 2.78125 0.28125 L 0.28125 2.78125 A 1.0001 1.0001 0 0 0 0.125 4 L 4.34375 11.3125 A 1.0001 1.0001 0 0 0 5.34375 11.78125 L 7.53125 11.4375 L 21.09375 25 L 20.59375 25.5 C 19.489689 26.604061 19.489689 28.395939 20.59375 29.5 L 21.28125 30.21875 C 22.076375 31.013875 23.174723 31.013656 24.15625 30.6875 L 25.84375 32.34375 C 25.731928 33.690436 26.124588 35.030838 27.09375 36 L 39.28125 48.21875 C 41.751639 50.689139 45.748361 50.689139 48.21875 48.21875 A 1.0001 1.0001 0 0 0 48.21875 48.1875 C 50.590502 45.69716 50.619444 41.681944 48.21875 39.28125 L 36 27.09375 C 34.991389 26.085139 33.651386 25.772675 32.34375 25.84375 L 30.6875 24.15625 C 31.013656 23.174723 31.013875 22.076375 30.21875 21.28125 L 29.5 20.59375 C 28.947969 20.041719 28.227538 19.75 27.5 19.75 C 26.772462 19.75 26.052031 20.041719 25.5 20.59375 L 25 21.09375 L 11.4375 7.53125 L 11.78125 5.34375 A 1.0001 1.0001 0 0 0 11.3125 4.34375 L 4 0.125 A 1.0001 1.0001 0 0 0 3.4375 0 A 1.0001 1.0001 0 0 0 3.34375 0 z M 3.6875 2.25 L 9.71875 5.71875 L 9.40625 7.75 A 1.0001 1.0001 0 0 0 9.6875 8.59375 L 23.59375 22.5 L 22.5 23.59375 L 8.59375 9.6875 A 1.0001 1.0001 0 0 0 7.75 9.40625 L 5.71875 9.71875 L 2.25 3.6875 L 3.6875 2.25 z M 27.5 21.78125 C 27.72289 21.78125 27.945781 21.85203 28.09375 22 L 28.78125 22.71875 C 29.110861 23.048361 29.10687 23.536777 28.84375 23.84375 A 1.0001 1.0001 0 0 0 28.90625 25.21875 L 31.1875 27.5 A 1.0001 1.0001 0 0 0 32.0625 27.78125 C 32.987021 27.627163 33.955641 27.86189 34.59375 28.5 L 46.78125 40.71875 C 48.374336 42.311836 48.390458 45.06987 46.78125 46.78125 C 45.051639 48.510861 42.448361 48.510861 40.71875 46.78125 L 28.5 34.59375 C 27.835702 33.929452 27.573192 32.988484 27.78125 32.15625 A 1.0001 1.0001 0 0 0 27.5 31.1875 L 25.21875 28.90625 A 1.0001 1.0001 0 0 0 23.84375 28.84375 C 23.536777 29.10687 23.048361 29.110861 22.71875 28.78125 L 22 28.09375 C 21.704061 27.797811 21.704061 27.202189 22 26.90625 L 26.90625 22 C 27.05422 21.85203 27.27711 21.78125 27.5 21.78125 z M 17.6875 24.78125 A 1.0001 1.0001 0 0 0 17.09375 25.09375 L 12.34375 29.84375 C 11.664317 29.71251 10.995339 29.59375 10.3125 29.59375 C 4.6765523 29.59375 0.09375 34.176552 0.09375 39.8125 C 0.09375 45.448448 4.6765523 50 10.3125 50 C 15.948448 50 20.5 45.448448 20.5 39.8125 C 20.5 39.082365 20.335822 38.361171 20.15625 37.65625 L 23.59375 34.21875 A 1.0054782 1.0054782 0 1 0 22.1875 32.78125 L 18.40625 36.59375 A 1.0001 1.0001 0 0 0 18.15625 37.65625 C 18.404944 38.319435 18.5 38.986574 18.5 39.8125 C 18.5 44.376552 14.876552 48 10.3125 48 C 5.7484477 48 2.09375 44.376552 2.09375 39.8125 C 2.09375 35.248448 5.7484477 31.59375 10.3125 31.59375 C 11.029167 31.59375 11.74484 31.694022 12.46875 31.875 A 1.0001 1.0001 0 0 0 13.40625 31.59375 L 18.5 26.5 A 1.0001 1.0001 0 0 0 17.78125 24.78125 A 1.0001 1.0001 0 0 0 17.6875 24.78125 z M 31.71875 30.28125 L 30.28125 31.71875 L 42.28125 43.71875 L 43.71875 42.28125 L 31.71875 30.28125 z M 11.375 34 A 1.0001 1.0001 0 0 0 11.21875 34.03125 L 6.53125 35.34375 A 1.0001 1.0001 0 0 0 5.84375 36.03125 L 4.53125 40.71875 A 1.0001 1.0001 0 0 0 4.78125 41.71875 L 8.28125 45.21875 A 1.0001 1.0001 0 0 0 9.25 45.46875 L 14.0625 44.15625 A 1.0001 1.0001 0 0 0 14.78125 43.4375 L 15.96875 38.75 A 1.0001 1.0001 0 0 0 15.71875 37.78125 L 12.21875 34.28125 A 1.0001 1.0001 0 0 0 11.375 34 z M 11.1875 36.125 L 13.875 38.8125 L 12.96875 42.40625 L 9.3125 43.375 L 6.625 40.6875 L 7.59375 37.09375 L 11.1875 36.125 z" color="#000" overflow="visible" enable-background="accumulate" font-family="Bitstream Vera Sans"/>
</svg>