<?xml version="1.0" encoding="UTF-8"?>
<svg width="43px" height="15px" viewBox="0 0 43 15" version="1.1" xmlns="http://www.w3.org/2000/svg" xmlns:xlink="http://www.w3.org/1999/xlink">
    <!-- Generator: Sketch 46.2 (44496) - http://www.bohemiancoding.com/sketch -->
    <title>Visa</title>
    <desc>Created with Sketch.</desc>
    <defs></defs>
    <g id="Symbols" stroke="none" stroke-width="1" fill="none" fill-rule="evenodd" opacity="0.75">
        <g id="Trust-Symbol" fill-rule="nonzero" fill="#000000">
            <g id="Visa">
                <path d="M21.0869391,1.06885017 L18.2207532,14.3698177 L14.7403846,14.3698177 L17.6065705,1.06885017 L21.0869391,1.06885017 L21.0869391,1.06885017 Z M35.5202324,9.66332152 L37.3627804,4.6498799 L38.3864183,9.66332152 L35.5202324,9.66332152 Z M39.4100561,14.3698177 L42.5833333,14.3698177 L39.8195112,1.06885017 L36.8509615,1.06885017 C36.2367788,1.06885017 35.6225962,1.47811071 35.4178686,2.09200152 L30.2996795,14.3698177 L33.8824119,14.3698177 L34.5989583,12.4258302 L39.000601,12.4258302 L39.4100561,14.3698177 L39.4100561,14.3698177 Z M30.4020433,9.97026693 C30.4020433,6.49155233 25.5909455,6.28692206 25.5909455,4.75219503 C25.6933093,4.03598909 26.307492,3.62672855 27.0240385,3.62672855 C28.1500401,3.52441341 29.3784054,3.72904368 30.4020433,4.24061936 L31.016226,1.37579557 C29.9925881,0.966535032 28.8665865,0.761904762 27.8429487,0.761904762 C24.4649439,0.761904762 22.0082131,2.6035772 22.0082131,5.16145558 C22.0082131,7.10544314 23.7483974,8.1285945 24.9767628,8.74248531 C26.307492,9.35637612 26.8193109,9.76563666 26.7169471,10.3795275 C26.7169471,11.3003637 25.6933093,11.7096242 24.6696715,11.7096242 C23.4413061,11.7096242 22.2129407,11.4026788 21.0869391,10.8911031 L20.4727564,13.7559269 C21.7011218,14.2675026 23.031851,14.4721329 24.2602163,14.4721329 C28.0476763,14.574448 30.4020433,12.7327756 30.4020433,9.97026693 L30.4020433,9.97026693 Z M16.1734776,1.06885017 L10.6458333,14.3698177 L6.96073718,14.3698177 L4.19691506,3.72904368 C4.19691506,3.21746801 3.78745994,2.80820747 3.37800481,2.6035772 C2.35436699,2.09200152 1.22836538,1.68274098 0,1.47811071 L0.102363782,1.06885017 L5.93709936,1.06885017 C6.75600962,1.06885017 7.37019231,1.68274098 7.47255609,2.39894693 L8.90564904,10.0725821 L12.5907452,1.06885017 L16.1734776,1.06885017 Z"></path>
            </g>
        </g>
    </g>
</svg>