<?xml version="1.0" encoding="UTF-8" standalone="no"?>
<svg width="20px" height="20px" viewBox="0 0 20 20" version="1.1" xmlns="http://www.w3.org/2000/svg" xmlns:xlink="http://www.w3.org/1999/xlink" xmlns:sketch="http://www.bohemiancoding.com/sketch/ns">
    <!-- Generator: Sketch 3.4 (15575) - http://www.bohemiancoding.com/sketch -->
    <title>voucher</title>
    <desc>Created with Sketch.</desc>
    <defs></defs>
    <g id="Icons" stroke="none" stroke-width="1" fill="none" fill-rule="evenodd" sketch:type="MSPage">
        <g id="voucher" sketch:type="MSArtboardGroup" fill="#000000">
            <g id="Group" sketch:type="MSLayerGroup">
                <path d="M14.06743,4.63624575 C14.2575043,4.4436372 14.4719308,4.35416667 14.7460938,4.35416667 C15.0202567,4.35416667 15.2346832,4.4436372 15.4247575,4.63624575 C15.6148317,4.82885431 15.703125,5.04613988 15.703125,5.32395833 C15.703125,5.60177678 15.6148317,5.81906236 15.4247575,6.01167091 C15.2346832,6.20427947 15.0202567,6.29375 14.7460938,6.29375 C14.4719308,6.29375 14.2575043,6.20427947 14.06743,6.01167091 C13.8773558,5.81906236 13.7890625,5.60177678 13.7890625,5.32395833 C13.7890625,5.04613988 13.8773558,4.82885431 14.06743,4.63624575 L14.06743,4.63624575 Z M13.1835465,3.74057716 C12.7583833,4.17140922 12.5390625,4.71114733 12.5390625,5.32395833 C12.5390625,5.93676934 12.7583833,6.47650744 13.1835465,6.9073395 C13.6087098,7.33817156 14.1413461,7.56041667 14.7460938,7.56041667 C15.3508414,7.56041667 15.8834777,7.33817156 16.308641,6.9073395 C16.7338042,6.47650744 16.953125,5.93676934 16.953125,5.32395833 C16.953125,4.71114733 16.7338042,4.17140922 16.308641,3.74057716 C15.8834777,3.3097451 15.3508414,3.0875 14.7460938,3.0875 C14.1413461,3.0875 13.6087098,3.3097451 13.1835465,3.74057716 L13.1835465,3.74057716 Z" id="Shape" sketch:type="MSShapeGroup"></path>
                <path d="M6.06694174,11.214501 L11.0669417,6.14783429 C11.3110194,5.90050224 11.3110194,5.49949776 11.0669417,5.25216571 C10.8228641,5.00483365 10.4271359,5.00483365 10.1830583,5.25216571 L5.18305826,10.3188324 C4.93898058,10.5661644 4.93898058,10.9671689 5.18305826,11.214501 C5.42713594,11.461833 5.82286406,11.461833 6.06694174,11.214501 L6.06694174,11.214501 Z" id="Shape" sketch:type="MSShapeGroup"></path>
                <path d="M9.81694174,15.014501 L14.8169417,9.94783429 C15.0610194,9.70050224 15.0610194,9.29949776 14.8169417,9.05216571 C14.5728641,8.80483365 14.1771359,8.80483365 13.9330583,9.05216571 L8.93305826,14.1188324 C8.68898058,14.3661644 8.68898058,14.7671689 8.93305826,15.014501 C9.17713594,15.261833 9.57286406,15.261833 9.81694174,15.014501 L9.81694174,15.014501 Z" id="Shape" sketch:type="MSShapeGroup"></path>
                <path d="M10.5515247,18.8086 L19.2197376,10.0359437 C19.3483654,9.90576609 19.4146854,9.72528815 19.4014066,9.54156445 L18.8301176,1.63726758 C18.8072231,1.32050195 18.5563316,1.0699094 18.243436,1.05128509 L10.5749789,0.594839776 C10.3969185,0.584241184 10.2228729,0.651240054 10.0966683,0.77896551 L1.4174691,9.56275457 C1.17301243,9.8101571 1.17301895,10.2116106 1.41748365,10.4590049 L9.66821607,18.8086143 C9.91223177,19.0555543 10.3075168,19.0555479 10.5515247,18.8086 L10.5515247,18.8086 Z M9.66820187,17.9123636 L10.5515105,17.9123492 L2.30077807,9.56273984 L2.30079262,10.4589902 L10.9799918,1.67520116 L10.5016812,1.85932689 L18.1701382,2.3157722 L17.5834567,1.72978972 L18.1547457,9.63408659 L18.3364148,9.13970734 L9.66820187,17.9123636 L9.66820187,17.9123636 Z" id="Shape" sketch:type="MSShapeGroup"></path>
            </g>
        </g>
    </g>
</svg>