<?xml version="1.0" encoding="UTF-8" standalone="no"?>
<svg width="50px" height="50px" viewBox="0 0 50 50" version="1.1" xmlns="http://www.w3.org/2000/svg" xmlns:xlink="http://www.w3.org/1999/xlink" xmlns:sketch="http://www.bohemiancoding.com/sketch/ns">
    <!-- Generator: Sketch 3.3.3 (12072) - http://www.bohemiancoding.com/sketch -->
    <title>wholebean</title>
    <desc>Created with Sketch.</desc>
    <defs></defs>
    <g id="Icons" stroke="none" stroke-width="1" fill="none" fill-rule="evenodd" sketch:type="MSPage">
        <g id="wholebean" sketch:type="MSArtboardGroup" fill="#000000">
            <path d="M34.4027899,24.2441053 C34.4027899,31.2261946 29.9988375,36.8502796 24.6249791,36.8502796 C19.2511206,36.8502796 14.8471682,31.2261946 14.8471682,24.2441053 C14.8471682,17.2618926 19.2510682,11.637931 24.6249791,11.637931 C29.9988899,11.637931 34.4027899,17.2618926 34.4027899,24.2441053 L34.4027899,24.2441053 Z M35.2648588,24.2441053 C35.2648588,16.8256011 30.5275495,10.7758621 24.6249791,10.7758621 C18.7224086,10.7758621 13.9850993,16.8256011 13.9850993,24.2441053 C13.9850993,31.6624848 18.7224587,37.7123486 24.6249791,37.7123486 C30.5274994,37.7123486 35.2648588,31.6624848 35.2648588,24.2441053 L35.2648588,24.2441053 Z" id="Shape" sketch:type="MSShapeGroup"></path>
            <path d="M23.4904955,11.4716834 C23.408329,11.6682355 23.2703297,12.0856702 23.1368501,12.6088067 C22.926089,13.4348268 22.7630648,14.3732837 22.6753273,15.4093043 C22.4284295,18.3247203 22.8108472,21.4694369 24.0407302,24.7307791 C25.4923644,28.5797135 25.2081717,32.1158233 23.8580808,35.165046 C23.6101137,35.7250874 23.3448821,36.2191884 23.0805098,36.6419597 C22.9887905,36.7886327 22.9040701,36.9155192 22.8286288,37.0219486 C22.7848039,37.0837749 22.7547997,37.1238425 22.7409022,37.1414849 L23.4180974,37.6749355 C23.5007319,37.5700342 23.637971,37.3764231 23.8114339,37.0990296 C24.0967696,36.6427345 24.381246,36.1127824 24.6463397,35.5140599 C26.0824573,32.2705435 26.3851665,28.5040383 24.8473441,24.4265802 C23.664682,21.290456 23.2978722,18.2740874 23.5343214,15.48205 C23.6179231,14.4948663 23.7728251,13.6031653 23.9721573,12.8219374 C24.0954941,12.3385529 24.220321,11.9609634 24.2858633,11.8041787 L23.4904955,11.4716834 L23.4904955,11.4716834 Z" id="Shape" sketch:type="MSShapeGroup"></path>
            <path d="M23.975918,11.5905536 C23.9491964,11.83219 23.926469,12.19022 23.9209992,12.6800116 C23.912504,13.4406998 23.9510803,14.3110069 24.0514111,15.2840261 C24.3308655,17.9942044 25.0331211,21.0256932 26.27527,24.3192116 C27.6695082,28.0163043 27.1062663,31.5155832 25.3138354,34.635661 C24.9340756,35.2967075 24.5273102,35.8849395 24.1213051,36.3923394 C23.9799635,36.5689794 23.8491763,36.7225505 23.7324356,36.8520701 C23.663955,36.9280469 23.6164633,36.9780725 23.593458,37.0011756 L24.2043267,37.6094539 C24.2372181,37.5764224 24.2945327,37.5160498 24.3727808,37.4292364 C24.500588,37.2874389 24.642297,37.1210434 24.7944128,36.9309385 C25.2268575,36.390496 25.658542,35.7662279 26.0613354,35.0650869 C27.9721577,31.7389257 28.5771795,27.9800787 27.0818831,24.0150108 C25.8663469,20.792055 25.1808926,17.8330943 24.9089334,15.1956045 C24.8120064,14.2555953 24.7748802,13.4180037 24.7830144,12.6896383 C24.7881573,12.2291207 24.8090871,11.8994095 24.8327636,11.6853085 L23.975918,11.5905536 L23.975918,11.5905536 Z" id="Shape" sketch:type="MSShapeGroup"></path>
        </g>
    </g>
</svg>